<svg width="48" height="48" viewBox="0 0 48 48" fill="none" xmlns="http://www.w3.org/2000/svg">
<g filter="url(#filter0_d_25_1592)">
<rect x="8" y="4" width="32" height="32" rx="12" fill="#1A1A1A"/>
<path d="M22.7513 14.7068C22.522 15.6854 22.4909 16.7 22.6595 17.6908C22.8282 18.6817 23.1933 19.6288 23.7335 20.4764C24.2736 21.3241 24.9778 22.0551 25.8046 22.6266C26.6314 23.1981 27.5642 23.5984 28.548 23.8041C28.0307 24.3392 27.4112 24.765 26.7263 25.0561C26.0413 25.3472 25.3048 25.4977 24.5606 25.4987C24.4913 25.4987 24.4215 25.5013 24.3517 25.4987C23.056 25.4529 21.8173 24.9547 20.8507 24.0906C19.8842 23.2265 19.2508 22.0512 19.0606 20.7687C18.8704 19.4863 19.1355 18.1777 19.8097 17.0703C20.4839 15.9629 21.5247 15.1267 22.7513 14.7068ZM23.49 13.5C23.4607 13.5 23.4315 13.5027 23.4027 13.5078C21.8106 13.7906 20.3794 14.6525 19.3849 15.9275C18.3903 17.2025 17.9027 18.8005 18.016 20.4135C18.1293 22.0266 18.8354 23.5407 19.9984 24.6642C21.1614 25.7877 22.699 26.4412 24.315 26.4986C24.3971 26.5016 24.4791 26.4986 24.5605 26.4986C25.6099 26.4992 26.644 26.2471 27.5754 25.7636C28.5068 25.2801 29.308 24.5794 29.9115 23.7208C29.9604 23.6469 29.9889 23.5613 29.9943 23.4728C29.9996 23.3842 29.9815 23.2958 29.9418 23.2165C29.902 23.1372 29.8421 23.0698 29.7681 23.021C29.694 22.9722 29.6084 22.9438 29.5198 22.9387C28.5209 22.851 27.5555 22.5349 26.6983 22.0146C25.8411 21.4944 25.1149 20.784 24.576 19.9384C24.0372 19.0927 23.6999 18.1345 23.5904 17.1378C23.481 16.141 23.6021 15.1324 23.9446 14.19C23.9737 14.1146 23.9844 14.0333 23.9758 13.9529C23.9672 13.8726 23.9395 13.7954 23.895 13.7279C23.8505 13.6604 23.7906 13.6045 23.7201 13.5649C23.6497 13.5252 23.5708 13.503 23.49 13.5Z" fill="white"/>
</g>
<defs>
<filter id="filter0_d_25_1592" x="0" y="0" width="48" height="48" filterUnits="userSpaceOnUse" color-interpolation-filters="sRGB">
<feFlood flood-opacity="0" result="BackgroundImageFix"/>
<feColorMatrix in="SourceAlpha" type="matrix" values="0 0 0 0 0 0 0 0 0 0 0 0 0 0 0 0 0 0 127 0" result="hardAlpha"/>
<feOffset dy="4"/>
<feGaussianBlur stdDeviation="4"/>
<feComposite in2="hardAlpha" operator="out"/>
<feColorMatrix type="matrix" values="0 0 0 0 0 0 0 0 0 0 0 0 0 0 0 0 0 0 0.04 0"/>
<feBlend mode="normal" in2="BackgroundImageFix" result="effect1_dropShadow_25_1592"/>
<feBlend mode="normal" in="SourceGraphic" in2="effect1_dropShadow_25_1592" result="shape"/>
</filter>
</defs>
</svg>
