<svg width="48" height="48" viewBox="0 0 48 48" fill="none" xmlns="http://www.w3.org/2000/svg">
<g filter="url(#filter0_d_25_1628)">
<rect x="8" y="4" width="32" height="32" rx="12" fill="white"/>
<rect width="16" height="16" transform="translate(16 12)" fill="white" style="mix-blend-mode:multiply"/>
<path d="M20 19H25.5V20H20V19ZM20 21.5H26.5V22.5H20V21.5Z" fill="#FA4D56"/>
<path d="M30 14H18C17.7348 14 17.4804 14.1054 17.2929 14.2929C17.1054 14.4804 17 14.7348 17 15V25C17 25.2652 17.1054 25.5196 17.2929 25.7071C17.4804 25.8946 17.7348 26 18 26H30C30.2652 26 30.5196 25.8946 30.7071 25.7071C30.8946 25.5196 31 25.2652 31 25V15C31 14.7348 30.8946 14.4804 30.7071 14.2929C30.5196 14.1054 30.2652 14 30 14ZM30 15V16H18V15H30ZM18 25V17H30V25H18Z" fill="#FA4D56"/>
</g>
<defs>
<filter id="filter0_d_25_1628" x="0" y="0" width="48" height="48" filterUnits="userSpaceOnUse" color-interpolation-filters="sRGB">
<feFlood flood-opacity="0" result="BackgroundImageFix"/>
<feColorMatrix in="SourceAlpha" type="matrix" values="0 0 0 0 0 0 0 0 0 0 0 0 0 0 0 0 0 0 127 0" result="hardAlpha"/>
<feOffset dy="4"/>
<feGaussianBlur stdDeviation="4"/>
<feComposite in2="hardAlpha" operator="out"/>
<feColorMatrix type="matrix" values="0 0 0 0 0 0 0 0 0 0 0 0 0 0 0 0 0 0 0.04 0"/>
<feBlend mode="normal" in2="BackgroundImageFix" result="effect1_dropShadow_25_1628"/>
<feBlend mode="normal" in="SourceGraphic" in2="effect1_dropShadow_25_1628" result="shape"/>
</filter>
</defs>
</svg>
