<svg width="372" height="276" viewBox="0 0 372 276" fill="none" xmlns="http://www.w3.org/2000/svg">
<path d="M336.525 257.122H311.751V257.309H336.525V257.122Z" fill="#EBEBEB"/>
<path d="M247.753 259.158H241.252V259.345H247.753V259.158Z" fill="#EBEBEB"/>
<path d="M311.003 250.175H296.649V250.362H311.003V250.175Z" fill="#EBEBEB"/>
<path d="M71.5462 251.433H39.2401V251.62H71.5462V251.433Z" fill="#EBEBEB"/>
<path d="M82.9458 251.433H78.2109V251.62H82.9458V251.433Z" fill="#EBEBEB"/>
<path d="M168.412 254.591H98.3396V254.778H168.412V254.591Z" fill="#EBEBEB"/>
<path d="M177.276 211.692H32.8521C31.7194 211.692 30.633 211.241 29.832 210.44C29.031 209.638 28.5811 208.551 28.5811 207.417V4.23683C28.5909 3.10972 29.0453 2.03214 29.8452 1.23864C30.6451 0.445138 31.7258 -4.32111e-05 32.8521 3.14584e-09H177.276C178.409 3.14585e-09 179.495 0.450322 180.296 1.2519C181.097 2.05348 181.547 3.14065 181.547 4.27425V207.417C181.547 208.551 181.097 209.638 180.296 210.44C179.495 211.241 178.409 211.692 177.276 211.692ZM32.8521 0.149712C31.7696 0.15169 30.7319 0.582931 29.9664 1.34898C29.201 2.11504 28.77 3.15346 28.7681 4.23683V207.417C28.77 208.501 29.201 209.539 29.9664 210.305C30.7319 211.071 31.7696 211.502 32.8521 211.504H177.276C178.359 211.502 179.396 211.071 180.162 210.305C180.927 209.539 181.358 208.501 181.36 207.417V4.23683C181.358 3.15346 180.927 2.11504 180.162 1.34898C179.396 0.582931 178.359 0.15169 177.276 0.149712H32.8521Z" fill="#EBEBEB"/>
<path d="M339.076 211.692H194.637C193.505 211.69 192.42 211.239 191.619 210.438C190.818 209.636 190.368 208.55 190.366 207.417V4.23683C190.378 3.11033 190.833 2.03388 191.632 1.2408C192.432 0.447718 193.511 0.00190754 194.637 0H339.076C340.199 0.00389586 341.276 0.450817 342.073 1.2439C342.87 2.03698 343.322 3.11231 343.332 4.23683V207.417C343.332 208.548 342.884 209.633 342.086 210.434C341.288 211.236 340.206 211.688 339.076 211.692ZM194.637 0.149712C193.554 0.15169 192.517 0.582931 191.751 1.34898C190.986 2.11504 190.555 3.15346 190.553 4.23683V207.417C190.555 208.501 190.986 209.539 191.751 210.305C192.517 211.071 193.554 211.502 194.637 211.504H339.076C340.158 211.502 341.196 211.071 341.961 210.305C342.727 209.539 343.158 208.501 343.16 207.417V4.23683C343.158 3.15346 342.727 2.11504 341.961 1.34898C341.196 0.582931 340.158 0.15169 339.076 0.149712H194.637Z" fill="#EBEBEB"/>
<path d="M374 245.077H0V245.264H374V245.077Z" fill="#EBEBEB"/>
<path d="M308.812 177.977C300.322 184.527 297.868 198.869 297.442 208.974C297.442 209.895 295.946 209.903 296.006 208.974C296.455 198.27 298.893 183.83 308.086 176.734C308.834 176.173 309.53 177.415 308.834 177.977H308.812Z" fill="#F5F5F5"/>
<path d="M289.102 170.671C291.271 170.424 293.089 172.64 294.031 174.264C298.916 182.715 297.023 195.463 296.103 204.536C296.006 205.441 294.57 205.456 294.667 204.536C295.565 195.71 297.203 184.212 293.216 175.828C292.535 174.391 291.077 171.884 289.102 172.086C288.189 172.19 288.197 170.753 289.102 170.648V170.671Z" fill="#E6E6E6"/>
<path d="M283.844 182.251C292.924 180.005 294.061 200.156 294.316 204.505C294.375 205.426 292.939 205.426 292.879 204.505C292.52 198.622 292.229 190.2 287.98 185.484C287.12 184.526 285.631 183.291 284.24 183.636C284.078 183.633 283.922 183.578 283.794 183.479C283.667 183.38 283.574 183.242 283.531 183.086C283.488 182.93 283.497 182.764 283.556 182.614C283.615 182.463 283.721 182.336 283.859 182.251H283.844Z" fill="#E6E6E6"/>
<path d="M310.757 192.027C303.277 186.465 300.808 201.084 300.389 205.299C300.3 206.212 298.893 206.22 298.953 205.299C299.425 200.516 300.15 191.825 305.685 189.849C306.659 189.531 307.694 189.45 308.704 189.613C309.715 189.776 310.673 190.177 311.497 190.784C312.245 191.331 311.497 192.581 310.749 192.027H310.757Z" fill="#E6E6E6"/>
<path d="M280.896 194.669C281.466 194.066 282.168 193.604 282.947 193.321C283.726 193.038 284.561 192.94 285.384 193.037C289.962 193.786 291.234 200.725 291.929 204.311C292.102 205.216 290.718 205.598 290.546 204.692C289.947 201.593 287.06 190.47 281.929 195.71C281.787 195.784 281.626 195.811 281.469 195.787C281.311 195.763 281.165 195.689 281.052 195.576C280.94 195.463 280.866 195.317 280.842 195.16C280.818 195.002 280.845 194.841 280.919 194.699L280.896 194.669Z" fill="#F5F5F5"/>
<path d="M307.937 241.784H286.245C284.287 240.128 282.715 238.064 281.639 235.737C280.563 233.409 280.008 230.874 280.014 228.31C280.014 222.149 283.477 203.66 283.477 203.66H310.742C310.742 203.66 314.16 222.179 314.16 228.31C314.167 230.874 313.613 233.408 312.538 235.736C311.463 238.063 309.892 240.127 307.937 241.784Z" fill="#EBEBEB"/>
<path d="M311.393 199.116C304.84 199.116 298.43 196.458 297.076 193.187C295.722 189.916 299.933 187.251 306.478 187.251C308.591 187.253 310.694 187.523 312.739 188.052C314.553 187.492 316.444 187.222 318.342 187.251C324.887 187.251 331.297 189.909 332.651 193.187C334.005 196.466 329.801 199.116 323.248 199.116H311.393Z" fill="#F5F5F5"/>
<path d="M268.659 186.39C263.304 186.39 261.127 184.22 263.812 181.54C266.498 178.86 272.998 176.689 278.361 176.689C279.788 176.643 281.211 176.864 282.557 177.34C284.361 176.925 286.204 176.707 288.055 176.689C293.418 176.689 295.587 178.86 292.909 181.54C290.232 184.22 283.717 186.39 278.361 186.39H268.659Z" fill="#F0F0F0"/>
<path d="M317.9 181.562C311.168 181.562 302.94 178.83 299.589 175.454C296.238 172.078 298.953 169.346 305.693 169.346C308.025 169.369 310.347 169.647 312.619 170.177C314.311 169.568 316.103 169.286 317.9 169.346C324.632 169.346 332.86 172.085 336.203 175.454C339.547 178.822 336.839 181.562 330.1 181.562H317.9Z" fill="#EBEBEB"/>
<path d="M280.455 173.665C277.089 173.665 274.92 172.295 275.616 170.611C276.311 168.927 279.617 167.557 282.983 167.557C283.959 167.541 284.931 167.68 285.863 167.969C286.916 167.696 287.999 167.558 289.087 167.557C292.453 167.557 294.622 168.919 293.927 170.611C293.231 172.303 289.932 173.665 286.559 173.665H280.455Z" fill="#F0F0F0"/>
<path d="M276.573 198.105C273.199 198.105 269.901 196.736 269.205 195.051C268.509 193.367 270.701 191.997 274.045 191.997C275.13 192.002 276.21 192.14 277.261 192.409C278.197 192.125 279.171 191.986 280.148 191.997C283.514 191.997 286.813 193.367 287.509 195.051C288.204 196.736 286.013 198.105 282.669 198.105H276.573Z" fill="#EBEBEB"/>
<path d="M282.827 207.11C283.193 205.037 283.447 203.689 283.447 203.689H310.712C310.712 203.689 310.959 205.037 311.325 207.11H282.827Z" fill="#F5F5F5"/>
<path d="M281.637 178.545C281.637 178.545 274.157 181.038 271.793 185.155C271.793 185.155 272.167 179.167 281.637 178.545Z" fill="#FAFAFA"/>
<path d="M285.16 168.754C283.956 169.451 282.893 170.368 282.026 171.457C282.233 170.752 282.639 170.123 283.195 169.643C283.751 169.164 284.433 168.855 285.16 168.754Z" fill="#FAFAFA"/>
<path d="M314.16 171.457C314.16 171.457 322.268 174.451 327.258 180.042C327.265 180.042 323.398 172.235 314.16 171.457Z" fill="#FAFAFA"/>
<path d="M314.16 189.52C317.53 190.919 320.462 193.2 322.65 196.122C322.65 196.122 321.154 190.515 314.16 189.52Z" fill="#E6E6E6"/>
<path d="M277.396 193.636C277.997 193.952 278.507 194.416 278.877 194.985C279.248 195.553 279.467 196.208 279.513 196.885C278.523 196.017 277.79 194.893 277.396 193.636Z" fill="#FAFAFA"/>
<path d="M329.531 87.6483V84.1899H230.571V87.6483H329.531Z" fill="#F5F5F5"/>
<path d="M256.945 87.6558H240.392V95.4183H248.673C248.672 94.9511 248.763 94.4883 248.941 94.0564C249.119 93.6246 249.381 93.2322 249.711 92.9019C250.041 92.5715 250.433 92.3096 250.865 92.1313C251.296 91.953 251.759 91.8617 252.226 91.8626H256.945V87.6558Z" fill="#E0E0E0"/>
<path d="M249.466 87.6558H237.4V95.4183H241.193C241.192 94.9511 241.283 94.4883 241.461 94.0564C241.639 93.6246 241.901 93.2322 242.231 92.9019C242.561 92.5715 242.953 92.3096 243.385 92.1313C243.816 91.953 244.279 91.8617 244.746 91.8626H249.466V87.6558Z" fill="#F5F5F5"/>
<path d="M303.157 87.6558H319.718V95.4183H311.437C311.437 94.4753 311.063 93.5709 310.397 92.9041C309.73 92.2372 308.827 91.8626 307.884 91.8626H303.157V87.6558Z" fill="#EBEBEB"/>
<path d="M310.637 87.6558H322.71V95.4183H318.917C318.917 94.4753 318.543 93.5709 317.877 92.9041C317.21 92.2372 316.307 91.8626 315.364 91.8626H310.637V87.6558Z" fill="#F5F5F5"/>
<path d="M291.892 84.5267H300.509C301.286 83.8716 301.91 83.0544 302.337 82.1324C302.765 81.2104 302.986 80.206 302.985 79.1895C302.985 76.7492 301.608 62.2197 301.608 62.2197H290.792C290.792 62.2197 289.416 76.7492 289.416 79.1895C289.415 80.206 289.636 81.2104 290.063 82.1324C290.491 83.0544 291.115 83.8716 291.892 84.5267Z" fill="#EBEBEB"/>
<path d="M297.375 74.9453C297.337 75.634 297.315 76.1879 297.315 76.5622C297.314 78.079 297.644 79.5777 298.282 80.9534C298.921 82.3291 299.852 83.5487 301.01 84.5268H313.876C315.034 83.5487 315.965 82.3291 316.603 80.9534C317.242 79.5777 317.572 78.079 317.571 76.5622C317.571 76.1879 317.571 75.634 317.511 74.9453H297.375Z" fill="#F5F5F5"/>
<path d="M291.877 75.0426C291.873 74.6023 291.699 74.1805 291.391 73.8663C291.082 73.5521 290.664 73.37 290.224 73.3584H280.111C279.667 73.3584 279.24 73.5335 278.924 73.8459C278.607 74.1583 278.426 74.5829 278.421 75.0277V75.1474C278.057 75.0326 277.679 74.9721 277.299 74.9678C275.645 74.9678 274.538 76.2553 274.538 78.1791C274.538 80.1029 276.468 81.3904 278.196 81.3904C278.372 81.3882 278.547 81.3706 278.72 81.338C279.118 82.5735 279.854 83.6728 280.844 84.5119H289.476C290.253 83.8568 290.877 83.0396 291.304 82.1176C291.732 81.1956 291.953 80.1912 291.952 79.1747C291.929 78.5234 291.907 76.9664 291.877 75.0426ZM278.189 80.3275C277.022 80.3275 275.608 79.3768 275.608 78.1941C275.608 77.6925 275.728 76.0532 277.291 76.0532C277.674 76.0616 278.05 76.1482 278.398 76.3077C278.398 77.6327 278.361 78.6806 278.361 79.1896C278.365 79.5662 278.4 79.9417 278.465 80.3125L278.189 80.3275Z" fill="#E0E0E0"/>
<path d="M163.625 56.3062H114.145V164.824H163.625V56.3062Z" fill="#EBEBEB"/>
<path d="M114.145 56.3062H64.6646V164.824H114.145V56.3062Z" fill="#EBEBEB"/>
<path d="M141.32 234.028H157.873V241.783H149.6C149.6 240.84 149.226 239.936 148.56 239.269C147.893 238.602 146.99 238.228 146.047 238.228H141.32V234.028Z" fill="#E0E0E0"/>
<path d="M86.9776 234.028H70.4169V241.783H78.6972C78.6972 240.84 79.0716 239.936 79.7379 239.269C80.4042 238.602 81.3079 238.228 82.2502 238.228H86.9776V234.028Z" fill="#E0E0E0"/>
<path d="M163.625 164.817H64.6646V199.003H163.625V164.817Z" fill="#EBEBEB"/>
<path d="M163.625 199.003H64.6646V233.19H163.625V199.003Z" fill="#EBEBEB"/>
<path d="M163.625 170.072V166.614H64.6646V170.072H163.625Z" fill="#E0E0E0"/>
<path d="M114.152 61.262V57.8037H64.6723V61.262H114.152Z" fill="#E0E0E0"/>
<path d="M163.632 61.262V57.8037H114.152V61.262H163.632Z" fill="#E0E0E0"/>
<path d="M163.625 203.989V200.531H64.6646V203.989H163.625Z" fill="#E0E0E0"/>
<path d="M163.625 54.5771H62.9366V234.68H165.353V54.5771H163.625ZM161.897 166.928V197.342H66.3924V166.928H161.897ZM115.873 163.47V58.0355H161.897V163.485L115.873 163.47ZM112.417 58.0205V163.485H66.3924V58.0355L112.417 58.0205ZM66.3924 231.221V200.815H161.897V231.221H66.3924Z" fill="#F5F5F5"/>
<path d="M79.4974 234.028H62.9366V241.783H71.217C71.217 240.84 71.5913 239.936 72.2577 239.269C72.924 238.602 73.8277 238.228 74.77 238.228H79.4974V234.028Z" fill="#F5F5F5"/>
<path d="M148.8 234.028H165.353V241.783H157.08C157.08 240.84 156.706 239.936 156.039 239.269C155.373 238.602 154.469 238.228 153.527 238.228H148.8V234.028Z" fill="#F5F5F5"/>
<path d="M118.386 184.893C118.386 185.733 118.137 186.553 117.671 187.251C117.205 187.949 116.543 188.493 115.768 188.814C114.993 189.136 114.14 189.22 113.317 189.056C112.495 188.892 111.739 188.488 111.146 187.894C110.553 187.301 110.149 186.545 109.985 185.721C109.822 184.898 109.906 184.045 110.227 183.269C110.548 182.493 111.091 181.831 111.789 181.364C112.486 180.898 113.306 180.649 114.145 180.649C115.27 180.649 116.348 181.096 117.144 181.892C117.939 182.688 118.386 183.768 118.386 184.893Z" fill="#E0E0E0"/>
<path d="M118.386 181.899C118.386 182.739 118.137 183.559 117.671 184.257C117.205 184.955 116.543 185.499 115.768 185.82C114.993 186.142 114.14 186.226 113.317 186.062C112.495 185.898 111.739 185.494 111.146 184.9C110.553 184.307 110.149 183.55 109.985 182.727C109.822 181.904 109.906 181.05 110.227 180.275C110.548 179.499 111.091 178.836 111.789 178.37C112.486 177.904 113.306 177.655 114.145 177.655C115.27 177.655 116.348 178.102 117.144 178.898C117.939 179.694 118.386 180.773 118.386 181.899Z" fill="#F5F5F5"/>
<path d="M118.386 219.087C118.385 219.926 118.135 220.746 117.668 221.443C117.201 222.14 116.538 222.683 115.763 223.003C114.988 223.323 114.135 223.406 113.313 223.242C112.491 223.077 111.736 222.672 111.143 222.078C110.551 221.484 110.148 220.728 109.985 219.905C109.822 219.082 109.906 218.229 110.227 217.454C110.548 216.679 111.092 216.016 111.789 215.55C112.487 215.084 113.306 214.835 114.145 214.835C114.702 214.835 115.255 214.945 115.77 215.159C116.285 215.373 116.753 215.686 117.146 216.081C117.54 216.476 117.853 216.945 118.065 217.461C118.278 217.977 118.387 218.529 118.386 219.087Z" fill="#E0E0E0"/>
<path d="M118.386 216.093C118.385 216.932 118.135 217.752 117.668 218.449C117.201 219.146 116.538 219.689 115.763 220.009C114.988 220.329 114.135 220.412 113.313 220.247C112.491 220.083 111.736 219.678 111.143 219.084C110.551 218.49 110.148 217.734 109.985 216.911C109.822 216.088 109.906 215.235 110.227 214.46C110.548 213.685 111.092 213.022 111.789 212.556C112.487 212.09 113.306 211.841 114.145 211.841C114.702 211.841 115.255 211.951 115.77 212.165C116.285 212.379 116.753 212.692 117.146 213.087C117.54 213.482 117.853 213.951 118.065 214.467C118.278 214.982 118.387 215.535 118.386 216.093Z" fill="#F5F5F5"/>
<path d="M108.542 108.443C108.559 108.154 108.517 107.864 108.418 107.592C108.32 107.32 108.166 107.07 107.968 106.859C107.769 106.648 107.529 106.48 107.264 106.366C106.998 106.251 106.711 106.191 106.422 106.191C106.132 106.191 105.845 106.251 105.58 106.366C105.314 106.48 105.074 106.648 104.876 106.859C104.677 107.07 104.524 107.32 104.425 107.592C104.326 107.864 104.284 108.154 104.301 108.443V115.682C104.333 116.223 104.571 116.731 104.965 117.103C105.359 117.475 105.88 117.682 106.422 117.682C106.963 117.682 107.484 117.475 107.878 117.103C108.273 116.731 108.51 116.223 108.542 115.682V108.443Z" fill="#E0E0E0"/>
<path d="M108.542 105.449C108.559 105.16 108.517 104.87 108.418 104.598C108.32 104.325 108.166 104.076 107.968 103.865C107.769 103.654 107.529 103.486 107.264 103.371C106.998 103.257 106.711 103.197 106.422 103.197C106.132 103.197 105.845 103.257 105.58 103.371C105.314 103.486 105.074 103.654 104.876 103.865C104.677 104.076 104.524 104.325 104.425 104.598C104.326 104.87 104.284 105.16 104.301 105.449V112.688C104.333 113.229 104.571 113.737 104.965 114.109C105.359 114.481 105.88 114.688 106.422 114.688C106.963 114.688 107.484 114.481 107.878 114.109C108.273 113.737 108.51 113.229 108.542 112.688V105.449Z" fill="#F5F5F5"/>
<path d="M124.123 108.443C124.14 108.154 124.098 107.864 123.999 107.592C123.901 107.32 123.747 107.07 123.549 106.859C123.35 106.648 123.11 106.48 122.844 106.366C122.579 106.251 122.292 106.191 122.002 106.191C121.713 106.191 121.426 106.251 121.161 106.366C120.895 106.48 120.655 106.648 120.456 106.859C120.258 107.07 120.104 107.32 120.006 107.592C119.907 107.864 119.865 108.154 119.882 108.443V115.682C119.914 116.223 120.151 116.731 120.546 117.103C120.94 117.475 121.461 117.682 122.002 117.682C122.544 117.682 123.065 117.475 123.459 117.103C123.854 116.731 124.091 116.223 124.123 115.682V108.443Z" fill="#E0E0E0"/>
<path d="M124.123 105.449C124.14 105.16 124.098 104.87 123.999 104.598C123.901 104.325 123.747 104.076 123.549 103.865C123.35 103.654 123.11 103.486 122.844 103.371C122.579 103.257 122.292 103.197 122.002 103.197C121.713 103.197 121.426 103.257 121.161 103.371C120.895 103.486 120.655 103.654 120.456 103.865C120.258 104.076 120.104 104.325 120.006 104.598C119.907 104.87 119.865 105.16 119.882 105.449V112.688C119.914 113.229 120.151 113.737 120.546 114.109C120.94 114.481 121.461 114.688 122.002 114.688C122.544 114.688 123.065 114.481 123.459 114.109C123.854 113.737 124.091 113.229 124.123 112.688V105.449Z" fill="#F5F5F5"/>
<path d="M329.531 119.971V116.513H230.571V119.971H329.531Z" fill="#F5F5F5"/>
<path d="M256.945 119.979H240.392V127.741H248.673C248.672 127.274 248.763 126.811 248.941 126.379C249.119 125.947 249.381 125.555 249.711 125.225C250.041 124.894 250.433 124.632 250.865 124.454C251.296 124.276 251.759 124.184 252.226 124.185H256.945V119.979Z" fill="#E0E0E0"/>
<path d="M249.466 119.979H237.4V127.741H241.193C241.192 127.274 241.283 126.811 241.461 126.379C241.639 125.947 241.901 125.555 242.231 125.225C242.561 124.894 242.953 124.632 243.385 124.454C243.816 124.276 244.279 124.184 244.746 124.185H249.466V119.979Z" fill="#F5F5F5"/>
<path d="M303.157 119.979H319.718V127.741H311.437C311.437 126.798 311.063 125.894 310.397 125.227C309.73 124.56 308.827 124.185 307.884 124.185H303.157V119.979Z" fill="#EBEBEB"/>
<path d="M310.637 119.979H322.71V127.741H318.917C318.917 126.798 318.543 125.894 317.877 125.227C317.21 124.56 316.307 124.185 315.364 124.185H310.637V119.979Z" fill="#F5F5F5"/>
<path d="M283.679 105.898C283.752 103.184 284.88 100.605 286.824 98.7112C288.768 96.8171 291.374 95.7573 294.087 95.7573C296.801 95.7573 299.407 96.8171 301.351 98.7112C303.295 100.605 304.423 103.184 304.496 105.898V116.67H283.679V105.898Z" fill="#F0F0F0"/>
<path d="M301.991 107.756C303.022 103.382 300.315 98.9999 295.945 97.9677C291.574 96.9354 287.195 99.6441 286.164 104.018C285.132 108.391 287.839 112.774 292.209 113.806C296.58 114.838 300.959 112.13 301.991 107.756Z" fill="#FAFAFA"/>
<path d="M294.091 99.0414C296.134 99.0425 298.1 99.8135 299.6 101.201C301.1 102.588 302.023 104.49 302.185 106.527C302.185 106.317 302.222 106.108 302.222 105.891C302.222 103.733 301.365 101.663 299.841 100.137C298.316 98.6112 296.248 97.7539 294.091 97.7539C291.935 97.7539 289.867 98.6112 288.342 100.137C286.817 101.663 285.96 103.733 285.96 105.891C285.96 106.108 285.96 106.317 285.96 106.527C286.123 104.483 287.051 102.576 288.558 101.188C290.066 99.7998 292.042 99.0331 294.091 99.0414Z" fill="#E0E0E0"/>
<path d="M299.2 105.89H294.929V101.616C294.929 101.388 294.838 101.169 294.677 101.008C294.516 100.846 294.297 100.755 294.069 100.755C293.841 100.755 293.622 100.846 293.46 101.008C293.299 101.169 293.209 101.388 293.209 101.616V106.751C293.208 106.865 293.229 106.977 293.272 107.082C293.315 107.187 293.378 107.282 293.458 107.362C293.538 107.442 293.634 107.506 293.738 107.549C293.843 107.592 293.956 107.613 294.069 107.612H299.2C299.428 107.612 299.647 107.521 299.808 107.36C299.97 107.199 300.06 106.98 300.06 106.751C300.06 106.523 299.97 106.304 299.808 106.143C299.647 105.981 299.428 105.89 299.2 105.89Z" fill="#E0E0E0"/>
<path d="M299.2 106.759C299.428 106.759 299.647 106.668 299.808 106.507C299.97 106.345 300.06 106.126 300.06 105.898C300.06 105.67 299.97 105.451 299.808 105.289C299.647 105.128 299.428 105.037 299.2 105.037H294.069C293.841 105.037 293.622 105.128 293.46 105.289C293.299 105.451 293.208 105.67 293.208 105.898C293.208 106.126 293.299 106.345 293.46 106.507C293.622 106.668 293.841 106.759 294.069 106.759H299.2Z" fill="#F5F5F5"/>
<path d="M294.951 100.755C294.951 100.527 294.861 100.308 294.7 100.147C294.538 99.9852 294.319 99.8945 294.091 99.8945C293.863 99.8945 293.644 99.9852 293.483 100.147C293.322 100.308 293.231 100.527 293.231 100.755V105.898C293.231 106.126 293.322 106.345 293.483 106.507C293.644 106.668 293.863 106.759 294.091 106.759C294.319 106.759 294.538 106.668 294.7 106.507C294.861 106.345 294.951 106.126 294.951 105.898V100.755Z" fill="#EBEBEB"/>
<path d="M183.395 276C263.492 276 328.424 272.206 328.424 267.526C328.424 262.847 263.492 259.053 183.395 259.053C103.297 259.053 38.365 262.847 38.365 267.526C38.365 272.206 103.297 276 183.395 276Z" fill="#F5F5F5"/>
<path d="M246.982 245.826H168.674C167.167 245.842 165.674 245.546 164.286 244.957C162.899 244.368 161.648 243.499 160.612 242.405C159.576 241.31 158.776 240.013 158.264 238.595C157.751 237.177 157.537 235.668 157.633 234.164L167.806 39.8834C168.001 36.7482 169.374 33.8029 171.649 31.6394C173.925 29.4759 176.935 28.2546 180.073 28.2209H258.374C259.881 28.2044 261.376 28.4995 262.764 29.0877C264.152 29.676 265.404 30.5447 266.441 31.6395C267.478 32.7343 268.278 34.0316 268.791 35.4501C269.304 36.8687 269.519 38.3779 269.422 39.8834L259.249 234.164C259.053 237.298 257.68 240.242 255.404 242.406C253.129 244.569 250.12 245.791 246.982 245.826Z" fill="#4A90E2"/>
<path d="M257.97 36.0434H179.662C177.673 36.0677 175.766 36.8431 174.323 38.2145C172.881 39.5859 172.009 41.452 171.883 43.4391L162.084 230.578C162.022 231.532 162.158 232.489 162.483 233.389C162.808 234.288 163.315 235.111 163.972 235.805C164.629 236.499 165.423 237.05 166.303 237.424C167.182 237.797 168.13 237.984 169.086 237.974H247.394C249.383 237.949 251.29 237.174 252.733 235.803C254.175 234.431 255.047 232.565 255.173 230.578L264.972 43.4391C265.033 42.4847 264.898 41.5279 264.573 40.6284C264.248 39.729 263.741 38.9064 263.084 38.2121C262.427 37.5178 261.633 36.9668 260.753 36.5936C259.873 36.2205 258.926 36.0331 257.97 36.0434Z" fill="#4A90E2"/>
<path opacity="0.8" d="M257.97 36.0434H179.662C177.673 36.0677 175.766 36.8431 174.323 38.2145C172.881 39.5859 172.009 41.452 171.883 43.4391L162.084 230.578C162.022 231.532 162.158 232.489 162.483 233.389C162.808 234.288 163.315 235.111 163.972 235.805C164.629 236.499 165.423 237.05 166.303 237.424C167.182 237.797 168.13 237.984 169.086 237.974H247.394C249.383 237.95 251.29 237.174 252.733 235.803C254.175 234.431 255.047 232.565 255.173 230.578L264.972 43.4391C265.033 42.4847 264.898 41.5279 264.573 40.6284C264.248 39.729 263.741 38.9064 263.084 38.2121C262.427 37.5178 261.633 36.9668 260.753 36.5936C259.873 36.2205 258.926 36.0331 257.97 36.0434Z" fill="white"/>
<path d="M264.792 28.2209H258.397C259.904 28.2044 261.399 28.4995 262.787 29.0877C264.175 29.676 265.427 30.5447 266.464 31.6395C267.501 32.7343 268.301 34.0316 268.814 35.4501C269.327 36.8687 269.542 38.3779 269.445 39.8834L259.272 234.164C259.078 237.299 257.705 240.244 255.429 242.408C253.153 244.571 250.144 245.792 247.005 245.826H253.4C256.539 245.792 259.549 244.571 261.824 242.408C264.1 240.244 265.473 237.299 265.667 234.164L275.84 39.8834C275.937 38.3779 275.722 36.8687 275.209 35.4501C274.697 34.0316 273.896 32.7343 272.859 31.6395C271.822 30.5447 270.57 29.676 269.182 29.0877C267.794 28.4995 266.3 28.2044 264.792 28.2209Z" fill="#4A90E2"/>
<path opacity="0.4" d="M264.792 28.2209H258.397C259.904 28.2044 261.399 28.4995 262.787 29.0877C264.175 29.676 265.427 30.5447 266.464 31.6395C267.501 32.7343 268.301 34.0316 268.814 35.4501C269.327 36.8687 269.542 38.3779 269.445 39.8834L259.272 234.164C259.078 237.299 257.705 240.244 255.429 242.408C253.153 244.571 250.144 245.792 247.005 245.826H253.4C256.539 245.792 259.549 244.571 261.824 242.408C264.1 240.244 265.473 237.299 265.667 234.164L275.84 39.8834C275.937 38.3779 275.722 36.8687 275.209 35.4501C274.697 34.0316 273.896 32.7343 272.859 31.6395C271.822 30.5447 270.57 29.676 269.182 29.0877C267.794 28.4995 266.3 28.2044 264.792 28.2209Z" fill="white"/>
<path opacity="0.4" d="M179.655 36.043L190.291 238.041H217.967L207.331 36.0804H179.655V36.043Z" fill="white"/>
<path opacity="0.4" d="M222.979 238.003H229.21L218.573 36.043H212.342L222.979 238.003Z" fill="white"/>
<path d="M183.604 24.8148H186.349C186.439 24.8148 186.524 24.7793 186.587 24.7162C186.65 24.653 186.686 24.5673 186.686 24.478C186.686 24.3886 186.65 24.3029 186.587 24.2398C186.524 24.1766 186.439 24.1411 186.349 24.1411H183.604C183.515 24.1411 183.429 24.1766 183.366 24.2398C183.303 24.3029 183.268 24.3886 183.268 24.478C183.268 24.5673 183.303 24.653 183.366 24.7162C183.429 24.7793 183.515 24.8148 183.604 24.8148Z" fill="#4A90E2"/>
<path d="M163.647 46.987C163.82 43.7831 163.685 40.3622 164.395 37.2557C165.981 30.0397 172.459 25.0992 179.715 24.8522C180.141 24.8522 180.148 24.1635 179.715 24.1785C176.538 24.2481 173.447 25.2176 170.799 26.9744C168.151 28.7313 166.055 31.2035 164.755 34.1043C162.989 38.1091 163.259 42.7426 163.019 47.0244C163.019 47.4585 163.67 47.4585 163.692 47.0244L163.647 46.987Z" fill="#4A90E2"/>
<rect x="180" y="56.6201" width="71" height="16" rx="4" transform="rotate(-4.54009 180 56.6201)" fill="white"/>
<rect x="180" y="80.6201" width="71" height="16" rx="4" transform="rotate(-4.54009 180 80.6201)" fill="white"/>
<rect x="180" y="105.62" width="71" height="16" rx="4" transform="rotate(-4.54009 180 105.62)" fill="white"/>
<rect x="180" y="129.621" width="71" height="16" rx="4" transform="rotate(-4.54009 180 129.621)" fill="white"/>
<path d="M125.522 101.474L115.94 112.328C116.688 117.508 118.251 132.539 118.251 132.539C116.815 134.441 113.307 133.902 113.307 133.902C110.443 126.762 109.27 119.055 109.881 111.385C110.555 104.371 119.546 90.5751 125.948 86.6826C126.993 86.0499 128.125 85.5733 129.307 85.2679L130.571 85.1182L126.083 101.803L125.522 101.474Z" fill="#4A90E2"/>
<path opacity="0.6" d="M125.522 101.474L115.94 112.328C116.688 117.508 118.251 132.539 118.251 132.539C116.815 134.441 113.307 133.902 113.307 133.902C110.443 126.762 109.27 119.055 109.881 111.385C110.555 104.371 119.546 90.5751 125.948 86.6826C126.993 86.0499 128.125 85.5733 129.307 85.2679L130.571 85.1182L126.083 101.803L125.522 101.474Z" fill="#1A1A1A"/>
<path d="M117.728 133.722L120.047 136.2C120.122 136.282 120.18 136.379 120.219 136.484L121.58 140.317C121.662 140.518 121.662 140.744 121.58 140.946L120.922 142.3C120.867 142.413 120.788 142.511 120.689 142.588C120.591 142.665 120.476 142.717 120.353 142.742L115.618 143.723C115.512 143.744 115.403 143.745 115.296 143.724C115.19 143.702 115.089 143.66 114.999 143.6C114.909 143.539 114.833 143.461 114.773 143.37C114.714 143.28 114.673 143.178 114.653 143.071L113.741 138.026C113.72 137.925 113.72 137.82 113.741 137.719L114.369 134.486C114.401 134.324 114.481 134.177 114.599 134.062C114.716 133.947 114.866 133.87 115.027 133.842L116.995 133.49C117.126 133.465 117.262 133.474 117.39 133.514C117.518 133.555 117.634 133.626 117.728 133.722Z" fill="#FAB27B"/>
<path d="M119.725 133.153L112.35 136.499L112.252 132.929L119.059 130.309L119.725 133.153Z" fill="#4A90E2"/>
<path opacity="0.5" d="M119.725 133.153L112.35 136.499L112.252 132.929L119.059 130.309L119.725 133.153Z" fill="white"/>
<path d="M116.868 146.358C112.469 162.078 114.332 185.283 111.916 200.845C110.255 211.565 98.9008 246.844 98.9008 246.844L108.924 249.883C108.924 249.883 121.431 218.811 123.884 209.551C127.818 194.527 133.728 166.022 133.728 166.022C133.728 166.022 135.934 157.938 134.932 157.04C133.93 156.142 116.868 146.358 116.868 146.358Z" fill="#4A90E2"/>
<path opacity="0.3" d="M127.908 157.152L135.156 159.502L132.441 172.228C132.441 172.228 133.772 160.056 127.908 157.152Z" fill="#1A1A1A"/>
<path d="M100.913 246.387L99.1174 252.084L103.979 254.269L106.388 248.221L100.913 246.387Z" fill="#FAB27B"/>
<path opacity="0.2" d="M99.8507 249.763L104.982 251.747L105.663 250.033L100.27 248.438L99.8507 249.763Z" fill="#1A1A1A"/>
<path d="M99.0054 243.722L111.265 247.076L109.044 251.028L98.3173 247.862L99.0054 243.722Z" fill="#4A90E2"/>
<path opacity="0.5" d="M99.0054 243.722L111.265 247.076L109.044 251.028L98.3173 247.862L99.0054 243.722Z" fill="white"/>
<path d="M105.019 255.048C104.995 255.03 104.975 255.006 104.964 254.979C104.952 254.951 104.948 254.92 104.952 254.891C104.958 254.862 104.972 254.836 104.994 254.815C105.015 254.795 105.042 254.782 105.072 254.778C105.184 254.778 107.622 254.404 108.475 255.04C108.556 255.097 108.624 255.169 108.677 255.253C108.729 255.336 108.765 255.43 108.782 255.527C108.81 255.637 108.804 255.752 108.764 255.858C108.723 255.964 108.651 256.055 108.557 256.118C107.935 256.27 107.278 256.19 106.71 255.894C106.123 255.662 105.557 255.379 105.019 255.048ZM105.528 255.048C106.545 255.602 107.989 256.156 108.4 255.886C108.46 255.886 108.527 255.789 108.49 255.579C108.483 255.519 108.462 255.46 108.428 255.41C108.394 255.359 108.349 255.317 108.295 255.287C108.223 255.23 108.143 255.184 108.056 255.153C107.229 254.952 106.37 254.911 105.528 255.033V255.048Z" fill="#4A90E2"/>
<path d="M104.952 255.011C104.939 254.988 104.932 254.962 104.932 254.936C104.932 254.909 104.939 254.884 104.952 254.861C104.989 254.793 105.745 253.311 106.71 252.997C106.847 252.949 106.993 252.93 107.138 252.94C107.284 252.95 107.425 252.99 107.555 253.057C107.914 253.244 107.959 253.476 107.907 253.641C107.779 254.329 105.917 255.033 105.116 255.07C105.097 255.078 105.076 255.078 105.057 255.07C105.036 255.07 105.015 255.064 104.997 255.054C104.978 255.043 104.963 255.028 104.952 255.011ZM107.346 253.281C107.174 253.216 106.986 253.216 106.814 253.281C106.188 253.619 105.682 254.142 105.363 254.778C106.238 254.636 107.525 254.03 107.607 253.618C107.607 253.581 107.607 253.476 107.398 253.356H107.316L107.346 253.281Z" fill="#4A90E2"/>
<path d="M104.72 254.015L98.4743 251.567C98.36 251.52 98.2329 251.513 98.1144 251.549C97.9959 251.584 97.8932 251.66 97.8235 251.762L94.7044 256.41C94.5712 256.607 94.5209 256.849 94.5643 257.083C94.6077 257.317 94.7413 257.524 94.9362 257.66L95.1083 257.75C97.3523 258.589 99.4242 259.247 102.229 260.355C105.535 261.658 104.541 261.725 108.408 263.305C110.741 264.255 112.215 261.755 111.273 261.239C106.949 258.881 107.016 257.316 105.894 255.003C105.64 254.539 105.221 254.186 104.72 254.015Z" fill="#1A1A1A"/>
<path d="M145.471 251.028L145.583 256.515L150.887 257.024L151.208 251.028H145.471Z" fill="#FAB27B"/>
<path opacity="0.2" d="M151.073 253.573L151.148 252.136L145.501 252.368L145.538 254.045L151.073 253.573Z" fill="#1A1A1A"/>
<path d="M116.867 146.358C118.528 138.438 125.155 131.387 125.155 131.387L150.587 133.019C150.587 133.019 152.188 149.367 152.562 154.831C153.31 165.865 156.407 183 156.489 194.063C156.601 209.034 153.175 248.76 153.175 248.76L143.571 249.898C143.571 249.898 143.713 213.151 142.142 199.296C140.953 188.816 133.787 160.026 133.787 160.026C133.787 160.026 114.092 159.637 116.867 146.358Z" fill="#4A90E2"/>
<path d="M141.911 248.348L154.597 247.57L153.766 252.024L142.591 252.488L141.911 248.348Z" fill="#4A90E2"/>
<path opacity="0.5" d="M141.911 248.348L154.597 247.57L153.766 252.024L142.591 252.488L141.911 248.348Z" fill="white"/>
<path d="M152.039 257.406C152.009 257.398 151.983 257.382 151.963 257.36C151.943 257.337 151.93 257.309 151.926 257.278C151.921 257.25 151.925 257.22 151.938 257.194C151.952 257.168 151.974 257.148 152.001 257.136C152.098 257.084 154.29 255.939 155.3 256.268C155.49 256.321 155.651 256.448 155.749 256.62C155.813 256.713 155.847 256.824 155.847 256.938C155.847 257.051 155.813 257.162 155.749 257.256C155.21 257.609 154.56 257.75 153.923 257.653C153.289 257.624 152.659 257.541 152.039 257.406ZM152.517 257.226C153.654 257.413 155.203 257.466 155.509 257.076C155.554 257.031 155.592 256.942 155.509 256.762C155.483 256.707 155.445 256.658 155.397 256.62C155.349 256.583 155.292 256.557 155.232 256.545C155.143 256.515 155.05 256.5 154.956 256.5C154.104 256.583 153.276 256.829 152.517 257.226Z" fill="#4A90E2"/>
<path d="M151.956 257.391C151.937 257.374 151.922 257.354 151.911 257.33C151.901 257.307 151.896 257.282 151.896 257.256C151.896 257.181 152.143 255.534 152.951 254.921C153.065 254.831 153.196 254.765 153.336 254.728C153.477 254.69 153.623 254.682 153.766 254.704C154.163 254.756 154.283 254.966 154.29 255.13C154.395 255.826 152.869 257.106 152.121 257.376C152.112 257.381 152.101 257.384 152.091 257.384C152.08 257.384 152.07 257.381 152.061 257.376C152.045 257.385 152.028 257.392 152.01 257.394C151.992 257.397 151.974 257.396 151.956 257.391ZM153.662 254.973C153.476 254.966 153.293 255.024 153.146 255.138C152.669 255.65 152.358 256.294 152.255 256.987C153.003 256.567 154.051 255.564 154.028 255.145C154.028 255.108 154.028 255.003 153.744 254.973H153.662Z" fill="#4A90E2"/>
<path d="M151.44 256.523L144.708 256.253C144.585 256.249 144.464 256.287 144.365 256.36C144.266 256.433 144.194 256.538 144.162 256.657L142.733 262.07C142.703 262.184 142.695 262.303 142.711 262.42C142.726 262.537 142.764 262.649 142.823 262.752C142.882 262.854 142.961 262.943 143.055 263.015C143.148 263.087 143.255 263.14 143.369 263.17C143.431 263.178 143.494 263.178 143.556 263.17C145.972 263.222 148.127 263.17 151.141 263.297C154.686 263.439 153.774 263.829 157.948 264.046C160.461 264.18 161.03 261.336 159.975 261.156C155.113 260.348 154.664 258.851 152.854 257.032C152.458 256.7 151.957 256.519 151.44 256.523Z" fill="#1A1A1A"/>
<path d="M143.489 78.8081C143.048 80.2229 141.941 82.6108 143.489 84.7441L135.852 83.9956C135.852 83.9956 136.667 78.359 137.138 76.51C137.445 75.3198 137.841 74.0248 141.858 75.1477C144.162 75.8139 143.788 77.8499 143.489 78.8081Z" fill="#FAB27B"/>
<path d="M136.6 76.7195C132.396 73.4708 123.51 64.6678 132.037 56.9801C139.136 50.58 145.658 54.3227 147.88 58.6494C150.371 63.4926 156.018 76.4351 143.489 78.808C141.185 79.2422 138.784 78.4038 136.6 76.7195Z" fill="#FAB27B"/>
<path d="M130.594 84.2502C130.594 84.2502 136.488 79.0702 147.685 85.9045L147.528 87.5064L130.698 85.8745L130.594 84.2502Z" fill="#4A90E2"/>
<path opacity="0.5" d="M130.594 84.2502C130.594 84.2502 136.488 79.0702 147.685 85.9045L147.528 87.5064L130.698 85.8745L130.594 84.2502Z" fill="white"/>
<path opacity="0.1" d="M141.88 77.2808C141.88 79.0099 142.412 79.9082 143.032 80.3573C143.148 79.8307 143.3 79.3129 143.489 78.8078C141.985 78.1491 141.88 77.2808 141.88 77.2808Z" fill="#1A1A1A"/>
<path d="M146.369 85.7024C143.945 85.1844 141.496 84.7946 139.031 84.5346C134.692 84.0256 131.379 83.6887 128.985 84.7442C125.17 86.4285 124.684 87.5064 124.684 87.5064L125.432 99.88C126.027 105.85 126.135 111.858 125.754 117.845C125.754 117.898 125.455 129.635 119.119 135.938C121.753 138.076 124.871 139.533 128.2 140.182L131.775 131.619L132.905 140.601C132.905 140.601 145.778 144.419 156.399 140.893C156.399 140.893 150.588 131.596 152.458 122.09C153.363 117.516 154.021 115.353 154.529 111.76C154.823 109.822 154.823 107.851 154.529 105.913L152.143 89.5948C152.143 89.5948 147.925 86.0841 146.369 85.7024Z" fill="#4A90E2"/>
<path opacity="0.6" d="M146.369 85.7024C143.945 85.1844 141.496 84.7946 139.031 84.5346C134.692 84.0256 131.379 83.6887 128.985 84.7442C125.17 86.4285 124.684 87.5064 124.684 87.5064L125.432 99.88C126.027 105.85 126.135 111.858 125.754 117.845C125.754 117.898 125.455 129.635 119.119 135.938C121.753 138.076 124.871 139.533 128.2 140.182L131.775 131.619L132.905 140.601C132.905 140.601 145.778 144.419 156.399 140.893C156.399 140.893 150.588 131.596 152.458 122.09C153.363 117.516 154.021 115.353 154.529 111.76C154.823 109.822 154.823 107.851 154.529 105.913L152.143 89.5948C152.143 89.5948 147.925 86.0841 146.369 85.7024Z" fill="#1A1A1A"/>
<path d="M153.766 116.393C154.073 114.739 154.342 113.182 154.514 111.797C154.808 109.859 154.808 107.888 154.514 105.951L151.096 102.103C151.096 102.103 154.387 106.729 153.766 116.393Z" fill="#1A1A1A"/>
<path d="M184.292 98.8095L186.656 92.0725C186.702 91.9368 186.798 91.8241 186.925 91.7581L190.628 89.8642C190.728 89.8166 190.84 89.799 190.95 89.8136C191.061 89.8282 191.164 89.8744 191.249 89.9466L193.889 92.2671C193.994 92.3595 194.059 92.488 194.073 92.6267C194.087 92.7655 194.048 92.9044 193.964 93.0157L191.234 96.6087C191.203 96.6501 191.178 96.6954 191.159 96.7435C190.95 97.275 189.543 100.636 186.551 101.474L186.439 101.519L185.437 102.051C185.315 102.125 185.169 102.149 185.03 102.119C184.89 102.088 184.768 102.005 184.689 101.886L183.41 100.097C183.361 100.03 183.329 99.9534 183.314 99.8722C183.299 99.7911 183.302 99.7077 183.324 99.628C183.345 99.5484 183.384 99.4746 183.438 99.412C183.492 99.3494 183.559 99.2995 183.634 99.2661L183.971 99.1089C184.043 99.0857 184.109 99.0469 184.165 98.9952C184.221 98.9434 184.264 98.88 184.292 98.8095Z" fill="#FAB27B"/>
<path d="M146.302 85.6948C150.782 86.8011 154.711 89.4917 157.365 93.2702C160.694 97.4767 164.455 101.323 168.585 104.746C168.585 104.746 177.231 102.904 182.684 98.1807L185.886 102.964C185.886 102.964 172.751 112.875 167.403 112.358C162.84 111.917 154.522 105.973 154.522 105.973L151.096 102.126L146.302 85.6948Z" fill="#4A90E2"/>
<path opacity="0.6" d="M146.302 85.6948C150.782 86.8011 154.711 89.4917 157.365 93.2702C160.694 97.4767 164.455 101.323 168.585 104.746C168.585 104.746 177.231 102.904 182.684 98.1807L185.886 102.964C185.886 102.964 172.751 112.875 167.403 112.358C162.84 111.917 154.522 105.973 154.522 105.973L151.096 102.126L146.302 85.6948Z" fill="#1A1A1A"/>
<path d="M182.983 97.5815L187.786 103.548L184.569 104.401L180.739 98.7942L182.983 97.5815Z" fill="#4A90E2"/>
<path opacity="0.5" d="M182.983 97.5815L187.786 103.548L184.569 104.401L180.739 98.7942L182.983 97.5815Z" fill="white"/>
<path d="M150.999 68.9946V71.3152L152.562 71.0981L150.999 68.9946Z" fill="#E07F50"/>
<path d="M138.739 82.8876C135.141 83.2544 124.527 83.464 125.791 75.6715C127.055 67.8791 125.335 64.0165 128.634 58.5296C131.932 53.0427 138.806 51.4408 144.992 53.0652C150.146 54.4126 150.565 58.0206 149.166 60.1914C147.767 62.3622 147.139 62.7665 147.386 64.3085C147.633 65.8505 146.698 66.7113 146.294 67.4374C145.849 67.9608 145.284 68.369 144.648 68.6276C144.37 70.1422 144.465 71.7018 144.925 73.1714C145.673 76.0234 147.199 82.0118 138.739 82.8876Z" fill="#1A1A1A"/>
<path d="M143.526 53.1473C145.256 53.3267 146.94 53.8107 148.501 54.5771C149.72 55.2059 150.939 56.1415 151.216 57.5713C151.612 59.6298 150.019 61.5835 148.755 63.0058C148.553 63.2379 148.942 63.5073 149.136 63.2828C151.38 60.7676 153.116 57.2344 149.824 54.8241C147.954 53.5944 145.803 52.8579 143.571 52.6832C143.51 52.6773 143.448 52.696 143.401 52.7353C143.353 52.7746 143.323 52.8313 143.317 52.8928C143.311 52.9544 143.33 53.0157 143.369 53.0635C143.408 53.1112 143.465 53.1414 143.526 53.1473Z" fill="#1A1A1A"/>
<path d="M128.656 58.4847C126.285 61.5612 126.173 65.581 125.664 69.2489C125.328 71.8389 122.41 76.8917 124.475 79.3319C124.669 79.564 125.043 79.2721 124.849 79.04C123.435 77.3707 124.849 74.9155 125.328 73.1863C125.78 71.4863 126.088 69.7509 126.248 67.9988C126.569 64.8624 126.996 61.3591 129.008 58.7691C129.195 58.5296 128.813 58.2451 128.626 58.4847H128.656Z" fill="#1A1A1A"/>
<path d="M149.391 64.578C149.346 64.6753 149.428 64.5032 149.443 64.4807C149.489 64.391 149.547 64.3079 149.615 64.2337C149.718 64.1095 149.856 64.0189 150.01 63.9736C150.165 63.9282 150.329 63.9302 150.483 63.9792C150.767 64.0465 150.887 63.6124 150.603 63.545C150.264 63.4616 149.906 63.5093 149.601 63.6786C149.296 63.848 149.066 64.1264 148.957 64.4582C148.845 64.7202 149.279 64.84 149.391 64.578Z" fill="#1A1A1A"/>
<path d="M147.551 67.9914C148.029 69.4286 147.551 70.8808 146.526 71.2327C145.501 71.5845 144.282 70.7012 143.758 69.2565C143.235 67.8118 143.758 66.367 144.783 66.0152C145.808 65.6634 147.064 66.5467 147.551 67.9914Z" fill="#FAB27B"/>
<path d="M151.096 64.376C151.029 64.9149 150.505 65.0272 150.236 65.0721C149.967 65.117 149.944 65.4239 149.997 65.8207C150.049 66.2174 150.236 66.5019 150.415 66.4719C150.595 66.442 150.707 66.1201 150.662 65.7234C150.643 65.6157 150.613 65.5104 150.573 65.409C151.418 64.9 151.096 64.376 151.096 64.376Z" fill="#1A1A1A"/>
</svg>
