<svg width="48" height="48" viewBox="0 0 48 48" fill="none" xmlns="http://www.w3.org/2000/svg">
<g filter="url(#filter0_d_25_1662)">
<rect x="8" y="4" width="32" height="32" rx="12" fill="white"/>
<rect width="16" height="16" transform="translate(16 12)" fill="white" style="mix-blend-mode:multiply"/>
<path d="M28 21.5H25V22.5H28V21.5Z" fill="#1A1A1A"/>
<path d="M31 19.5H25V20.5H31V19.5Z" fill="#1A1A1A"/>
<path d="M31 17.5H25V18.5H31V17.5Z" fill="#1A1A1A"/>
<path d="M23 22.5V21.5H20.5V20.5H19.5V21.5H17V22.5H21.1074C20.9236 23.2504 20.5409 23.9374 19.9994 24.4886C19.7157 24.1925 19.4724 23.8601 19.2761 23.5H18.1667C18.4209 24.1102 18.7844 24.6688 19.2392 25.1483C18.7032 25.5301 18.1182 25.8379 17.5 26.0635L17.8511 27C18.6204 26.7198 19.3435 26.3261 19.9964 25.8319C20.6518 26.3263 21.3773 26.72 22.149 27L22.5 26.0635C21.8821 25.8383 21.2973 25.5311 20.7614 25.15C21.4671 24.4202 21.9418 23.4984 22.1258 22.5H23Z" fill="#1A1A1A"/>
<path d="M21.5833 18.5H22.6665L20.375 13H19.2916L17 18.5H18.0832L18.5 17.5H21.1667L21.5833 18.5ZM18.9165 16.5L19.8333 14.3L20.75 16.5H18.9165Z" fill="#1A1A1A"/>
</g>
<defs>
<filter id="filter0_d_25_1662" x="0" y="0" width="48" height="48" filterUnits="userSpaceOnUse" color-interpolation-filters="sRGB">
<feFlood flood-opacity="0" result="BackgroundImageFix"/>
<feColorMatrix in="SourceAlpha" type="matrix" values="0 0 0 0 0 0 0 0 0 0 0 0 0 0 0 0 0 0 127 0" result="hardAlpha"/>
<feOffset dy="4"/>
<feGaussianBlur stdDeviation="4"/>
<feComposite in2="hardAlpha" operator="out"/>
<feColorMatrix type="matrix" values="0 0 0 0 0 0 0 0 0 0 0 0 0 0 0 0 0 0 0.04 0"/>
<feBlend mode="normal" in2="BackgroundImageFix" result="effect1_dropShadow_25_1662"/>
<feBlend mode="normal" in="SourceGraphic" in2="effect1_dropShadow_25_1662" result="shape"/>
</filter>
</defs>
</svg>
