<svg width="290" height="283" viewBox="0 0 290 283" fill="none" xmlns="http://www.w3.org/2000/svg">
<path d="M266.359 72.968C264.961 62.0979 262.235 51.674 256.499 42.1771C245.92 24.5334 226.78 13.8719 207.425 8.46584C191.185 3.93469 173.693 2.62518 157.493 7.30698C139.71 12.4465 124.787 24.2785 108.773 33.5552C97.0507 40.247 84.8126 45.9938 72.1752 50.7411C61.9788 54.6407 49.0216 56.8251 40.6406 64.2302C35.5111 68.8048 30.9627 73.9908 27.0976 79.6721C11.4492 102.449 6.37999 131.548 8.76959 158.712C10.4574 177.636 15.6658 196.787 27.3296 211.776C43.7262 232.816 71.8736 243.182 98.4318 240.568C128.592 237.602 157.157 219.599 187.131 223.921C202.055 226.071 216.334 233.731 231.345 232.306C246.14 230.903 258.802 220.717 267.728 208.868C274.885 199.348 279.647 187.834 280.088 175.84C280.569 162.867 274.688 151.035 271.736 138.646C266.603 116.993 269.172 94.8416 266.359 72.968Z" fill="#4A90E2"/>
<path opacity="0.7" d="M266.359 72.968C264.961 62.0979 262.235 51.674 256.499 42.1771C245.92 24.5334 226.78 13.8719 207.425 8.46584C191.185 3.93469 173.693 2.62518 157.493 7.30698C139.71 12.4465 124.787 24.2785 108.773 33.5552C97.0507 40.247 84.8126 45.9938 72.1752 50.7411C61.9788 54.6407 49.0216 56.8251 40.6406 64.2302C35.5111 68.8048 30.9627 73.9908 27.0976 79.6721C11.4492 102.449 6.37999 131.548 8.76959 158.712C10.4574 177.636 15.6658 196.787 27.3296 211.776C43.7262 232.816 71.8736 243.182 98.4318 240.568C128.592 237.602 157.157 219.599 187.131 223.921C202.055 226.071 216.334 233.731 231.345 232.306C246.14 230.903 258.802 220.717 267.728 208.868C274.885 199.348 279.647 187.834 280.088 175.84C280.569 162.867 274.688 151.035 271.736 138.646C266.603 116.993 269.172 94.8416 266.359 72.968Z" fill="white"/>
<path d="M33.06 158.249L41.122 235.458" stroke="#263238" stroke-width="2" stroke-miterlimit="10"/>
<path d="M39.8228 220.682L36.1688 216.823" stroke="#263238" stroke-width="2" stroke-miterlimit="10"/>
<path d="M37.2824 217.976C37.2748 217.387 37.141 216.805 36.8899 216.272C36.6388 215.738 36.2762 215.264 35.8266 214.882C34.887 214.042 29.9454 211.985 29.4466 213.723C29 215.595 34.0228 219.309 37.2824 217.976Z" fill="#4A90E2" stroke="#263238" stroke-miterlimit="10"/>
<path d="M37.2824 217.976L32.5786 215.05" stroke="#263238" stroke-width="0.5" stroke-miterlimit="10"/>
<path d="M40.745 229.461L37.0852 225.602" stroke="#263238" stroke-width="2" stroke-miterlimit="10"/>
<path d="M38.1988 226.761C38.1917 226.17 38.0581 225.588 37.807 225.053C37.5559 224.518 37.1931 224.044 36.743 223.661C35.8034 222.826 30.8618 220.763 30.3978 222.502C29.8874 224.373 34.9392 228.087 38.1988 226.761Z" fill="#4A90E2" stroke="#263238" stroke-miterlimit="10"/>
<path d="M38.1988 226.761L33.495 223.834" stroke="#263238" stroke-width="0.5" stroke-miterlimit="10"/>
<path d="M37.584 199.255L33.93 195.396" stroke="#263238" stroke-width="2" stroke-miterlimit="10"/>
<path d="M35.0436 196.555C35.0365 195.964 34.9029 195.382 34.6518 194.847C34.4007 194.313 34.0379 193.838 33.5878 193.455C32.6482 192.615 27.7066 190.558 27.2426 192.296C26.7322 194.168 31.784 197.882 35.0436 196.555Z" fill="#4A90E2" stroke="#263238" stroke-miterlimit="10"/>
<path d="M35.0436 196.555L30.3398 193.623" stroke="#263238" stroke-width="0.5" stroke-miterlimit="10"/>
<path d="M38.5062 208.033L34.8464 204.18" stroke="#263238" stroke-width="2" stroke-miterlimit="10"/>
<path d="M35.96 205.356C35.9525 204.766 35.8188 204.184 35.5677 203.649C35.3166 203.114 34.954 202.64 34.5042 202.256C33.5646 201.422 28.623 199.359 28.159 201.098C27.6486 202.952 32.7004 206.66 35.96 205.356Z" fill="#4A90E2" stroke="#263238" stroke-miterlimit="10"/>
<path d="M35.96 205.333L31.2562 202.407" stroke="#263238" stroke-width="0.5" stroke-miterlimit="10"/>
<path d="M36.0992 184.989L32.4394 181.136" stroke="#263238" stroke-width="2" stroke-miterlimit="10"/>
<path d="M33.553 182.289C33.5455 181.699 33.4118 181.117 33.1607 180.582C32.9096 180.047 32.547 179.572 32.0972 179.189C31.1576 178.355 26.216 176.292 25.752 178.03C25.2416 179.908 30.2934 183.616 33.553 182.289Z" fill="#4A90E2" stroke="#263238" stroke-miterlimit="10"/>
<path d="M33.553 182.289L28.8492 179.363" stroke="#263238" stroke-width="0.5" stroke-miterlimit="10"/>
<path d="M34.6028 170.666L30.943 166.807" stroke="#263238" stroke-width="2" stroke-miterlimit="10"/>
<path d="M32.0566 167.966C32.0495 167.375 31.9159 166.793 31.6648 166.258C31.4137 165.724 31.0509 165.249 30.6008 164.866C29.6612 164.031 24.7196 161.969 24.2556 163.707C23.7452 165.578 28.797 169.293 32.0566 167.966Z" fill="#4A90E2" stroke="#263238" stroke-miterlimit="10"/>
<path d="M32.0566 167.966L27.3528 165.04" stroke="#263238" stroke-width="0.5" stroke-miterlimit="10"/>
<path d="M39.208 215.485L41.992 210.959" stroke="#263238" stroke-width="2" stroke-miterlimit="10"/>
<path d="M41.1452 212.31C41.0295 211.731 41.0395 211.134 41.1746 210.559C41.3096 209.984 41.5666 209.445 41.9282 208.978C42.6706 207.964 47.0728 204.922 47.8906 206.521C48.7838 208.254 44.602 212.947 41.1452 212.31Z" fill="#4A90E2" stroke="#263238" stroke-miterlimit="10"/>
<path d="M41.1452 212.315L45.3792 208.277" stroke="#263238" stroke-width="0.5" stroke-miterlimit="10"/>
<path d="M36.7952 192.383L39.5792 187.852" stroke="#263238" stroke-width="2" stroke-miterlimit="10"/>
<path d="M38.7266 189.213C38.6124 188.634 38.6232 188.038 38.7582 187.463C38.8932 186.889 39.1494 186.349 39.5096 185.882C40.2578 184.868 44.66 181.826 45.4778 183.419C46.4 185.163 42.1892 189.839 38.7266 189.213Z" fill="#4A90E2" stroke="#263238" stroke-miterlimit="10"/>
<path d="M38.7266 189.213L42.9606 185.169" stroke="#263238" stroke-width="0.5" stroke-miterlimit="10"/>
<path d="M35.7338 182.225L38.5178 177.694" stroke="#263238" stroke-width="2" stroke-miterlimit="10"/>
<path d="M37.6652 179.056C37.5514 178.477 37.563 177.88 37.699 177.305C37.835 176.73 38.0925 176.191 38.454 175.724C39.1964 174.71 43.5986 171.668 44.4164 173.267C45.3096 175.012 41.1278 179.688 37.6652 179.056Z" fill="#4A90E2" stroke="#263238" stroke-miterlimit="10"/>
<path d="M37.6652 179.056L41.8992 175.012" stroke="#263238" stroke-width="0.5" stroke-miterlimit="10"/>
<path d="M34.1794 167.34L36.9634 162.809" stroke="#263238" stroke-width="2" stroke-miterlimit="10"/>
<path d="M36.1108 164.17C35.9966 163.591 36.0074 162.995 36.1424 162.42C36.2774 161.846 36.5336 161.306 36.8938 160.839C37.642 159.825 42.0442 156.783 42.862 158.382C43.7552 160.126 39.5734 164.796 36.1108 164.17Z" fill="#4A90E2" stroke="#263238" stroke-miterlimit="10"/>
<path d="M36.1108 164.17L40.3448 160.126" stroke="#263238" stroke-width="0.5" stroke-miterlimit="10"/>
<path d="M32.9904 157.843C32.8762 157.264 32.887 156.667 33.022 156.093C33.157 155.518 33.4132 154.979 33.7734 154.511C34.5216 153.497 38.9238 150.455 39.7416 152.049C40.629 153.787 36.453 158.451 32.9904 157.843Z" fill="#4A90E2" stroke="#263238" stroke-miterlimit="10"/>
<path d="M32.9904 157.826L37.2244 153.781" stroke="#263238" stroke-width="0.5" stroke-miterlimit="10"/>
<path d="M33.2398 157.999C32.6509 158.053 32.0573 157.98 31.4991 157.785C30.9408 157.59 30.4308 157.278 30.0034 156.87C29.0754 156.024 26.5234 151.33 28.1822 150.681C30.0092 149.98 34.22 154.627 33.2398 157.999Z" fill="#4A90E2" stroke="#263238" stroke-miterlimit="10"/>
<path d="M33.2398 157.999L29.6554 153.364" stroke="#263238" stroke-width="0.5" stroke-miterlimit="10"/>
<path d="M54.3344 168.881L46.313 246.09" stroke="#263238" stroke-width="2" stroke-miterlimit="10"/>
<path d="M48.0878 231.367L45.3038 226.842" stroke="#263238" stroke-width="2" stroke-miterlimit="10"/>
<path d="M46.1506 228.198C46.2648 227.618 46.254 227.022 46.119 226.447C45.984 225.873 45.7278 225.334 45.3676 224.866C44.6194 223.858 40.2172 220.81 39.3994 222.415C38.512 224.159 42.6938 228.829 46.1506 228.198Z" fill="#4A90E2" stroke="#263238" stroke-miterlimit="10"/>
<path d="M46.1506 228.197L42.1544 224.367" stroke="#263238" stroke-width="0.5" stroke-miterlimit="10"/>
<path d="M50.3092 209.94L47.5252 205.414" stroke="#263238" stroke-width="2" stroke-miterlimit="10"/>
<path d="M48.3778 206.77C48.4916 206.191 48.4801 205.594 48.344 205.019C48.208 204.444 47.9506 203.906 47.589 203.438C46.8466 202.43 42.4386 199.382 41.6208 200.987C40.7334 202.732 44.9152 207.402 48.3778 206.77Z" fill="#4A90E2" stroke="#263238" stroke-miterlimit="10"/>
<path d="M48.3778 206.77L44.3816 202.94" stroke="#263238" stroke-width="0.5" stroke-miterlimit="10"/>
<path d="M49.3986 218.718L46.6146 214.193" stroke="#263238" stroke-width="2" stroke-miterlimit="10"/>
<path d="M47.4672 215.554C47.5813 214.975 47.57 214.378 47.434 213.803C47.2979 213.228 47.0403 212.69 46.6784 212.223C45.936 211.209 41.528 208.167 40.7102 209.766C39.8228 211.51 44.0046 216.186 47.4672 215.554Z" fill="#4A90E2" stroke="#263238" stroke-miterlimit="10"/>
<path d="M47.4672 215.554L43.4652 211.724" stroke="#263238" stroke-width="0.5" stroke-miterlimit="10"/>
<path d="M51.794 195.674L49.01 191.149" stroke="#263238" stroke-width="2" stroke-miterlimit="10"/>
<path d="M49.88 192.51C49.9961 191.931 49.9863 191.334 49.8512 190.759C49.7161 190.185 49.4589 189.645 49.097 189.179C48.3488 188.165 43.9466 185.123 43.1288 186.722C42.2182 188.466 46.4 193.136 49.88 192.51Z" fill="#4A90E2" stroke="#263238" stroke-miterlimit="10"/>
<path d="M49.8568 192.51L45.8606 188.675" stroke="#263238" stroke-width="0.5" stroke-miterlimit="10"/>
<path d="M53.2788 181.351L50.4948 176.825" stroke="#263238" stroke-width="2" stroke-miterlimit="10"/>
<path d="M51.3474 178.181C51.4612 177.602 51.4497 177.005 51.3136 176.43C51.1776 175.855 50.9202 175.316 50.5586 174.849C49.8162 173.841 45.4082 170.793 44.5904 172.398C43.703 174.142 47.8848 178.813 51.3474 178.181Z" fill="#4A90E2" stroke="#263238" stroke-miterlimit="10"/>
<path d="M51.3474 178.181L47.3512 174.351" stroke="#263238" stroke-width="0.5" stroke-miterlimit="10"/>
<path d="M48.5518 226.158L52.2058 222.299" stroke="#263238" stroke-width="2" stroke-miterlimit="10"/>
<path d="M51.098 223.452C51.1055 222.861 51.2392 222.279 51.4903 221.745C51.7414 221.21 52.104 220.735 52.5538 220.352C53.4876 219.518 58.4292 217.455 58.899 219.193C59.4094 221.065 54.3576 224.779 51.098 223.452Z" fill="#4A90E2" stroke="#263238" stroke-miterlimit="10"/>
<path d="M51.098 223.452L56.0744 220.369" stroke="#263238" stroke-width="0.5" stroke-miterlimit="10"/>
<path d="M50.953 203.05L54.607 199.191" stroke="#263238" stroke-width="2" stroke-miterlimit="10"/>
<path d="M53.4992 200.344C53.5063 199.754 53.6394 199.173 53.8894 198.638C54.1394 198.103 54.5008 197.628 54.9492 197.244C55.8888 196.41 60.8304 194.347 61.3292 196.085C61.8106 197.957 56.753 201.671 53.4992 200.344Z" fill="#4A90E2" stroke="#263238" stroke-miterlimit="10"/>
<path d="M53.4992 200.344L58.4756 197.262" stroke="#263238" stroke-width="0.5" stroke-miterlimit="10"/>
<path d="M52.0086 192.893L55.6626 189.034" stroke="#263238" stroke-width="2" stroke-miterlimit="10"/>
<path d="M54.5548 190.193C54.5616 189.603 54.6944 189.021 54.9445 188.486C55.1946 187.952 55.5561 187.476 56.0048 187.093C56.9444 186.253 61.8802 184.196 62.35 185.934C62.8604 187.805 57.8086 191.52 54.5548 190.193Z" fill="#4A90E2" stroke="#263238" stroke-miterlimit="10"/>
<path d="M54.5548 190.193L59.5312 187.104" stroke="#263238" stroke-width="0.5" stroke-miterlimit="10"/>
<path d="M53.5572 178.007L57.2112 174.148" stroke="#263238" stroke-width="2" stroke-miterlimit="10"/>
<path d="M56.0976 175.307C56.1047 174.717 56.2383 174.134 56.4894 173.6C56.7405 173.065 57.1033 172.59 57.5534 172.207C58.493 171.367 63.4288 169.31 63.8986 171.048C64.409 172.908 59.3572 176.634 56.0976 175.307Z" fill="#4A90E2" stroke="#263238" stroke-miterlimit="10"/>
<path d="M56.0976 175.307L61.074 172.219" stroke="#263238" stroke-width="0.5" stroke-miterlimit="10"/>
<path d="M54.3518 168.452C54.3622 167.866 54.4974 167.288 54.7484 166.758C54.9994 166.227 55.3604 165.756 55.8076 165.376C56.7472 164.535 61.683 162.479 62.1528 164.217C62.64 166.059 57.6114 169.779 54.3518 168.452Z" fill="#4A90E2" stroke="#263238" stroke-miterlimit="10"/>
<path d="M54.3518 168.452L59.3282 165.364" stroke="#263238" stroke-width="0.5" stroke-miterlimit="10"/>
<path d="M54.5606 168.673C53.9727 168.604 53.4062 168.411 52.899 168.107C52.3919 167.802 51.9558 167.392 51.62 166.905C50.8834 165.886 49.3348 160.758 51.1096 160.474C53.0526 160.161 56.2194 165.573 54.5606 168.673Z" fill="#4A90E2" stroke="#263238" stroke-miterlimit="10"/>
<path d="M54.5606 168.673L52.0086 163.406" stroke="#263238" stroke-width="0.5" stroke-miterlimit="10"/>
<path d="M45.1414 137.447V235.081" stroke="#263238" stroke-width="2" stroke-miterlimit="10"/>
<path d="M45.2168 220.398L41.9862 216.186" stroke="#263238" stroke-width="2" stroke-miterlimit="10"/>
<path d="M42.9664 217.449C43.0214 216.861 42.9494 216.268 42.7553 215.71C42.5612 215.153 42.2495 214.643 41.8412 214.216C40.9944 213.283 36.3022 210.71 35.6526 212.391C34.9508 214.216 39.5908 218.434 42.9664 217.449Z" fill="#4A90E2" stroke="#263238" stroke-miterlimit="10"/>
<path d="M42.9664 217.449L38.5932 214.048" stroke="#263238" stroke-width="0.5" stroke-miterlimit="10"/>
<path d="M45.2168 202.054L41.9862 197.835" stroke="#263238" stroke-width="2" stroke-miterlimit="10"/>
<path d="M42.9664 199.099C43.0214 198.511 42.9494 197.918 42.7553 197.36C42.5612 196.802 42.2495 196.292 41.8412 195.865C40.9944 194.938 36.3022 192.36 35.6526 194.04C34.9508 195.865 39.5908 200.084 42.9664 199.099Z" fill="#4A90E2" stroke="#263238" stroke-miterlimit="10"/>
<path d="M42.9664 199.098L38.5932 195.703" stroke="#263238" stroke-width="0.5" stroke-miterlimit="10"/>
<path d="M45.2168 180.51L41.9862 176.292" stroke="#263238" stroke-width="2" stroke-miterlimit="10"/>
<path d="M42.9664 177.544C43.0217 176.957 42.9498 176.364 42.7557 175.808C42.5615 175.251 42.2496 174.742 41.8412 174.316C40.9944 173.383 36.3022 170.805 35.6526 172.485C34.9508 174.328 39.5908 178.54 42.9664 177.544Z" fill="#4A90E2" stroke="#263238" stroke-miterlimit="10"/>
<path d="M42.9664 177.555L38.5932 174.16" stroke="#263238" stroke-width="0.5" stroke-miterlimit="10"/>
<path d="M45.2168 166.169L41.9862 161.951" stroke="#263238" stroke-width="2" stroke-miterlimit="10"/>
<path d="M42.9664 163.214C43.0217 162.627 42.9498 162.035 42.7557 161.478C42.5615 160.921 42.2496 160.413 41.8412 159.987C40.9944 159.054 36.3022 156.476 35.6526 158.156C34.9508 159.987 39.5908 164.217 42.9664 163.214Z" fill="#4A90E2" stroke="#263238" stroke-miterlimit="10"/>
<path d="M42.9664 163.214L38.5932 159.819" stroke="#263238" stroke-width="0.5" stroke-miterlimit="10"/>
<path d="M45.2168 151.765L41.9862 147.547" stroke="#263238" stroke-width="2" stroke-miterlimit="10"/>
<path d="M42.9664 148.816C43.0214 148.228 42.9494 147.635 42.7553 147.077C42.5612 146.519 42.2495 146.009 41.8412 145.582C40.9944 144.649 36.3022 142.106 35.6526 143.757C34.9508 145.582 39.5908 149.801 42.9664 148.816Z" fill="#4A90E2" stroke="#263238" stroke-miterlimit="10"/>
<path d="M42.9664 148.816L38.5932 145.414" stroke="#263238" stroke-width="0.5" stroke-miterlimit="10"/>
<path d="M45.1472 226.001L48.3836 221.783" stroke="#263238" stroke-width="2" stroke-miterlimit="10"/>
<path d="M47.3976 223.052C47.3479 222.468 47.4224 221.88 47.6163 221.327C47.8103 220.774 48.1192 220.268 48.5228 219.842C49.3696 218.909 54.0676 216.366 54.7114 218.017C55.419 219.842 50.7732 224.037 47.3976 223.052Z" fill="#4A90E2" stroke="#263238" stroke-miterlimit="10"/>
<path d="M47.3976 223.052L52.0318 219.471" stroke="#263238" stroke-width="0.5" stroke-miterlimit="10"/>
<path d="M45.1472 196.821L48.3836 192.603" stroke="#263238" stroke-width="2" stroke-miterlimit="10"/>
<path d="M47.3976 193.866C47.3442 193.279 47.417 192.688 47.611 192.131C47.8051 191.574 48.116 191.066 48.5228 190.639C49.3696 189.706 54.0676 187.127 54.7114 188.808C55.419 190.639 50.7732 194.851 47.3976 193.866Z" fill="#4A90E2" stroke="#263238" stroke-miterlimit="10"/>
<path d="M47.3976 193.866L52.0318 190.285" stroke="#263238" stroke-width="0.5" stroke-miterlimit="10"/>
<path d="M45.1472 182.417L48.3836 178.198" stroke="#263238" stroke-width="2" stroke-miterlimit="10"/>
<path d="M47.3976 179.467C47.3445 178.88 47.4174 178.287 47.6114 177.73C47.8054 177.172 48.1161 176.662 48.5228 176.234C49.3696 175.301 54.0676 172.729 54.7114 174.409C55.419 176.234 50.7732 180.441 47.3976 179.467Z" fill="#4A90E2" stroke="#263238" stroke-miterlimit="10"/>
<path d="M47.3976 179.467L52.0318 175.887" stroke="#263238" stroke-width="0.5" stroke-miterlimit="10"/>
<path d="M45.1472 163.382L48.3836 159.164" stroke="#263238" stroke-width="2" stroke-miterlimit="10"/>
<path d="M47.3976 160.427C47.3445 159.839 47.4174 159.247 47.6114 158.69C47.8054 158.132 48.1161 157.622 48.5228 157.194C49.3696 156.267 54.0676 153.689 54.7114 155.369C55.419 157.194 50.7732 161.412 47.3976 160.427Z" fill="#4A90E2" stroke="#263238" stroke-miterlimit="10"/>
<path d="M47.3976 160.427L52.0318 156.846" stroke="#263238" stroke-width="0.5" stroke-miterlimit="10"/>
<path d="M45.1472 148.416L48.3836 144.197" stroke="#263238" stroke-width="2" stroke-miterlimit="10"/>
<path d="M47.3976 145.461C47.3445 144.873 47.4174 144.28 47.6114 143.723C47.8054 143.165 48.1161 142.656 48.5228 142.227C49.3696 141.3 54.0676 138.722 54.7114 140.402C55.419 142.227 50.7732 146.446 47.3976 145.461Z" fill="#4A90E2" stroke="#263238" stroke-miterlimit="10"/>
<path d="M47.3976 145.461L52.0318 141.88" stroke="#263238" stroke-width="0.5" stroke-miterlimit="10"/>
<path d="M44.9558 138.826C44.9008 138.238 44.9728 137.645 45.1669 137.087C45.361 136.53 45.6727 136.02 46.081 135.593C46.9278 134.66 51.62 132.116 52.2696 133.762C52.9714 135.593 48.3314 139.805 44.9558 138.826Z" fill="#4A90E2" stroke="#263238" stroke-miterlimit="10"/>
<path d="M44.9558 138.826L49.5842 135.239" stroke="#263238" stroke-width="0.5" stroke-miterlimit="10"/>
<path d="M45.182 139.023C44.5904 139.015 44.0073 138.881 43.4721 138.629C42.9368 138.377 42.4618 138.014 42.079 137.563C41.2438 136.624 39.179 131.688 40.919 131.218C42.804 130.72 46.516 135.773 45.182 139.023Z" fill="#4A90E2" stroke="#263238" stroke-miterlimit="10"/>
<path d="M45.182 139.023L42.1022 134.046" stroke="#263238" stroke-width="0.5" stroke-miterlimit="10"/>
<path d="M49.1608 260.402H38.8136L37.5202 234.287H50.4542L49.1608 260.402Z" fill="#263238" stroke="#263238" stroke-miterlimit="10"/>
<path d="M67.1118 119.803H15.2482V37.3215H79.46V119.803H70.4816" stroke="#263238" stroke-miterlimit="10"/>
<path d="M77.1284 40.3113H17.574V116.814H77.1284V40.3113Z" stroke="#263238" stroke-miterlimit="10"/>
<path d="M29.5104 61.2693C30.5658 62.242 31.6922 63.1348 32.8802 63.9405C46.3536 73.0723 69.2056 68.744 76.9022 81.7232" stroke="#263238" stroke-miterlimit="10"/>
<path d="M21.576 40.63C21.2549 44.0473 21.6457 47.494 22.7238 50.753C23.8019 54.012 25.5439 57.0126 27.84 59.5658" stroke="#263238" stroke-miterlimit="10"/>
<path d="M26.68 82.772C33.2514 79.2954 41.76 76.8444 46.11 83.8845C51.1618 92.0545 27.8284 106.482 27.8284 116.808" stroke="#263238" stroke-miterlimit="10"/>
<path d="M17.7248 88.688C19.9784 86.8759 22.3651 85.2353 24.8646 83.7802" stroke="#263238" stroke-miterlimit="10"/>
<path d="M48.7606 40.63C48.7606 40.63 57.42 54.0844 77.14 50.4803" stroke="#263238" stroke-miterlimit="10"/>
<path d="M51.3474 53.8468C51.3845 54.1661 51.4039 54.4872 51.4054 54.8087C51.4166 56.7455 50.718 58.6195 49.4415 60.0773C48.165 61.5351 46.3986 62.476 44.4756 62.7224C42.5526 62.9688 40.6057 62.5039 39.0022 61.4151C37.3987 60.3264 36.2493 58.6892 35.7708 56.8122C35.2923 54.9353 35.5177 52.9483 36.4046 51.2259C37.2914 49.5035 38.7785 48.1648 40.5852 47.4623C42.392 46.7597 44.3936 46.7418 46.2126 47.412C48.0317 48.0822 49.5424 49.3941 50.46 51.1003" stroke="#263238" stroke-miterlimit="10"/>
<path d="M71.1312 65.4992C71.1312 66.2361 70.9125 66.9564 70.5027 67.5691C70.0929 68.1818 69.5104 68.6593 68.829 68.9413C68.1475 69.2233 67.3977 69.2971 66.6742 69.1533C65.9508 69.0096 65.2863 68.6547 64.7647 68.1337C64.2431 67.6126 63.888 66.9488 63.7441 66.226C63.6002 65.5033 63.674 64.7542 63.9563 64.0734C64.2385 63.3926 64.7166 62.8107 65.3299 62.4013C65.9431 61.992 66.6642 61.7734 67.4018 61.7734C68.3909 61.7734 69.3395 62.166 70.0389 62.8647C70.7383 63.5634 71.1312 64.511 71.1312 65.4992Z" stroke="#263238" stroke-miterlimit="10"/>
<path d="M71.1776 90.6291C73.2771 91.1778 75.2362 92.1653 76.9254 93.5262" stroke="#263238" stroke-miterlimit="10"/>
<path d="M56.8864 116.86C54.5982 114.766 52.9964 112.031 52.2909 109.013C51.5853 105.994 51.809 102.833 52.9325 99.944C54.056 97.0547 56.027 94.5718 58.5871 92.8208C61.1473 91.0697 64.1773 90.132 67.28 90.1307C67.5816 90.1307 67.86 90.1307 68.1674 90.1597" stroke="#263238" stroke-miterlimit="10"/>
<path d="M195.512 184.259H270.286V181.443H195.512V184.259Z" stroke="#263238" stroke-linecap="round" stroke-linejoin="round"/>
<path d="M198.981 260.402H266.817V184.34H198.981V260.402Z" stroke="#263238" stroke-linecap="round" stroke-linejoin="round"/>
<path d="M201.417 204.377H264.457V187.875H201.417V204.377Z" stroke="#263238" stroke-linecap="round" stroke-linejoin="round"/>
<path d="M229.895 197.65H236.199V194.608H229.895V197.65Z" fill="#263238" stroke="#263238" stroke-linecap="round" stroke-linejoin="round"/>
<path d="M201.417 225.231H264.457V208.729H201.417V225.231Z" stroke="#263238" stroke-linecap="round" stroke-linejoin="round"/>
<path d="M229.895 218.498H236.199V215.456H229.895V218.498Z" fill="#263238" stroke="#263238" stroke-linecap="round" stroke-linejoin="round"/>
<path d="M201.417 246.171H264.457V229.669H201.417V246.171Z" stroke="#263238" stroke-linecap="round" stroke-linejoin="round"/>
<path d="M229.895 239.438H236.199V236.396H229.895V239.438Z" fill="#263238" stroke="#263238" stroke-linecap="round" stroke-linejoin="round"/>
<path d="M236.008 148.167C236.867 148.391 237.754 148.488 238.641 148.456C238.641 148.456 238.241 147.234 238.206 147.158C237.794 146.301 236.495 144.887 235.439 145.032C235.265 145.06 235.098 145.124 234.95 145.221C234.802 145.318 234.676 145.445 234.581 145.593C234.485 145.742 234.423 145.91 234.397 146.085C234.371 146.259 234.382 146.438 234.43 146.608C234.563 146.967 234.773 147.293 235.046 147.562C235.318 147.831 235.647 148.038 236.008 148.167Z" fill="#263238"/>
<path d="M254.916 148.572C254.916 148.572 255.252 147.326 255.264 147.245C255.397 146.307 255.096 144.412 254.139 143.948C253.976 143.872 253.799 143.832 253.619 143.829C253.44 143.827 253.261 143.863 253.097 143.935C252.932 144.007 252.785 144.113 252.664 144.246C252.544 144.379 252.453 144.536 252.399 144.707C252.313 145.08 252.309 145.467 252.388 145.841C252.467 146.216 252.627 146.568 252.857 146.874C253.456 147.538 254.15 148.11 254.916 148.572Z" fill="#263238"/>
<path d="M260.495 141.81C259.434 141.694 258.175 143.143 257.793 144.012C257.758 144.087 257.369 145.322 257.387 145.322C257.189 145.547 256.975 145.791 256.749 146.069C256.337 146.573 255.873 147.152 255.409 147.807C254.904 148.515 254.441 149.252 254.023 150.015C253.547 150.866 253.149 151.758 252.834 152.68V152.715C252.834 152.402 252.834 151.556 252.834 151.463C252.712 150.525 251.923 148.775 250.873 148.566C250.701 148.538 250.524 148.547 250.355 148.592C250.186 148.636 250.028 148.715 249.891 148.825C249.754 148.934 249.642 149.07 249.562 149.225C249.481 149.381 249.434 149.551 249.423 149.725C249.438 150.107 249.535 150.481 249.71 150.822C249.884 151.162 250.131 151.46 250.432 151.695C251.17 152.176 251.975 152.544 252.822 152.785C252.525 153.734 252.291 154.702 252.12 155.682C252.022 156.261 251.935 156.841 251.859 157.42C251.859 157.148 251.859 156.91 251.859 156.875C251.737 155.931 250.949 154.181 249.899 153.978C249.726 153.951 249.55 153.961 249.381 154.005C249.212 154.05 249.055 154.13 248.918 154.239C248.782 154.348 248.67 154.484 248.589 154.638C248.508 154.793 248.46 154.963 248.449 155.137C248.462 155.519 248.56 155.894 248.734 156.234C248.909 156.574 249.156 156.873 249.458 157.107C250.173 157.58 250.955 157.941 251.778 158.179C251.778 158.399 251.726 158.619 251.697 158.845C251.569 159.912 251.447 160.978 251.297 162.021C251.239 162.386 251.175 162.745 251.111 163.11C251.111 162.867 251.111 162.664 251.111 162.635C250.989 161.69 250.2 159.946 249.151 159.738C248.978 159.711 248.802 159.72 248.633 159.765C248.464 159.81 248.307 159.889 248.17 159.998C248.034 160.107 247.922 160.243 247.841 160.398C247.76 160.553 247.712 160.722 247.701 160.897C247.715 161.278 247.813 161.653 247.988 161.993C248.162 162.333 248.408 162.631 248.71 162.867C249.402 163.327 250.161 163.679 250.96 163.91C250.885 164.275 250.804 164.646 250.717 164.999C250.647 165.237 250.595 165.468 250.514 165.706L250.287 166.407C250.131 166.847 249.968 167.299 249.8 167.722C249.684 168.024 249.574 168.302 249.458 168.586C249.516 168.221 249.615 167.502 249.615 167.427C249.604 166.592 249.379 165.774 248.959 165.051C248.965 164.958 248.965 164.866 248.959 164.773C248.937 164.597 248.878 164.429 248.787 164.277C248.695 164.126 248.572 163.996 248.426 163.895C248.281 163.795 248.116 163.726 247.942 163.693C247.767 163.661 247.589 163.666 247.416 163.707C246.39 163.979 245.734 165.781 245.676 166.731C245.676 166.789 245.711 167.398 245.74 167.786L245.584 167.114C245.473 166.656 245.352 166.21 245.224 165.723C245.154 165.491 245.085 165.254 245.009 165.016C244.934 164.779 244.847 164.541 244.766 164.298C244.557 163.718 244.325 163.191 244.081 162.635C244.913 162.463 245.713 162.164 246.454 161.748C246.772 161.536 247.041 161.257 247.241 160.931C247.442 160.605 247.569 160.239 247.614 159.859C247.618 159.683 247.586 159.508 247.518 159.345C247.451 159.181 247.35 159.034 247.222 158.913C247.094 158.791 246.942 158.697 246.776 158.638C246.609 158.578 246.433 158.554 246.256 158.567C245.195 158.683 244.279 160.369 244.081 161.302C244.081 161.36 244.006 162.044 243.983 162.415C243.832 162.084 243.681 161.754 243.519 161.424C243.043 160.474 242.533 159.523 242.034 158.573C241.877 158.283 241.727 157.994 241.576 157.704C242.436 157.525 243.265 157.218 244.035 156.794C244.353 156.582 244.622 156.303 244.822 155.977C245.023 155.651 245.15 155.285 245.195 154.905C245.2 154.728 245.167 154.552 245.099 154.389C245.031 154.225 244.93 154.078 244.801 153.956C244.673 153.834 244.52 153.741 244.353 153.682C244.186 153.623 244.009 153.599 243.832 153.613C242.771 153.729 241.854 155.415 241.663 156.342C241.663 156.412 241.558 157.397 241.547 157.646C241.216 157.009 240.886 156.365 240.59 155.716C240.188 154.847 239.841 153.953 239.552 153.04C240.418 152.858 241.252 152.55 242.028 152.124C242.348 151.913 242.618 151.635 242.818 151.308C243.018 150.982 243.145 150.615 243.188 150.235C243.193 150.059 243.16 149.883 243.093 149.72C243.025 149.557 242.924 149.41 242.797 149.288C242.669 149.167 242.517 149.073 242.35 149.013C242.184 148.954 242.007 148.93 241.831 148.943C240.77 149.059 239.853 150.745 239.662 151.678C239.662 151.736 239.581 152.489 239.552 152.837H239.494C239.229 151.908 239.049 150.958 238.954 149.997C238.89 149.47 238.867 148.96 238.85 148.462C239.679 148.425 240.497 148.267 241.28 147.993C241.619 147.819 241.917 147.574 242.151 147.273C242.386 146.973 242.551 146.625 242.637 146.254C242.662 146.079 242.649 145.901 242.6 145.731C242.551 145.561 242.466 145.403 242.352 145.268C242.237 145.133 242.095 145.023 241.936 144.947C241.776 144.87 241.602 144.828 241.425 144.823C240.364 144.823 239.262 146.393 238.972 147.297C238.972 147.349 238.844 147.877 238.774 148.242C238.774 148.022 238.774 147.79 238.774 147.575C238.774 146.77 238.827 146.034 238.879 145.379C238.879 145.009 238.948 144.678 238.983 144.365C239.704 143.896 240.352 143.322 240.903 142.662C241.124 142.345 241.273 141.984 241.338 141.603C241.403 141.223 241.384 140.832 241.28 140.46C241.221 140.293 241.127 140.14 241.005 140.011C240.883 139.882 240.734 139.781 240.57 139.714C240.406 139.646 240.229 139.615 240.051 139.62C239.874 139.626 239.7 139.669 239.54 139.747C238.595 140.234 238.345 142.14 238.502 143.079C238.502 143.154 238.873 144.4 238.89 144.389C238.85 144.69 238.809 145.009 238.769 145.362C238.705 146.017 238.635 146.753 238.618 147.558C238.585 148.43 238.607 149.302 238.682 150.171C238.755 151.149 238.916 152.119 239.163 153.068C239.163 153.068 239.163 153.068 239.163 153.097C238.995 152.837 238.502 152.118 238.461 152.066C237.835 151.348 236.211 150.328 235.231 150.739C235.068 150.811 234.923 150.917 234.804 151.049C234.685 151.18 234.595 151.336 234.54 151.505C234.485 151.674 234.467 151.852 234.486 152.029C234.505 152.206 234.561 152.376 234.651 152.53C234.873 152.841 235.162 153.099 235.496 153.286C235.829 153.473 236.2 153.585 236.582 153.613C237.462 153.61 238.336 153.473 239.175 153.208C239.448 154.162 239.785 155.097 240.184 156.006C240.416 156.533 240.665 157.061 240.92 157.588L240.607 157.142C239.987 156.423 238.357 155.404 237.377 155.815C237.214 155.887 237.069 155.992 236.95 156.124C236.831 156.256 236.741 156.412 236.686 156.581C236.631 156.75 236.613 156.928 236.632 157.105C236.651 157.281 236.707 157.452 236.797 157.605C237.02 157.916 237.309 158.174 237.642 158.362C237.976 158.55 238.346 158.664 238.728 158.695C239.584 158.694 240.435 158.563 241.251 158.307L241.547 158.886C242.034 159.848 242.515 160.804 242.968 161.783C243.124 162.119 243.269 162.455 243.414 162.791L243.142 162.409C242.521 161.69 240.891 160.671 239.911 161.082C239.749 161.154 239.603 161.259 239.484 161.391C239.365 161.523 239.276 161.679 239.221 161.848C239.166 162.017 239.148 162.195 239.167 162.372C239.186 162.548 239.242 162.719 239.331 162.872C239.555 163.182 239.844 163.439 240.178 163.626C240.511 163.814 240.881 163.926 241.263 163.956C242.094 163.961 242.922 163.837 243.716 163.591C243.855 163.939 243.994 164.286 244.11 164.634C244.186 164.866 244.273 165.092 244.337 165.335C244.4 165.578 244.47 165.81 244.534 166.042C244.644 166.494 244.76 166.963 244.853 167.409C244.922 167.722 244.98 168.018 245.044 168.313C244.893 167.977 244.574 167.328 244.545 167.276C244.035 166.471 242.585 165.213 241.553 165.474C241.382 165.523 241.224 165.607 241.089 165.721C240.953 165.834 240.843 165.975 240.765 166.134C240.688 166.293 240.644 166.467 240.638 166.643C240.632 166.82 240.663 166.996 240.729 167.16C240.903 167.5 241.149 167.799 241.449 168.035C241.749 168.271 242.097 168.439 242.469 168.528C243.334 168.66 244.214 168.66 245.079 168.528C245.178 169.026 245.27 169.507 245.352 169.965C245.526 170.961 245.659 171.859 245.763 172.618H241.686V181.437H252.706V172.561H248.443C248.721 171.946 249.023 171.251 249.336 170.475C249.533 170.005 249.731 169.495 249.916 168.968C250.769 169.164 251.647 169.232 252.52 169.171C252.898 169.111 253.258 168.969 253.576 168.756C253.893 168.543 254.161 168.263 254.359 167.937C254.438 167.779 254.483 167.605 254.491 167.429C254.498 167.252 254.468 167.075 254.402 166.911C254.336 166.747 254.236 166.599 254.109 166.476C253.982 166.353 253.83 166.258 253.663 166.198C252.654 165.857 251.117 167.004 250.548 167.769C250.548 167.815 250.212 168.348 250.021 168.678L250.264 168.035C250.427 167.595 250.572 167.154 250.734 166.679L250.943 165.972C251.018 165.741 251.07 165.486 251.134 165.237C251.268 164.657 251.384 164.078 251.482 163.498C252.272 163.815 253.105 164.011 253.953 164.078C254.335 164.075 254.713 163.989 255.059 163.827C255.405 163.665 255.713 163.431 255.96 163.139C256.061 162.994 256.13 162.829 256.164 162.655C256.197 162.481 256.194 162.302 256.154 162.13C256.114 161.957 256.039 161.795 255.932 161.654C255.826 161.512 255.691 161.394 255.536 161.308C254.591 160.821 252.892 161.719 252.219 162.392C252.172 162.432 251.743 162.971 251.517 163.266C251.569 162.907 251.633 162.548 251.674 162.183C251.807 161.128 251.906 160.056 252.01 158.99L252.114 158.011C252.931 158.332 253.791 158.528 254.666 158.59C255.049 158.588 255.426 158.503 255.773 158.341C256.119 158.179 256.427 157.944 256.673 157.652C256.776 157.507 256.847 157.343 256.881 157.169C256.916 156.996 256.913 156.817 256.873 156.644C256.833 156.471 256.756 156.309 256.649 156.169C256.542 156.028 256.406 155.911 256.25 155.827C255.304 155.34 253.605 156.238 252.932 156.904C252.886 156.956 252.265 157.727 252.12 157.93C252.196 157.211 252.277 156.499 252.387 155.798C252.531 154.849 252.737 153.91 253.002 152.987C253.825 153.307 254.691 153.502 255.571 153.567C255.954 153.564 256.331 153.478 256.677 153.316C257.024 153.154 257.331 152.92 257.578 152.628C257.68 152.483 257.75 152.319 257.784 152.146C257.818 151.972 257.815 151.793 257.775 151.621C257.735 151.449 257.659 151.287 257.552 151.146C257.445 151.005 257.31 150.888 257.155 150.803C256.209 150.316 254.51 151.214 253.837 151.881C253.791 151.927 253.321 152.512 253.106 152.796H253.048C253.343 151.875 253.717 150.981 254.168 150.125C254.411 149.65 254.666 149.215 254.927 148.792C255.691 149.199 256.513 149.486 257.363 149.644C257.743 149.684 258.127 149.642 258.489 149.519C258.851 149.395 259.181 149.195 259.457 148.931C259.575 148.799 259.663 148.644 259.717 148.475C259.77 148.306 259.787 148.128 259.766 147.952C259.745 147.776 259.687 147.607 259.596 147.455C259.505 147.303 259.382 147.172 259.237 147.071C258.355 146.492 256.569 147.193 255.821 147.784C255.78 147.813 255.409 148.19 255.136 148.462C255.258 148.277 255.38 148.08 255.502 147.883C255.942 147.21 256.395 146.625 256.795 146.11C257.027 145.82 257.242 145.559 257.445 145.316C258.305 145.326 259.161 145.205 259.985 144.956C260.342 144.818 260.664 144.604 260.929 144.327C261.193 144.051 261.394 143.72 261.516 143.357C261.56 143.188 261.567 143.012 261.538 142.84C261.509 142.668 261.445 142.504 261.349 142.358C261.252 142.212 261.127 142.088 260.98 141.994C260.833 141.9 260.668 141.837 260.495 141.81ZM248.768 170.231C248.385 171.112 248.02 171.894 247.701 172.549H246.581C246.459 171.761 246.303 170.811 246.094 169.779C245.995 169.275 245.879 168.742 245.758 168.192C246.256 167.992 246.742 167.764 247.213 167.508C247.854 168.059 248.569 168.52 249.336 168.875C249.145 169.356 248.953 169.808 248.768 170.231Z" fill="#263238"/>
<path d="M183.721 23.9946H95.4738C90.8227 23.9946 87.0522 27.7613 87.0522 32.4079V220.468C87.0522 225.114 90.8227 228.881 95.4738 228.881H183.721C188.372 228.881 192.142 225.114 192.142 220.468V32.4079C192.142 27.7613 188.372 23.9946 183.721 23.9946Z" fill="#263238"/>
<path d="M187.468 37.9067H91.7212V216.719H187.468V37.9067Z" fill="white" stroke="white" stroke-linecap="round" stroke-linejoin="round"/>
<path d="M181.349 156.951H97.8344C96.22 156.951 94.9112 158.258 94.9112 159.871V211.284C94.9112 212.897 96.22 214.204 97.8344 214.204H181.349C182.963 214.204 184.272 212.897 184.272 211.284V159.871C184.272 158.258 182.963 156.951 181.349 156.951Z" fill="#4A90E2"/>
<path d="M184.272 60.6667H94.9112V78.3336H184.272V60.6667Z" fill="#4A90E2"/>
<path d="M140.053 46.5286H93.2698V53.4354H140.053H185.206V46.5286H140.053Z" fill="#4A90E2"/>
<path d="M181.349 82.6851H97.8344C96.22 82.6851 94.9112 83.9925 94.9112 85.6054V149.708C94.9112 151.321 96.22 152.628 97.8344 152.628H181.349C182.963 152.628 184.272 151.321 184.272 149.708V85.6054C184.272 83.9925 182.963 82.6851 181.349 82.6851Z" fill="#4A90E2"/>
<path d="M103.64 75.083C106.981 75.083 109.69 72.3772 109.69 69.0395C109.69 65.7018 106.981 62.996 103.64 62.996C100.299 62.996 97.5908 65.7018 97.5908 69.0395C97.5908 72.3772 100.299 75.083 103.64 75.083Z" fill="white" stroke="#263238" stroke-miterlimit="10"/>
<path d="M106.331 85.4142H99.3772C98.8423 85.4142 98.4086 85.8474 98.4086 86.3818V93.3292C98.4086 93.8636 98.8423 94.2969 99.3772 94.2969H106.331C106.866 94.2969 107.3 93.8636 107.3 93.3292V86.3818C107.3 85.8474 106.866 85.4142 106.331 85.4142Z" fill="white" stroke="#263238" stroke-miterlimit="10"/>
<path d="M106.331 99.1757H99.3772C98.8423 99.1757 98.4086 99.6089 98.4086 100.143V107.091C98.4086 107.625 98.8423 108.058 99.3772 108.058H106.331C106.866 108.058 107.3 107.625 107.3 107.091V100.143C107.3 99.6089 106.866 99.1757 106.331 99.1757Z" fill="white" stroke="#263238" stroke-miterlimit="10"/>
<path d="M106.331 112.937H99.3772C98.8423 112.937 98.4086 113.37 98.4086 113.905V120.852C98.4086 121.387 98.8423 121.82 99.3772 121.82H106.331C106.866 121.82 107.3 121.387 107.3 120.852V113.905C107.3 113.37 106.866 112.937 106.331 112.937Z" fill="white" stroke="#263238" stroke-miterlimit="10"/>
<path d="M106.331 126.699H99.3772C98.8423 126.699 98.4086 127.132 98.4086 127.666V134.614C98.4086 135.148 98.8423 135.581 99.3772 135.581H106.331C106.866 135.581 107.3 135.148 107.3 134.614V127.666C107.3 127.132 106.866 126.699 106.331 126.699Z" fill="white" stroke="#263238" stroke-miterlimit="10"/>
<path d="M106.331 140.46H99.3772C98.8423 140.46 98.4086 140.893 98.4086 141.428V148.375C98.4086 148.91 98.8423 149.343 99.3772 149.343H106.331C106.866 149.343 107.3 148.91 107.3 148.375V141.428C107.3 140.893 106.866 140.46 106.331 140.46Z" fill="white" stroke="#263238" stroke-miterlimit="10"/>
<path d="M106.331 160.381H99.3772C98.8423 160.381 98.4086 160.814 98.4086 161.349V168.296C98.4086 168.83 98.8423 169.264 99.3772 169.264H106.331C106.866 169.264 107.3 168.83 107.3 168.296V161.349C107.3 160.814 106.866 160.381 106.331 160.381Z" fill="white" stroke="#263238" stroke-miterlimit="10"/>
<path d="M106.331 174.142H99.3772C98.8423 174.142 98.4086 174.576 98.4086 175.11V182.057C98.4086 182.592 98.8423 183.025 99.3772 183.025H106.331C106.866 183.025 107.3 182.592 107.3 182.057V175.11C107.3 174.576 106.866 174.142 106.331 174.142Z" fill="white" stroke="#263238" stroke-miterlimit="10"/>
<path d="M106.331 187.904H99.3772C98.8423 187.904 98.4086 188.337 98.4086 188.872V195.819C98.4086 196.353 98.8423 196.787 99.3772 196.787H106.331C106.866 196.787 107.3 196.353 107.3 195.819V188.872C107.3 188.337 106.866 187.904 106.331 187.904Z" fill="white" stroke="#263238" stroke-miterlimit="10"/>
<path d="M106.331 201.665H99.3772C98.8423 201.665 98.4086 202.099 98.4086 202.633V209.58C98.4086 210.115 98.8423 210.548 99.3772 210.548H106.331C106.866 210.548 107.3 210.115 107.3 209.58V202.633C107.3 202.099 106.866 201.665 106.331 201.665Z" fill="white" stroke="#263238" stroke-miterlimit="10"/>
<path d="M115.855 66.716H140.047" stroke="#263238" stroke-miterlimit="10"/>
<path d="M115.855 70.6909H140.047" stroke="#263238" stroke-miterlimit="10"/>
<path d="M115.855 89.6208H140.047" stroke="#263238" stroke-miterlimit="10"/>
<path d="M115.855 103.568H140.047" stroke="#263238" stroke-miterlimit="10"/>
<path d="M115.855 117.52H140.047" stroke="#263238" stroke-miterlimit="10"/>
<path d="M115.855 131.473H140.047" stroke="#263238" stroke-miterlimit="10"/>
<path d="M115.855 145.426H140.047" stroke="#263238" stroke-miterlimit="10"/>
<path d="M115.855 164.588H140.047" stroke="#263238" stroke-miterlimit="10"/>
<path d="M115.855 178.534H140.012" stroke="#263238" stroke-miterlimit="10"/>
<path d="M115.855 192.487H140.012" stroke="#263238" stroke-miterlimit="10"/>
<path d="M115.855 206.44H140.012" stroke="#263238" stroke-miterlimit="10"/>
<path d="M140.047 66.716H148.898" stroke="#263238" stroke-miterlimit="10"/>
<path d="M140.047 70.6909H170.317" stroke="#263238" stroke-miterlimit="10"/>
<path d="M140.047 89.6208H158.763" stroke="#263238" stroke-miterlimit="10"/>
<path d="M140.047 103.568H158.763" stroke="#263238" stroke-miterlimit="10"/>
<path d="M140.047 117.52H158.763" stroke="#263238" stroke-miterlimit="10"/>
<path d="M140.047 131.473H158.763" stroke="#263238" stroke-miterlimit="10"/>
<path d="M140.047 145.426H158.45" stroke="#263238" stroke-miterlimit="10"/>
<path d="M140.047 164.588H158.763" stroke="#263238" stroke-miterlimit="10"/>
<path d="M140.012 178.534H158.763" stroke="#263238" stroke-miterlimit="10"/>
<path d="M140.012 192.487H158.763" stroke="#263238" stroke-miterlimit="10"/>
<path d="M140.012 206.44H158.763" stroke="#263238" stroke-miterlimit="10"/>
<path d="M184.214 39.7609H176.274V44.1124H184.214V39.7609Z" stroke="#263238" stroke-width="0.821067" stroke-linecap="round" stroke-linejoin="round"/>
<path d="M182.462 39.7609H176.274V44.1124H182.462V39.7609Z" fill="#263238" stroke="#263238" stroke-width="0.725073" stroke-linecap="round" stroke-linejoin="round"/>
<path d="M185.316 40.9777H184.196V42.8956H185.316V40.9777Z" fill="#263238" stroke="#263238" stroke-width="0.725073" stroke-linecap="round" stroke-linejoin="round"/>
<path d="M95.3346 41.111H93.8788V43.6025H95.3346V41.111Z" fill="#263238" stroke="#263238" stroke-width="0.883086" stroke-linecap="round" stroke-linejoin="round"/>
<path d="M97.6198 40.236H96.164V43.6025H97.6198V40.236Z" fill="#263238" stroke="#263238" stroke-width="0.883086" stroke-linecap="round" stroke-linejoin="round"/>
<path d="M99.9108 39.2046H98.455V43.6083H99.9108V39.2046Z" fill="#263238" stroke="#263238" stroke-width="0.883086" stroke-linecap="round" stroke-linejoin="round"/>
<path d="M96.3032 96.6783H182.224" stroke="#263238" stroke-miterlimit="10"/>
<path d="M96.3032 110.44H182.224" stroke="#263238" stroke-miterlimit="10"/>
<path d="M96.3032 124.195H182.224" stroke="#263238" stroke-miterlimit="10"/>
<path d="M96.3032 137.957H182.224" stroke="#263238" stroke-miterlimit="10"/>
<path d="M96.3032 171.645H182.224" stroke="#263238" stroke-miterlimit="10"/>
<path d="M96.3032 185.406H182.224" stroke="#263238" stroke-miterlimit="10"/>
<path d="M96.3032 199.162H182.224" stroke="#263238" stroke-miterlimit="10"/>
<path d="M183.721 23.9946H95.4738C90.8227 23.9946 87.0522 27.7613 87.0522 32.4079V220.468C87.0522 225.114 90.8227 228.881 95.4738 228.881H183.721C188.372 228.881 192.142 225.114 192.142 220.468V32.4079C192.142 27.7613 188.372 23.9946 183.721 23.9946Z" stroke="white" stroke-miterlimit="10"/>
<path d="M179.783 89.3891L177.347 91.3591V92.1472L180.751 89.3891L177.347 86.631V87.419L179.783 89.3891Z" fill="#263238"/>
<path d="M179.783 103.174L177.347 105.144V105.932L180.751 103.174L177.347 100.416V101.204L179.783 103.174Z" fill="#263238"/>
<path d="M179.783 116.958L177.347 118.928V119.716L180.751 116.958L177.347 114.2V114.988L179.783 116.958Z" fill="#263238"/>
<path d="M179.783 130.743L177.347 132.719V133.501L180.751 130.743L177.347 127.991V128.773L179.783 130.743Z" fill="#263238"/>
<path d="M179.783 164.356L177.347 166.326V167.114L180.751 164.356L177.347 161.598V162.386L179.783 164.356Z" fill="#263238"/>
<path d="M179.783 178.14L177.347 180.111V180.899L180.751 178.14L177.347 175.382V176.17L179.783 178.14Z" fill="#263238"/>
<path d="M179.783 191.925L177.347 193.901V194.683L180.751 191.925L177.347 189.167V189.955L179.783 191.925Z" fill="#263238"/>
<path d="M179.783 205.716L177.347 207.686V208.468L180.751 205.716L177.347 202.957V203.74L179.783 205.716Z" fill="#263238"/>
<path d="M179.783 144.533L177.347 146.504V147.286L180.751 144.533L177.347 141.775V142.558L179.783 144.533Z" fill="#263238"/>
<path d="M142.79 222.218C142.791 221.512 142.583 220.821 142.191 220.233C141.799 219.645 141.241 219.187 140.589 218.916C139.936 218.645 139.217 218.573 138.524 218.711C137.831 218.848 137.193 219.187 136.693 219.686C136.193 220.185 135.852 220.821 135.714 221.513C135.575 222.206 135.646 222.924 135.916 223.576C136.186 224.229 136.644 224.787 137.232 225.179C137.82 225.572 138.511 225.781 139.217 225.781C140.164 225.781 141.072 225.406 141.742 224.738C142.412 224.07 142.789 223.163 142.79 222.218Z" stroke="white" stroke-linecap="round" stroke-linejoin="round"/>
<path d="M266.359 71.2297C264.961 60.3596 262.235 49.9356 256.499 40.4388C245.92 22.7951 226.78 12.1336 207.425 6.7275C191.185 2.19635 173.693 0.886837 157.493 5.56863C151.293 7.35908 145.719 9.96072 140.047 12.9853L140.012 228.696C155.707 223.95 171.117 219.871 187.154 222.183C202.078 224.333 216.357 231.993 231.368 230.567C246.164 229.165 258.825 218.979 267.751 207.129C274.908 197.609 279.67 186.096 280.111 174.102C280.592 161.128 274.711 149.296 271.759 136.908C266.603 115.255 269.172 93.1032 266.359 71.2297Z" fill="#263238"/>
<path d="M236.008 148.166C236.867 148.391 237.754 148.488 238.641 148.456C238.641 148.456 238.241 147.234 238.206 147.158C237.794 146.301 236.495 144.887 235.439 145.032C235.265 145.059 235.098 145.124 234.95 145.221C234.802 145.317 234.676 145.444 234.581 145.593C234.485 145.742 234.423 145.91 234.397 146.084C234.371 146.259 234.382 146.438 234.43 146.608C234.563 146.967 234.773 147.293 235.046 147.562C235.318 147.831 235.647 148.038 236.008 148.166Z" fill="white"/>
<path d="M254.916 148.572C254.916 148.572 255.252 147.326 255.264 147.245C255.397 146.307 255.096 144.412 254.139 143.948C253.976 143.872 253.799 143.832 253.619 143.829C253.44 143.827 253.261 143.863 253.097 143.935C252.932 144.007 252.785 144.113 252.664 144.246C252.544 144.379 252.453 144.536 252.399 144.707C252.313 145.08 252.309 145.467 252.388 145.841C252.467 146.216 252.627 146.568 252.857 146.874C253.456 147.538 254.15 148.11 254.916 148.572Z" fill="white"/>
<path d="M260.495 141.81C259.434 141.694 258.175 143.143 257.793 144.012C257.758 144.087 257.369 145.321 257.387 145.321C257.189 145.547 256.975 145.791 256.749 146.069C256.337 146.573 255.873 147.152 255.409 147.807C254.904 148.515 254.441 149.252 254.023 150.015C253.547 150.866 253.149 151.758 252.834 152.68V152.715C252.834 152.402 252.834 151.556 252.834 151.463C252.712 150.525 251.923 148.775 250.873 148.566C250.701 148.538 250.524 148.547 250.355 148.591C250.186 148.636 250.028 148.715 249.891 148.825C249.754 148.934 249.642 149.07 249.562 149.225C249.481 149.38 249.434 149.551 249.423 149.725C249.438 150.107 249.535 150.481 249.71 150.822C249.884 151.162 250.131 151.46 250.432 151.695C251.17 152.176 251.975 152.544 252.822 152.784C252.525 153.734 252.291 154.702 252.12 155.682C252.022 156.261 251.935 156.841 251.859 157.42C251.859 157.148 251.859 156.91 251.859 156.875C251.737 155.931 250.949 154.181 249.899 153.978C249.726 153.951 249.55 153.96 249.381 154.005C249.212 154.05 249.055 154.13 248.918 154.239C248.782 154.348 248.67 154.484 248.589 154.638C248.508 154.793 248.46 154.963 248.449 155.137C248.462 155.519 248.56 155.894 248.734 156.234C248.909 156.574 249.156 156.872 249.458 157.107C250.173 157.58 250.955 157.941 251.778 158.179C251.778 158.399 251.726 158.619 251.697 158.845C251.569 159.912 251.447 160.978 251.297 162.021C251.239 162.386 251.175 162.745 251.111 163.11C251.111 162.867 251.111 162.664 251.111 162.635C250.989 161.69 250.2 159.946 249.151 159.738C248.978 159.711 248.802 159.72 248.633 159.765C248.464 159.81 248.307 159.889 248.17 159.998C248.034 160.107 247.922 160.243 247.841 160.398C247.76 160.553 247.712 160.722 247.701 160.897C247.715 161.278 247.813 161.653 247.988 161.993C248.162 162.333 248.408 162.631 248.71 162.867C249.402 163.327 250.161 163.679 250.96 163.91C250.885 164.275 250.804 164.645 250.717 164.999C250.647 165.236 250.595 165.468 250.514 165.706L250.287 166.407C250.131 166.847 249.968 167.299 249.8 167.722C249.684 168.024 249.574 168.302 249.458 168.586C249.516 168.221 249.615 167.502 249.615 167.427C249.604 166.592 249.379 165.773 248.959 165.051C248.965 164.958 248.965 164.866 248.959 164.773C248.937 164.597 248.878 164.429 248.787 164.277C248.695 164.126 248.572 163.996 248.426 163.895C248.281 163.795 248.116 163.726 247.942 163.693C247.767 163.661 247.589 163.665 247.416 163.707C246.39 163.979 245.734 165.781 245.676 166.731C245.676 166.789 245.711 167.398 245.74 167.786L245.584 167.114C245.473 166.656 245.352 166.21 245.224 165.723C245.154 165.491 245.085 165.254 245.009 165.016C244.934 164.779 244.847 164.541 244.766 164.298C244.557 163.718 244.325 163.191 244.081 162.635C244.913 162.463 245.713 162.164 246.454 161.748C246.772 161.536 247.041 161.257 247.241 160.931C247.442 160.605 247.569 160.239 247.614 159.859C247.618 159.683 247.586 159.508 247.518 159.344C247.451 159.181 247.35 159.034 247.222 158.913C247.094 158.791 246.942 158.697 246.776 158.638C246.609 158.578 246.433 158.554 246.256 158.567C245.195 158.683 244.279 160.369 244.081 161.302C244.081 161.36 244.006 162.044 243.983 162.415C243.832 162.084 243.681 161.754 243.519 161.424C243.043 160.474 242.533 159.523 242.034 158.573C241.877 158.283 241.727 157.994 241.576 157.704C242.436 157.525 243.265 157.218 244.035 156.794C244.353 156.582 244.622 156.303 244.822 155.977C245.023 155.651 245.15 155.285 245.195 154.905C245.2 154.728 245.167 154.552 245.099 154.389C245.031 154.225 244.93 154.078 244.801 153.956C244.673 153.834 244.52 153.741 244.353 153.682C244.186 153.623 244.009 153.599 243.832 153.613C242.771 153.729 241.854 155.415 241.663 156.342C241.663 156.412 241.558 157.397 241.547 157.646C241.216 157.009 240.886 156.365 240.59 155.716C240.188 154.847 239.841 153.953 239.552 153.039C240.418 152.858 241.252 152.55 242.028 152.124C242.348 151.913 242.618 151.634 242.818 151.308C243.018 150.982 243.145 150.615 243.188 150.235C243.193 150.059 243.16 149.883 243.093 149.72C243.025 149.557 242.924 149.41 242.797 149.288C242.669 149.166 242.517 149.073 242.35 149.013C242.184 148.954 242.007 148.93 241.831 148.943C240.77 149.059 239.853 150.745 239.662 151.678C239.662 151.736 239.581 152.489 239.552 152.837H239.494C239.229 151.908 239.049 150.958 238.954 149.997C238.89 149.47 238.867 148.96 238.85 148.462C239.679 148.425 240.497 148.267 241.28 147.993C241.619 147.819 241.917 147.574 242.151 147.273C242.386 146.973 242.551 146.625 242.637 146.254C242.662 146.079 242.649 145.901 242.6 145.731C242.551 145.561 242.466 145.403 242.352 145.268C242.237 145.133 242.095 145.023 241.936 144.947C241.776 144.87 241.602 144.828 241.425 144.823C240.364 144.823 239.262 146.393 238.972 147.297C238.972 147.349 238.844 147.877 238.774 148.242C238.774 148.022 238.774 147.79 238.774 147.575C238.774 146.77 238.827 146.034 238.879 145.379C238.879 145.009 238.948 144.678 238.983 144.365C239.704 143.896 240.352 143.322 240.903 142.662C241.124 142.345 241.273 141.984 241.338 141.603C241.403 141.222 241.384 140.832 241.28 140.46C241.221 140.293 241.127 140.14 241.005 140.011C240.883 139.882 240.734 139.781 240.57 139.714C240.406 139.646 240.229 139.614 240.051 139.62C239.874 139.626 239.7 139.669 239.54 139.747C238.595 140.234 238.345 142.14 238.502 143.079C238.502 143.154 238.873 144.4 238.89 144.389C238.85 144.69 238.809 145.009 238.769 145.362C238.705 146.017 238.635 146.753 238.618 147.558C238.585 148.43 238.607 149.302 238.682 150.171C238.755 151.149 238.916 152.119 239.163 153.068C239.163 153.068 239.163 153.068 239.163 153.097C238.995 152.837 238.502 152.118 238.461 152.066C237.835 151.348 236.211 150.328 235.231 150.739C235.068 150.811 234.923 150.917 234.804 151.048C234.685 151.18 234.595 151.336 234.54 151.505C234.485 151.674 234.467 151.852 234.486 152.029C234.505 152.206 234.561 152.376 234.651 152.53C234.873 152.841 235.162 153.099 235.496 153.286C235.829 153.473 236.2 153.585 236.582 153.613C237.462 153.61 238.336 153.473 239.175 153.207C239.448 154.162 239.785 155.097 240.184 156.006C240.416 156.533 240.665 157.061 240.92 157.588L240.607 157.142C239.987 156.423 238.357 155.404 237.377 155.815C237.214 155.887 237.069 155.992 236.95 156.124C236.831 156.256 236.741 156.412 236.686 156.581C236.631 156.75 236.613 156.928 236.632 157.105C236.651 157.281 236.707 157.452 236.797 157.605C237.02 157.916 237.309 158.174 237.642 158.362C237.976 158.55 238.346 158.664 238.728 158.695C239.584 158.694 240.435 158.563 241.251 158.306L241.547 158.886C242.034 159.848 242.515 160.804 242.968 161.783C243.124 162.119 243.269 162.455 243.414 162.791L243.142 162.409C242.521 161.69 240.891 160.671 239.911 161.082C239.749 161.154 239.603 161.259 239.484 161.391C239.365 161.523 239.276 161.679 239.221 161.848C239.166 162.017 239.148 162.195 239.167 162.372C239.186 162.548 239.242 162.719 239.331 162.872C239.555 163.182 239.844 163.439 240.178 163.626C240.511 163.813 240.881 163.926 241.263 163.956C242.094 163.96 242.922 163.837 243.716 163.591C243.855 163.939 243.994 164.286 244.11 164.634C244.186 164.866 244.273 165.092 244.337 165.335C244.4 165.578 244.47 165.81 244.534 166.042C244.644 166.494 244.76 166.963 244.853 167.409C244.922 167.722 244.98 168.018 245.044 168.313C244.893 167.977 244.574 167.328 244.545 167.276C244.035 166.471 242.585 165.213 241.553 165.474C241.382 165.523 241.224 165.607 241.089 165.721C240.953 165.834 240.843 165.975 240.765 166.134C240.688 166.293 240.644 166.467 240.638 166.643C240.632 166.82 240.663 166.996 240.729 167.16C240.903 167.5 241.149 167.798 241.449 168.035C241.749 168.271 242.097 168.439 242.469 168.528C243.334 168.66 244.214 168.66 245.079 168.528C245.178 169.026 245.27 169.507 245.352 169.965C245.526 170.961 245.659 171.859 245.763 172.618H241.686V181.437H252.706V172.56H248.443C248.721 171.946 249.023 171.251 249.336 170.475C249.533 170.005 249.731 169.495 249.916 168.968C250.769 169.164 251.647 169.232 252.52 169.171C252.898 169.111 253.258 168.969 253.576 168.756C253.893 168.543 254.161 168.263 254.359 167.937C254.438 167.778 254.483 167.605 254.491 167.429C254.498 167.252 254.468 167.075 254.402 166.911C254.336 166.747 254.236 166.598 254.109 166.476C253.982 166.353 253.83 166.258 253.663 166.198C252.654 165.856 251.117 167.004 250.548 167.769C250.548 167.815 250.212 168.348 250.021 168.678L250.264 168.035C250.427 167.595 250.572 167.154 250.734 166.679L250.943 165.972C251.018 165.741 251.07 165.486 251.134 165.236C251.268 164.657 251.384 164.078 251.482 163.498C252.272 163.815 253.105 164.011 253.953 164.078C254.335 164.075 254.713 163.989 255.059 163.827C255.405 163.665 255.713 163.43 255.96 163.139C256.061 162.994 256.13 162.829 256.164 162.655C256.197 162.481 256.194 162.302 256.154 162.13C256.114 161.957 256.039 161.795 255.932 161.654C255.826 161.512 255.691 161.394 255.536 161.308C254.591 160.821 252.892 161.719 252.219 162.391C252.172 162.432 251.743 162.971 251.517 163.266C251.569 162.907 251.633 162.548 251.674 162.183C251.807 161.128 251.906 160.056 252.01 158.99L252.114 158.011C252.931 158.332 253.791 158.528 254.666 158.59C255.049 158.588 255.426 158.503 255.773 158.341C256.119 158.179 256.427 157.944 256.673 157.652C256.776 157.507 256.847 157.343 256.881 157.169C256.916 156.995 256.913 156.816 256.873 156.644C256.833 156.471 256.756 156.309 256.649 156.168C256.542 156.028 256.406 155.911 256.25 155.827C255.304 155.34 253.605 156.238 252.932 156.904C252.886 156.956 252.265 157.727 252.12 157.93C252.196 157.211 252.277 156.499 252.387 155.798C252.531 154.849 252.737 153.91 253.002 152.987C253.825 153.307 254.691 153.502 255.571 153.567C255.954 153.564 256.331 153.478 256.677 153.316C257.024 153.154 257.331 152.92 257.578 152.628C257.68 152.483 257.75 152.319 257.784 152.145C257.818 151.972 257.815 151.793 257.775 151.621C257.735 151.449 257.659 151.287 257.552 151.146C257.445 151.005 257.31 150.888 257.155 150.803C256.209 150.316 254.51 151.214 253.837 151.881C253.791 151.927 253.321 152.512 253.106 152.796H253.048C253.343 151.875 253.717 150.981 254.168 150.125C254.411 149.65 254.666 149.215 254.927 148.792C255.691 149.199 256.513 149.486 257.363 149.644C257.743 149.684 258.127 149.642 258.489 149.518C258.851 149.395 259.181 149.195 259.457 148.931C259.575 148.799 259.663 148.643 259.717 148.475C259.77 148.306 259.787 148.128 259.766 147.952C259.745 147.776 259.687 147.607 259.596 147.455C259.505 147.303 259.382 147.172 259.237 147.071C258.355 146.492 256.569 147.193 255.821 147.784C255.78 147.813 255.409 148.19 255.136 148.462C255.258 148.277 255.38 148.08 255.502 147.883C255.942 147.21 256.395 146.625 256.795 146.109C257.027 145.82 257.242 145.559 257.445 145.316C258.305 145.326 259.161 145.205 259.985 144.956C260.342 144.818 260.664 144.603 260.929 144.327C261.193 144.051 261.394 143.72 261.516 143.357C261.56 143.188 261.567 143.012 261.538 142.84C261.509 142.668 261.445 142.504 261.349 142.358C261.252 142.212 261.127 142.088 260.98 141.994C260.833 141.9 260.668 141.837 260.495 141.81ZM248.768 170.231C248.385 171.112 248.02 171.894 247.701 172.549H246.581C246.459 171.761 246.303 170.811 246.094 169.779C245.995 169.275 245.879 168.742 245.758 168.192C246.256 167.992 246.742 167.764 247.213 167.508C247.854 168.059 248.569 168.519 249.336 168.875C249.145 169.356 248.953 169.808 248.768 170.231Z" fill="white"/>
<path d="M195.512 184.259H270.286V181.443H195.512V184.259Z" stroke="white" stroke-linecap="round" stroke-linejoin="round"/>
<path d="M266.817 209.575V184.34H198.981V226.505" stroke="white" stroke-linecap="round" stroke-linejoin="round"/>
<path d="M201.417 204.377H264.457V187.875H201.417V204.377Z" stroke="white" stroke-linecap="round" stroke-linejoin="round"/>
<path d="M229.895 197.65H236.199V194.608H229.895V197.65Z" fill="white" stroke="white" stroke-linecap="round" stroke-linejoin="round"/>
<path d="M264.457 213.063V208.723H201.422V225.231H250.902" stroke="white" stroke-linecap="round" stroke-linejoin="round"/>
<path d="M229.895 218.498H236.199V215.456H229.895V218.498Z" fill="white" stroke="white" stroke-linecap="round" stroke-linejoin="round"/>
<path d="M230.579 53.8642H212.036C207.805 53.8642 204.375 57.2911 204.375 61.5185V62.6252C204.375 66.8525 207.805 70.2795 212.036 70.2795H230.579C234.81 70.2795 238.241 66.8525 238.241 62.6252V61.5185C238.241 57.2911 234.81 53.8642 230.579 53.8642Z" fill="#263238" stroke="white" stroke-linecap="round" stroke-linejoin="round"/>
<path d="M235.555 67.7542C238.699 64.6134 238.699 59.5211 235.555 56.3804C232.411 53.2396 227.314 53.2396 224.17 56.3804C221.026 59.5211 221.026 64.6134 224.17 67.7542C227.314 70.895 232.411 70.8949 235.555 67.7542Z" fill="white" stroke="white" stroke-linecap="round" stroke-linejoin="round"/>
<path d="M215.099 41.4702C215.911 41.4702 216.259 41.9627 216.259 42.7681V45.3987C216.259 46.1925 215.888 46.685 215.099 46.685H213.875V41.4702H215.099ZM215.099 46.1577C215.516 46.1577 215.719 45.897 215.719 45.4219V42.7391C215.719 42.2582 215.516 41.9974 215.093 41.9974H214.467V46.1577H215.099Z" fill="white"/>
<path d="M217.413 45.6363L217.21 46.685H216.671L217.674 41.4702H218.515L219.518 46.685H218.938L218.735 45.6363H217.413ZM217.488 45.1379H218.648L218.068 42.1249L217.488 45.1379Z" fill="white"/>
<path d="M221.137 41.4702C221.954 41.4702 222.297 41.8873 222.297 42.6638V43.1157C222.297 43.6952 222.094 44.0486 221.647 44.1877C222.123 44.3325 222.302 44.7208 222.302 45.277V46.0882C222.284 46.3022 222.32 46.5174 222.407 46.714H221.827C221.747 46.5135 221.716 46.2973 221.734 46.0824V45.2365C221.734 44.657 221.456 44.46 220.968 44.46H220.562V46.685H219.982V41.4702H221.137ZM220.98 43.9269C221.444 43.9269 221.722 43.7821 221.722 43.2142V42.7159C221.722 42.2466 221.548 41.9974 221.113 41.9974H220.533V43.9269H220.98Z" fill="white"/>
<path d="M223.805 44.4194L223.497 44.9351V46.6734H222.917V41.4586H223.497V43.9791L224.883 41.4586H225.463L224.141 43.8342L225.504 46.6734H224.924L223.805 44.4194Z" fill="white"/>
<path d="M229.048 46.6792H228.468L227.627 42.5363V46.6908H227.116V41.476H227.94L228.798 45.6421L229.628 41.476H230.44V46.6908H229.86V42.49L229.048 46.6792Z" fill="white"/>
<path d="M230.985 42.7275C230.985 41.9337 231.379 41.418 232.18 41.418C232.98 41.418 233.38 41.9337 233.38 42.7275V45.4335C233.403 45.6013 233.388 45.7719 233.337 45.9334C233.286 46.0948 233.2 46.2431 233.086 46.368C232.971 46.4928 232.831 46.591 232.674 46.6558C232.518 46.7206 232.349 46.7504 232.18 46.743C231.379 46.743 230.985 46.2215 230.985 45.4335V42.7275ZM231.565 45.4567C231.565 45.9318 231.768 46.2099 232.186 46.2099C232.603 46.2099 232.806 45.9318 232.806 45.4567V42.6986C232.806 42.2292 232.609 41.9453 232.186 41.9453C231.762 41.9453 231.565 42.2292 231.565 42.6986V45.4567Z" fill="white"/>
<path d="M235.155 41.4702C235.973 41.4702 236.344 41.9627 236.344 42.7681V45.3987C236.344 46.1925 235.973 46.685 235.155 46.685H233.931V41.4702H235.155ZM235.155 46.1577C235.573 46.1577 235.776 45.897 235.776 45.4219V42.7391C235.776 42.2582 235.573 41.9974 235.149 41.9974H234.523V46.1577H235.155Z" fill="white"/>
<path d="M238.745 43.7821V44.3036H237.469V46.1577H239.041V46.685H236.889V41.4702H239.041V41.9974H237.469V43.7821H238.745Z" fill="white"/>
<path d="M207.135 45.7579C206.562 45.7578 205.997 45.622 205.487 45.3618C204.976 45.1016 204.534 44.7244 204.198 44.2609C203.861 43.7975 203.639 43.261 203.55 42.6953C203.461 42.1297 203.507 41.551 203.684 41.0066C203.094 41.1986 202.562 41.5388 202.141 41.9945C201.72 42.4503 201.422 43.0065 201.277 43.6098C201.133 44.2132 201.145 44.8436 201.314 45.4408C201.482 46.0379 201.802 46.5819 202.241 47.0206C202.68 47.4593 203.224 47.7782 203.822 47.9467C204.42 48.1152 205.051 48.1277 205.655 47.983C206.259 47.8383 206.815 47.5412 207.272 47.1202C207.728 46.6992 208.068 46.1683 208.261 45.5783C207.897 45.6971 207.518 45.7577 207.135 45.7579Z" fill="white"/>
<path d="M142.79 222.218C142.791 221.511 142.583 220.821 142.191 220.233C141.799 219.645 141.241 219.187 140.589 218.916C139.936 218.645 139.217 218.573 138.524 218.71C137.831 218.848 137.193 219.187 136.693 219.686C136.193 220.185 135.852 220.821 135.714 221.513C135.575 222.206 135.646 222.924 135.916 223.576C136.186 224.229 136.644 224.787 137.232 225.179C137.82 225.572 138.511 225.781 139.217 225.781C140.164 225.781 141.072 225.406 141.742 224.738C142.412 224.07 142.789 223.163 142.79 222.218Z" stroke="white" stroke-linecap="round" stroke-linejoin="round"/>
<path d="M140.012 216.719H187.468V37.9067H140.053" fill="#263238"/>
<path d="M140.012 216.719H187.468V37.9067H140.053" stroke="white" stroke-linecap="round" stroke-linejoin="round"/>
<path opacity="0.3" d="M185.206 46.5286H140.047V53.4354H185.206V46.5286Z" fill="#757575"/>
<path opacity="0.3" d="M181.349 214.204H140.012L140.047 156.951H181.349C182.118 156.951 182.855 157.256 183.399 157.799C183.943 158.343 184.249 159.079 184.249 159.848V211.261C184.255 211.645 184.184 212.027 184.041 212.384C183.898 212.74 183.686 213.065 183.416 213.339C183.146 213.613 182.824 213.831 182.469 213.979C182.114 214.128 181.733 214.204 181.349 214.204Z" fill="#757575"/>
<path opacity="0.3" d="M140.047 82.6851H181.343C182.112 82.6851 182.85 82.9903 183.393 83.5336C183.937 84.0769 184.243 84.8138 184.243 85.5822V149.731C184.243 150.499 183.937 151.236 183.393 151.78C182.85 152.323 182.112 152.628 181.343 152.628H140.047V82.6851Z" fill="#757575"/>
<path opacity="0.3" d="M184.266 60.6667H140.047V78.3335H184.266V60.6667Z" fill="#757575"/>
<path d="M140.047 96.6783H182.224" stroke="#263238" stroke-miterlimit="10"/>
<path d="M140.047 110.44H182.224" stroke="#263238" stroke-miterlimit="10"/>
<path d="M140.047 124.195H182.224" stroke="#263238" stroke-miterlimit="10"/>
<path d="M140.047 137.957H182.224" stroke="#263238" stroke-miterlimit="10"/>
<path d="M140.047 171.645H182.224" stroke="#263238" stroke-miterlimit="10"/>
<path d="M140.012 185.406H182.224" stroke="#263238" stroke-miterlimit="10"/>
<path d="M140.012 199.162H182.224" stroke="#263238" stroke-miterlimit="10"/>
<path d="M179.783 89.3891L177.347 91.3591V92.1472L180.751 89.3891L177.347 86.631V87.419L179.783 89.3891Z" fill="#757575"/>
<path d="M179.783 103.174L177.347 105.144V105.932L180.751 103.174L177.347 100.416V101.204L179.783 103.174Z" fill="#757575"/>
<path d="M179.783 116.958L177.347 118.928V119.716L180.751 116.958L177.347 114.2V114.988L179.783 116.958Z" fill="#757575"/>
<path d="M179.783 130.743L177.347 132.719V133.501L180.751 130.743L177.347 127.991V128.773L179.783 130.743Z" fill="#757575"/>
<path d="M140.047 66.7159H148.898" stroke="white" stroke-miterlimit="10"/>
<path d="M140.047 70.6908H170.317" stroke="white" stroke-miterlimit="10"/>
<path d="M140.047 89.6208H158.763" stroke="white" stroke-miterlimit="10"/>
<path d="M140.047 103.568H158.763" stroke="white" stroke-miterlimit="10"/>
<path d="M140.047 117.52H158.763" stroke="white" stroke-miterlimit="10"/>
<path d="M140.047 131.473H158.763" stroke="white" stroke-miterlimit="10"/>
<path d="M140.047 145.426H158.45" stroke="white" stroke-miterlimit="10"/>
<path d="M140.047 164.588H158.763" stroke="white" stroke-miterlimit="10"/>
<path d="M140.012 178.534H158.763" stroke="white" stroke-miterlimit="10"/>
<path d="M140.012 192.487H158.763" stroke="white" stroke-miterlimit="10"/>
<path d="M140.012 206.44H158.763" stroke="white" stroke-miterlimit="10"/>
<path d="M179.783 164.356L177.347 166.326V167.114L180.751 164.356L177.347 161.598V162.386L179.783 164.356Z" fill="#757575"/>
<path d="M179.783 178.14L177.347 180.11V180.899L180.751 178.14L177.347 175.382V176.17L179.783 178.14Z" fill="#757575"/>
<path d="M179.783 191.925L177.347 193.901V194.683L180.751 191.925L177.347 189.167V189.955L179.783 191.925Z" fill="#757575"/>
<path d="M179.783 205.715L177.347 207.686V208.468L180.751 205.715L177.347 202.957V203.74L179.783 205.715Z" fill="#757575"/>
<path d="M140.012 228.881H183.721C185.955 228.88 188.097 227.992 189.676 226.413C191.255 224.834 192.142 222.694 192.142 220.462V32.4078C192.142 30.1765 191.255 28.0365 189.676 26.4587C188.096 24.8809 185.954 23.9945 183.721 23.9945H140.047" stroke="white" stroke-miterlimit="10"/>
<path d="M184.214 39.7608H176.274V44.1123H184.214V39.7608Z" stroke="white" stroke-width="0.821067" stroke-linecap="round" stroke-linejoin="round"/>
<path d="M182.462 39.7608H176.274V44.1123H182.462V39.7608Z" fill="white" stroke="white" stroke-width="0.725073" stroke-linecap="round" stroke-linejoin="round"/>
<path d="M185.316 40.9777H184.196V42.8956H185.316V40.9777Z" fill="#263238" stroke="white" stroke-width="0.725073" stroke-linecap="round" stroke-linejoin="round"/>
<path d="M179.783 144.533L177.347 146.504V147.286L180.751 144.533L177.347 141.775V142.558L179.783 144.533Z" fill="#757575"/>
<path d="M17.9336 260.402H13.92" stroke="#263238" stroke-miterlimit="10"/>
<path d="M280.72 260.402H22.8404" stroke="#263238" stroke-miterlimit="10"/>
<path d="M117.317 239.114C117.317 239.114 108.907 236.958 104.47 238.662C100.033 240.366 99.2496 239.908 98.7856 241.953C98.3216 243.999 99.6962 246.044 106.059 247.632C112.421 249.219 123.001 251.832 126.753 252.742C130.506 253.652 142.1 255.014 144.49 254.672C146.879 254.33 156.67 251.496 157.563 248.767C158.456 246.038 158.015 243.552 155.631 243.205C153.248 242.857 121.522 238.569 120.611 238.569C119.501 238.672 118.4 238.854 117.317 239.114Z" fill="#5C5C5C" stroke="#263238" stroke-miterlimit="10"/>
<path d="M182.799 243.773C182.799 243.773 178.251 249.677 175.073 252.064C171.895 254.451 166.773 256.607 164.633 257.401C162.493 258.195 148.393 259.672 144.623 259.446C140.853 259.22 134.05 257.401 133.145 256.943C132.24 256.485 129.845 256.943 132.565 255.784C138.46 253.421 144.544 251.56 150.754 250.222C158.485 248.634 173.037 246.357 175.989 244.769C178.942 243.182 182.799 243.773 182.799 243.773Z" fill="#5C5C5C" stroke="#263238" stroke-miterlimit="10"/>
<path d="M171.431 235.707C171.431 235.707 154.031 242.747 148.352 246.38C142.674 250.013 130.952 250.697 130.952 250.697L131.022 258.084C131.022 258.084 141.062 257.818 149.362 257.818C157.661 257.818 171.088 252.603 175.752 249.787C180.415 246.971 183.483 244.445 183.483 241.038C183.483 237.631 180.757 235.017 177.915 235.017C175.739 235.081 173.571 235.312 171.431 235.707Z" fill="#5C5C5C" stroke="#263238" stroke-miterlimit="10"/>
<path d="M150.4 196.752C150.4 196.752 143.921 192.545 143.011 192.435C142.1 192.325 134.595 190.048 131.411 192.777C128.226 195.506 127.09 208.676 126.405 216.058C125.721 223.44 123.563 240.365 123.563 240.365C123.563 240.365 131.66 247.075 134.937 247.858C138.214 248.64 146.079 245.476 149.379 243.773C152.679 242.069 155.515 238.772 155.515 238.772C155.515 238.772 151.537 230.254 151.537 226.054C151.537 221.853 150.516 203.456 150.626 202.204C150.736 200.953 150.4 196.752 150.4 196.752Z" fill="white" stroke="#263238" stroke-miterlimit="10"/>
<path d="M133.557 202.117L138.777 208.335C141.011 206.612 142.707 204.288 143.666 201.636" stroke="#263238" stroke-miterlimit="10"/>
<path d="M132.095 200.385L132.669 201.063" stroke="#263238" stroke-miterlimit="10"/>
<path d="M142.831 221.638C143.421 222.314 144.05 222.954 144.716 223.556" stroke="#263238" stroke-miterlimit="10"/>
<path d="M133.574 207.767C133.574 207.767 137.599 215.149 141.694 220.3" stroke="#263238" stroke-miterlimit="10"/>
<path d="M132.095 210.154C132.095 210.154 133.458 215.606 134.827 218.33" stroke="#263238" stroke-miterlimit="10"/>
<path d="M149.831 231.39C149.831 231.39 143.695 237.184 140.053 238.772" stroke="#263238" stroke-miterlimit="10"/>
<path d="M143.805 192.777C143.805 192.777 145.737 203.566 147.105 210.948C148.474 218.33 152.325 234.455 152.325 235.023C152.325 235.591 152.552 238.204 152.552 238.204L158.81 234.229C158.81 234.229 156.762 227.276 156.762 226.506C156.762 225.735 157.342 217.988 157.342 217.988L160.527 228.667C160.527 228.667 162.232 226.164 166.211 225.938C170.189 225.712 171.895 226.847 171.895 226.847C171.895 226.847 166.095 211.203 165.3 207.883C164.505 204.562 163.137 200.385 161.095 199.023C159.053 197.661 151.316 194.48 149.269 193.913C147.221 193.345 143.805 192.777 143.805 192.777Z" fill="#161616" stroke="#263238" stroke-miterlimit="10"/>
<path d="M157.337 217.988L156.652 209.696" stroke="#263238" stroke-miterlimit="10"/>
<path d="M145.284 193.113C146.442 194.497 147.26 196.132 147.674 197.887C148.254 200.611 148.254 204.134 149.147 205.611L150.058 207.083L151.31 208.242C151.186 208.367 151.034 208.463 150.866 208.521C150.699 208.578 150.52 208.597 150.344 208.575C150.168 208.554 150 208.492 149.852 208.395C149.704 208.298 149.579 208.168 149.489 208.016C148.669 207.06 147.796 206.151 146.873 205.293L147.216 210.287L143.353 192.904C143.353 192.904 144.49 192.209 145.284 193.113Z" fill="#4A90E2" stroke="#263238" stroke-miterlimit="10"/>
<path d="M131.527 192.319C131.527 192.319 130.367 204.244 130.367 209.922C130.367 215.601 127.867 231.506 127.072 233.887C126.311 235.886 125.398 237.823 124.34 239.682L122.293 237.526C122.293 237.526 122.293 230.254 122.525 228.667C122.757 227.079 120.82 219.917 120.82 219.917L119.341 227.299L111.267 227.531L109.562 229.461C109.58 226.537 109.774 223.617 110.142 220.717C110.722 216.742 111.505 207.315 113.442 205.611C115.379 203.908 118.784 200.043 122.989 196.978C125.831 194.947 128.793 193.087 131.857 191.409L131.527 192.319Z" fill="#161616" stroke="#263238" stroke-miterlimit="10"/>
<path d="M131.416 191.183C131.416 191.183 130.164 194.365 128.911 197.43C128.032 199.639 127.83 202.059 128.331 204.383C128.563 205.403 126.858 208.81 126.173 209.493C125.489 210.177 127.194 209.945 127.762 209.493C128.331 209.042 129.468 205.971 129.468 205.971L130.494 208.242C130.494 208.242 131.654 195.865 131.654 194.504C131.673 193.477 131.749 192.451 131.88 191.433L131.416 191.183Z" fill="#4A90E2" stroke="#263238" stroke-miterlimit="10"/>
<path d="M119.666 215.89L119.248 214.471" stroke="#263238" stroke-miterlimit="10"/>
<path d="M120.843 219.917L120.28 218" stroke="#263238" stroke-miterlimit="10"/>
<path d="M142.558 172.329C142.558 172.329 144.6 173.488 144.942 174.264C145.265 175.193 145.53 176.141 145.737 177.103C145.737 177.103 150.284 179.485 149.715 181.188C149.583 181.655 149.353 182.088 149.04 182.459C148.727 182.83 148.338 183.129 147.9 183.338C147.9 183.338 150.174 188.448 149.489 190.72C148.805 192.991 144.374 193.669 144.374 193.669C144.374 193.669 142.68 197.998 142.216 200.953C141.752 203.908 139.032 205.588 138.463 205.588C137.895 205.588 132.779 199.11 131.503 194.115C130.227 189.121 129.798 186.05 129.798 186.05C128.971 183.438 128.512 180.723 128.435 177.984C128.435 174.009 131.277 172.769 135.824 170.834C140.372 168.899 142.558 172.329 142.558 172.329Z" fill="white" stroke="#263238" stroke-miterlimit="10"/>
<path d="M142.065 177.694C142.262 178.222 142.187 178.737 141.897 178.853C141.607 178.969 141.201 178.627 141.004 178.1C140.807 177.573 140.876 177.051 141.166 176.941C141.456 176.831 141.862 177.167 142.065 177.694Z" fill="#263238"/>
<path d="M139.258 176.871C139.258 176.871 139.484 174.49 142.558 175.168" stroke="#263238" stroke-miterlimit="10"/>
<path d="M146.079 184.369C146.079 184.369 145.168 185.163 143.011 184.259" stroke="#263238" stroke-miterlimit="10"/>
<path d="M147.32 192.777C145.699 193.011 144.067 193.162 142.431 193.229C140.725 193.229 136.404 192.209 136.404 192.209C136.404 192.209 140.157 195.274 141.978 196.752L143.016 197.592C143.643 195.506 144.362 193.681 144.362 193.681C145.384 193.506 146.38 193.203 147.326 192.777H147.32Z" fill="#263238" stroke="#263238" stroke-miterlimit="10"/>
<path d="M143.921 168.812C143.921 168.812 145.284 166.992 145.168 165.179C145.052 163.365 142.784 162.675 141.189 163.585C139.594 164.495 138.347 165.063 138.347 165.063C138.347 165.063 140.853 162.334 138.806 162.565C136.758 162.797 130.616 163.927 126.185 166.992C121.754 170.057 119.48 175.968 120.06 179.143C120.095 179.317 120.124 179.479 120.147 179.635C120.257 180.244 120.464 180.831 120.762 181.374C121.404 183.09 122.547 184.574 124.045 185.632C126.771 187.562 130.181 189.04 130.976 187.904C131.492 187.174 132.234 186.252 132.217 185.267C132.797 184.897 133.707 184.149 133.707 183.135C133.707 181.658 132.228 180.974 132.339 180.29C132.449 179.606 134.954 178.587 134.844 177.115C134.852 176.492 134.736 175.873 134.502 175.295C136.521 174.051 138.759 173.203 141.097 172.798C144.507 172.34 145.737 170.411 145.737 169.501C145.737 168.591 143.921 168.812 143.921 168.812Z" fill="#263238" stroke="#263238" stroke-miterlimit="10"/>
<path d="M133.122 185.621C133.122 185.621 131.416 182.44 129.143 183.802C126.869 185.163 128.342 188.57 129.937 189.37C131.532 190.169 134.577 189.254 134.577 189.254" fill="white"/>
<path d="M133.122 185.621C133.122 185.621 131.416 182.44 129.143 183.802C126.869 185.163 128.342 188.57 129.937 189.37C131.532 190.169 134.577 189.254 134.577 189.254" stroke="#263238" stroke-miterlimit="10"/>
<path d="M153.584 257.175C153.584 257.175 158.131 256.595 160.544 256.375C162.957 256.155 167.701 254.562 170.659 254.22C173.617 253.878 176.912 254.799 178.733 257.059C180.554 259.319 178.048 261.694 176.569 262.621C175.09 263.548 166.68 262.853 164.181 262.853C161.681 262.853 158.27 263.433 155.765 263.531C153.259 263.63 151.56 263.647 151.56 263.647H149.971C149.971 263.647 153.358 260.692 153.584 257.175Z" fill="white" stroke="#263238" stroke-miterlimit="10"/>
<path d="M170.636 254.22C167.678 254.562 162.905 256.149 160.521 256.375L159.135 256.52C158.972 256.798 157.621 259.203 158.584 260.808C159.175 261.679 159.91 262.443 160.759 263.068C161.959 262.946 163.137 262.853 164.157 262.853C166.657 262.853 175.073 263.531 176.546 262.621C178.019 261.712 180.525 259.33 178.71 257.059C176.894 254.788 173.594 253.878 170.636 254.22Z" fill="#263238" stroke="#263238" stroke-miterlimit="10"/>
<path d="M176.9 257.505C177.378 258.144 177.677 258.898 177.765 259.691C177.852 260.484 177.726 261.286 177.399 262.013C178.779 260.854 180.223 258.93 178.721 257.053C176.9 254.782 173.606 253.872 170.648 254.214C170.636 254.22 175.409 255.471 176.9 257.505Z" fill="white" stroke="#263238" stroke-miterlimit="10"/>
<path d="M106.517 254.903C106.517 254.903 104.47 255.697 103.675 259.33C102.88 262.963 105.038 263.531 106.059 262.963C108.822 261.73 111.674 260.706 114.591 259.898C117.26 259.126 120.003 258.631 122.774 258.421C123.227 258.421 111.633 255.014 110.154 254.672C108.675 254.33 106.517 254.903 106.517 254.903Z" fill="#263238" stroke="#263238" stroke-miterlimit="10"/>
<path d="M106.14 262.923C105.345 262.309 104.4 261.237 104.586 259.782C104.818 258.148 106.558 255.917 107.619 254.683C106.981 254.782 106.517 254.903 106.517 254.903C106.517 254.903 104.47 255.697 103.675 259.33C102.88 262.963 105.038 263.531 106.059 262.963L106.14 262.923Z" fill="white" stroke="#263238" stroke-miterlimit="10"/>
<path d="M107.428 241.953C107.428 241.953 117.317 242.747 119.816 243.999C122.316 245.25 132.437 250.019 136.416 252.064C140.395 254.11 148.242 256.149 151.194 256.833C154.147 257.517 155.968 257.059 156.084 258.536C156.2 260.014 156.084 262.963 154.831 263.647C153.578 264.331 143.695 262.853 139.171 262.737C134.647 262.621 127.159 263.664 118.291 261.277C109.423 258.89 104.951 255.622 101.541 253.576C98.1302 251.531 97.3356 249.451 97.4516 246.948C97.5676 244.445 98.6986 240.817 100.067 240.365C101.37 240.054 102.706 239.9 104.046 239.908" fill="#5C5C5C"/>
<path d="M107.428 241.953C107.428 241.953 117.317 242.747 119.816 243.999C122.316 245.25 132.437 250.019 136.416 252.064C140.395 254.11 148.242 256.149 151.194 256.833C154.147 257.517 155.968 257.059 156.084 258.536C156.2 260.014 156.084 262.963 154.831 263.647C153.578 264.331 143.695 262.853 139.171 262.737C134.647 262.621 127.159 263.664 118.291 261.277C109.423 258.89 104.951 255.622 101.541 253.576C98.1302 251.531 97.3356 249.451 97.4516 246.948C97.5676 244.445 98.6986 240.817 100.067 240.365C101.37 240.054 102.706 239.9 104.046 239.908" stroke="#263238" stroke-miterlimit="10"/>
<path d="M120.843 231.848C120.843 231.848 122.432 230.254 122.548 228.667C122.664 227.079 120.275 224.35 117.908 224.031C115.04 223.54 112.092 224.104 109.608 225.619C106.766 227.438 105.972 230.052 106.54 231.303C107.109 232.555 107.7 234.594 109.498 234.594C111.296 234.594 112.108 231.871 114.718 231.529C117.328 231.187 120.402 232.549 120.402 232.549L120.843 231.848Z" fill="#4A90E2" stroke="#263238" stroke-miterlimit="10"/>
<path d="M126.504 237.544C124.677 236.901 122.258 233.835 119.956 230.359C117.908 227.276 112.653 227.757 110.838 229.345C109.023 230.932 108.907 234.56 110.38 235.933C111.853 237.306 124.12 242.973 124.932 243.205C125.735 243.532 126.498 243.95 127.206 244.451C127.206 244.451 129.821 247.18 130.732 247.516C131.643 247.852 135.732 247.858 136.074 247.747C136.416 247.637 138.121 244.225 138.121 244.225C136.646 244.343 135.165 244.343 133.69 244.225C132.437 243.999 131.869 239.908 131.753 239.34C131.7 238.939 131.781 238.531 131.985 238.181L133.916 239.207C133.916 239.207 135.349 240.093 135.801 239.867C136.254 239.641 134.717 237.109 133.58 236.657C132.275 236.136 130.894 236.553 129.792 237.155C128.717 237.421 127.612 237.551 126.504 237.544Z" fill="white" stroke="#263238" stroke-miterlimit="10"/>
<path d="M130.088 245.644C130.505 246.109 131.015 246.482 131.585 246.739C132.379 247.035 135.969 247.133 135.969 247.133" stroke="#263238" stroke-miterlimit="10"/>
<path d="M130.784 244.647C130.784 244.647 131.486 245.146 132.182 245.54C132.745 245.811 133.352 245.979 133.974 246.038" stroke="#263238" stroke-miterlimit="10"/>
<path d="M158.92 231.506C158.559 230.472 158.293 229.407 158.125 228.325C158.125 227.531 159.488 224.692 161.652 223.556C163.815 222.421 167.452 222.397 169.609 223.44C171.767 224.483 172.451 226.28 173.02 227.757C173.588 229.235 173.698 232.3 173.02 233.887C172.312 235.211 171.135 236.223 169.72 236.727C169.14 236.843 168.925 232.984 167.22 232.416C165.515 231.848 164.604 231.39 162.789 231.836C161.493 232.072 160.157 231.958 158.92 231.506Z" fill="#4A90E2" stroke="#263238" stroke-miterlimit="10"/>
<path d="M165.88 226.847C162.47 226.847 157.238 232.868 156.101 234.119C154.964 235.371 148.144 239.914 148.144 239.914L147.349 240.255C147.349 240.255 143.608 239.097 143.144 239.097C141.369 239.253 138.933 241.026 138.023 241.252C137.112 241.478 136.091 241.026 136.207 241.936C136.323 242.845 137.118 242.845 137.686 242.845C138.329 242.901 138.975 242.901 139.618 242.845C139.751 242.811 139.797 242.845 139.803 242.88L139.618 242.845L138.881 243.634C138.881 243.634 132.298 243.535 132.501 244.63C132.704 245.725 135.639 246.594 135.639 246.594C136.433 247.046 137.344 247.956 138.591 248.408C139.838 248.86 142.912 249.092 143.712 248.64C144.513 248.188 147.691 246.363 148.828 245.569C149.965 244.775 161.443 240.574 164.285 239.438C167.127 238.303 170.427 237.845 171.448 234.554C172.469 231.263 169.273 226.847 165.88 226.847Z" fill="white"/>
<path d="M139.618 242.845C138.975 242.901 138.329 242.901 137.686 242.845C137.118 242.845 136.323 242.845 136.207 241.936C136.091 241.026 137.112 241.478 138.023 241.252C138.933 241.026 141.369 239.253 143.144 239.097C143.608 239.097 147.349 240.255 147.349 240.255L148.144 239.914C148.144 239.914 154.964 235.371 156.101 234.119C157.238 232.868 162.47 226.847 165.88 226.847C169.273 226.847 172.469 231.263 171.448 234.554C170.427 237.845 167.127 238.303 164.285 239.438C161.443 240.574 149.965 244.775 148.828 245.569C147.691 246.363 144.513 248.188 143.712 248.64C142.912 249.092 139.838 248.86 138.591 248.408C137.344 247.956 136.433 247.046 135.639 246.594C135.639 246.594 132.704 245.725 132.501 244.63C132.298 243.535 138.881 243.634 138.881 243.634L139.618 242.845ZM139.618 242.845C139.751 242.811 139.797 242.845 139.803 242.88L139.618 242.845Z" stroke="#263238" stroke-miterlimit="10"/>
<path d="M138.864 243.651L138.452 237.77L129.926 238.349L132.82 244.236C134.073 243.599 138.864 243.651 138.864 243.651Z" fill="#263238" stroke="#263238" stroke-miterlimit="10"/>
<path d="M133.18 245.54C134.31 245.487 135.442 245.522 136.567 245.644C138.562 245.841 139.467 246.438 140.354 246.438H141.949" stroke="#263238" stroke-miterlimit="10"/>
<path d="M135.621 246.612C135.621 246.612 138.864 247.336 139.159 247.435C139.455 247.533 141.253 247.834 141.253 247.834" stroke="#263238" stroke-miterlimit="10"/>
</svg>
