<svg width="372" height="276" viewBox="0 0 372 276" fill="none" xmlns="http://www.w3.org/2000/svg">
<path d="M336.525 257.121H311.752V257.309H336.525V257.121Z" fill="#EBEBEB"/>
<path d="M247.753 259.157H241.252V259.345H247.753V259.157Z" fill="#EBEBEB"/>
<path d="M311.003 250.175H296.649V250.362H311.003V250.175Z" fill="#EBEBEB"/>
<path d="M71.5463 251.432H39.2401V251.62H71.5463V251.432Z" fill="#EBEBEB"/>
<path d="M82.9458 251.432H78.2109V251.62H82.9458V251.432Z" fill="#EBEBEB"/>
<path d="M168.412 254.591H98.3395V254.778H168.412V254.591Z" fill="#EBEBEB"/>
<path d="M177.276 211.692H32.8521C31.7194 211.692 30.633 211.241 29.832 210.44C29.031 209.638 28.5811 208.551 28.5811 207.417V4.23683C28.5909 3.10972 29.0453 2.03214 29.8452 1.23864C30.6451 0.445138 31.7258 -4.32111e-05 32.8521 3.14584e-09H177.276C178.409 3.14585e-09 179.495 0.450322 180.296 1.2519C181.097 2.05348 181.547 3.14065 181.547 4.27425V207.417C181.547 208.551 181.097 209.638 180.296 210.44C179.495 211.241 178.409 211.692 177.276 211.692ZM32.8521 0.149712C31.7696 0.15169 30.7319 0.582931 29.9664 1.34898C29.201 2.11504 28.77 3.15346 28.7681 4.23683V207.417C28.77 208.501 29.201 209.539 29.9664 210.305C30.7319 211.071 31.7696 211.502 32.8521 211.504H177.276C178.359 211.502 179.396 211.071 180.162 210.305C180.927 209.539 181.358 208.501 181.36 207.417V4.23683C181.358 3.15346 180.927 2.11504 180.162 1.34898C179.396 0.582931 178.359 0.15169 177.276 0.149712H32.8521Z" fill="#EBEBEB"/>
<path d="M339.076 211.692H194.637C193.505 211.69 192.42 211.239 191.619 210.438C190.819 209.636 190.368 208.55 190.366 207.417V4.23683C190.378 3.11033 190.833 2.03388 191.632 1.2408C192.432 0.447718 193.511 0.00190754 194.637 0H339.076C340.199 0.00389586 341.276 0.450817 342.073 1.2439C342.87 2.03698 343.322 3.11231 343.332 4.23683V207.417C343.332 208.548 342.884 209.633 342.086 210.434C341.288 211.236 340.206 211.688 339.076 211.692ZM194.637 0.149712C193.554 0.15169 192.517 0.582931 191.751 1.34898C190.986 2.11504 190.555 3.15346 190.553 4.23683V207.417C190.555 208.501 190.986 209.539 191.751 210.305C192.517 211.071 193.554 211.502 194.637 211.504H339.076C340.158 211.502 341.196 211.071 341.961 210.305C342.727 209.539 343.158 208.501 343.16 207.417V4.23683C343.158 3.15346 342.727 2.11504 341.961 1.34898C341.196 0.582931 340.158 0.15169 339.076 0.149712H194.637Z" fill="#EBEBEB"/>
<path d="M374 245.077H0V245.264H374V245.077Z" fill="#EBEBEB"/>
<path d="M308.812 177.977C300.322 184.526 297.868 198.869 297.442 208.974C297.442 209.895 295.946 209.903 296.006 208.974C296.455 198.27 298.893 183.83 308.086 176.734C308.834 176.173 309.53 177.415 308.834 177.977H308.812Z" fill="#F5F5F5"/>
<path d="M289.102 170.671C291.271 170.424 293.089 172.639 294.031 174.264C298.916 182.715 297.023 195.463 296.103 204.535C296.006 205.441 294.57 205.456 294.667 204.535C295.565 195.71 297.203 184.212 293.216 175.828C292.535 174.391 291.077 171.883 289.102 172.085C288.19 172.19 288.197 170.753 289.102 170.648V170.671Z" fill="#E6E6E6"/>
<path d="M283.844 182.251C292.924 180.005 294.061 200.156 294.316 204.505C294.375 205.426 292.939 205.426 292.879 204.505C292.52 198.622 292.229 190.201 287.98 185.485C287.12 184.526 285.631 183.291 284.24 183.636C284.078 183.633 283.922 183.578 283.794 183.479C283.667 183.38 283.574 183.242 283.531 183.086C283.488 182.93 283.497 182.765 283.556 182.614C283.615 182.463 283.721 182.336 283.859 182.251H283.844Z" fill="#E6E6E6"/>
<path d="M310.757 192.027C303.277 186.465 300.808 201.085 300.389 205.299C300.3 206.212 298.893 206.22 298.953 205.299C299.425 200.516 300.15 191.825 305.685 189.849C306.659 189.531 307.694 189.45 308.704 189.613C309.715 189.776 310.673 190.177 311.497 190.784C312.245 191.331 311.497 192.581 310.749 192.027H310.757Z" fill="#E6E6E6"/>
<path d="M280.896 194.669C281.466 194.066 282.168 193.604 282.947 193.321C283.726 193.038 284.561 192.941 285.384 193.038C289.962 193.786 291.234 200.725 291.929 204.311C292.101 205.217 290.718 205.598 290.546 204.693C289.947 201.594 287.06 190.47 281.929 195.71C281.787 195.784 281.626 195.811 281.469 195.787C281.311 195.763 281.165 195.689 281.052 195.576C280.94 195.463 280.866 195.317 280.842 195.16C280.818 195.002 280.845 194.841 280.919 194.699L280.896 194.669Z" fill="#F5F5F5"/>
<path d="M307.937 241.784H286.245C284.287 240.128 282.715 238.064 281.639 235.737C280.563 233.409 280.008 230.874 280.014 228.31C280.014 222.149 283.477 203.66 283.477 203.66H310.742C310.742 203.66 314.16 222.179 314.16 228.31C314.166 230.874 313.613 233.408 312.538 235.736C311.463 238.063 309.892 240.127 307.937 241.784Z" fill="#EBEBEB"/>
<path d="M311.393 199.116C304.84 199.116 298.43 196.458 297.076 193.187C295.722 189.916 299.933 187.251 306.478 187.251C308.591 187.253 310.694 187.523 312.739 188.052C314.553 187.492 316.444 187.222 318.342 187.251C324.887 187.251 331.297 189.909 332.651 193.187C334.005 196.466 329.801 199.116 323.248 199.116H311.393Z" fill="#F5F5F5"/>
<path d="M268.659 186.39C263.304 186.39 261.127 184.22 263.812 181.54C266.497 178.86 272.998 176.689 278.361 176.689C279.788 176.643 281.211 176.864 282.557 177.34C284.361 176.925 286.204 176.707 288.055 176.689C293.418 176.689 295.587 178.86 292.909 181.54C290.232 184.22 283.716 186.39 278.361 186.39H268.659Z" fill="#F0F0F0"/>
<path d="M317.9 181.562C311.168 181.562 302.94 178.83 299.589 175.454C296.238 172.078 298.953 169.346 305.693 169.346C308.025 169.369 310.347 169.647 312.619 170.177C314.311 169.568 316.103 169.286 317.9 169.346C324.632 169.346 332.86 172.085 336.204 175.454C339.547 178.822 336.839 181.562 330.1 181.562H317.9Z" fill="#EBEBEB"/>
<path d="M280.455 173.665C277.089 173.665 274.92 172.295 275.616 170.611C276.311 168.927 279.617 167.557 282.983 167.557C283.959 167.541 284.931 167.68 285.863 167.968C286.916 167.696 287.999 167.558 289.087 167.557C292.453 167.557 294.622 168.919 293.927 170.611C293.231 172.303 289.932 173.665 286.559 173.665H280.455Z" fill="#F0F0F0"/>
<path d="M276.573 198.105C273.199 198.105 269.901 196.735 269.205 195.051C268.509 193.367 270.701 191.997 274.045 191.997C275.13 192.001 276.21 192.14 277.261 192.409C278.197 192.124 279.171 191.985 280.148 191.997C283.514 191.997 286.813 193.367 287.509 195.051C288.204 196.735 286.013 198.105 282.669 198.105H276.573Z" fill="#EBEBEB"/>
<path d="M282.827 207.11C283.193 205.037 283.447 203.69 283.447 203.69H310.712C310.712 203.69 310.959 205.037 311.325 207.11H282.827Z" fill="#F5F5F5"/>
<path d="M281.637 178.546C281.637 178.546 274.157 181.038 271.793 185.155C271.793 185.155 272.167 179.167 281.637 178.546Z" fill="#FAFAFA"/>
<path d="M285.16 168.754C283.956 169.451 282.893 170.368 282.026 171.457C282.233 170.752 282.639 170.123 283.195 169.643C283.751 169.164 284.433 168.855 285.16 168.754Z" fill="#FAFAFA"/>
<path d="M314.16 171.457C314.16 171.457 322.268 174.451 327.258 180.043C327.265 180.043 323.398 172.235 314.16 171.457Z" fill="#FAFAFA"/>
<path d="M314.16 189.519C317.53 190.919 320.462 193.199 322.65 196.122C322.65 196.122 321.154 190.515 314.16 189.519Z" fill="#E6E6E6"/>
<path d="M277.396 193.636C277.997 193.952 278.507 194.416 278.877 194.985C279.248 195.554 279.467 196.208 279.513 196.885C278.523 196.017 277.79 194.893 277.396 193.636Z" fill="#FAFAFA"/>
<path d="M329.531 87.6484V84.1901H230.571V87.6484H329.531Z" fill="#F5F5F5"/>
<path d="M256.945 87.6559H240.392V95.4184H248.673C248.672 94.9512 248.763 94.4884 248.941 94.0566C249.119 93.6247 249.381 93.2324 249.711 92.902C250.041 92.5716 250.433 92.3097 250.865 92.1314C251.296 91.9531 251.759 91.8618 252.226 91.8628H256.945V87.6559Z" fill="#E0E0E0"/>
<path d="M249.466 87.6559H237.4V95.4184H241.193C241.192 94.9512 241.283 94.4884 241.461 94.0566C241.639 93.6247 241.901 93.2324 242.231 92.902C242.561 92.5716 242.953 92.3097 243.385 92.1314C243.816 91.9531 244.279 91.8618 244.746 91.8628H249.466V87.6559Z" fill="#F5F5F5"/>
<path d="M303.157 87.6559H319.718V95.4184H311.437C311.437 94.4754 311.063 93.571 310.397 92.9042C309.73 92.2374 308.827 91.8628 307.884 91.8628H303.157V87.6559Z" fill="#EBEBEB"/>
<path d="M310.637 87.6559H322.71V95.4184H318.917C318.917 94.4754 318.543 93.571 317.877 92.9042C317.21 92.2374 316.307 91.8628 315.364 91.8628H310.637V87.6559Z" fill="#F5F5F5"/>
<path d="M291.892 84.5269H300.509C301.286 83.8718 301.91 83.0547 302.337 82.1327C302.765 81.2107 302.986 80.2062 302.985 79.1897C302.985 76.7494 301.608 62.22 301.608 62.22H290.792C290.792 62.22 289.416 76.7494 289.416 79.1897C289.415 80.2062 289.636 81.2107 290.064 82.1327C290.491 83.0547 291.115 83.8718 291.892 84.5269Z" fill="#EBEBEB"/>
<path d="M297.375 74.9454C297.337 75.6341 297.315 76.188 297.315 76.5623C297.314 78.0791 297.644 79.5778 298.283 80.9535C298.921 82.3293 299.852 83.5488 301.01 84.527H313.876C315.034 83.5488 315.965 82.3293 316.603 80.9535C317.242 79.5778 317.572 78.0791 317.571 76.5623C317.571 76.188 317.571 75.6341 317.511 74.9454H297.375Z" fill="#F5F5F5"/>
<path d="M291.877 75.0427C291.873 74.6023 291.699 74.1806 291.391 73.8664C291.082 73.5522 290.664 73.3701 290.224 73.3585H280.111C279.667 73.3584 279.24 73.5336 278.924 73.846C278.607 74.1584 278.426 74.583 278.421 75.0277V75.1475C278.057 75.0327 277.679 74.9721 277.299 74.9678C275.645 74.9678 274.538 76.2554 274.538 78.1792C274.538 80.1029 276.468 81.3905 278.196 81.3905C278.372 81.3882 278.547 81.3707 278.72 81.3381C279.118 82.5736 279.854 83.6729 280.844 84.5119H289.476C290.253 83.8568 290.877 83.0397 291.304 82.1177C291.732 81.1957 291.953 80.1912 291.952 79.1747C291.929 78.5235 291.907 76.9665 291.877 75.0427ZM278.189 80.3275C277.022 80.3275 275.608 79.3769 275.608 78.1941C275.608 77.6926 275.728 76.0533 277.291 76.0533C277.674 76.0617 278.05 76.1483 278.398 76.3078C278.398 77.6327 278.361 78.6807 278.361 79.1897C278.365 79.5662 278.4 79.9418 278.465 80.3125L278.189 80.3275Z" fill="#E0E0E0"/>
<path d="M163.625 56.3063H114.145V164.824H163.625V56.3063Z" fill="#EBEBEB"/>
<path d="M114.145 56.3063H64.6646V164.824H114.145V56.3063Z" fill="#EBEBEB"/>
<path d="M141.32 234.029H157.873V241.784H149.6C149.6 240.841 149.226 239.936 148.56 239.269C147.893 238.602 146.989 238.228 146.047 238.228H141.32V234.029Z" fill="#E0E0E0"/>
<path d="M86.9776 234.029H70.4169V241.784H78.6973C78.6973 240.841 79.0716 239.936 79.7379 239.269C80.4042 238.602 81.308 238.228 82.2503 238.228H86.9776V234.029Z" fill="#E0E0E0"/>
<path d="M163.625 164.817H64.6646V199.004H163.625V164.817Z" fill="#EBEBEB"/>
<path d="M163.625 199.004H64.6646V233.19H163.625V199.004Z" fill="#EBEBEB"/>
<path d="M163.625 170.072V166.614H64.6646V170.072H163.625Z" fill="#E0E0E0"/>
<path d="M114.152 61.2618V57.8035H64.6723V61.2618H114.152Z" fill="#E0E0E0"/>
<path d="M163.632 61.2618V57.8035H114.152V61.2618H163.632Z" fill="#E0E0E0"/>
<path d="M163.625 203.989V200.531H64.6646V203.989H163.625Z" fill="#E0E0E0"/>
<path d="M163.625 54.5772H62.9366V234.68H165.353V54.5772H163.625ZM161.897 166.928V197.342H66.3924V166.928H161.897ZM115.873 163.47V58.0355H161.897V163.485L115.873 163.47ZM112.417 58.0206V163.485H66.3924V58.0355L112.417 58.0206ZM66.3924 231.221V200.815H161.897V231.221H66.3924Z" fill="#F5F5F5"/>
<path d="M79.4974 234.029H62.9366V241.784H71.217C71.217 240.841 71.5913 239.936 72.2577 239.269C72.924 238.602 73.8277 238.228 74.77 238.228H79.4974V234.029Z" fill="#F5F5F5"/>
<path d="M148.8 234.029H165.353V241.784H157.08C157.08 240.841 156.706 239.936 156.039 239.269C155.373 238.602 154.469 238.228 153.527 238.228H148.8V234.029Z" fill="#F5F5F5"/>
<path d="M118.386 184.893C118.386 185.733 118.137 186.553 117.671 187.251C117.205 187.949 116.543 188.493 115.768 188.814C114.993 189.136 114.14 189.22 113.317 189.056C112.495 188.892 111.739 188.488 111.146 187.894C110.553 187.301 110.149 186.545 109.985 185.721C109.822 184.898 109.906 184.045 110.227 183.269C110.548 182.493 111.091 181.831 111.789 181.364C112.486 180.898 113.306 180.649 114.145 180.649C115.27 180.649 116.348 181.096 117.144 181.892C117.939 182.688 118.386 183.768 118.386 184.893Z" fill="#E0E0E0"/>
<path d="M118.386 181.899C118.386 182.738 118.137 183.559 117.671 184.257C117.205 184.955 116.543 185.499 115.768 185.82C114.993 186.142 114.14 186.226 113.317 186.062C112.495 185.898 111.739 185.494 111.146 184.9C110.553 184.307 110.149 183.55 109.985 182.727C109.822 181.904 109.906 181.05 110.227 180.275C110.548 179.499 111.091 178.836 111.789 178.37C112.486 177.904 113.306 177.655 114.145 177.655C115.27 177.655 116.348 178.102 117.144 178.898C117.939 179.694 118.386 180.773 118.386 181.899Z" fill="#F5F5F5"/>
<path d="M118.386 219.087C118.385 219.926 118.135 220.746 117.668 221.443C117.201 222.14 116.538 222.683 115.763 223.003C114.988 223.323 114.135 223.406 113.313 223.242C112.491 223.077 111.736 222.672 111.143 222.078C110.551 221.484 110.148 220.728 109.985 219.905C109.822 219.082 109.906 218.229 110.227 217.454C110.548 216.679 111.092 216.016 111.789 215.55C112.487 215.084 113.306 214.836 114.145 214.836C114.702 214.836 115.255 214.946 115.77 215.159C116.285 215.373 116.753 215.686 117.146 216.081C117.54 216.476 117.853 216.945 118.065 217.461C118.278 217.977 118.387 218.529 118.386 219.087Z" fill="#E0E0E0"/>
<path d="M118.386 216.093C118.385 216.932 118.135 217.752 117.668 218.449C117.201 219.146 116.538 219.689 115.763 220.009C114.988 220.329 114.135 220.412 113.313 220.247C112.491 220.083 111.736 219.678 111.143 219.084C110.551 218.49 110.148 217.734 109.985 216.911C109.822 216.088 109.906 215.235 110.227 214.46C110.548 213.685 111.092 213.022 111.789 212.556C112.487 212.09 113.306 211.841 114.145 211.841C114.702 211.841 115.255 211.951 115.77 212.165C116.285 212.379 116.753 212.692 117.146 213.087C117.54 213.482 117.853 213.951 118.065 214.467C118.278 214.982 118.387 215.535 118.386 216.093Z" fill="#F5F5F5"/>
<path d="M108.542 108.443C108.559 108.154 108.517 107.864 108.418 107.592C108.32 107.319 108.166 107.07 107.968 106.859C107.769 106.648 107.529 106.48 107.264 106.365C106.998 106.251 106.711 106.191 106.422 106.191C106.132 106.191 105.845 106.251 105.58 106.365C105.314 106.48 105.074 106.648 104.876 106.859C104.677 107.07 104.524 107.319 104.425 107.592C104.326 107.864 104.284 108.154 104.301 108.443V115.682C104.333 116.223 104.571 116.731 104.965 117.103C105.359 117.475 105.88 117.682 106.422 117.682C106.963 117.682 107.484 117.475 107.878 117.103C108.273 116.731 108.51 116.223 108.542 115.682V108.443Z" fill="#E0E0E0"/>
<path d="M108.542 105.449C108.559 105.16 108.517 104.87 108.418 104.598C108.32 104.325 108.166 104.076 107.968 103.865C107.769 103.654 107.529 103.486 107.264 103.371C106.998 103.256 106.711 103.197 106.422 103.197C106.132 103.197 105.845 103.256 105.58 103.371C105.314 103.486 105.074 103.654 104.876 103.865C104.677 104.076 104.524 104.325 104.425 104.598C104.326 104.87 104.284 105.16 104.301 105.449V112.688C104.333 113.229 104.571 113.737 104.965 114.109C105.359 114.48 105.88 114.687 106.422 114.687C106.963 114.687 107.484 114.48 107.878 114.109C108.273 113.737 108.51 113.229 108.542 112.688V105.449Z" fill="#F5F5F5"/>
<path d="M124.123 108.443C124.14 108.154 124.098 107.864 123.999 107.592C123.901 107.319 123.747 107.07 123.549 106.859C123.35 106.648 123.11 106.48 122.845 106.365C122.579 106.251 122.292 106.191 122.003 106.191C121.713 106.191 121.426 106.251 121.161 106.365C120.895 106.48 120.655 106.648 120.457 106.859C120.258 107.07 120.104 107.319 120.006 107.592C119.907 107.864 119.865 108.154 119.882 108.443V115.682C119.914 116.223 120.151 116.731 120.546 117.103C120.94 117.475 121.461 117.682 122.003 117.682C122.544 117.682 123.065 117.475 123.459 117.103C123.854 116.731 124.091 116.223 124.123 115.682V108.443Z" fill="#E0E0E0"/>
<path d="M124.123 105.449C124.14 105.16 124.098 104.87 123.999 104.598C123.901 104.325 123.747 104.076 123.549 103.865C123.35 103.654 123.11 103.486 122.845 103.371C122.579 103.256 122.292 103.197 122.003 103.197C121.713 103.197 121.426 103.256 121.161 103.371C120.895 103.486 120.655 103.654 120.457 103.865C120.258 104.076 120.104 104.325 120.006 104.598C119.907 104.87 119.865 105.16 119.882 105.449V112.688C119.914 113.229 120.151 113.737 120.546 114.109C120.94 114.48 121.461 114.687 122.003 114.687C122.544 114.687 123.065 114.48 123.459 114.109C123.854 113.737 124.091 113.229 124.123 112.688V105.449Z" fill="#F5F5F5"/>
<path d="M329.531 119.971V116.513H230.571V119.971H329.531Z" fill="#F5F5F5"/>
<path d="M256.945 119.979H240.392V127.741H248.673C248.672 127.274 248.763 126.811 248.941 126.379C249.119 125.947 249.381 125.555 249.711 125.225C250.041 124.894 250.433 124.632 250.865 124.454C251.296 124.276 251.759 124.184 252.226 124.185H256.945V119.979Z" fill="#E0E0E0"/>
<path d="M249.466 119.979H237.4V127.741H241.193C241.192 127.274 241.283 126.811 241.461 126.379C241.639 125.947 241.901 125.555 242.231 125.225C242.561 124.894 242.953 124.632 243.385 124.454C243.816 124.276 244.279 124.184 244.746 124.185H249.466V119.979Z" fill="#F5F5F5"/>
<path d="M303.157 119.979H319.718V127.741H311.437C311.437 126.798 311.063 125.894 310.397 125.227C309.73 124.56 308.827 124.185 307.884 124.185H303.157V119.979Z" fill="#EBEBEB"/>
<path d="M310.637 119.979H322.71V127.741H318.917C318.917 126.798 318.543 125.894 317.877 125.227C317.21 124.56 316.307 124.185 315.364 124.185H310.637V119.979Z" fill="#F5F5F5"/>
<path d="M283.679 105.898C283.752 103.184 284.88 100.605 286.824 98.7114C288.768 96.8174 291.374 95.7576 294.087 95.7576C296.8 95.7576 299.406 96.8174 301.35 98.7114C303.295 100.605 304.423 103.184 304.496 105.898V116.67H283.679V105.898Z" fill="#F0F0F0"/>
<path d="M301.99 107.756C303.022 103.382 300.315 98.9999 295.945 97.9676C291.574 96.9353 287.195 99.6441 286.164 104.018C285.132 108.391 287.839 112.774 292.209 113.806C296.58 114.838 300.959 112.13 301.99 107.756Z" fill="#FAFAFA"/>
<path d="M294.091 99.0414C296.133 99.0425 298.1 99.8135 299.6 101.201C301.1 102.588 302.023 104.49 302.185 106.527C302.185 106.317 302.222 106.108 302.222 105.891C302.222 103.733 301.365 101.663 299.84 100.137C298.316 98.6112 296.248 97.7539 294.091 97.7539C291.935 97.7539 289.867 98.6112 288.342 100.137C286.817 101.663 285.96 103.733 285.96 105.891C285.96 106.108 285.96 106.317 285.96 106.527C286.123 104.483 287.051 102.576 288.558 101.188C290.066 99.7998 292.042 99.0331 294.091 99.0414Z" fill="#E0E0E0"/>
<path d="M299.2 105.891H294.929V101.616C294.929 101.388 294.838 101.169 294.677 101.008C294.516 100.846 294.297 100.756 294.069 100.756C293.841 100.756 293.622 100.846 293.46 101.008C293.299 101.169 293.208 101.388 293.208 101.616V106.752C293.207 106.865 293.229 106.977 293.272 107.082C293.315 107.187 293.378 107.282 293.458 107.362C293.538 107.443 293.633 107.506 293.738 107.549C293.843 107.592 293.955 107.613 294.069 107.612H299.2C299.428 107.612 299.647 107.522 299.808 107.36C299.97 107.199 300.06 106.98 300.06 106.752C300.06 106.523 299.97 106.304 299.808 106.143C299.647 105.981 299.428 105.891 299.2 105.891Z" fill="#E0E0E0"/>
<path d="M299.2 106.759C299.428 106.759 299.647 106.668 299.808 106.507C299.969 106.345 300.06 106.126 300.06 105.898C300.06 105.67 299.969 105.451 299.808 105.289C299.647 105.128 299.428 105.037 299.2 105.037H294.069C293.841 105.037 293.622 105.128 293.46 105.289C293.299 105.451 293.208 105.67 293.208 105.898C293.208 106.126 293.299 106.345 293.46 106.507C293.622 106.668 293.841 106.759 294.069 106.759H299.2Z" fill="#F5F5F5"/>
<path d="M294.952 100.756C294.952 100.527 294.861 100.308 294.7 100.147C294.538 99.9855 294.319 99.8948 294.091 99.8948C293.863 99.8948 293.644 99.9855 293.483 100.147C293.322 100.308 293.231 100.527 293.231 100.756V105.898C293.231 106.127 293.322 106.345 293.483 106.507C293.644 106.668 293.863 106.759 294.091 106.759C294.319 106.759 294.538 106.668 294.7 106.507C294.861 106.345 294.952 106.127 294.952 105.898V100.756Z" fill="#EBEBEB"/>
<path d="M183.395 276C263.492 276 328.424 272.206 328.424 267.526C328.424 262.847 263.492 259.053 183.395 259.053C103.297 259.053 38.3651 262.847 38.3651 267.526C38.3651 272.206 103.297 276 183.395 276Z" fill="#F5F5F5"/>
<path d="M246.982 245.826H168.674C167.167 245.841 165.673 245.545 164.286 244.957C162.899 244.368 161.648 243.499 160.612 242.404C159.576 241.31 158.776 240.013 158.264 238.595C157.751 237.177 157.537 235.668 157.633 234.163L167.806 39.8831C168.001 36.7479 169.374 33.8026 171.649 31.6391C173.925 29.4756 176.935 28.2542 180.073 28.2206H258.374C259.881 28.2041 261.376 28.4992 262.764 29.0874C264.152 29.6757 265.404 30.5444 266.441 31.6392C267.478 32.734 268.278 34.0313 268.791 35.4498C269.304 36.8684 269.519 38.3776 269.422 39.8831L259.249 234.163C259.053 237.298 257.679 240.242 255.404 242.405C253.129 244.568 250.12 245.79 246.982 245.826Z" fill="#4A90E2"/>
<path d="M257.97 36.043H179.662C177.673 36.0673 175.766 36.8428 174.323 38.2142C172.881 39.5855 172.009 41.4516 171.883 43.4387L162.084 230.578C162.022 231.532 162.158 232.489 162.483 233.388C162.808 234.288 163.315 235.11 163.972 235.805C164.629 236.499 165.423 237.05 166.302 237.423C167.182 237.796 168.13 237.984 169.085 237.973H247.394C249.383 237.949 251.29 237.174 252.732 235.802C254.175 234.431 255.047 232.565 255.173 230.578L264.972 43.4387C265.033 42.4844 264.898 41.5275 264.573 40.6281C264.248 39.7286 263.741 38.906 263.084 38.2117C262.427 37.5174 261.633 36.9664 260.753 36.5933C259.873 36.2201 258.926 36.0328 257.97 36.043Z" fill="#4A90E2"/>
<path opacity="0.8" d="M257.97 36.043H179.662C177.673 36.0673 175.766 36.8428 174.323 38.2142C172.881 39.5855 172.009 41.4516 171.883 43.4387L162.084 230.578C162.022 231.532 162.158 232.489 162.483 233.388C162.808 234.288 163.315 235.11 163.972 235.805C164.629 236.499 165.423 237.05 166.302 237.423C167.182 237.796 168.13 237.984 169.085 237.973H247.394C249.383 237.949 251.29 237.174 252.732 235.802C254.175 234.431 255.047 232.565 255.173 230.578L264.972 43.4387C265.033 42.4844 264.898 41.5275 264.573 40.6281C264.248 39.7286 263.741 38.906 263.084 38.2117C262.427 37.5174 261.633 36.9664 260.753 36.5933C259.873 36.2201 258.926 36.0328 257.97 36.043Z" fill="white"/>
<path d="M264.792 28.2206H258.397C259.904 28.2041 261.399 28.4992 262.787 29.0874C264.175 29.6757 265.427 30.5444 266.464 31.6392C267.501 32.734 268.301 34.0313 268.814 35.4498C269.327 36.8684 269.542 38.3776 269.445 39.8831L259.272 234.163C259.078 237.298 257.704 240.244 255.429 242.407C253.153 244.571 250.144 245.792 247.005 245.826H253.4C256.539 245.792 259.549 244.571 261.824 242.407C264.1 240.244 265.473 237.298 265.667 234.163L275.84 39.8831C275.937 38.3776 275.722 36.8684 275.209 35.4498C274.696 34.0313 273.896 32.734 272.859 31.6392C271.822 30.5444 270.57 29.6757 269.182 29.0874C267.794 28.4992 266.3 28.2041 264.792 28.2206Z" fill="#4A90E2"/>
<path opacity="0.4" d="M264.792 28.2206H258.397C259.904 28.2041 261.399 28.4992 262.787 29.0874C264.175 29.6757 265.427 30.5444 266.464 31.6392C267.501 32.734 268.301 34.0313 268.814 35.4498C269.327 36.8684 269.542 38.3776 269.445 39.8831L259.272 234.163C259.078 237.298 257.704 240.244 255.429 242.407C253.153 244.571 250.144 245.792 247.005 245.826H253.4C256.539 245.792 259.549 244.571 261.824 242.407C264.1 240.244 265.473 237.298 265.667 234.163L275.84 39.8831C275.937 38.3776 275.722 36.8684 275.209 35.4498C274.696 34.0313 273.896 32.734 272.859 31.6392C271.822 30.5444 270.57 29.6757 269.182 29.0874C267.794 28.4992 266.3 28.2041 264.792 28.2206Z" fill="white"/>
<path opacity="0.4" d="M179.654 36.043L190.291 238.041H217.967L207.33 36.0804H179.654V36.043Z" fill="white"/>
<path opacity="0.4" d="M222.979 238.003H229.21L218.573 36.043H212.342L222.979 238.003Z" fill="white"/>
<path d="M183.604 24.8146H186.349C186.439 24.8146 186.524 24.7791 186.587 24.716C186.65 24.6528 186.686 24.5671 186.686 24.4778C186.686 24.3884 186.65 24.3028 186.587 24.2396C186.524 24.1764 186.439 24.1409 186.349 24.1409H183.604C183.515 24.1409 183.429 24.1764 183.366 24.2396C183.303 24.3028 183.268 24.3884 183.268 24.4778C183.268 24.5671 183.303 24.6528 183.366 24.716C183.429 24.7791 183.515 24.8146 183.604 24.8146Z" fill="#4A90E2"/>
<path d="M163.647 46.9868C163.819 43.783 163.685 40.3621 164.395 37.2556C165.981 30.0395 172.459 25.0991 179.714 24.852C180.141 24.852 180.148 24.1634 179.714 24.1783C176.538 24.2479 173.447 25.2174 170.799 26.9743C168.151 28.7312 166.055 31.2034 164.754 34.1042C162.989 38.109 163.258 42.7425 163.019 47.0243C163.019 47.4584 163.67 47.4584 163.692 47.0243L163.647 46.9868Z" fill="#4A90E2"/>
<path d="M224.983 76.1281H207.031C206.242 76.137 205.459 75.9825 204.732 75.6746C204.004 75.3666 203.348 74.9116 202.805 74.3382C202.261 73.7648 201.842 73.0853 201.573 72.3423C201.304 71.5992 201.191 70.8086 201.242 70.0199L202.184 52.0546C202.285 50.4119 203.003 48.8682 204.196 47.7348C205.388 46.6013 206.965 45.9622 208.61 45.9463H226.562C227.351 45.9374 228.134 46.0919 228.861 46.3999C229.588 46.708 230.243 47.1631 230.786 47.7366C231.329 48.3101 231.747 48.9897 232.016 49.7327C232.284 50.4758 232.395 51.2663 232.344 52.0546L231.409 70.0199C231.305 71.6614 230.585 73.203 229.394 74.3357C228.202 75.4685 226.627 76.1087 224.983 76.1281Z" fill="white"/>
<path d="M213.524 63.747C212.266 62.3683 211.523 60.5962 211.422 58.7317H211.348C210.6 58.7317 210.076 57.9307 210.128 56.9501C210.181 55.9695 210.809 55.1686 211.535 55.1686H211.722L211.856 54.6895C216.187 54.4574 218.588 53.0277 219.912 51.86C220.187 52.4451 220.583 52.9656 221.072 53.3874C221.562 53.8092 222.135 54.1228 222.755 54.3077C222.822 54.5847 222.882 54.8766 222.927 55.1686H223.114C223.862 55.1686 224.393 55.962 224.34 56.9501C224.288 57.9382 223.652 58.7317 222.927 58.7317H222.852C222.548 60.5276 221.717 62.1926 220.466 63.515C221.489 63.8406 222.569 63.9502 223.637 63.8368C228.013 63.5823 225.702 54.5772 223.346 51.3509C221.909 49.3748 221.102 48.454 220.286 48.8208C219.374 48.3193 213.891 46.0587 210.345 52.7133C206.665 59.6225 205.573 65.9104 213.524 63.747Z" fill="#4A90E2"/>
<path d="M225.574 68.5902L221.049 67.1454C221.049 67.1454 217.137 68.6426 216.202 72.3853C215.663 68.6426 211.908 67.1454 211.908 67.1454L207.233 68.5902C204.428 68.9794 203.067 71.3823 202.409 73.8675C202.953 74.5748 203.653 75.1459 204.456 75.5356C205.258 75.9253 206.14 76.1231 207.031 76.1131H224.983C225.907 76.1088 226.819 75.9061 227.658 75.5186C228.497 75.1312 229.243 74.5681 229.845 73.8675C229.449 71.3823 228.334 68.9794 225.574 68.5902Z" fill="#4A90E2"/>
<path d="M237.976 73.4857C238.003 73.1319 238.003 72.7766 237.976 72.4228L239.764 70.8808C239.605 70.1388 239.353 69.4197 239.016 68.7399L236.72 68.8597C236.321 68.2943 235.842 67.79 235.299 67.3626L235.538 65.072C234.879 64.6913 234.176 64.3946 233.444 64.1887L231.768 65.8729C231.418 65.8251 231.066 65.8001 230.713 65.7981C230.356 65.8001 229.998 65.8251 229.644 65.8729L228.2 64.1737C227.44 64.3807 226.707 64.6772 226.016 65.057V67.37C225.427 67.7981 224.896 68.3014 224.438 68.8672L222.156 68.7474C221.743 69.4211 221.407 70.1393 221.154 70.8883L222.777 72.4303C222.708 72.7808 222.665 73.1362 222.65 73.4932C222.624 73.8446 222.624 74.1974 222.65 74.5487L220.87 76.0907C221.032 76.8317 221.284 77.5505 221.618 78.2316L223.914 78.1118C224.317 78.6737 224.795 79.1775 225.335 79.6089L225.103 81.8995C225.759 82.2801 226.46 82.5769 227.19 82.7828L228.821 81.0836C229.171 81.1314 229.523 81.1564 229.876 81.1584C230.231 81.1565 230.586 81.1315 230.938 81.0836L232.389 82.7828C233.148 82.5731 233.881 82.2768 234.573 81.8995V79.6089C235.159 79.1769 235.689 78.674 236.151 78.1118L238.433 78.2316C238.847 77.5592 239.18 76.8407 239.428 76.0907L237.864 74.5412C237.925 74.1922 237.962 73.8396 237.976 73.4857ZM230.182 75.8886C229.871 75.8946 229.561 75.8355 229.274 75.7153C228.986 75.5951 228.727 75.4162 228.513 75.1902C228.298 74.9641 228.133 74.6959 228.027 74.4024C227.922 74.109 227.879 73.7968 227.901 73.4857C227.942 72.8382 228.227 72.2301 228.697 71.7832C229.167 71.3363 229.788 71.0835 230.437 71.0754C230.746 71.0746 231.052 71.1376 231.335 71.2606C231.619 71.3836 231.874 71.564 232.085 71.7903C232.295 72.0165 232.457 72.284 232.559 72.5757C232.662 72.8675 232.703 73.1773 232.681 73.4857C232.641 74.1269 232.363 74.7298 231.9 75.1749C231.437 75.62 230.824 75.8748 230.182 75.8886Z" fill="#4A90E2"/>
<path opacity="0.4" d="M237.976 73.4857C238.003 73.1319 238.003 72.7766 237.976 72.4228L239.764 70.8808C239.605 70.1388 239.353 69.4197 239.016 68.7399L236.72 68.8597C236.321 68.2943 235.842 67.79 235.299 67.3626L235.538 65.072C234.879 64.6913 234.176 64.3946 233.444 64.1887L231.768 65.8729C231.418 65.8251 231.066 65.8001 230.713 65.7981C230.356 65.8001 229.998 65.8251 229.644 65.8729L228.2 64.1737C227.44 64.3807 226.707 64.6772 226.016 65.057V67.37C225.427 67.7981 224.896 68.3014 224.438 68.8672L222.156 68.7474C221.743 69.4211 221.407 70.1393 221.154 70.8883L222.777 72.4303C222.708 72.7808 222.665 73.1362 222.65 73.4932C222.624 73.8446 222.624 74.1974 222.65 74.5487L220.87 76.0907C221.032 76.8317 221.284 77.5505 221.618 78.2316L223.914 78.1118C224.317 78.6737 224.795 79.1775 225.335 79.6089L225.103 81.8995C225.759 82.2801 226.46 82.5769 227.19 82.7828L228.821 81.0836C229.171 81.1314 229.523 81.1564 229.876 81.1584C230.231 81.1565 230.586 81.1315 230.938 81.0836L232.389 82.7828C233.148 82.5731 233.881 82.2768 234.573 81.8995V79.6089C235.159 79.1769 235.689 78.674 236.151 78.1118L238.433 78.2316C238.847 77.5592 239.18 76.8407 239.428 76.0907L237.864 74.5412C237.925 74.1922 237.962 73.8396 237.976 73.4857ZM230.182 75.8886C229.871 75.8946 229.561 75.8355 229.274 75.7153C228.986 75.5951 228.727 75.4162 228.513 75.1902C228.298 74.9641 228.133 74.6959 228.027 74.4024C227.922 74.109 227.879 73.7968 227.901 73.4857C227.942 72.8382 228.227 72.2301 228.697 71.7832C229.167 71.3363 229.788 71.0835 230.437 71.0754C230.746 71.0746 231.052 71.1376 231.335 71.2606C231.619 71.3836 231.874 71.564 232.085 71.7903C232.295 72.0165 232.457 72.284 232.559 72.5757C232.662 72.8675 232.703 73.1773 232.681 73.4857C232.641 74.1269 232.363 74.7298 231.9 75.1749C231.437 75.62 230.824 75.8748 230.182 75.8886Z" fill="white"/>
<path d="M230.182 75.8886C229.871 75.8946 229.561 75.8355 229.274 75.7153C228.986 75.5951 228.727 75.4162 228.512 75.1902C228.298 74.9641 228.133 74.6959 228.027 74.4024C227.922 74.109 227.879 73.7968 227.901 73.4857C227.942 72.8381 228.226 72.2301 228.697 71.7832C229.167 71.3363 229.788 71.0835 230.436 71.0754C230.746 71.0746 231.051 71.1376 231.335 71.2606C231.619 71.3836 231.874 71.564 232.084 71.7902C232.295 72.0165 232.457 72.2839 232.559 72.5757C232.662 72.8675 232.703 73.1773 232.68 73.4857C232.641 74.1269 232.363 74.7298 231.9 75.1749C231.437 75.62 230.824 75.8748 230.182 75.8886Z" fill="white"/>
<path d="M214.758 158.971H212.208L212.44 154.584H214.983L214.758 158.971Z" fill="#4A90E2"/>
<path d="M226.36 158.971H223.817L224.198 151.74H226.741L226.36 158.971Z" fill="#4A90E2"/>
<path d="M237.969 158.971H235.426L235.949 148.895H238.5L237.969 158.971Z" fill="#4A90E2"/>
<path d="M249.578 158.971H247.027L247.708 146.058H250.251L249.578 158.971Z" fill="white"/>
<path d="M179.58 158.971H192.52C194.264 158.953 195.936 158.276 197.2 157.074C198.464 155.873 199.227 154.237 199.335 152.496C199.388 151.66 199.269 150.822 198.984 150.035C198.699 149.247 198.255 148.527 197.679 147.919C197.103 147.312 196.409 146.829 195.638 146.503C194.867 146.176 194.038 146.012 193.201 146.021H180.268C178.525 146.038 176.853 146.716 175.588 147.917C174.324 149.119 173.561 150.754 173.454 152.496C173.4 153.331 173.519 154.168 173.804 154.955C174.088 155.742 174.532 156.462 175.107 157.069C175.682 157.677 176.376 158.16 177.145 158.487C177.915 158.814 178.744 158.979 179.58 158.971Z" fill="white"/>
<path d="M180.186 147.466H193.126C194.694 147.448 196.209 148.038 197.352 149.112C198.495 150.187 199.179 151.662 199.26 153.229C199.297 152.997 199.32 152.758 199.335 152.518C199.388 151.683 199.269 150.845 198.984 150.057C198.699 149.27 198.255 148.55 197.679 147.942C197.103 147.334 196.409 146.852 195.638 146.525C194.867 146.198 194.038 146.034 193.201 146.043H180.268C178.525 146.061 176.853 146.738 175.588 147.94C174.324 149.141 173.561 150.777 173.454 152.518C173.454 152.758 173.454 152.997 173.454 153.229C173.725 151.632 174.547 150.181 175.777 149.128C177.007 148.075 178.567 147.486 180.186 147.466Z" fill="#4A90E2"/>
<path opacity="0.3" d="M180.186 147.466H193.126C194.694 147.448 196.209 148.038 197.352 149.112C198.495 150.187 199.179 151.662 199.26 153.229C199.297 152.997 199.32 152.758 199.335 152.518C199.388 151.683 199.269 150.845 198.984 150.057C198.699 149.27 198.255 148.55 197.679 147.942C197.103 147.334 196.409 146.852 195.638 146.525C194.867 146.198 194.038 146.034 193.201 146.043H180.268C178.525 146.061 176.853 146.738 175.588 147.94C174.324 149.141 173.561 150.777 173.454 152.518C173.454 152.758 173.454 152.997 173.454 153.229C173.725 151.632 174.547 150.181 175.777 149.128C177.007 148.075 178.567 147.486 180.186 147.466Z" fill="white"/>
<path d="M184.315 157.001C186.943 154.438 187.102 150.338 184.672 147.842C182.241 145.346 178.141 145.4 175.514 147.962C172.887 150.524 172.727 154.624 175.158 157.12C177.588 159.616 181.688 159.563 184.315 157.001Z" fill="#4A90E2"/>
<path d="M172.287 214.791H169.744L170.05 208.982H172.593L172.287 214.791Z" fill="#4A90E2"/>
<path d="M181.727 213.368H179.183L179.303 211.115H181.846L181.727 213.368Z" fill="#4A90E2"/>
<path d="M191.054 214.079H188.511L188.698 210.404H191.249L191.054 214.079Z" fill="#4A90E2"/>
<path d="M200.456 213.368H197.906L198.025 211.115H200.576L200.456 213.368Z" fill="#4A90E2"/>
<path d="M209.747 214.791H207.196L207.503 208.982H210.046L209.747 214.791Z" fill="#4A90E2"/>
<path d="M219.179 213.368H216.636L216.756 211.115H219.299L219.179 213.368Z" fill="#4A90E2"/>
<path d="M228.507 214.079H225.963L226.158 210.404H228.701L228.507 214.079Z" fill="#4A90E2"/>
<path d="M237.909 213.368H235.366L235.478 211.115H238.029L237.909 213.368Z" fill="#4A90E2"/>
<path d="M247.199 214.791H244.656L244.955 208.982H247.506L247.199 214.791Z" fill="#4A90E2"/>
<g opacity="0.3">
<path d="M172.287 214.791H169.744L170.05 208.982H172.593L172.287 214.791Z" fill="#161616"/>
<path d="M181.727 213.368H179.183L179.303 211.115H181.846L181.727 213.368Z" fill="#161616"/>
<path d="M191.054 214.079H188.511L188.698 210.404H191.249L191.054 214.079Z" fill="#161616"/>
<path d="M200.457 213.368H197.906L198.026 211.115H200.576L200.457 213.368Z" fill="#161616"/>
<path d="M209.747 214.791H207.196L207.503 208.982H210.046L209.747 214.791Z" fill="#161616"/>
<path d="M219.179 213.368H216.636L216.756 211.115H219.299L219.179 213.368Z" fill="#161616"/>
<path d="M228.507 214.079H225.963L226.158 210.404H228.701L228.507 214.079Z" fill="#161616"/>
<path d="M237.909 213.368H235.366L235.478 211.115H238.028L237.909 213.368Z" fill="#161616"/>
<path d="M247.199 214.791H244.656L244.955 208.982H247.506L247.199 214.791Z" fill="#161616"/>
</g>
<path d="M202.558 215.749C202.596 215.105 202.708 212.882 202.745 212.246C202.783 211.609 202.895 209.379 202.925 208.742C202.955 208.29 202.891 207.836 202.738 207.41C202.584 206.983 202.344 206.593 202.033 206.263C201.722 205.934 201.347 205.672 200.93 205.495C200.513 205.317 200.064 205.228 199.611 205.232C198.667 205.243 197.763 205.611 197.079 206.262C196.395 206.913 195.982 207.799 195.924 208.742C195.886 209.379 195.774 211.602 195.737 212.246C195.699 212.889 195.587 215.105 195.557 215.749C195.528 216.201 195.593 216.653 195.747 217.079C195.901 217.505 196.14 217.894 196.451 218.223C196.762 218.551 197.138 218.812 197.554 218.99C197.97 219.167 198.418 219.256 198.871 219.252C199.813 219.241 200.717 218.874 201.401 218.224C202.085 217.574 202.498 216.69 202.558 215.749Z" fill="#4A90E2"/>
<path d="M177.942 190.186H190.89C192.632 190.168 194.303 189.49 195.566 188.289C196.83 187.087 197.591 185.451 197.697 183.711C197.751 182.875 197.633 182.038 197.349 181.25C197.065 180.463 196.621 179.742 196.046 179.134C195.471 178.527 194.777 178.044 194.006 177.717C193.236 177.391 192.407 177.227 191.57 177.236H178.623C176.879 177.253 175.207 177.931 173.943 179.132C172.679 180.333 171.916 181.969 171.808 183.711C171.755 184.546 171.874 185.384 172.159 186.172C172.444 186.959 172.888 187.679 173.464 188.287C174.039 188.895 174.734 189.377 175.505 189.704C176.275 190.031 177.105 190.195 177.942 190.186Z" fill="white"/>
<path d="M178.547 178.658H191.488C193.055 178.64 194.569 179.231 195.711 180.305C196.853 181.38 197.535 182.855 197.614 184.422C197.654 184.187 197.679 183.949 197.689 183.711C197.743 182.875 197.625 182.038 197.341 181.25C197.057 180.463 196.614 179.742 196.038 179.134C195.463 178.527 194.769 178.044 193.999 177.717C193.229 177.391 192.399 177.227 191.563 177.236H178.622C176.879 177.253 175.207 177.931 173.943 179.132C172.678 180.333 171.916 181.969 171.808 183.711C171.808 183.95 171.808 184.19 171.808 184.422C172.077 182.822 172.899 181.368 174.131 180.314C175.363 179.26 176.927 178.674 178.547 178.658Z" fill="#4A90E2"/>
<path opacity="0.3" d="M178.547 178.658H191.488C193.055 178.64 194.569 179.231 195.711 180.305C196.853 181.38 197.535 182.855 197.614 184.422C197.654 184.187 197.679 183.949 197.689 183.711C197.743 182.875 197.625 182.038 197.341 181.25C197.057 180.463 196.614 179.742 196.038 179.134C195.463 178.527 194.769 178.044 193.999 177.717C193.229 177.391 192.399 177.227 191.563 177.236H178.622C176.879 177.253 175.207 177.931 173.943 179.132C172.678 180.333 171.916 181.969 171.808 183.711C171.808 183.95 171.808 184.19 171.808 184.422C172.077 182.822 172.899 181.368 174.131 180.314C175.363 179.26 176.927 178.674 178.547 178.658Z" fill="white"/>
<path d="M184.756 183.711C184.864 181.969 185.626 180.333 186.891 179.132C188.155 177.931 189.827 177.253 191.57 177.236C192.407 177.227 193.236 177.391 194.006 177.717C194.776 178.044 195.471 178.527 196.046 179.134C196.621 179.742 197.065 180.463 197.349 181.25C197.633 182.038 197.751 182.875 197.696 183.711C197.59 185.451 196.829 187.087 195.566 188.289C194.303 189.49 192.632 190.168 190.89 190.186C190.053 190.195 189.223 190.031 188.453 189.704C187.682 189.377 186.987 188.895 186.411 188.287C185.836 187.679 185.391 186.959 185.107 186.172C184.822 185.384 184.702 184.546 184.756 183.711Z" fill="#4A90E2"/>
<path d="M179.213 99.5579H249.832C250.757 99.5484 251.645 99.1889 252.317 98.5516C252.988 97.9143 253.394 97.0463 253.452 96.122C253.48 95.6788 253.416 95.2346 253.265 94.8171C253.114 94.3995 252.878 94.0177 252.573 93.6954C252.267 93.373 251.899 93.117 251.491 92.9434C251.082 92.7698 250.642 92.6822 250.198 92.6862H179.572C178.648 92.6958 177.761 93.0555 177.091 93.693C176.42 94.3305 176.016 95.1984 175.959 96.122C175.929 96.5658 175.992 97.011 176.142 97.4295C176.293 97.848 176.528 98.2307 176.834 98.5535C177.14 98.8764 177.509 99.1323 177.918 99.3052C178.328 99.478 178.769 99.5641 179.213 99.5579Z" fill="white"/>
<path d="M179.572 94.2057H250.161C250.899 94.1993 251.616 94.4473 252.192 94.9081C252.769 95.369 253.169 96.0144 253.325 96.7358C253.367 96.5406 253.397 96.3432 253.415 96.1445C253.443 95.7012 253.379 95.257 253.228 94.8395C253.076 94.422 252.841 94.0402 252.535 93.7178C252.23 93.3955 251.862 93.1395 251.453 92.9659C251.045 92.7922 250.605 92.7047 250.161 92.7086H179.572C178.648 92.7182 177.761 93.078 177.091 93.7155C176.42 94.3529 176.016 95.2208 175.96 96.1445C175.943 96.4517 175.974 96.7596 176.049 97.0577C176.231 96.2553 176.677 95.5374 177.316 95.02C177.956 94.5026 178.75 94.2157 179.572 94.2057Z" fill="#4A90E2"/>
<path opacity="0.3" d="M179.572 94.2057H250.161C250.899 94.1993 251.616 94.4473 252.192 94.9081C252.769 95.369 253.169 96.0144 253.325 96.7358C253.367 96.5406 253.397 96.3432 253.415 96.1445C253.443 95.7012 253.379 95.257 253.228 94.8395C253.076 94.422 252.841 94.0402 252.535 93.7178C252.23 93.3955 251.862 93.1395 251.453 92.9659C251.045 92.7922 250.605 92.7047 250.161 92.7086H179.572C178.648 92.7182 177.761 93.078 177.091 93.7155C176.42 94.3529 176.016 95.2208 175.96 96.1445C175.943 96.4517 175.974 96.7596 176.049 97.0577C176.231 96.2553 176.677 95.5374 177.316 95.02C177.956 94.5026 178.75 94.2157 179.572 94.2057Z" fill="white"/>
<path d="M196.52 100.65C199.148 98.0887 199.308 93.9883 196.878 91.4919C194.448 88.9955 190.348 89.0485 187.72 91.6101C185.092 94.1718 184.932 98.2722 187.362 100.769C189.792 103.265 193.893 103.212 196.52 100.65Z" fill="#4A90E2"/>
<path d="M248.598 179.728C248.618 179.406 248.572 179.084 248.463 178.78C248.353 178.477 248.181 178.2 247.96 177.966C247.738 177.732 247.47 177.546 247.173 177.42C246.876 177.295 246.556 177.232 246.234 177.236H225.395C224.724 177.244 224.081 177.505 223.594 177.967C223.107 178.429 222.813 179.058 222.769 179.728L222.35 187.693C222.33 188.015 222.376 188.338 222.486 188.641C222.595 188.944 222.767 189.221 222.989 189.456C223.21 189.69 223.478 189.875 223.775 190.001C224.072 190.126 224.392 190.189 224.714 190.186H245.553C246.224 190.178 246.868 189.916 247.354 189.454C247.841 188.992 248.136 188.363 248.179 187.693L248.598 179.728Z" fill="#4A90E2"/>
<path d="M225.32 178.658H246.16C246.482 178.654 246.802 178.717 247.098 178.843C247.395 178.968 247.663 179.154 247.885 179.388C248.107 179.622 248.278 179.899 248.388 180.202C248.498 180.506 248.544 180.829 248.523 181.15L248.598 179.728C248.619 179.406 248.573 179.084 248.463 178.78C248.353 178.477 248.182 178.2 247.96 177.966C247.738 177.732 247.47 177.546 247.173 177.42C246.876 177.295 246.557 177.232 246.234 177.236H225.395C224.724 177.244 224.081 177.505 223.594 177.967C223.107 178.429 222.813 179.058 222.77 179.728L222.695 181.15C222.738 180.48 223.033 179.851 223.519 179.389C224.006 178.927 224.649 178.666 225.32 178.658Z" fill="#4A90E2"/>
<path opacity="0.3" d="M225.32 178.658H246.16C246.482 178.654 246.802 178.717 247.098 178.843C247.395 178.968 247.663 179.154 247.885 179.388C248.107 179.622 248.278 179.899 248.388 180.202C248.498 180.506 248.544 180.829 248.523 181.15L248.598 179.728C248.619 179.406 248.573 179.084 248.463 178.78C248.353 178.477 248.182 178.2 247.96 177.966C247.738 177.732 247.47 177.546 247.173 177.42C246.876 177.295 246.557 177.232 246.234 177.236H225.395C224.724 177.244 224.081 177.505 223.594 177.967C223.107 178.429 222.813 179.058 222.77 179.728L222.695 181.15C222.738 180.48 223.033 179.851 223.519 179.389C224.006 178.927 224.649 178.666 225.32 178.658Z" fill="#161616"/>
<path d="M235.717 179.728C235.738 179.406 235.692 179.084 235.582 178.78C235.472 178.477 235.301 178.2 235.079 177.966C234.857 177.732 234.589 177.546 234.292 177.42C233.995 177.295 233.676 177.232 233.354 177.236H225.395C224.724 177.244 224.081 177.505 223.594 177.967C223.107 178.429 222.813 179.058 222.769 179.728L222.35 187.693C222.33 188.015 222.376 188.338 222.486 188.641C222.595 188.944 222.767 189.221 222.989 189.456C223.21 189.69 223.478 189.875 223.775 190.001C224.072 190.126 224.392 190.189 224.714 190.186H232.673C233.344 190.178 233.987 189.916 234.474 189.454C234.961 188.992 235.255 188.363 235.298 187.693L235.717 179.728Z" fill="white"/>
<path d="M230.19 185.904H227.646L227.878 181.517H230.421L230.19 185.904Z" fill="#4A90E2"/>
<path d="M248.68 120.884H178.099C177.174 120.895 176.287 121.256 175.616 121.893C174.945 122.529 174.539 123.396 174.478 124.32C174.449 124.764 174.512 125.208 174.663 125.626C174.814 126.044 175.05 126.427 175.355 126.749C175.661 127.072 176.03 127.328 176.439 127.501C176.848 127.674 177.288 127.761 177.732 127.756H248.336C249.261 127.748 250.149 127.389 250.819 126.751C251.49 126.113 251.894 125.244 251.949 124.32C251.978 123.875 251.914 123.429 251.762 123.01C251.611 122.591 251.374 122.208 251.067 121.885C250.759 121.563 250.389 121.307 249.978 121.135C249.567 120.962 249.125 120.877 248.68 120.884Z" fill="#4A90E2"/>
<path opacity="0.3" d="M178.099 122.381H248.68C249.417 122.373 250.134 122.62 250.711 123.079C251.287 123.539 251.688 124.183 251.844 124.904C251.893 124.713 251.923 124.517 251.934 124.32C251.963 123.877 251.9 123.432 251.749 123.014C251.598 122.596 251.362 122.214 251.057 121.891C250.751 121.569 250.383 121.313 249.974 121.139C249.565 120.966 249.124 120.879 248.68 120.884H178.099C177.559 120.873 177.023 120.985 176.533 121.212C176.043 121.439 175.611 121.775 175.27 122.194C174.93 122.614 174.689 123.106 174.568 123.633C174.446 124.159 174.446 124.707 174.568 125.233C174.753 124.431 175.201 123.714 175.841 123.197C176.481 122.679 177.276 122.392 178.099 122.381Z" fill="#161616"/>
<path d="M237.729 130.795H232.321C231.836 130.8 231.356 130.705 230.909 130.517C230.462 130.328 230.058 130.05 229.723 129.699C229.388 129.348 229.128 128.932 228.96 128.477C228.792 128.022 228.719 127.537 228.746 127.052L229.03 121.64C229.1 120.631 229.547 119.684 230.284 118.991C231.02 118.297 231.991 117.906 233.002 117.898H238.41C238.895 117.893 239.375 117.987 239.822 118.176C240.268 118.365 240.671 118.643 241.006 118.994C241.34 119.345 241.599 119.761 241.766 120.216C241.934 120.671 242.006 121.156 241.978 121.64L241.694 127.052C241.624 128.061 241.178 129.006 240.443 129.7C239.708 130.393 238.739 130.784 237.729 130.795Z" fill="white"/>
<path d="M236.802 126.513H234.259L234.491 122.127H237.034L236.802 126.513Z" fill="#4A90E2"/>
<path d="M125.522 101.474L115.94 112.328C116.688 117.508 118.251 132.539 118.251 132.539C116.815 134.441 113.307 133.902 113.307 133.902C110.443 126.762 109.27 119.055 109.881 111.385C110.555 104.371 119.546 90.5753 125.948 86.6828C126.993 86.05 128.125 85.5734 129.307 85.268L130.571 85.1183L126.083 101.804L125.522 101.474Z" fill="#4A90E2"/>
<path opacity="0.6" d="M125.522 101.474L115.94 112.328C116.688 117.508 118.251 132.539 118.251 132.539C116.815 134.441 113.307 133.902 113.307 133.902C110.443 126.762 109.27 119.055 109.881 111.385C110.555 104.371 119.546 90.5753 125.948 86.6828C126.993 86.05 128.125 85.5734 129.307 85.268L130.571 85.1183L126.083 101.804L125.522 101.474Z" fill="#161616"/>
<path d="M117.728 133.722L120.046 136.2C120.122 136.282 120.18 136.379 120.218 136.484L121.58 140.317C121.662 140.518 121.662 140.744 121.58 140.946L120.922 142.3C120.867 142.413 120.788 142.511 120.689 142.588C120.591 142.665 120.476 142.717 120.353 142.742L115.618 143.723C115.512 143.744 115.403 143.745 115.296 143.724C115.19 143.702 115.089 143.66 114.999 143.6C114.909 143.539 114.833 143.461 114.773 143.37C114.714 143.28 114.673 143.178 114.653 143.071L113.741 138.026C113.72 137.925 113.72 137.82 113.741 137.719L114.369 134.486C114.401 134.324 114.481 134.177 114.599 134.062C114.716 133.947 114.866 133.87 115.027 133.842L116.995 133.49C117.126 133.465 117.262 133.474 117.39 133.514C117.518 133.555 117.634 133.626 117.728 133.722Z" fill="#FAB27B"/>
<path d="M119.725 133.153L112.35 136.499L112.252 132.929L119.059 130.309L119.725 133.153Z" fill="#4A90E2"/>
<path opacity="0.5" d="M119.725 133.153L112.35 136.499L112.252 132.929L119.059 130.309L119.725 133.153Z" fill="white"/>
<path d="M116.868 146.358C112.469 162.077 114.332 185.283 111.916 200.845C110.255 211.564 98.9007 246.844 98.9007 246.844L108.924 249.883C108.924 249.883 121.43 218.81 123.884 209.551C127.818 194.527 133.728 166.022 133.728 166.022C133.728 166.022 135.934 157.938 134.932 157.039C133.93 156.141 116.868 146.358 116.868 146.358Z" fill="#4A90E2"/>
<path opacity="0.3" d="M127.908 157.152L135.156 159.502L132.441 172.228C132.441 172.228 133.772 160.056 127.908 157.152Z" fill="#161616"/>
<path d="M100.913 246.387L99.1173 252.084L103.979 254.269L106.388 248.221L100.913 246.387Z" fill="#FAB27B"/>
<path opacity="0.2" d="M99.8507 249.763L104.982 251.747L105.663 250.033L100.27 248.438L99.8507 249.763Z" fill="#161616"/>
<path d="M99.0053 243.722L111.265 247.076L109.043 251.028L98.3172 247.862L99.0053 243.722Z" fill="#4A90E2"/>
<path opacity="0.5" d="M99.0053 243.722L111.265 247.076L109.043 251.028L98.3172 247.862L99.0053 243.722Z" fill="white"/>
<path d="M105.019 255.048C104.995 255.03 104.975 255.006 104.963 254.979C104.952 254.951 104.948 254.921 104.952 254.891C104.958 254.862 104.972 254.836 104.994 254.816C105.015 254.795 105.042 254.782 105.071 254.778C105.184 254.778 107.622 254.404 108.475 255.04C108.556 255.097 108.624 255.17 108.677 255.253C108.729 255.337 108.765 255.43 108.782 255.527C108.81 255.637 108.804 255.753 108.764 255.858C108.723 255.964 108.651 256.055 108.557 256.118C107.934 256.27 107.278 256.191 106.71 255.894C106.123 255.662 105.557 255.379 105.019 255.048ZM105.528 255.048C106.545 255.602 107.989 256.156 108.4 255.886C108.46 255.886 108.527 255.789 108.49 255.579C108.483 255.519 108.462 255.461 108.428 255.41C108.394 255.359 108.349 255.317 108.295 255.287C108.223 255.23 108.143 255.184 108.056 255.153C107.229 254.952 106.37 254.911 105.528 255.033V255.048Z" fill="#4A90E2"/>
<path d="M104.952 255.01C104.939 254.988 104.932 254.962 104.932 254.936C104.932 254.909 104.939 254.884 104.952 254.861C104.989 254.793 105.745 253.311 106.71 252.997C106.847 252.949 106.993 252.93 107.138 252.94C107.284 252.95 107.425 252.99 107.555 253.057C107.914 253.244 107.959 253.476 107.907 253.641C107.779 254.329 105.917 255.033 105.116 255.07C105.097 255.078 105.076 255.078 105.057 255.07C105.036 255.07 105.015 255.064 104.997 255.054C104.978 255.043 104.963 255.028 104.952 255.01ZM107.346 253.281C107.174 253.216 106.986 253.216 106.814 253.281C106.188 253.619 105.682 254.142 105.363 254.778C106.238 254.636 107.525 254.03 107.607 253.618C107.607 253.581 107.607 253.476 107.398 253.356H107.316L107.346 253.281Z" fill="#4A90E2"/>
<path d="M104.72 254.015L98.4742 251.567C98.3599 251.52 98.2328 251.513 98.1143 251.549C97.9958 251.584 97.8931 251.659 97.8234 251.762L94.7043 256.41C94.5711 256.607 94.5208 256.849 94.5642 257.083C94.6076 257.317 94.7412 257.524 94.9362 257.66L95.1082 257.75C97.3522 258.589 99.4242 259.247 102.229 260.355C105.535 261.658 104.54 261.725 108.408 263.304C110.741 264.255 112.215 261.755 111.272 261.238C106.949 258.88 107.016 257.316 105.894 255.003C105.64 254.539 105.221 254.186 104.72 254.015Z" fill="#4F4F4F"/>
<path d="M145.471 251.028L145.583 256.515L150.887 257.024L151.208 251.028H145.471Z" fill="#FAB27B"/>
<path opacity="0.2" d="M151.073 253.573L151.148 252.136L145.501 252.368L145.538 254.045L151.073 253.573Z" fill="#161616"/>
<path d="M116.867 146.358C118.528 138.438 125.155 131.386 125.155 131.386L150.587 133.018C150.587 133.018 152.188 149.367 152.562 154.831C153.31 165.865 156.407 182.999 156.489 194.063C156.601 209.034 153.175 248.76 153.175 248.76L143.571 249.898C143.571 249.898 143.713 213.151 142.142 199.295C140.953 188.816 133.787 160.026 133.787 160.026C133.787 160.026 114.092 159.637 116.867 146.358Z" fill="#4A90E2"/>
<path d="M141.91 248.348L154.597 247.57L153.766 252.024L142.591 252.488L141.91 248.348Z" fill="#4A90E2"/>
<path opacity="0.5" d="M141.91 248.348L154.597 247.57L153.766 252.024L142.591 252.488L141.91 248.348Z" fill="white"/>
<path d="M152.039 257.406C152.009 257.399 151.983 257.382 151.963 257.36C151.943 257.337 151.93 257.309 151.926 257.279C151.921 257.25 151.925 257.22 151.938 257.194C151.952 257.168 151.974 257.148 152.001 257.136C152.098 257.084 154.29 255.939 155.3 256.268C155.49 256.321 155.651 256.448 155.749 256.62C155.813 256.714 155.847 256.824 155.847 256.938C155.847 257.052 155.813 257.163 155.749 257.256C155.21 257.609 154.56 257.75 153.923 257.653C153.289 257.624 152.659 257.541 152.039 257.406ZM152.517 257.226C153.654 257.413 155.203 257.466 155.509 257.077C155.554 257.032 155.592 256.942 155.509 256.762C155.483 256.707 155.445 256.658 155.397 256.62C155.349 256.583 155.292 256.557 155.232 256.545C155.143 256.516 155.05 256.5 154.956 256.5C154.104 256.583 153.276 256.83 152.517 257.226Z" fill="#4A90E2"/>
<path d="M151.956 257.391C151.937 257.374 151.921 257.354 151.911 257.33C151.901 257.307 151.896 257.282 151.896 257.256C151.896 257.181 152.143 255.534 152.951 254.921C153.065 254.831 153.196 254.765 153.336 254.728C153.476 254.69 153.623 254.682 153.766 254.704C154.163 254.756 154.282 254.966 154.29 255.13C154.395 255.826 152.869 257.106 152.121 257.376C152.112 257.381 152.101 257.384 152.091 257.384C152.08 257.384 152.07 257.381 152.061 257.376C152.045 257.385 152.028 257.392 152.01 257.394C151.992 257.397 151.974 257.396 151.956 257.391ZM153.662 254.973C153.476 254.966 153.293 255.024 153.145 255.138C152.669 255.65 152.358 256.294 152.255 256.987C153.003 256.567 154.051 255.564 154.028 255.145C154.028 255.108 154.028 255.003 153.744 254.973H153.662Z" fill="#4A90E2"/>
<path d="M151.44 256.523L144.708 256.253C144.585 256.249 144.464 256.286 144.365 256.36C144.266 256.433 144.194 256.538 144.162 256.657L142.733 262.069C142.703 262.183 142.695 262.302 142.711 262.419C142.726 262.536 142.764 262.649 142.823 262.751C142.882 262.854 142.961 262.943 143.055 263.015C143.148 263.087 143.255 263.139 143.369 263.17C143.431 263.178 143.494 263.178 143.556 263.17C145.972 263.222 148.127 263.17 151.141 263.297C154.686 263.439 153.774 263.828 157.948 264.046C160.461 264.18 161.03 261.336 159.975 261.156C155.113 260.348 154.664 258.851 152.854 257.032C152.458 256.699 151.957 256.519 151.44 256.523Z" fill="#4F4F4F"/>
<path d="M143.489 78.8079C143.048 80.2227 141.941 82.6106 143.489 84.744L135.852 83.9954C135.852 83.9954 136.667 78.3588 137.138 76.5098C137.445 75.3196 137.841 74.0246 141.858 75.1475C144.162 75.8137 143.788 77.8498 143.489 78.8079Z" fill="#FAB27B"/>
<path d="M136.6 76.7195C132.396 73.4707 123.51 64.6677 132.037 56.98C139.136 50.5799 145.658 54.3227 147.88 58.6493C150.371 63.4925 156.018 76.435 143.489 78.8079C141.185 79.2421 138.784 78.4037 136.6 76.7195Z" fill="#FAB27B"/>
<path d="M130.593 84.2499C130.593 84.2499 136.488 79.0699 147.685 85.9042L147.528 87.5061L130.698 85.8743L130.593 84.2499Z" fill="#4A90E2"/>
<path opacity="0.5" d="M130.593 84.2499C130.593 84.2499 136.488 79.0699 147.685 85.9042L147.528 87.5061L130.698 85.8743L130.593 84.2499Z" fill="white"/>
<path opacity="0.1" d="M141.88 77.2809C141.88 79.01 142.412 79.9083 143.032 80.3574C143.148 79.8308 143.3 79.313 143.489 78.8079C141.985 78.1492 141.88 77.2809 141.88 77.2809Z" fill="#161616"/>
<path d="M146.369 85.7022C143.945 85.1843 141.496 84.7945 139.031 84.5344C134.692 84.0254 131.379 83.6886 128.985 84.744C125.17 86.4283 124.684 87.5062 124.684 87.5062L125.432 99.8798C126.027 105.85 126.135 111.858 125.754 117.845C125.754 117.898 125.455 129.635 119.119 135.938C121.753 138.076 124.871 139.533 128.2 140.182L131.775 131.619L132.905 140.601C132.905 140.601 145.778 144.419 156.399 140.893C156.399 140.893 150.587 131.596 152.457 122.089C153.363 117.516 154.021 115.352 154.529 111.759C154.823 109.822 154.823 107.851 154.529 105.913L152.143 89.5947C152.143 89.5947 147.925 86.0839 146.369 85.7022Z" fill="#4A90E2"/>
<path opacity="0.6" d="M146.369 85.7022C143.945 85.1843 141.496 84.7945 139.031 84.5344C134.692 84.0254 131.379 83.6886 128.985 84.744C125.17 86.4283 124.684 87.5062 124.684 87.5062L125.432 99.8798C126.027 105.85 126.135 111.858 125.754 117.845C125.754 117.898 125.455 129.635 119.119 135.938C121.753 138.076 124.871 139.533 128.2 140.182L131.775 131.619L132.905 140.601C132.905 140.601 145.778 144.419 156.399 140.893C156.399 140.893 150.587 131.596 152.457 122.089C153.363 117.516 154.021 115.352 154.529 111.759C154.823 109.822 154.823 107.851 154.529 105.913L152.143 89.5947C152.143 89.5947 147.925 86.0839 146.369 85.7022Z" fill="#161616"/>
<path d="M153.766 116.393C154.073 114.739 154.342 113.182 154.514 111.797C154.808 109.859 154.808 107.888 154.514 105.951L151.096 102.103C151.096 102.103 154.387 106.729 153.766 116.393Z" fill="#161616"/>
<path d="M184.292 98.8094L186.656 92.0724C186.702 91.9367 186.798 91.824 186.925 91.758L190.628 89.8641C190.728 89.8165 190.84 89.7989 190.95 89.8135C191.061 89.8281 191.164 89.8743 191.249 89.9465L193.889 92.267C193.993 92.3594 194.059 92.4878 194.073 92.6266C194.087 92.7654 194.048 92.9043 193.964 93.0155L191.234 96.6086C191.203 96.65 191.178 96.6953 191.159 96.7434C190.95 97.2748 189.543 100.636 186.551 101.474L186.439 101.519L185.437 102.051C185.315 102.125 185.169 102.149 185.03 102.119C184.89 102.088 184.768 102.005 184.689 101.886L183.41 100.097C183.361 100.03 183.329 99.9532 183.314 99.8721C183.299 99.791 183.302 99.7075 183.324 99.6279C183.345 99.5483 183.384 99.4745 183.438 99.4118C183.492 99.3492 183.559 99.2994 183.634 99.266L183.971 99.1088C184.043 99.0856 184.109 99.0468 184.165 98.995C184.221 98.9433 184.264 98.8799 184.292 98.8094Z" fill="#FAB27B"/>
<path d="M146.302 85.6946C150.782 86.8009 154.711 89.4915 157.364 93.27C160.694 97.4765 164.455 101.323 168.584 104.745C168.584 104.745 177.231 102.904 182.684 98.1806L185.886 102.964C185.886 102.964 172.751 112.875 167.403 112.358C162.84 111.917 154.522 105.973 154.522 105.973L151.096 102.125L146.302 85.6946Z" fill="#4A90E2"/>
<path opacity="0.6" d="M146.302 85.6946C150.782 86.8009 154.711 89.4915 157.364 93.27C160.694 97.4765 164.455 101.323 168.584 104.745C168.584 104.745 177.231 102.904 182.684 98.1806L185.886 102.964C185.886 102.964 172.751 112.875 167.403 112.358C162.84 111.917 154.522 105.973 154.522 105.973L151.096 102.125L146.302 85.6946Z" fill="#161616"/>
<path d="M182.983 97.5817L187.785 103.548L184.569 104.401L180.739 98.7944L182.983 97.5817Z" fill="#4A90E2"/>
<path opacity="0.5" d="M182.983 97.5817L187.785 103.548L184.569 104.401L180.739 98.7944L182.983 97.5817Z" fill="white"/>
<path d="M150.999 68.9944V71.3149L152.562 71.0978L150.999 68.9944Z" fill="#E07F50"/>
<path d="M138.739 82.8876C135.141 83.2544 124.527 83.464 125.791 75.6715C127.055 67.879 125.335 64.0165 128.634 58.5296C131.932 53.0427 138.806 51.4407 144.992 53.0651C150.146 54.4125 150.565 58.0205 149.166 60.1914C147.767 62.3622 147.139 62.7664 147.386 64.3084C147.633 65.8504 146.698 66.7113 146.294 67.4374C145.849 67.9607 145.284 68.369 144.648 68.6276C144.37 70.1422 144.465 71.7017 144.925 73.1713C145.673 76.0233 147.199 82.0118 138.739 82.8876Z" fill="#161616"/>
<path d="M143.526 53.1474C145.256 53.3268 146.94 53.8108 148.5 54.5772C149.72 55.206 150.939 56.1417 151.216 57.5714C151.612 59.6299 150.019 61.5837 148.755 63.0059C148.553 63.238 148.942 63.5074 149.136 63.2829C151.38 60.7677 153.116 57.2346 149.824 54.8242C147.954 53.5945 145.803 52.8581 143.571 52.6833C143.51 52.6774 143.448 52.6961 143.401 52.7354C143.353 52.7747 143.323 52.8314 143.317 52.8929C143.311 52.9545 143.33 53.0159 143.369 53.0636C143.408 53.1113 143.465 53.1415 143.526 53.1474Z" fill="#161616"/>
<path d="M128.656 58.4847C126.285 61.5612 126.173 65.581 125.664 69.2489C125.328 71.8389 122.41 76.8917 124.475 79.3319C124.669 79.564 125.043 79.2721 124.849 79.04C123.435 77.3707 124.849 74.9155 125.328 73.1863C125.78 71.4863 126.088 69.7509 126.248 67.9988C126.569 64.8624 126.996 61.3591 129.008 58.7691C129.195 58.5296 128.813 58.2451 128.626 58.4847H128.656Z" fill="#161616"/>
<path d="M149.391 64.5779C149.346 64.6752 149.428 64.503 149.443 64.4806C149.489 64.3909 149.547 64.3078 149.615 64.2336C149.718 64.1094 149.855 64.0188 150.01 63.9734C150.165 63.9281 150.329 63.93 150.483 63.979C150.767 64.0464 150.887 63.6123 150.602 63.5449C150.264 63.4614 149.906 63.5092 149.601 63.6785C149.296 63.8479 149.066 64.1263 148.957 64.4581C148.845 64.7201 149.278 64.8399 149.391 64.5779Z" fill="#161616"/>
<path d="M147.551 67.9913C148.029 69.4285 147.551 70.8807 146.526 71.2325C145.501 71.5844 144.282 70.7011 143.758 69.2563C143.235 67.8116 143.758 66.3669 144.783 66.0151C145.808 65.6633 147.064 66.5466 147.551 67.9913Z" fill="#FAB27B"/>
<path d="M151.096 64.3758C151.029 64.9148 150.505 65.027 150.236 65.0719C149.967 65.1169 149.944 65.4238 149.997 65.8205C150.049 66.2172 150.236 66.5017 150.415 66.4718C150.595 66.4418 150.707 66.1199 150.662 65.7232C150.643 65.6156 150.613 65.5102 150.572 65.4088C151.418 64.8998 151.096 64.3758 151.096 64.3758Z" fill="#161616"/>
</svg>
