<svg width="375" height="280" viewBox="0 0 375 280" fill="none" xmlns="http://www.w3.org/2000/svg">
<path d="M375 245.55H0V245.737H375V245.55Z" fill="#FAFAFA"/>
<path d="M317.415 253.71H298.792V253.897H317.415V253.71Z" fill="#E0E0E0"/>
<path d="M329.213 253.612H322.92V253.8H329.213V253.612Z" fill="#E0E0E0"/>
<path d="M249.023 254.872H210.03V255.06H249.023V254.872Z" fill="#E0E0E0"/>
<path d="M200.828 256.905H195.015V257.093H200.828V256.905Z" fill="#E0E0E0"/>
<path d="M83.9624 250.973H73.9424V251.16H83.9624V250.973Z" fill="#E0E0E0"/>
<path d="M138.945 250.973H88.125V251.16H138.945V250.973Z" fill="#E0E0E0"/>
<path d="M95.6249 255.503H60.2699V255.69H95.6249V255.503Z" fill="#E0E0E0"/>
<path d="M177.75 212.1H32.9326C31.7981 212.098 30.7108 211.646 29.9093 210.843C29.1078 210.04 28.6576 208.952 28.6576 207.818V4.245C28.6675 3.11702 29.122 2.03848 29.9224 1.24366C30.7229 0.448844 31.8046 0.00193229 32.9326 0H177.75C178.886 0 179.975 0.451191 180.778 1.25432C181.581 2.05744 182.033 3.14671 182.033 4.2825V207.818C182.033 208.953 181.581 210.043 180.778 210.846C179.975 211.649 178.886 212.1 177.75 212.1ZM32.9326 0.150001C31.8478 0.151987 30.8082 0.584299 30.0418 1.35205C29.2755 2.11979 28.8451 3.16024 28.8451 4.245V207.818C28.8451 208.902 29.2755 209.943 30.0418 210.71C30.8082 211.478 31.8478 211.911 32.9326 211.913H177.75C178.836 211.911 179.876 211.478 180.644 210.711C181.411 209.943 181.843 208.903 181.845 207.818V4.245C181.843 3.15955 181.411 2.11912 180.644 1.35159C179.876 0.584055 178.836 0.151983 177.75 0.150001H32.9326Z" fill="#E0E0E0"/>
<path d="M339.982 212.1H195.157C194.022 212.098 192.934 211.646 192.132 210.844C191.329 210.041 190.877 208.953 190.875 207.818V4.245C190.887 3.11634 191.343 2.03781 192.145 1.24319C192.946 0.448582 194.029 0.00191122 195.157 0H339.982C341.109 0.00390337 342.189 0.451687 342.988 1.2463C343.787 2.04091 344.24 3.11831 344.25 4.245V207.818C344.25 208.951 343.801 210.038 343.001 210.84C342.201 211.643 341.116 212.096 339.982 212.1ZM195.157 0.150001C194.072 0.151983 193.032 0.584055 192.264 1.35159C191.497 2.11912 191.064 3.15955 191.062 4.245V207.818C191.064 208.903 191.497 209.943 192.264 210.711C193.032 211.478 194.072 211.911 195.157 211.913H339.982C341.068 211.911 342.108 211.478 342.876 210.711C343.643 209.943 344.076 208.903 344.077 207.818V4.245C344.076 3.15955 343.643 2.11912 342.876 1.35159C342.108 0.584055 341.068 0.151983 339.982 0.150001H195.157Z" fill="#E0E0E0"/>
<path d="M256.312 245.55H282.81V197.46H256.312V245.55Z" fill="#E0E0E0"/>
<path d="M314.422 197.46H282.81V245.55H314.422V197.46Z" fill="#EBEBEB"/>
<g style="mix-blend-mode:multiply" opacity="0.7">
<path d="M256.312 203.708H314.7V201.533H256.312V203.708Z" fill="#E0E0E0"/>
</g>
<path d="M254.85 202.44H282.81V192.42H254.85V202.44Z" fill="#E0E0E0"/>
<path d="M315.885 192.427H282.81V202.447H315.885V192.427Z" fill="#EBEBEB"/>
<path d="M145.545 14.2425H56.3475V120.667H145.545V14.2425Z" fill="#E0E0E0"/>
<path d="M149.633 14.2425H58.26V120.667H149.633V14.2425Z" fill="#EBEBEB"/>
<path d="M145.545 120.667H56.3475V128.25H145.545V120.667Z" fill="#E0E0E0"/>
<path d="M156.428 120.667H65.0551V128.25H156.428V120.667Z" fill="#EBEBEB"/>
<path d="M143.917 114.953V19.9575L63.975 19.9575V114.953H143.917Z" fill="#F5F5F5"/>
<path d="M73.785 114.953L107.318 19.9575H123.143L89.6175 114.953H73.785Z" fill="#FAFAFA"/>
<path d="M66.615 82.725C66.5069 82.7231 66.4039 82.6787 66.3281 82.6016C66.2524 82.5244 66.2099 82.4206 66.21 82.3125V23.67C66.21 23.5626 66.2526 23.4596 66.3286 23.3836C66.4045 23.3077 66.5075 23.265 66.615 23.265C66.7231 23.265 66.8269 23.3074 66.904 23.3832C66.9812 23.4589 67.0255 23.5619 67.0275 23.67V82.3125C67.0275 82.4219 66.984 82.5268 66.9066 82.6042C66.8293 82.6816 66.7244 82.725 66.615 82.725Z" fill="#EBEBEB"/>
<path d="M93.015 114.953L126.548 19.9575H132.72L99.1875 114.953H93.015Z" fill="#FAFAFA"/>
<path d="M143.91 114.953V19.9575H143.183V114.953H143.91Z" fill="#E0E0E0"/>
<path d="M150.975 27.2625H61.785L61.26 22.1775H150.45L150.975 27.2625Z" fill="#E0E0E0"/>
<path d="M150.975 30.99H61.785L61.26 25.8975H150.45L150.975 30.99Z" fill="#E0E0E0"/>
<path d="M150.975 35.46H61.785L61.26 30.3675H150.45L150.975 35.46Z" fill="#E0E0E0"/>
<path d="M150.975 40.4325H61.785L61.26 35.3475H150.45L150.975 40.4325Z" fill="#E0E0E0"/>
<path d="M150.975 46.395H61.785L61.26 41.3025H150.45L150.975 46.395Z" fill="#E0E0E0"/>
<path d="M150.975 53.0925H61.785L61.26 48.0075H150.45L150.975 53.0925Z" fill="#E0E0E0"/>
<path d="M307.77 14.2425H218.573V120.667H307.77V14.2425Z" fill="#E0E0E0"/>
<path d="M311.85 14.2425H220.478V120.667H311.85V14.2425Z" fill="#EBEBEB"/>
<path d="M307.77 120.667H218.573V128.25H307.77V120.667Z" fill="#E0E0E0"/>
<path d="M318.653 120.667H227.28V128.25H318.653V120.667Z" fill="#EBEBEB"/>
<path d="M306.142 114.953V19.9575L226.2 19.9575V114.953H306.142Z" fill="#F5F5F5"/>
<path d="M236.01 114.953L269.543 19.9575H285.368L251.835 114.953H236.01Z" fill="#FAFAFA"/>
<path d="M228.84 82.725C228.732 82.7231 228.629 82.6787 228.553 82.6016C228.477 82.5244 228.435 82.4206 228.435 82.3125V23.67C228.435 23.5626 228.478 23.4596 228.554 23.3836C228.63 23.3077 228.733 23.265 228.84 23.265C228.947 23.265 229.05 23.3077 229.126 23.3836C229.202 23.4596 229.245 23.5626 229.245 23.67V82.3125C229.245 82.4206 229.203 82.5244 229.127 82.6016C229.051 82.6787 228.948 82.7231 228.84 82.725Z" fill="#EBEBEB"/>
<path d="M255.24 114.953L288.772 19.9575H294.937L261.412 114.953H255.24Z" fill="#FAFAFA"/>
<path d="M306.135 114.953V19.9575H305.408V114.953H306.135Z" fill="#E0E0E0"/>
<path d="M313.2 27.2625H224.01L223.478 22.1775H312.675L313.2 27.2625Z" fill="#E0E0E0"/>
<path d="M313.2 30.99H224.01L223.478 25.8975H312.675L313.2 30.99Z" fill="#E0E0E0"/>
<path d="M313.2 35.46H224.01L223.478 30.3675H312.675L313.2 35.46Z" fill="#E0E0E0"/>
<path d="M313.2 40.4325H224.01L223.478 35.3475H312.675L313.2 40.4325Z" fill="#E0E0E0"/>
<path d="M313.2 46.395H224.01L223.478 41.3025H312.675L313.2 46.395Z" fill="#E0E0E0"/>
<path d="M313.2 53.0925H224.01L223.478 48.0075H312.675L313.2 53.0925Z" fill="#E0E0E0"/>
<path d="M238.53 178.095H220.718V245.55H238.53V178.095Z" fill="#E0E0E0"/>
<path d="M235.14 245.55H238.523V237.285H231.593L235.14 245.55Z" fill="#F5F5F5"/>
<path d="M65.6699 178.095H47.8574V245.55H65.6699V178.095Z" fill="#E0E0E0"/>
<path d="M238.53 178.095H62.715V241.005H238.53V178.095Z" fill="#F5F5F5"/>
<path d="M151.755 181.245V226.17H235.905V181.245H151.755Z" fill="#E0E0E0"/>
<path d="M65.34 181.245V226.17H149.49V181.245H65.34Z" fill="#E0E0E0"/>
<path d="M235.897 235.665V230.662H151.747V235.665H235.897Z" fill="#E0E0E0"/>
<path d="M149.483 235.672V230.67H65.3326V235.672H149.483Z" fill="#E0E0E0"/>
<path d="M137.047 183.93H77.7974C76.4818 183.931 75.1797 183.666 73.9694 183.15C72.7591 182.634 71.6656 181.879 70.7549 180.93H144.12C143.206 181.883 142.107 182.64 140.892 183.156C139.676 183.672 138.368 183.935 137.047 183.93Z" fill="#F5F5F5"/>
<path d="M223.777 183.93H164.527C163.212 183.931 161.91 183.666 160.7 183.15C159.489 182.634 158.396 181.879 157.485 180.93H230.85C229.937 181.885 228.839 182.644 227.623 183.16C226.407 183.675 225.098 183.938 223.777 183.93Z" fill="#F5F5F5"/>
<path d="M66.0975 245.55H62.7075V237.285H69.6375L66.0975 245.55Z" fill="#F5F5F5"/>
<g style="mix-blend-mode:multiply" opacity="0.4">
<path d="M191.67 136.68H171.84V178.095H191.67V136.68Z" fill="#E0E0E0"/>
</g>
<path d="M208.328 178.095H174.765L171.608 133.372H205.163L208.328 178.095Z" fill="#E0E0E0"/>
<path d="M212.145 178.095H175.717L172.56 133.372H208.98L212.145 178.095Z" fill="#F5F5F5"/>
<path d="M177.405 176.385L174.488 135.083H207.3L210.225 176.385H177.405Z" fill="#FAFAFA"/>
<path d="M185.347 167.138L183.735 144.33H199.357L200.97 167.138H185.347Z" fill="#F5F5F5"/>
<path d="M119.512 170.753C124.326 170.753 128.227 166.851 128.227 162.038C128.227 157.224 124.326 153.323 119.512 153.323C114.699 153.323 110.797 157.224 110.797 162.038C110.797 166.851 114.699 170.753 119.512 170.753Z" fill="#EBEBEB"/>
<path d="M134.438 174.908C139.251 174.908 143.153 171.006 143.153 166.193C143.153 161.379 139.251 157.478 134.438 157.478C129.624 157.478 125.723 161.379 125.723 166.193C125.723 171.006 129.624 174.908 134.438 174.908Z" fill="#EBEBEB"/>
<path d="M149.267 167.928C152.235 166.705 153.65 163.308 152.427 160.34C151.205 157.372 147.807 155.957 144.839 157.18C141.871 158.402 140.456 161.8 141.679 164.768C142.902 167.736 146.299 169.151 149.267 167.928Z" fill="#EBEBEB"/>
<path d="M133.98 157.7C134.494 154.531 132.341 151.547 129.172 151.033C126.003 150.52 123.018 152.673 122.505 155.842C121.992 159.011 124.145 161.996 127.313 162.509C130.482 163.022 133.467 160.869 133.98 157.7Z" fill="#EBEBEB"/>
<path d="M105.578 164.633C105.578 164.633 106.26 178.095 132.413 178.095C158.565 178.095 159.248 164.633 159.248 164.633H105.578Z" fill="#E0E0E0"/>
<path d="M81.4275 173.482C81.4275 173.482 72.9075 158.797 84.7275 147.105C84.7275 147.105 87.81 149.115 87.7275 151.822C87.645 154.53 84.42 155.205 85.1175 157.462C85.815 159.72 88.8675 161.962 86.88 163.8C84.8925 165.637 87.2025 167.317 87.0675 169.605C86.9325 171.892 81.4275 173.482 81.4275 173.482Z" fill="#E0E0E0"/>
<path d="M82.0725 174.825C82.0725 174.825 85.5225 158.205 70.62 150.825C70.62 150.825 68.325 153.713 69.225 156.263C70.125 158.813 73.425 158.43 73.4775 160.763C73.53 163.095 71.3025 166.193 73.8075 167.325C76.3125 168.458 74.61 170.775 75.4575 172.898C76.305 175.02 82.0725 174.825 82.0725 174.825Z" fill="#E0E0E0"/>
<path d="M68.9999 167.138C68.9999 167.138 69.2849 178.095 80.1449 178.095C91.0049 178.095 91.2899 167.138 91.2899 167.138H68.9999Z" fill="#EBEBEB"/>
<path d="M187.5 279.42C267.812 279.42 332.918 275.619 332.918 270.93C332.918 266.241 267.812 262.44 187.5 262.44C107.188 262.44 42.0825 266.241 42.0825 270.93C42.0825 275.619 107.188 279.42 187.5 279.42Z" fill="#F5F5F5"/>
<path d="M135.337 163.08C134.893 163.051 134.476 162.854 134.171 162.528C133.867 162.203 133.697 161.774 133.697 161.329C133.697 160.883 133.867 160.454 134.171 160.129C134.476 159.804 134.893 159.607 135.337 159.577C139.627 159.577 143.242 153.435 143.242 146.16C143.272 145.715 143.469 145.298 143.794 144.994C144.119 144.689 144.548 144.52 144.994 144.52C145.439 144.52 145.868 144.689 146.193 144.994C146.519 145.298 146.716 145.715 146.745 146.16C146.745 155.647 141.75 163.08 135.337 163.08Z" fill="#4A90E2"/>
<path d="M161.805 163.08C161.36 163.051 160.943 162.854 160.639 162.528C160.334 162.203 160.165 161.774 160.165 161.329C160.165 160.883 160.334 160.454 160.639 160.129C160.943 159.804 161.36 159.607 161.805 159.577C166.095 159.577 169.71 153.435 169.71 146.16C169.739 145.715 169.936 145.298 170.261 144.994C170.587 144.689 171.016 144.52 171.461 144.52C171.907 144.52 172.336 144.689 172.661 144.994C172.986 145.298 173.183 145.715 173.212 146.16C173.25 155.647 168.202 163.08 161.805 163.08Z" fill="#4A90E2"/>
<path d="M188.25 163.08C187.805 163.051 187.388 162.854 187.084 162.528C186.779 162.203 186.61 161.774 186.61 161.329C186.61 160.883 186.779 160.454 187.084 160.129C187.388 159.804 187.805 159.607 188.25 159.577C192.532 159.577 196.155 153.435 196.155 146.16C196.155 145.697 196.339 145.252 196.667 144.924C196.995 144.597 197.439 144.412 197.902 144.412C198.366 144.412 198.81 144.597 199.138 144.924C199.466 145.252 199.65 145.697 199.65 146.16C199.672 155.647 194.67 163.08 188.25 163.08Z" fill="#4A90E2"/>
<path d="M214.74 163.08C214.5 163.096 214.26 163.062 214.034 162.981C213.808 162.9 213.601 162.774 213.425 162.61C213.25 162.445 213.111 162.247 213.015 162.027C212.92 161.806 212.87 161.569 212.87 161.329C212.87 161.089 212.92 160.851 213.015 160.631C213.111 160.41 213.25 160.212 213.425 160.048C213.601 159.884 213.808 159.757 214.034 159.676C214.26 159.595 214.5 159.562 214.74 159.577C219.022 159.577 222.645 153.435 222.645 146.16C222.645 145.697 222.829 145.252 223.157 144.924C223.484 144.597 223.929 144.412 224.392 144.412C224.856 144.412 225.3 144.597 225.628 144.924C225.956 145.252 226.14 145.697 226.14 146.16C226.14 155.647 221.13 163.08 214.74 163.08Z" fill="#4A90E2"/>
<path d="M241.2 163.08C240.755 163.051 240.338 162.854 240.034 162.528C239.729 162.203 239.56 161.774 239.56 161.329C239.56 160.883 239.729 160.454 240.034 160.129C240.338 159.804 240.755 159.607 241.2 159.577C245.49 159.577 249.105 153.435 249.105 146.16C249.134 145.715 249.331 145.298 249.656 144.994C249.982 144.689 250.411 144.52 250.856 144.52C251.302 144.52 251.731 144.689 252.056 144.994C252.381 145.298 252.578 145.715 252.607 146.16C252.607 155.647 247.597 163.08 241.2 163.08Z" fill="#4A90E2"/>
<path d="M267.667 163.08C267.223 163.051 266.806 162.854 266.501 162.528C266.197 162.203 266.027 161.774 266.027 161.329C266.027 160.883 266.197 160.454 266.501 160.129C266.806 159.804 267.223 159.607 267.667 159.577C271.95 159.577 275.572 153.435 275.572 146.16C275.602 145.715 275.799 145.298 276.124 144.994C276.449 144.689 276.878 144.52 277.324 144.52C277.769 144.52 278.198 144.689 278.523 144.994C278.849 145.298 279.046 145.715 279.075 146.16C279.075 155.647 274.065 163.08 267.667 163.08Z" fill="#4A90E2"/>
<g opacity="0.3">
<path d="M135.337 163.08C134.893 163.051 134.476 162.854 134.171 162.528C133.867 162.203 133.697 161.774 133.697 161.329C133.697 160.883 133.867 160.454 134.171 160.129C134.476 159.804 134.893 159.607 135.337 159.577C139.627 159.577 143.242 153.435 143.242 146.16C143.272 145.715 143.469 145.298 143.794 144.994C144.119 144.689 144.548 144.52 144.994 144.52C145.439 144.52 145.868 144.689 146.193 144.994C146.519 145.298 146.716 145.715 146.745 146.16C146.745 155.647 141.75 163.08 135.337 163.08Z" fill="#161616"/>
<path d="M161.805 163.08C161.36 163.051 160.943 162.854 160.639 162.528C160.334 162.203 160.165 161.774 160.165 161.329C160.165 160.883 160.334 160.454 160.639 160.129C160.943 159.804 161.36 159.607 161.805 159.577C166.095 159.577 169.71 153.435 169.71 146.16C169.739 145.715 169.936 145.298 170.262 144.994C170.587 144.689 171.016 144.52 171.461 144.52C171.907 144.52 172.336 144.689 172.661 144.994C172.986 145.298 173.183 145.715 173.213 146.16C173.25 155.647 168.203 163.08 161.805 163.08Z" fill="#161616"/>
<path d="M188.25 163.08C187.805 163.051 187.388 162.854 187.084 162.528C186.779 162.203 186.61 161.774 186.61 161.329C186.61 160.883 186.779 160.454 187.084 160.129C187.388 159.804 187.805 159.607 188.25 159.577C192.533 159.577 196.155 153.435 196.155 146.16C196.155 145.697 196.339 145.252 196.667 144.924C196.995 144.597 197.439 144.412 197.903 144.412C198.366 144.412 198.811 144.597 199.138 144.924C199.466 145.252 199.65 145.697 199.65 146.16C199.673 155.647 194.67 163.08 188.25 163.08Z" fill="#161616"/>
<path d="M214.74 163.08C214.5 163.096 214.26 163.062 214.034 162.981C213.808 162.9 213.601 162.774 213.426 162.61C213.25 162.445 213.111 162.247 213.015 162.027C212.92 161.806 212.87 161.569 212.87 161.329C212.87 161.089 212.92 160.851 213.015 160.631C213.111 160.41 213.25 160.212 213.426 160.048C213.601 159.884 213.808 159.757 214.034 159.676C214.26 159.595 214.5 159.562 214.74 159.577C219.023 159.577 222.645 153.435 222.645 146.16C222.645 145.697 222.829 145.252 223.157 144.924C223.485 144.597 223.929 144.412 224.393 144.412C224.856 144.412 225.3 144.597 225.628 144.924C225.956 145.252 226.14 145.697 226.14 146.16C226.14 155.647 221.13 163.08 214.74 163.08Z" fill="#161616"/>
<path d="M241.2 163.08C240.755 163.051 240.339 162.854 240.034 162.528C239.729 162.203 239.56 161.774 239.56 161.329C239.56 160.883 239.729 160.454 240.034 160.129C240.339 159.804 240.755 159.607 241.2 159.577C245.49 159.577 249.105 153.435 249.105 146.16C249.134 145.715 249.331 145.298 249.657 144.994C249.982 144.689 250.411 144.52 250.856 144.52C251.302 144.52 251.731 144.689 252.056 144.994C252.381 145.298 252.579 145.715 252.608 146.16C252.608 155.647 247.598 163.08 241.2 163.08Z" fill="#161616"/>
<path d="M267.667 163.08C267.223 163.051 266.806 162.854 266.501 162.528C266.197 162.203 266.027 161.774 266.027 161.329C266.027 160.883 266.197 160.454 266.501 160.129C266.806 159.804 267.223 159.607 267.667 159.577C271.95 159.577 275.572 153.435 275.572 146.16C275.602 145.715 275.799 145.298 276.124 144.994C276.449 144.689 276.878 144.52 277.324 144.52C277.769 144.52 278.198 144.689 278.523 144.994C278.849 145.298 279.046 145.715 279.075 146.16C279.075 155.647 274.065 163.08 267.667 163.08Z" fill="#161616"/>
</g>
<path d="M118.755 147.952H289.14C291.424 147.998 293.614 148.876 295.297 150.421C296.98 151.966 298.042 154.073 298.282 156.345L307.717 262.717C307.832 263.785 307.719 264.864 307.385 265.885C307.052 266.905 306.505 267.843 305.782 268.636C305.059 269.43 304.176 270.06 303.19 270.487C302.205 270.913 301.141 271.126 300.067 271.11H129.675C127.391 271.061 125.204 270.182 123.521 268.638C121.839 267.093 120.776 264.988 120.532 262.717L111.105 156.345C110.989 155.277 111.101 154.197 111.434 153.176C111.767 152.156 112.314 151.217 113.037 150.424C113.761 149.63 114.645 148.999 115.63 148.573C116.616 148.147 117.681 147.936 118.755 147.952Z" fill="#4A90E2"/>
<path opacity="0.4" d="M118.755 147.952H289.14C291.424 147.998 293.614 148.876 295.297 150.421C296.98 151.966 298.042 154.073 298.282 156.345L307.717 262.717C307.832 263.785 307.719 264.864 307.385 265.885C307.052 266.905 306.505 267.843 305.782 268.636C305.059 269.43 304.176 270.06 303.19 270.487C302.205 270.913 301.141 271.126 300.067 271.11H129.675C127.391 271.061 125.204 270.182 123.521 268.638C121.839 267.093 120.776 264.988 120.532 262.717L111.105 156.345C110.989 155.277 111.101 154.197 111.434 153.176C111.767 152.156 112.314 151.217 113.037 150.424C113.761 149.63 114.645 148.999 115.63 148.573C116.616 148.147 117.681 147.936 118.755 147.952Z" fill="#FAFAFA"/>
<path d="M287.722 147.952H117.33C115.076 147.979 112.917 148.861 111.288 150.419C109.659 151.976 108.682 154.095 108.555 156.345L103.755 262.717C103.698 263.801 103.862 264.885 104.239 265.903C104.615 266.921 105.195 267.851 105.944 268.637C106.692 269.422 107.593 270.047 108.592 270.472C109.59 270.898 110.665 271.115 111.75 271.11H282.157C284.411 271.083 286.571 270.202 288.2 268.644C289.829 267.086 290.805 264.968 290.932 262.717L295.74 156.345C295.796 155.26 295.63 154.174 295.252 153.155C294.874 152.137 294.291 151.206 293.541 150.42C292.79 149.634 291.887 149.01 290.886 148.586C289.886 148.161 288.809 147.946 287.722 147.952Z" fill="#4A90E2"/>
<path opacity="0.2" d="M287.722 147.952H117.33C115.076 147.979 112.917 148.861 111.288 150.419C109.659 151.976 108.682 154.095 108.555 156.345L103.755 262.717C103.698 263.801 103.862 264.885 104.239 265.903C104.615 266.921 105.195 267.851 105.944 268.637C106.692 269.422 107.593 270.047 108.592 270.472C109.59 270.898 110.665 271.115 111.75 271.11H282.157C284.411 271.083 286.571 270.202 288.2 268.644C289.829 267.086 290.805 264.968 290.932 262.717L295.74 156.345C295.796 155.26 295.63 154.174 295.252 153.155C294.874 152.137 294.291 151.206 293.541 150.42C292.79 149.634 291.887 149.01 290.886 148.586C289.886 148.161 288.809 147.946 287.722 147.952Z" fill="#FAFAFA"/>
<path d="M120.457 243L124.425 155.153C124.473 154.291 124.846 153.479 125.47 152.883C126.094 152.287 126.922 151.951 127.785 151.943H276.907C277.323 151.94 277.735 152.022 278.118 152.185C278.501 152.347 278.846 152.585 279.133 152.886C279.421 153.187 279.643 153.543 279.788 153.932C279.933 154.322 279.996 154.737 279.975 155.153L276 243C275.952 243.862 275.579 244.673 274.955 245.269C274.331 245.865 273.503 246.202 272.64 246.21H123.525C123.109 246.213 122.697 246.13 122.315 245.968C121.932 245.806 121.586 245.567 121.299 245.266C121.012 244.966 120.789 244.61 120.644 244.22C120.5 243.83 120.436 243.415 120.457 243Z" fill="#4A90E2"/>
<path opacity="0.1" d="M120.457 243L124.425 155.153C124.473 154.291 124.846 153.479 125.47 152.883C126.094 152.287 126.922 151.951 127.785 151.943H276.907C277.323 151.94 277.735 152.022 278.118 152.185C278.501 152.347 278.846 152.585 279.133 152.886C279.421 153.187 279.643 153.543 279.788 153.932C279.933 154.322 279.996 154.737 279.975 155.153L276 243C275.952 243.862 275.579 244.673 274.955 245.269C274.331 245.865 273.503 246.202 272.64 246.21H123.525C123.109 246.213 122.697 246.13 122.315 245.968C121.932 245.806 121.586 245.567 121.299 245.266C121.012 244.966 120.789 244.61 120.644 244.22C120.5 243.83 120.436 243.415 120.457 243Z" fill="#FAFAFA"/>
<path opacity="0.1" d="M116.25 250.17L120.413 157.92C120.46 157.015 120.852 156.163 121.507 155.537C122.162 154.911 123.031 154.559 123.938 154.552H280.538C280.974 154.549 281.406 154.634 281.808 154.804C282.21 154.974 282.573 155.225 282.875 155.54C283.176 155.856 283.41 156.23 283.561 156.639C283.713 157.048 283.779 157.484 283.755 157.92L279.585 250.17C279.537 251.074 279.147 251.926 278.494 252.553C277.841 253.18 276.973 253.535 276.068 253.545H119.453C119.016 253.548 118.584 253.461 118.183 253.29C117.782 253.119 117.42 252.868 117.12 252.552C116.82 252.235 116.588 251.861 116.438 251.451C116.288 251.041 116.224 250.605 116.25 250.17Z" fill="#161616"/>
<path d="M112.38 257.61L116.722 161.385C116.781 160.444 117.191 159.56 117.872 158.908C118.553 158.256 119.455 157.885 120.397 157.867H283.755C284.211 157.864 284.662 157.953 285.082 158.131C285.502 158.308 285.881 158.57 286.196 158.9C286.51 159.229 286.754 159.62 286.913 160.047C287.071 160.475 287.14 160.93 287.115 161.385L282.75 257.61C282.692 258.551 282.281 259.435 281.6 260.087C280.919 260.739 280.017 261.11 279.075 261.128H115.74C115.284 261.132 114.832 261.043 114.411 260.866C113.991 260.689 113.612 260.428 113.297 260.098C112.982 259.768 112.738 259.377 112.58 258.949C112.422 258.521 112.354 258.065 112.38 257.61Z" fill="#FAFAFA"/>
<path d="M267.645 163.635C267.338 163.636 267.034 163.573 266.752 163.452C266.469 163.33 266.215 163.152 266.004 162.929C265.793 162.706 265.631 162.441 265.526 162.153C265.421 161.864 265.376 161.557 265.395 161.25C265.424 160.648 265.681 160.08 266.115 159.662C266.548 159.244 267.125 159.007 267.727 159C268.035 158.999 268.339 159.062 268.621 159.183C268.903 159.305 269.157 159.483 269.368 159.706C269.579 159.929 269.742 160.194 269.847 160.482C269.951 160.771 269.996 161.078 269.977 161.385C269.949 161.987 269.691 162.555 269.258 162.973C268.824 163.391 268.247 163.628 267.645 163.635Z" fill="#4A90E2"/>
<path d="M241.178 163.635C240.87 163.636 240.566 163.573 240.284 163.452C240.002 163.33 239.748 163.152 239.537 162.929C239.326 162.706 239.163 162.441 239.058 162.153C238.954 161.864 238.909 161.557 238.928 161.25C238.956 160.648 239.214 160.08 239.647 159.662C240.081 159.244 240.658 159.007 241.26 159C241.567 158.999 241.871 159.062 242.153 159.183C242.436 159.305 242.69 159.483 242.901 159.706C243.111 159.929 243.274 160.194 243.379 160.482C243.484 160.771 243.528 161.078 243.51 161.385C243.483 161.987 243.226 162.556 242.792 162.975C242.358 163.394 241.78 163.63 241.178 163.635Z" fill="#4A90E2"/>
<path d="M214.71 163.635C214.403 163.636 214.099 163.573 213.817 163.452C213.534 163.33 213.28 163.152 213.069 162.929C212.858 162.706 212.696 162.441 212.591 162.153C212.486 161.864 212.442 161.557 212.46 161.25C212.49 160.649 212.748 160.082 213.182 159.664C213.615 159.246 214.191 159.009 214.792 159C215.1 158.999 215.404 159.062 215.686 159.183C215.968 159.305 216.222 159.483 216.433 159.706C216.644 159.929 216.807 160.194 216.912 160.482C217.016 160.771 217.061 161.078 217.042 161.385C217.016 161.987 216.759 162.556 216.325 162.975C215.891 163.394 215.313 163.63 214.71 163.635Z" fill="#4A90E2"/>
<path d="M188.25 163.635C187.943 163.636 187.639 163.573 187.357 163.452C187.074 163.33 186.82 163.152 186.609 162.929C186.399 162.706 186.236 162.441 186.131 162.153C186.026 161.864 185.982 161.557 186 161.25C186.032 160.648 186.292 160.081 186.726 159.663C187.161 159.246 187.737 159.009 188.34 159C188.647 158.999 188.951 159.062 189.233 159.183C189.516 159.305 189.77 159.483 189.981 159.706C190.192 159.929 190.354 160.194 190.459 160.482C190.564 160.771 190.608 161.078 190.59 161.385C190.563 161.989 190.305 162.559 189.87 162.978C189.434 163.396 188.854 163.632 188.25 163.635Z" fill="#4A90E2"/>
<path d="M161.782 163.635C161.475 163.636 161.171 163.573 160.889 163.452C160.607 163.33 160.353 163.152 160.142 162.929C159.931 162.706 159.768 162.441 159.663 162.153C159.559 161.864 159.514 161.557 159.532 161.25C159.561 160.648 159.819 160.08 160.252 159.662C160.686 159.244 161.263 159.007 161.865 159C162.172 158.999 162.476 159.062 162.758 159.183C163.041 159.305 163.295 159.483 163.506 159.706C163.716 159.929 163.879 160.194 163.984 160.482C164.089 160.771 164.133 161.078 164.115 161.385C164.086 161.987 163.829 162.555 163.395 162.973C162.962 163.391 162.385 163.628 161.782 163.635Z" fill="#4A90E2"/>
<path d="M135.315 163.635C135.008 163.636 134.704 163.573 134.422 163.452C134.139 163.33 133.885 163.152 133.674 162.929C133.463 162.706 133.301 162.441 133.196 162.153C133.091 161.864 133.047 161.557 133.065 161.25C133.094 160.648 133.351 160.08 133.785 159.662C134.218 159.244 134.795 159.007 135.397 159C135.705 158.999 136.009 159.062 136.291 159.183C136.573 159.305 136.827 159.483 137.038 159.706C137.249 159.929 137.412 160.194 137.517 160.482C137.621 160.771 137.666 161.078 137.647 161.385C137.621 161.987 137.364 162.556 136.93 162.975C136.496 163.394 135.918 163.63 135.315 163.635Z" fill="#4A90E2"/>
<g opacity="0.1">
<path d="M267.645 163.635C267.338 163.636 267.034 163.573 266.752 163.452C266.469 163.33 266.215 163.152 266.004 162.929C265.793 162.706 265.631 162.441 265.526 162.153C265.421 161.864 265.376 161.557 265.395 161.25C265.424 160.648 265.681 160.08 266.115 159.662C266.548 159.244 267.125 159.007 267.727 159C268.035 158.999 268.339 159.062 268.621 159.183C268.903 159.305 269.157 159.483 269.368 159.706C269.579 159.929 269.742 160.194 269.847 160.482C269.951 160.771 269.996 161.078 269.977 161.385C269.949 161.987 269.691 162.555 269.258 162.973C268.824 163.391 268.247 163.628 267.645 163.635Z" fill="#FAFAFA"/>
<path d="M241.177 163.635C240.87 163.636 240.566 163.573 240.284 163.452C240.002 163.33 239.747 163.152 239.537 162.929C239.326 162.706 239.163 162.441 239.058 162.153C238.954 161.864 238.909 161.557 238.927 161.25C238.956 160.648 239.213 160.08 239.647 159.662C240.081 159.244 240.658 159.007 241.26 159C241.567 158.999 241.871 159.062 242.153 159.183C242.435 159.305 242.69 159.483 242.901 159.706C243.111 159.929 243.274 160.194 243.379 160.482C243.484 160.771 243.528 161.078 243.51 161.385C243.483 161.987 243.226 162.556 242.792 162.975C242.358 163.394 241.78 163.63 241.177 163.635Z" fill="#FAFAFA"/>
<path d="M214.71 163.635C214.403 163.636 214.099 163.573 213.817 163.452C213.534 163.33 213.28 163.152 213.069 162.929C212.858 162.706 212.696 162.441 212.591 162.153C212.486 161.864 212.442 161.557 212.46 161.25C212.49 160.649 212.748 160.082 213.182 159.664C213.615 159.246 214.191 159.009 214.792 159C215.1 158.999 215.404 159.062 215.686 159.183C215.968 159.305 216.222 159.483 216.433 159.706C216.644 159.929 216.807 160.194 216.912 160.482C217.016 160.771 217.061 161.078 217.042 161.385C217.016 161.987 216.759 162.556 216.325 162.975C215.891 163.394 215.313 163.63 214.71 163.635Z" fill="#FAFAFA"/>
<path d="M188.25 163.635C187.943 163.636 187.639 163.573 187.356 163.452C187.074 163.33 186.82 163.152 186.609 162.929C186.398 162.706 186.236 162.441 186.131 162.153C186.026 161.864 185.981 161.557 186 161.25C186.032 160.648 186.292 160.081 186.726 159.663C187.161 159.246 187.737 159.009 188.34 159C188.647 158.999 188.951 159.062 189.233 159.183C189.515 159.305 189.77 159.483 189.981 159.706C190.191 159.929 190.354 160.194 190.459 160.482C190.564 160.771 190.608 161.078 190.59 161.385C190.563 161.989 190.305 162.559 189.87 162.978C189.434 163.396 188.854 163.632 188.25 163.635Z" fill="#FAFAFA"/>
<path d="M161.782 163.635C161.475 163.636 161.171 163.573 160.889 163.452C160.607 163.33 160.353 163.152 160.142 162.929C159.931 162.706 159.768 162.441 159.663 162.153C159.559 161.864 159.514 161.557 159.532 161.25C159.561 160.648 159.819 160.08 160.252 159.662C160.686 159.244 161.263 159.007 161.865 159C162.172 158.999 162.476 159.062 162.758 159.183C163.041 159.305 163.295 159.483 163.506 159.706C163.716 159.929 163.879 160.194 163.984 160.482C164.089 160.771 164.133 161.078 164.115 161.385C164.086 161.987 163.829 162.555 163.395 162.973C162.962 163.391 162.385 163.628 161.782 163.635Z" fill="#FAFAFA"/>
<path d="M135.315 163.635C135.008 163.636 134.704 163.573 134.422 163.452C134.139 163.33 133.885 163.152 133.674 162.929C133.463 162.706 133.301 162.441 133.196 162.153C133.091 161.864 133.047 161.557 133.065 161.25C133.094 160.648 133.351 160.08 133.785 159.662C134.218 159.244 134.795 159.007 135.397 159C135.705 158.999 136.009 159.062 136.291 159.183C136.573 159.305 136.827 159.483 137.038 159.706C137.249 159.929 137.412 160.194 137.517 160.482C137.621 160.771 137.666 161.078 137.647 161.385C137.621 161.987 137.364 162.556 136.93 162.975C136.496 163.394 135.918 163.63 135.315 163.635Z" fill="#FAFAFA"/>
</g>
<path d="M141.93 172.02H128.618C128.425 172.022 128.233 171.983 128.056 171.907C127.879 171.831 127.719 171.719 127.587 171.578C127.455 171.437 127.354 171.27 127.29 171.088C127.226 170.906 127.2 170.712 127.215 170.52C127.23 170.127 127.393 169.754 127.671 169.476C127.949 169.198 128.322 169.035 128.715 169.02H142.028C142.221 169.018 142.412 169.057 142.589 169.133C142.766 169.209 142.926 169.321 143.058 169.462C143.19 169.603 143.291 169.77 143.355 169.952C143.419 170.134 143.445 170.328 143.43 170.52C143.415 170.913 143.252 171.286 142.974 171.564C142.696 171.842 142.323 172.005 141.93 172.02Z" fill="#4A90E2"/>
<path d="M168.397 172.02H155.085C154.892 172.022 154.701 171.983 154.523 171.907C154.346 171.831 154.186 171.719 154.054 171.578C153.923 171.437 153.822 171.27 153.758 171.088C153.693 170.906 153.668 170.712 153.682 170.52C153.698 170.121 153.866 169.742 154.152 169.463C154.438 169.184 154.82 169.025 155.22 169.02H168.525C168.718 169.018 168.91 169.057 169.087 169.133C169.265 169.209 169.425 169.321 169.558 169.462C169.69 169.603 169.792 169.769 169.857 169.952C169.922 170.134 169.948 170.327 169.935 170.52C169.92 170.919 169.752 171.298 169.465 171.577C169.179 171.856 168.797 172.015 168.397 172.02Z" fill="#4A90E2"/>
<path d="M194.865 172.02H181.553C181.359 172.022 181.168 171.983 180.99 171.907C180.812 171.831 180.652 171.719 180.52 171.578C180.387 171.437 180.286 171.271 180.221 171.089C180.156 170.906 180.129 170.713 180.143 170.52C180.158 170.121 180.326 169.742 180.612 169.463C180.898 169.184 181.28 169.025 181.68 169.02H195C195.193 169.018 195.384 169.057 195.562 169.133C195.739 169.209 195.899 169.321 196.03 169.462C196.162 169.603 196.263 169.77 196.327 169.952C196.392 170.134 196.417 170.328 196.403 170.52C196.389 170.92 196.222 171.299 195.935 171.579C195.649 171.858 195.265 172.016 194.865 172.02Z" fill="#4A90E2"/>
<path d="M221.325 172.02H208.013C207.82 172.022 207.628 171.983 207.451 171.907C207.274 171.831 207.114 171.719 206.982 171.578C206.85 171.437 206.749 171.27 206.685 171.088C206.621 170.906 206.596 170.712 206.61 170.52C206.625 170.127 206.788 169.754 207.066 169.476C207.344 169.198 207.717 169.035 208.11 169.02H221.423C221.616 169.018 221.807 169.057 221.984 169.133C222.162 169.209 222.321 169.321 222.453 169.462C222.585 169.603 222.686 169.77 222.75 169.952C222.814 170.134 222.84 170.328 222.825 170.52C222.81 170.913 222.647 171.286 222.369 171.564C222.091 171.842 221.718 172.005 221.325 172.02Z" fill="#4A90E2"/>
<path d="M247.792 172.02H234.48C234.287 172.022 234.096 171.983 233.918 171.907C233.741 171.831 233.581 171.719 233.45 171.578C233.318 171.437 233.217 171.27 233.153 171.088C233.088 170.906 233.063 170.712 233.077 170.52C233.093 170.121 233.261 169.742 233.547 169.463C233.833 169.184 234.215 169.025 234.615 169.02H247.927C248.12 169.018 248.312 169.057 248.489 169.133C248.666 169.209 248.826 169.321 248.958 169.462C249.09 169.603 249.191 169.77 249.255 169.952C249.319 170.134 249.344 170.328 249.33 170.52C249.315 170.919 249.147 171.298 248.86 171.577C248.574 171.856 248.192 172.015 247.792 172.02Z" fill="#4A90E2"/>
<path d="M274.26 172.02H260.947C260.754 172.022 260.563 171.983 260.386 171.907C260.208 171.831 260.049 171.719 259.917 171.578C259.785 171.437 259.684 171.27 259.62 171.088C259.556 170.906 259.53 170.712 259.545 170.52C259.56 170.121 259.728 169.742 260.014 169.463C260.301 169.184 260.683 169.025 261.082 169.02H274.387C274.581 169.018 274.772 169.057 274.95 169.133C275.128 169.209 275.288 169.321 275.42 169.462C275.553 169.603 275.655 169.769 275.719 169.952C275.784 170.134 275.811 170.327 275.797 170.52C275.782 170.919 275.614 171.298 275.328 171.577C275.042 171.856 274.66 172.015 274.26 172.02Z" fill="#4A90E2"/>
<g opacity="0.3">
<path d="M141.93 172.02H128.618C128.425 172.022 128.233 171.983 128.056 171.907C127.879 171.831 127.719 171.719 127.587 171.578C127.455 171.437 127.354 171.27 127.29 171.088C127.226 170.906 127.2 170.712 127.215 170.52C127.23 170.127 127.393 169.754 127.671 169.476C127.949 169.198 128.322 169.035 128.715 169.02H142.028C142.221 169.018 142.412 169.057 142.589 169.133C142.766 169.209 142.926 169.321 143.058 169.462C143.19 169.603 143.291 169.77 143.355 169.952C143.419 170.134 143.445 170.328 143.43 170.52C143.415 170.913 143.252 171.286 142.974 171.564C142.696 171.842 142.323 172.005 141.93 172.02Z" fill="#161616"/>
<path d="M168.398 172.02H155.085C154.892 172.022 154.701 171.983 154.523 171.907C154.346 171.831 154.186 171.719 154.055 171.578C153.923 171.437 153.822 171.27 153.758 171.088C153.694 170.906 153.668 170.712 153.683 170.52C153.698 170.121 153.866 169.742 154.152 169.463C154.438 169.184 154.82 169.025 155.22 169.02H168.525C168.718 169.018 168.91 169.057 169.088 169.133C169.265 169.209 169.425 169.321 169.558 169.462C169.69 169.603 169.792 169.769 169.857 169.952C169.922 170.134 169.948 170.327 169.935 170.52C169.92 170.919 169.752 171.298 169.466 171.577C169.179 171.856 168.797 172.015 168.398 172.02Z" fill="#161616"/>
<path d="M194.865 172.02H181.553C181.359 172.022 181.168 171.983 180.99 171.907C180.812 171.831 180.652 171.719 180.52 171.578C180.387 171.437 180.286 171.271 180.221 171.089C180.156 170.906 180.129 170.713 180.143 170.52C180.158 170.121 180.326 169.742 180.612 169.463C180.898 169.184 181.28 169.025 181.68 169.02H195C195.193 169.018 195.384 169.057 195.562 169.133C195.739 169.209 195.899 169.321 196.03 169.462C196.162 169.603 196.263 169.77 196.327 169.952C196.392 170.134 196.417 170.328 196.403 170.52C196.389 170.92 196.222 171.299 195.935 171.579C195.649 171.858 195.265 172.016 194.865 172.02Z" fill="#161616"/>
<path d="M221.325 172.02H208.013C207.82 172.022 207.628 171.983 207.451 171.907C207.274 171.831 207.114 171.719 206.982 171.578C206.85 171.437 206.749 171.27 206.685 171.088C206.621 170.906 206.596 170.712 206.61 170.52C206.625 170.127 206.788 169.754 207.066 169.476C207.344 169.198 207.717 169.035 208.11 169.02H221.423C221.616 169.018 221.807 169.057 221.984 169.133C222.162 169.209 222.321 169.321 222.453 169.462C222.585 169.603 222.686 169.77 222.75 169.952C222.814 170.134 222.84 170.328 222.825 170.52C222.81 170.913 222.647 171.286 222.369 171.564C222.091 171.842 221.718 172.005 221.325 172.02Z" fill="#161616"/>
<path d="M247.792 172.02H234.48C234.287 172.022 234.096 171.983 233.918 171.907C233.741 171.831 233.581 171.719 233.45 171.578C233.318 171.437 233.217 171.27 233.153 171.088C233.088 170.906 233.063 170.712 233.077 170.52C233.093 170.121 233.261 169.742 233.547 169.463C233.833 169.184 234.215 169.025 234.615 169.02H247.927C248.12 169.018 248.312 169.057 248.489 169.133C248.666 169.209 248.826 169.321 248.958 169.462C249.09 169.603 249.191 169.77 249.255 169.952C249.319 170.134 249.344 170.328 249.33 170.52C249.315 170.919 249.147 171.298 248.86 171.577C248.574 171.856 248.192 172.015 247.792 172.02Z" fill="#161616"/>
<path d="M274.26 172.02H260.947C260.754 172.022 260.563 171.983 260.386 171.907C260.208 171.831 260.049 171.719 259.917 171.578C259.785 171.437 259.684 171.27 259.62 171.088C259.556 170.906 259.53 170.712 259.545 170.52C259.56 170.121 259.728 169.742 260.014 169.463C260.301 169.184 260.683 169.025 261.082 169.02H274.387C274.581 169.018 274.772 169.057 274.95 169.133C275.128 169.209 275.288 169.321 275.42 169.462C275.553 169.603 275.655 169.769 275.719 169.952C275.784 170.134 275.811 170.327 275.797 170.52C275.782 170.919 275.614 171.298 275.328 171.577C275.042 171.856 274.66 172.015 274.26 172.02Z" fill="#161616"/>
</g>
<path d="M142.665 200.348H125.325C124.945 200.349 124.568 200.273 124.218 200.124C123.868 199.975 123.552 199.756 123.29 199.481C123.027 199.206 122.823 198.88 122.691 198.524C122.559 198.167 122.5 197.787 122.52 197.408L123.27 180.068C123.315 179.279 123.658 178.538 124.229 177.992C124.799 177.447 125.555 177.138 126.345 177.128H143.685C144.065 177.126 144.442 177.202 144.792 177.351C145.142 177.5 145.458 177.719 145.72 177.994C145.983 178.269 146.186 178.595 146.319 178.951C146.451 179.308 146.509 179.688 146.49 180.068L145.74 197.408C145.693 198.195 145.35 198.936 144.779 199.481C144.209 200.026 143.454 200.336 142.665 200.348Z" fill="#4A90E2"/>
<path d="M169.132 200.348H151.792C151.412 200.35 151.035 200.275 150.684 200.126C150.334 199.978 150.018 199.759 149.755 199.484C149.492 199.208 149.288 198.882 149.156 198.525C149.024 198.168 148.967 197.788 148.987 197.408L149.737 180.068C149.783 179.279 150.126 178.538 150.696 177.992C151.267 177.447 152.023 177.138 152.812 177.128H170.175C170.556 177.126 170.933 177.202 171.283 177.351C171.633 177.5 171.949 177.718 172.213 177.993C172.476 178.269 172.68 178.594 172.813 178.951C172.947 179.307 173.006 179.687 172.987 180.068L172.2 197.408C172.156 198.195 171.815 198.937 171.246 199.482C170.676 200.028 169.921 200.337 169.132 200.348Z" fill="#4A90E2"/>
<path d="M195.592 200.347H178.26C177.879 200.349 177.502 200.273 177.152 200.124C176.802 199.975 176.485 199.757 176.222 199.482C175.959 199.206 175.755 198.881 175.622 198.524C175.488 198.168 175.429 197.788 175.447 197.407L176.197 180.067C176.243 179.279 176.586 178.538 177.156 177.992C177.727 177.447 178.483 177.138 179.272 177.128H196.605C196.986 177.125 197.363 177.2 197.713 177.349C198.064 177.497 198.38 177.716 198.643 177.991C198.905 178.267 199.109 178.593 199.241 178.95C199.373 179.307 199.43 179.687 199.41 180.067L198.66 197.407C198.615 198.194 198.273 198.935 197.704 199.48C197.135 200.026 196.381 200.336 195.592 200.347Z" fill="#4A90E2"/>
<path d="M222.06 200.348H204.75C204.369 200.35 203.992 200.275 203.641 200.126C203.29 199.978 202.973 199.759 202.71 199.484C202.447 199.209 202.242 198.882 202.109 198.525C201.977 198.168 201.918 197.788 201.937 197.408L202.687 180.068C202.731 179.28 203.072 178.538 203.642 177.993C204.211 177.447 204.966 177.138 205.755 177.128H223.095C223.475 177.126 223.852 177.202 224.202 177.351C224.552 177.5 224.868 177.719 225.13 177.994C225.393 178.269 225.596 178.595 225.729 178.951C225.861 179.308 225.919 179.688 225.9 180.068L225.15 197.408C225.104 198.198 224.76 198.942 224.186 199.488C223.612 200.034 222.852 200.341 222.06 200.348Z" fill="#4A90E2"/>
<path d="M248.528 200.347H231.188C230.807 200.349 230.431 200.273 230.081 200.124C229.731 199.975 229.415 199.756 229.152 199.481C228.89 199.206 228.686 198.88 228.554 198.524C228.421 198.167 228.363 197.787 228.383 197.407L229.133 180.067C229.178 179.279 229.521 178.538 230.091 177.992C230.662 177.447 231.418 177.138 232.208 177.128H249.54C249.921 177.125 250.298 177.2 250.649 177.349C251 177.497 251.317 177.716 251.58 177.991C251.843 178.266 252.048 178.593 252.181 178.95C252.313 179.307 252.372 179.687 252.353 180.067L251.603 197.407C251.555 198.195 251.212 198.936 250.642 199.481C250.072 200.026 249.316 200.336 248.528 200.347Z" fill="#4A90E2"/>
<path d="M274.987 200.348H257.655C257.274 200.35 256.897 200.275 256.547 200.126C256.196 199.978 255.88 199.759 255.617 199.484C255.355 199.208 255.151 198.882 255.019 198.525C254.887 198.168 254.83 197.788 254.85 197.408L255.6 180.068C255.645 179.279 255.988 178.538 256.559 177.992C257.129 177.447 257.886 177.138 258.675 177.128H276.008C276.388 177.126 276.765 177.202 277.115 177.351C277.466 177.5 277.782 177.718 278.045 177.993C278.308 178.269 278.513 178.594 278.646 178.951C278.779 179.307 278.838 179.687 278.82 180.068L278.032 197.408C277.989 198.191 277.651 198.93 277.087 199.475C276.522 200.02 275.772 200.332 274.987 200.348Z" fill="#4A90E2"/>
<g opacity="0.8">
<path d="M142.665 200.348H125.325C124.945 200.349 124.568 200.273 124.218 200.124C123.868 199.975 123.552 199.756 123.29 199.481C123.027 199.206 122.823 198.88 122.691 198.524C122.559 198.167 122.5 197.787 122.52 197.408L123.27 180.068C123.315 179.279 123.658 178.538 124.229 177.992C124.799 177.447 125.555 177.138 126.345 177.128H143.685C144.065 177.126 144.442 177.202 144.792 177.351C145.142 177.5 145.458 177.719 145.72 177.994C145.983 178.269 146.186 178.595 146.319 178.951C146.451 179.308 146.509 179.688 146.49 180.068L145.74 197.408C145.693 198.195 145.35 198.936 144.779 199.481C144.209 200.026 143.454 200.336 142.665 200.348Z" fill="#FAFAFA"/>
<path d="M169.132 200.348H151.792C151.412 200.35 151.035 200.275 150.684 200.126C150.334 199.978 150.018 199.759 149.755 199.484C149.492 199.208 149.288 198.882 149.156 198.525C149.024 198.168 148.967 197.788 148.987 197.408L149.737 180.068C149.783 179.279 150.126 178.538 150.696 177.992C151.267 177.447 152.023 177.138 152.812 177.128H170.175C170.556 177.126 170.933 177.202 171.283 177.351C171.633 177.5 171.949 177.718 172.213 177.993C172.476 178.269 172.68 178.594 172.813 178.951C172.947 179.307 173.006 179.687 172.987 180.068L172.2 197.408C172.156 198.195 171.815 198.937 171.246 199.482C170.676 200.028 169.921 200.337 169.132 200.348Z" fill="#FAFAFA"/>
<path d="M195.592 200.347H178.26C177.879 200.349 177.502 200.273 177.152 200.124C176.802 199.975 176.485 199.757 176.222 199.482C175.959 199.206 175.755 198.881 175.622 198.524C175.488 198.168 175.429 197.788 175.447 197.407L176.197 180.067C176.243 179.279 176.586 178.538 177.156 177.992C177.727 177.447 178.483 177.138 179.272 177.128H196.605C196.986 177.125 197.363 177.2 197.713 177.349C198.064 177.497 198.38 177.716 198.643 177.991C198.905 178.267 199.109 178.593 199.241 178.95C199.373 179.307 199.43 179.687 199.41 180.067L198.66 197.407C198.615 198.194 198.273 198.935 197.704 199.48C197.135 200.026 196.381 200.336 195.592 200.347Z" fill="#FAFAFA"/>
<path d="M222.06 200.348H204.75C204.369 200.35 203.991 200.275 203.641 200.126C203.29 199.978 202.973 199.759 202.71 199.484C202.446 199.209 202.242 198.882 202.109 198.525C201.976 198.168 201.918 197.788 201.937 197.408L202.687 180.068C202.731 179.28 203.072 178.538 203.641 177.993C204.211 177.447 204.966 177.138 205.755 177.128H223.095C223.475 177.126 223.852 177.202 224.202 177.351C224.552 177.5 224.868 177.719 225.13 177.994C225.393 178.269 225.596 178.595 225.729 178.951C225.861 179.308 225.919 179.688 225.9 180.068L225.15 197.408C225.104 198.198 224.759 198.942 224.186 199.488C223.612 200.034 222.852 200.341 222.06 200.348Z" fill="#FAFAFA"/>
<path d="M248.527 200.347H231.187C230.807 200.349 230.43 200.273 230.08 200.124C229.731 199.975 229.415 199.756 229.152 199.481C228.89 199.206 228.686 198.88 228.554 198.524C228.421 198.167 228.363 197.787 228.382 197.407L229.132 180.067C229.178 179.279 229.52 178.538 230.091 177.992C230.662 177.447 231.418 177.138 232.207 177.128H249.54C249.921 177.125 250.298 177.2 250.649 177.349C251 177.497 251.317 177.716 251.58 177.991C251.843 178.266 252.048 178.593 252.18 178.95C252.313 179.307 252.372 179.687 252.352 180.067L251.602 197.407C251.555 198.195 251.212 198.936 250.642 199.481C250.071 200.026 249.316 200.336 248.527 200.347Z" fill="#FAFAFA"/>
<path d="M274.987 200.348H257.655C257.274 200.35 256.897 200.275 256.547 200.126C256.196 199.978 255.88 199.759 255.617 199.484C255.354 199.208 255.151 198.882 255.019 198.525C254.887 198.168 254.829 197.788 254.85 197.408L255.6 180.068C255.645 179.279 255.988 178.538 256.559 177.992C257.129 177.447 257.885 177.138 258.675 177.128H276.007C276.388 177.126 276.765 177.202 277.115 177.351C277.466 177.5 277.782 177.718 278.045 177.993C278.308 178.269 278.513 178.594 278.646 178.951C278.779 179.307 278.838 179.687 278.82 180.068L278.032 197.408C277.989 198.191 277.651 198.93 277.087 199.475C276.522 200.02 275.772 200.332 274.987 200.348Z" fill="#FAFAFA"/>
</g>
<path d="M141.45 227.25H124.11C123.73 227.251 123.353 227.175 123.003 227.026C122.653 226.878 122.337 226.659 122.075 226.384C121.812 226.108 121.609 225.783 121.476 225.426C121.344 225.07 121.286 224.69 121.305 224.31L122.055 206.97C122.102 206.182 122.445 205.442 123.016 204.897C123.586 204.351 124.341 204.042 125.13 204.03H142.5C142.88 204.028 143.257 204.105 143.607 204.253C143.957 204.402 144.273 204.621 144.535 204.896C144.798 205.172 145.001 205.497 145.134 205.854C145.266 206.21 145.324 206.59 145.305 206.97L144.555 224.31C144.507 225.103 144.16 225.848 143.583 226.394C143.007 226.94 142.244 227.246 141.45 227.25Z" fill="#4A90E2"/>
<path d="M167.918 227.25H150.578C150.197 227.251 149.821 227.175 149.471 227.026C149.121 226.878 148.805 226.659 148.542 226.384C148.28 226.108 148.076 225.783 147.944 225.426C147.811 225.07 147.753 224.69 147.773 224.31L148.523 206.97C148.568 206.182 148.911 205.44 149.481 204.895C150.052 204.349 150.808 204.04 151.598 204.03H168.93C169.314 204.027 169.694 204.103 170.048 204.254C170.401 204.404 170.72 204.625 170.984 204.904C171.248 205.182 171.453 205.512 171.585 205.872C171.716 206.233 171.773 206.617 171.75 207L171 224.31C170.956 225.1 170.613 225.844 170.041 226.39C169.468 226.936 168.709 227.244 167.918 227.25Z" fill="#4A90E2"/>
<path d="M194.377 227.25H177.045C176.664 227.253 176.287 227.177 175.937 227.029C175.586 226.88 175.27 226.661 175.007 226.386C174.744 226.111 174.541 225.784 174.409 225.427C174.277 225.07 174.219 224.69 174.24 224.31L174.99 206.97C175.035 206.182 175.378 205.44 175.949 204.895C176.519 204.349 177.275 204.04 178.065 204.03H195.397C195.778 204.027 196.155 204.103 196.506 204.251C196.856 204.4 197.172 204.619 197.435 204.894C197.698 205.169 197.901 205.496 198.033 205.853C198.165 206.21 198.223 206.59 198.202 206.97L197.452 224.31C197.407 225.098 197.064 225.84 196.494 226.385C195.923 226.931 195.167 227.24 194.377 227.25Z" fill="#4A90E2"/>
<path d="M220.845 227.25H203.512C203.132 227.251 202.755 227.175 202.405 227.027C202.054 226.878 201.738 226.659 201.475 226.384C201.212 226.109 201.007 225.783 200.874 225.427C200.741 225.07 200.682 224.69 200.7 224.31L201.45 206.97C201.494 206.182 201.835 205.441 202.404 204.895C202.973 204.349 203.729 204.04 204.517 204.03H221.857C222.244 204.023 222.627 204.096 222.983 204.245C223.34 204.393 223.662 204.614 223.929 204.893C224.196 205.172 224.402 205.503 224.535 205.866C224.668 206.228 224.724 206.615 224.7 207L223.95 224.34C223.897 225.128 223.547 225.866 222.97 226.406C222.394 226.947 221.635 227.248 220.845 227.25Z" fill="#4A90E2"/>
<path d="M247.312 227.25H229.972C229.592 227.251 229.216 227.175 228.866 227.026C228.516 226.877 228.2 226.659 227.937 226.384C227.675 226.108 227.471 225.783 227.339 225.426C227.206 225.07 227.148 224.69 227.167 224.31L227.917 206.97C227.957 206.176 228.298 205.427 228.871 204.875C229.444 204.323 230.205 204.01 231 204H248.34C248.72 203.998 249.097 204.075 249.447 204.223C249.797 204.372 250.113 204.591 250.375 204.866C250.638 205.141 250.841 205.467 250.974 205.824C251.106 206.18 251.164 206.56 251.145 206.94L250.395 224.28C250.355 225.074 250.014 225.823 249.441 226.375C248.869 226.927 248.108 227.24 247.312 227.25Z" fill="#4A90E2"/>
<path d="M273.75 227.25H256.44C256.059 227.253 255.682 227.177 255.332 227.029C254.981 226.88 254.665 226.661 254.402 226.386C254.139 226.111 253.936 225.784 253.804 225.427C253.672 225.07 253.614 224.69 253.635 224.31L254.385 206.97C254.43 206.182 254.773 205.44 255.344 204.895C255.914 204.349 256.67 204.04 257.46 204.03H274.792C275.173 204.029 275.55 204.105 275.9 204.253C276.251 204.402 276.567 204.621 276.83 204.896C277.093 205.171 277.298 205.497 277.431 205.853C277.564 206.21 277.623 206.59 277.605 206.97L276.817 224.31C276.774 225.097 276.433 225.839 275.863 226.385C275.294 226.931 274.539 227.24 273.75 227.25Z" fill="#4A90E2"/>
<g opacity="0.8">
<path d="M141.45 227.25H124.11C123.73 227.251 123.353 227.175 123.003 227.026C122.653 226.878 122.337 226.659 122.075 226.384C121.812 226.108 121.609 225.783 121.476 225.426C121.344 225.07 121.286 224.69 121.305 224.31L122.055 206.97C122.102 206.182 122.445 205.442 123.016 204.897C123.586 204.351 124.341 204.042 125.13 204.03H142.5C142.88 204.028 143.257 204.105 143.607 204.253C143.957 204.402 144.273 204.621 144.535 204.896C144.798 205.172 145.001 205.497 145.134 205.854C145.266 206.21 145.324 206.59 145.305 206.97L144.555 224.31C144.507 225.103 144.16 225.848 143.583 226.394C143.007 226.94 142.244 227.246 141.45 227.25Z" fill="#FAFAFA"/>
<path d="M167.918 227.25H150.578C150.197 227.251 149.821 227.175 149.471 227.026C149.121 226.878 148.805 226.659 148.542 226.384C148.28 226.108 148.076 225.783 147.944 225.426C147.811 225.07 147.753 224.69 147.773 224.31L148.523 206.97C148.568 206.182 148.911 205.44 149.481 204.895C150.052 204.349 150.808 204.04 151.598 204.03H168.93C169.314 204.027 169.694 204.103 170.048 204.254C170.401 204.404 170.72 204.625 170.984 204.904C171.248 205.182 171.453 205.512 171.585 205.872C171.716 206.233 171.773 206.617 171.75 207L171 224.31C170.956 225.1 170.613 225.844 170.041 226.39C169.468 226.936 168.709 227.244 167.918 227.25Z" fill="#FAFAFA"/>
<path d="M194.378 227.25H177.045C176.664 227.253 176.287 227.177 175.937 227.029C175.587 226.88 175.27 226.661 175.007 226.386C174.745 226.111 174.541 225.784 174.409 225.427C174.277 225.07 174.22 224.69 174.24 224.31L174.99 206.97C175.036 206.182 175.378 205.44 175.949 204.895C176.519 204.349 177.276 204.04 178.065 204.03H195.398C195.778 204.027 196.155 204.103 196.506 204.251C196.856 204.4 197.173 204.619 197.435 204.894C197.698 205.169 197.902 205.496 198.034 205.853C198.166 206.21 198.223 206.59 198.203 206.97L197.453 224.31C197.407 225.098 197.065 225.84 196.494 226.385C195.923 226.931 195.167 227.24 194.378 227.25Z" fill="#FAFAFA"/>
<path d="M220.845 227.25H203.512C203.132 227.251 202.755 227.175 202.405 227.026C202.054 226.878 201.738 226.659 201.475 226.384C201.212 226.109 201.007 225.783 200.874 225.427C200.741 225.07 200.682 224.69 200.7 224.31L201.45 206.97C201.494 206.182 201.835 205.441 202.404 204.895C202.973 204.349 203.729 204.04 204.517 204.03H221.857C222.244 204.023 222.627 204.096 222.983 204.245C223.34 204.393 223.662 204.614 223.929 204.893C224.196 205.172 224.402 205.503 224.535 205.866C224.668 206.228 224.724 206.614 224.7 207L223.95 224.34C223.897 225.128 223.547 225.866 222.97 226.406C222.394 226.946 221.635 227.248 220.845 227.25Z" fill="#FAFAFA"/>
<path d="M247.312 227.25H229.972C229.592 227.251 229.216 227.175 228.866 227.026C228.516 226.877 228.2 226.659 227.937 226.384C227.675 226.108 227.471 225.783 227.339 225.426C227.206 225.07 227.148 224.69 227.167 224.31L227.917 206.97C227.957 206.176 228.298 205.427 228.871 204.875C229.444 204.323 230.205 204.01 231 204H248.34C248.72 203.998 249.097 204.075 249.447 204.223C249.797 204.372 250.113 204.591 250.375 204.866C250.638 205.141 250.841 205.467 250.974 205.824C251.106 206.18 251.164 206.56 251.145 206.94L250.395 224.28C250.355 225.074 250.014 225.823 249.441 226.375C248.869 226.927 248.108 227.24 247.312 227.25Z" fill="#FAFAFA"/>
<path d="M273.75 227.25H256.44C256.059 227.253 255.682 227.177 255.332 227.029C254.981 226.88 254.665 226.661 254.402 226.386C254.139 226.111 253.936 225.784 253.804 225.427C253.672 225.07 253.614 224.69 253.635 224.31L254.385 206.97C254.43 206.182 254.773 205.44 255.344 204.895C255.914 204.349 256.67 204.04 257.46 204.03H274.792C275.173 204.029 275.55 204.105 275.9 204.253C276.251 204.402 276.567 204.621 276.83 204.896C277.093 205.171 277.298 205.497 277.431 205.853C277.564 206.21 277.623 206.59 277.605 206.97L276.817 224.31C276.774 225.097 276.433 225.839 275.863 226.385C275.294 226.931 274.539 227.24 273.75 227.25Z" fill="#FAFAFA"/>
</g>
<path d="M140.25 254.145H122.895C122.514 254.148 122.137 254.072 121.787 253.924C121.436 253.775 121.12 253.556 120.857 253.281C120.594 253.006 120.391 252.679 120.259 252.322C120.127 251.965 120.069 251.585 120.09 251.205L120.84 233.872C120.885 233.084 121.228 232.343 121.799 231.797C122.369 231.252 123.125 230.943 123.915 230.932H141.255C141.635 230.93 142.013 231.005 142.363 231.154C142.713 231.302 143.03 231.521 143.293 231.797C143.555 232.072 143.759 232.398 143.891 232.755C144.023 233.112 144.08 233.492 144.06 233.872L143.31 251.205C143.266 251.991 142.926 252.732 142.359 253.277C141.791 253.823 141.037 254.133 140.25 254.145Z" fill="#4A90E2"/>
<path d="M166.703 254.145H149.362C148.982 254.148 148.605 254.072 148.254 253.924C147.904 253.775 147.588 253.556 147.325 253.281C147.062 253.006 146.858 252.679 146.727 252.322C146.595 251.965 146.537 251.585 146.558 251.205L147.308 233.872C147.351 233.084 147.693 232.341 148.264 231.795C148.835 231.249 149.593 230.941 150.382 230.932H167.715C168.096 230.929 168.474 231.003 168.826 231.152C169.177 231.3 169.494 231.518 169.758 231.794C170.021 232.069 170.225 232.396 170.358 232.753C170.49 233.111 170.548 233.492 170.528 233.872L169.778 251.205C169.736 251.994 169.394 252.738 168.823 253.284C168.251 253.831 167.493 254.138 166.703 254.145Z" fill="#4A90E2"/>
<path d="M193.163 254.145H175.83C175.449 254.148 175.072 254.072 174.722 253.924C174.371 253.775 174.055 253.556 173.792 253.281C173.53 253.006 173.326 252.679 173.194 252.322C173.062 251.965 173.005 251.585 173.025 251.205L173.775 233.872C173.819 233.084 174.161 232.341 174.732 231.795C175.303 231.249 176.06 230.941 176.85 230.932H194.25C194.631 230.93 195.008 231.005 195.359 231.154C195.71 231.302 196.027 231.521 196.29 231.796C196.553 232.071 196.758 232.398 196.891 232.755C197.023 233.112 197.082 233.492 197.063 233.872L196.275 251.205C196.231 252 195.884 252.748 195.305 253.295C194.726 253.842 193.959 254.146 193.163 254.145Z" fill="#4A90E2"/>
<path d="M219.63 254.145H202.297C201.917 254.148 201.539 254.072 201.188 253.924C200.837 253.775 200.521 253.557 200.257 253.281C199.994 253.006 199.79 252.68 199.657 252.323C199.524 251.966 199.466 251.585 199.485 251.205L200.235 233.872C200.277 233.084 200.617 232.342 201.187 231.796C201.757 231.25 202.513 230.941 203.302 230.932H220.642C221.023 230.93 221.4 231.005 221.751 231.154C222.101 231.302 222.417 231.521 222.68 231.797C222.943 232.072 223.146 232.398 223.278 232.755C223.41 233.112 223.468 233.492 223.447 233.872L222.697 251.205C222.654 251.993 222.313 252.734 221.743 253.28C221.174 253.826 220.419 254.135 219.63 254.145Z" fill="#4A90E2"/>
<path d="M246.098 254.145H228.75C228.369 254.148 227.992 254.072 227.642 253.924C227.291 253.775 226.975 253.556 226.712 253.281C226.45 253.006 226.246 252.679 226.114 252.322C225.982 251.965 225.925 251.585 225.945 251.205L226.695 233.872C226.741 233.084 227.083 232.343 227.654 231.797C228.224 231.252 228.981 230.943 229.77 230.932H247.11C247.491 230.93 247.868 231.005 248.218 231.154C248.569 231.302 248.885 231.521 249.148 231.797C249.41 232.072 249.614 232.398 249.746 232.755C249.878 233.112 249.936 233.492 249.915 233.872L249.165 251.205C249.12 251.992 248.778 252.732 248.209 253.278C247.64 253.823 246.886 254.133 246.098 254.145Z" fill="#4A90E2"/>
<path d="M272.565 254.145H255.225C254.844 254.148 254.467 254.072 254.117 253.924C253.766 253.775 253.45 253.556 253.187 253.281C252.925 253.006 252.721 252.679 252.589 252.322C252.457 251.965 252.4 251.585 252.42 251.205L253.17 233.872C253.214 233.084 253.556 232.341 254.127 231.795C254.698 231.249 255.455 230.941 256.245 230.932H273.578C273.958 230.93 274.336 231.005 274.687 231.154C275.038 231.302 275.354 231.521 275.618 231.796C275.881 232.071 276.085 232.398 276.218 232.755C276.351 233.112 276.409 233.492 276.39 233.872L275.603 251.205C275.561 251.988 275.225 252.726 274.661 253.272C274.098 253.817 273.349 254.129 272.565 254.145Z" fill="#4A90E2"/>
<g opacity="0.8">
<path d="M140.25 254.145H122.895C122.514 254.148 122.137 254.072 121.787 253.924C121.436 253.775 121.12 253.556 120.857 253.281C120.594 253.006 120.391 252.679 120.259 252.322C120.127 251.965 120.069 251.585 120.09 251.205L120.84 233.873C120.885 233.084 121.228 232.343 121.799 231.797C122.369 231.252 123.125 230.943 123.915 230.933H141.255C141.635 230.93 142.013 231.005 142.363 231.154C142.713 231.302 143.03 231.521 143.293 231.797C143.555 232.072 143.759 232.398 143.891 232.755C144.023 233.112 144.08 233.492 144.06 233.873L143.31 251.205C143.266 251.991 142.926 252.732 142.359 253.277C141.791 253.823 141.037 254.133 140.25 254.145Z" fill="#FAFAFA"/>
<path d="M166.703 254.145H149.362C148.982 254.148 148.605 254.072 148.254 253.924C147.904 253.775 147.588 253.556 147.325 253.281C147.062 253.006 146.858 252.679 146.727 252.322C146.595 251.965 146.537 251.585 146.558 251.205L147.308 233.872C147.351 233.084 147.693 232.341 148.264 231.795C148.835 231.249 149.593 230.941 150.382 230.932H167.715C168.096 230.929 168.474 231.003 168.826 231.152C169.177 231.3 169.494 231.518 169.758 231.794C170.021 232.069 170.225 232.396 170.358 232.753C170.49 233.111 170.548 233.492 170.528 233.872L169.778 251.205C169.736 251.994 169.394 252.738 168.823 253.284C168.251 253.831 167.493 254.138 166.703 254.145Z" fill="#FAFAFA"/>
<path d="M193.162 254.145H175.83C175.449 254.148 175.072 254.072 174.722 253.924C174.371 253.775 174.055 253.556 173.792 253.281C173.53 253.006 173.326 252.679 173.194 252.322C173.062 251.965 173.004 251.585 173.025 251.205L173.775 233.872C173.819 233.084 174.161 232.341 174.732 231.795C175.303 231.249 176.06 230.941 176.85 230.932H194.25C194.631 230.93 195.008 231.005 195.359 231.154C195.71 231.302 196.027 231.521 196.29 231.796C196.553 232.071 196.758 232.398 196.891 232.755C197.023 233.112 197.082 233.492 197.062 233.872L196.275 251.205C196.231 252 195.883 252.748 195.304 253.295C194.725 253.842 193.959 254.146 193.162 254.145Z" fill="#FAFAFA"/>
<path d="M219.63 254.145H202.297C201.917 254.148 201.539 254.072 201.188 253.924C200.837 253.775 200.521 253.557 200.257 253.281C199.994 253.006 199.79 252.68 199.657 252.323C199.524 251.966 199.466 251.585 199.485 251.205L200.235 233.872C200.277 233.084 200.617 232.342 201.187 231.796C201.757 231.25 202.513 230.941 203.302 230.932H220.642C221.023 230.93 221.4 231.005 221.751 231.154C222.101 231.302 222.417 231.521 222.68 231.797C222.943 232.072 223.146 232.398 223.278 232.755C223.41 233.112 223.468 233.492 223.447 233.872L222.697 251.205C222.654 251.993 222.313 252.734 221.743 253.28C221.174 253.826 220.419 254.135 219.63 254.145Z" fill="#FAFAFA"/>
<path d="M246.097 254.145H228.75C228.369 254.148 227.992 254.072 227.642 253.924C227.291 253.775 226.975 253.556 226.712 253.281C226.449 253.006 226.246 252.679 226.114 252.322C225.982 251.965 225.924 251.585 225.945 251.205L226.695 233.872C226.74 233.084 227.083 232.343 227.654 231.797C228.224 231.252 228.98 230.943 229.77 230.932H247.11C247.49 230.93 247.868 231.005 248.218 231.154C248.568 231.302 248.885 231.521 249.148 231.797C249.41 232.072 249.614 232.398 249.746 232.755C249.878 233.112 249.935 233.492 249.915 233.872L249.165 251.205C249.119 251.992 248.778 252.732 248.209 253.278C247.64 253.823 246.885 254.133 246.097 254.145Z" fill="#FAFAFA"/>
<path d="M272.565 254.145H255.225C254.844 254.148 254.467 254.072 254.117 253.924C253.766 253.775 253.45 253.556 253.187 253.281C252.925 253.006 252.721 252.679 252.589 252.322C252.457 251.965 252.399 251.585 252.42 251.205L253.17 233.872C253.214 233.084 253.556 232.341 254.127 231.795C254.698 231.249 255.455 230.941 256.245 230.932H273.577C273.958 230.93 274.336 231.005 274.687 231.154C275.037 231.302 275.354 231.521 275.618 231.796C275.881 232.071 276.085 232.398 276.218 232.755C276.351 233.112 276.409 233.492 276.39 233.872L275.602 251.205C275.561 251.988 275.225 252.726 274.661 253.272C274.098 253.817 273.349 254.129 272.565 254.145Z" fill="#FAFAFA"/>
</g>
<path d="M135.337 163.08C128.947 163.08 123.938 155.648 123.938 146.16C123.938 136.673 128.947 129.247 135.337 129.247C141.727 129.247 146.745 136.68 146.745 146.16C146.716 146.605 146.519 147.022 146.194 147.326C145.868 147.631 145.439 147.8 144.994 147.8C144.548 147.8 144.119 147.631 143.794 147.326C143.469 147.022 143.272 146.605 143.243 146.16C143.243 138.893 139.627 132.743 135.337 132.743C131.047 132.743 127.433 138.893 127.433 146.16C127.433 153.428 131.055 159.577 135.337 159.577C135.577 159.562 135.817 159.595 136.043 159.676C136.27 159.757 136.477 159.884 136.652 160.048C136.827 160.212 136.967 160.41 137.062 160.631C137.158 160.851 137.207 161.089 137.207 161.329C137.207 161.569 137.158 161.806 137.062 162.027C136.967 162.247 136.827 162.445 136.652 162.61C136.477 162.774 136.27 162.9 136.043 162.981C135.817 163.062 135.577 163.096 135.337 163.08Z" fill="#4A90E2"/>
<path d="M161.805 163.08C155.415 163.08 150.405 155.647 150.405 146.16C150.405 136.673 155.415 129.247 161.805 129.247C168.195 129.247 173.25 136.68 173.25 146.16C173.221 146.605 173.024 147.022 172.699 147.326C172.373 147.631 171.944 147.8 171.499 147.8C171.053 147.8 170.624 147.631 170.299 147.326C169.974 147.022 169.777 146.605 169.748 146.16C169.748 138.892 166.133 132.743 161.843 132.743C157.553 132.743 153.938 138.892 153.938 146.16C153.938 153.427 157.56 159.577 161.843 159.577C162.287 159.607 162.704 159.804 163.009 160.129C163.313 160.454 163.483 160.883 163.483 161.329C163.483 161.774 163.313 162.203 163.009 162.528C162.704 162.854 162.287 163.051 161.843 163.08H161.805Z" fill="#4A90E2"/>
<path d="M188.25 163.08C181.852 163.08 176.842 155.647 176.842 146.16C176.842 136.673 181.852 129.247 188.25 129.247C194.647 129.247 199.65 136.68 199.65 146.16C199.65 146.623 199.466 147.068 199.138 147.396C198.81 147.723 198.366 147.908 197.902 147.908C197.439 147.908 196.994 147.723 196.667 147.396C196.339 147.068 196.155 146.623 196.155 146.16C196.155 138.892 192.532 132.743 188.25 132.743C183.967 132.743 180.345 138.892 180.345 146.16C180.345 153.427 183.967 159.577 188.25 159.577C188.695 159.607 189.111 159.804 189.416 160.129C189.721 160.454 189.89 160.883 189.89 161.329C189.89 161.774 189.721 162.203 189.416 162.528C189.111 162.854 188.695 163.051 188.25 163.08Z" fill="#4A90E2"/>
<path d="M214.74 163.08C208.343 163.08 203.333 155.647 203.333 146.16C203.333 136.673 208.343 129.247 214.74 129.247C221.138 129.247 226.14 136.68 226.14 146.16C226.14 146.623 225.956 147.068 225.628 147.396C225.3 147.723 224.856 147.908 224.393 147.908C223.929 147.908 223.485 147.723 223.157 147.396C222.829 147.068 222.645 146.623 222.645 146.16C222.645 138.892 219.023 132.743 214.74 132.743C210.458 132.743 206.835 138.892 206.835 146.16C206.835 153.427 210.45 159.577 214.74 159.577C215.185 159.607 215.602 159.804 215.906 160.129C216.211 160.454 216.38 160.883 216.38 161.329C216.38 161.774 216.211 162.203 215.906 162.528C215.602 162.854 215.185 163.051 214.74 163.08Z" fill="#4A90E2"/>
<path d="M241.2 163.08C234.81 163.08 229.8 155.648 229.8 146.16C229.8 136.673 234.81 129.247 241.2 129.247C247.59 129.247 252.607 136.68 252.607 146.16C252.578 146.605 252.381 147.022 252.056 147.326C251.731 147.631 251.302 147.8 250.856 147.8C250.411 147.8 249.982 147.631 249.656 147.326C249.331 147.022 249.134 146.605 249.105 146.16C249.105 138.893 245.49 132.743 241.2 132.743C236.91 132.743 233.295 138.893 233.295 146.16C233.295 153.428 236.917 159.577 241.2 159.577C241.44 159.562 241.68 159.595 241.906 159.676C242.132 159.757 242.339 159.884 242.514 160.048C242.69 160.212 242.829 160.41 242.925 160.631C243.02 160.851 243.07 161.089 243.07 161.329C243.07 161.569 243.02 161.806 242.925 162.027C242.829 162.247 242.69 162.445 242.514 162.61C242.339 162.774 242.132 162.9 241.906 162.981C241.68 163.062 241.44 163.096 241.2 163.08Z" fill="#4A90E2"/>
<path d="M267.667 163.08C261.277 163.08 256.267 155.647 256.267 146.16C256.267 136.673 261.277 129.247 267.667 129.247C274.057 129.247 279.075 136.68 279.075 146.16C279.046 146.605 278.849 147.022 278.523 147.326C278.198 147.631 277.769 147.8 277.324 147.8C276.878 147.8 276.449 147.631 276.124 147.326C275.799 147.022 275.602 146.605 275.572 146.16C275.572 138.892 271.95 132.743 267.667 132.743C263.385 132.743 259.762 138.892 259.762 146.16C259.762 153.427 263.385 159.577 267.667 159.577C268.112 159.607 268.529 159.804 268.834 160.129C269.138 160.454 269.308 160.883 269.308 161.329C269.308 161.774 269.138 162.203 268.834 162.528C268.529 162.854 268.112 163.051 267.667 163.08Z" fill="#4A90E2"/>
<g opacity="0.3">
<path d="M135.337 163.08C128.947 163.08 123.938 155.648 123.938 146.16C123.938 136.673 128.947 129.247 135.337 129.247C141.727 129.247 146.745 136.68 146.745 146.16C146.716 146.605 146.519 147.022 146.194 147.326C145.868 147.631 145.439 147.8 144.994 147.8C144.548 147.8 144.119 147.631 143.794 147.326C143.469 147.022 143.272 146.605 143.243 146.16C143.243 138.893 139.627 132.743 135.337 132.743C131.047 132.743 127.433 138.893 127.433 146.16C127.433 153.428 131.055 159.577 135.337 159.577C135.577 159.562 135.817 159.595 136.043 159.676C136.27 159.757 136.477 159.884 136.652 160.048C136.827 160.212 136.967 160.41 137.062 160.631C137.158 160.851 137.207 161.089 137.207 161.329C137.207 161.569 137.158 161.806 137.062 162.027C136.967 162.247 136.827 162.445 136.652 162.61C136.477 162.774 136.27 162.9 136.043 162.981C135.817 163.062 135.577 163.096 135.337 163.08Z" fill="#161616"/>
<path d="M161.805 163.08C155.415 163.08 150.405 155.647 150.405 146.16C150.405 136.673 155.415 129.247 161.805 129.247C168.195 129.247 173.25 136.68 173.25 146.16C173.221 146.605 173.024 147.022 172.699 147.326C172.373 147.631 171.944 147.8 171.499 147.8C171.053 147.8 170.624 147.631 170.299 147.326C169.974 147.022 169.777 146.605 169.748 146.16C169.748 138.892 166.133 132.743 161.843 132.743C157.553 132.743 153.938 138.892 153.938 146.16C153.938 153.427 157.56 159.577 161.843 159.577C162.287 159.607 162.704 159.804 163.009 160.129C163.313 160.454 163.483 160.883 163.483 161.329C163.483 161.774 163.313 162.203 163.009 162.528C162.704 162.854 162.287 163.051 161.843 163.08H161.805Z" fill="#161616"/>
<path d="M188.25 163.08C181.852 163.08 176.842 155.647 176.842 146.16C176.842 136.673 181.852 129.247 188.25 129.247C194.647 129.247 199.65 136.68 199.65 146.16C199.65 146.623 199.466 147.068 199.138 147.396C198.81 147.723 198.366 147.908 197.902 147.908C197.439 147.908 196.994 147.723 196.667 147.396C196.339 147.068 196.155 146.623 196.155 146.16C196.155 138.892 192.532 132.743 188.25 132.743C183.967 132.743 180.345 138.892 180.345 146.16C180.345 153.427 183.967 159.577 188.25 159.577C188.695 159.607 189.111 159.804 189.416 160.129C189.721 160.454 189.89 160.883 189.89 161.329C189.89 161.774 189.721 162.203 189.416 162.528C189.111 162.854 188.695 163.051 188.25 163.08Z" fill="#161616"/>
<path d="M214.74 163.08C208.343 163.08 203.333 155.647 203.333 146.16C203.333 136.673 208.343 129.247 214.74 129.247C221.138 129.247 226.14 136.68 226.14 146.16C226.14 146.623 225.956 147.068 225.628 147.396C225.3 147.723 224.856 147.908 224.393 147.908C223.929 147.908 223.485 147.723 223.157 147.396C222.829 147.068 222.645 146.623 222.645 146.16C222.645 138.892 219.023 132.743 214.74 132.743C210.458 132.743 206.835 138.892 206.835 146.16C206.835 153.427 210.45 159.577 214.74 159.577C215.185 159.607 215.602 159.804 215.906 160.129C216.211 160.454 216.38 160.883 216.38 161.329C216.38 161.774 216.211 162.203 215.906 162.528C215.602 162.854 215.185 163.051 214.74 163.08Z" fill="#161616"/>
<path d="M241.2 163.08C234.81 163.08 229.8 155.648 229.8 146.16C229.8 136.673 234.81 129.247 241.2 129.247C247.59 129.247 252.607 136.68 252.607 146.16C252.578 146.605 252.381 147.022 252.056 147.326C251.731 147.631 251.302 147.8 250.856 147.8C250.411 147.8 249.982 147.631 249.656 147.326C249.331 147.022 249.134 146.605 249.105 146.16C249.105 138.893 245.49 132.743 241.2 132.743C236.91 132.743 233.295 138.893 233.295 146.16C233.295 153.428 236.917 159.577 241.2 159.577C241.44 159.562 241.68 159.595 241.906 159.676C242.132 159.757 242.339 159.884 242.514 160.048C242.69 160.212 242.829 160.41 242.925 160.631C243.02 160.851 243.07 161.089 243.07 161.329C243.07 161.569 243.02 161.806 242.925 162.027C242.829 162.247 242.69 162.445 242.514 162.61C242.339 162.774 242.132 162.9 241.906 162.981C241.68 163.062 241.44 163.096 241.2 163.08Z" fill="#161616"/>
<path d="M267.667 163.08C261.277 163.08 256.267 155.647 256.267 146.16C256.267 136.673 261.277 129.247 267.667 129.247C274.057 129.247 279.075 136.68 279.075 146.16C279.046 146.605 278.849 147.022 278.523 147.326C278.198 147.631 277.769 147.8 277.324 147.8C276.878 147.8 276.449 147.631 276.124 147.326C275.799 147.022 275.602 146.605 275.572 146.16C275.572 138.892 271.95 132.743 267.667 132.743C263.385 132.743 259.762 138.892 259.762 146.16C259.762 153.427 263.385 159.577 267.667 159.577C268.112 159.607 268.529 159.804 268.834 160.129C269.138 160.454 269.308 160.883 269.308 161.329C269.308 161.774 269.138 162.203 268.834 162.528C268.529 162.854 268.112 163.051 267.667 163.08Z" fill="#161616"/>
</g>
<path d="M216.51 201.315C210.39 200.1 203.52 201.517 201.067 207.967C199.095 213.157 201.622 218.782 207.067 220.155C211.867 221.362 220.147 219.885 221.857 214.35C223.815 208.02 215.857 205.965 211.395 205.59C210.052 205.477 210.06 207.577 211.395 207.69C213.427 207.862 215.752 207.975 217.552 209.092C221.302 211.44 219.757 215.205 216.562 217.005C213.367 218.805 208.47 219.255 205.312 217.26C201.862 215.062 201.75 210.232 203.812 207.082C206.52 202.92 211.462 202.455 215.917 203.332C217.237 203.595 217.8 201.57 216.472 201.307L216.51 201.315Z" fill="#4A90E2"/>
<path opacity="0.1" d="M216.51 201.315C210.39 200.1 203.52 201.517 201.067 207.967C199.095 213.157 201.622 218.782 207.067 220.155C211.867 221.362 220.147 219.885 221.857 214.35C223.815 208.02 215.857 205.965 211.395 205.59C210.052 205.477 210.06 207.577 211.395 207.69C213.427 207.862 215.752 207.975 217.552 209.092C221.302 211.44 219.757 215.205 216.562 217.005C213.367 218.805 208.47 219.255 205.312 217.26C201.862 215.062 201.75 210.232 203.812 207.082C206.52 202.92 211.462 202.455 215.917 203.332C217.237 203.595 217.8 201.57 216.472 201.307L216.51 201.315Z" fill="#FAFAFA"/>
<path d="M148.987 177.157C154.84 184.916 161.365 192.144 168.487 198.758C169.477 199.68 170.97 198.195 169.987 197.258C162.987 190.775 156.57 183.69 150.81 176.085C150.007 175.02 148.185 176.085 149.002 177.143L148.987 177.157Z" fill="#4A90E2"/>
<path d="M151.155 197.88C155.58 190.012 163.328 183.3 170.655 178.162C171.75 177.412 170.708 175.567 169.598 176.347C161.978 181.702 153.968 188.618 149.348 196.815C149.221 197.054 149.191 197.332 149.264 197.593C149.338 197.853 149.509 198.075 149.742 198.212C149.975 198.349 150.252 198.391 150.515 198.329C150.778 198.268 151.008 198.107 151.155 197.88Z" fill="#4A90E2"/>
<g opacity="0.2">
<path d="M148.987 177.157C154.84 184.916 161.365 192.144 168.487 198.758C169.477 199.68 170.97 198.195 169.987 197.258C162.987 190.775 156.57 183.69 150.81 176.085C150.007 175.02 148.185 176.085 149.002 177.143L148.987 177.157Z" fill="#161616"/>
<path d="M151.155 197.88C155.58 190.012 163.327 183.3 170.655 178.162C171.75 177.412 170.707 175.567 169.597 176.347C161.977 181.702 153.967 188.618 149.347 196.815C149.221 197.054 149.191 197.332 149.264 197.593C149.338 197.853 149.509 198.075 149.742 198.212C149.975 198.349 150.252 198.391 150.515 198.329C150.778 198.268 151.007 198.107 151.155 197.88Z" fill="#161616"/>
</g>
<path d="M232.402 183.87H246.09C246.352 183.848 246.596 183.728 246.775 183.534C246.953 183.34 247.051 183.087 247.051 182.824C247.051 182.561 246.953 182.307 246.775 182.113C246.596 181.92 246.352 181.8 246.09 181.777H232.402C232.14 181.8 231.896 181.92 231.718 182.113C231.54 182.307 231.441 182.561 231.441 182.824C231.441 183.087 231.54 183.34 231.718 183.534C231.896 183.728 232.14 183.848 232.402 183.87Z" fill="#4A90E2"/>
<path d="M232.245 187.762H240.18C240.458 187.762 240.725 187.652 240.922 187.455C241.119 187.258 241.23 186.991 241.23 186.712C241.23 186.434 241.119 186.167 240.922 185.97C240.725 185.773 240.458 185.662 240.18 185.662H232.245C231.966 185.662 231.699 185.773 231.502 185.97C231.306 186.167 231.195 186.434 231.195 186.712C231.195 186.991 231.306 187.258 231.502 187.455C231.699 187.652 231.966 187.762 232.245 187.762Z" fill="#4A90E2"/>
<g opacity="0.1">
<path d="M232.402 183.87H246.09C246.352 183.848 246.596 183.728 246.774 183.534C246.952 183.34 247.051 183.087 247.051 182.824C247.051 182.561 246.952 182.307 246.774 182.113C246.596 181.92 246.352 181.8 246.09 181.777H232.402C232.14 181.8 231.896 181.92 231.718 182.113C231.54 182.307 231.441 182.561 231.441 182.824C231.441 183.087 231.54 183.34 231.718 183.534C231.896 183.728 232.14 183.848 232.402 183.87Z" fill="#FAFAFA"/>
<path d="M232.245 187.762H240.18C240.458 187.762 240.725 187.652 240.922 187.455C241.119 187.258 241.23 186.991 241.23 186.712C241.23 186.434 241.119 186.167 240.922 185.97C240.725 185.773 240.458 185.662 240.18 185.662H232.245C231.966 185.662 231.699 185.773 231.502 185.97C231.306 186.167 231.195 186.434 231.195 186.712C231.195 186.991 231.306 187.258 231.502 187.455C231.699 187.652 231.966 187.762 232.245 187.762Z" fill="#FAFAFA"/>
</g>
<path d="M150.42 237.6H162.157C162.436 237.6 162.703 237.489 162.9 237.292C163.097 237.096 163.207 236.828 163.207 236.55C163.207 236.272 163.097 236.004 162.9 235.808C162.703 235.611 162.436 235.5 162.157 235.5H150.42C150.141 235.5 149.874 235.611 149.677 235.808C149.48 236.004 149.37 236.272 149.37 236.55C149.37 236.828 149.48 237.096 149.677 237.292C149.874 237.489 150.141 237.6 150.42 237.6Z" fill="#4A90E2"/>
<path d="M150 242.107H165.225C165.503 242.107 165.77 241.997 165.967 241.8C166.164 241.603 166.275 241.336 166.275 241.058C166.275 240.779 166.164 240.512 165.967 240.315C165.77 240.118 165.503 240.008 165.225 240.008H150C149.721 240.008 149.454 240.118 149.257 240.315C149.061 240.512 148.95 240.779 148.95 241.058C148.95 241.336 149.061 241.603 149.257 241.8C149.454 241.997 149.721 242.107 150 242.107Z" fill="#4A90E2"/>
<path d="M150 246.75H157.612C157.891 246.75 158.158 246.639 158.355 246.442C158.552 246.246 158.662 245.978 158.662 245.7C158.662 245.422 158.552 245.154 158.355 244.958C158.158 244.761 157.891 244.65 157.612 244.65H150C149.721 244.65 149.454 244.761 149.257 244.958C149.061 245.154 148.95 245.422 148.95 245.7C148.95 245.978 149.061 246.246 149.257 246.442C149.454 246.639 149.721 246.75 150 246.75Z" fill="#4A90E2"/>
<g opacity="0.1">
<path d="M150.42 237.6H162.158C162.436 237.6 162.703 237.489 162.9 237.292C163.097 237.096 163.208 236.828 163.208 236.55C163.208 236.272 163.097 236.004 162.9 235.808C162.703 235.611 162.436 235.5 162.158 235.5H150.42C150.142 235.5 149.875 235.611 149.678 235.808C149.481 236.004 149.37 236.272 149.37 236.55C149.37 236.828 149.481 237.096 149.678 237.292C149.875 237.489 150.142 237.6 150.42 237.6Z" fill="#FAFAFA"/>
<path d="M150 242.107H165.225C165.503 242.107 165.77 241.997 165.967 241.8C166.164 241.603 166.275 241.336 166.275 241.058C166.275 240.779 166.164 240.512 165.967 240.315C165.77 240.118 165.503 240.008 165.225 240.008H150C149.721 240.008 149.454 240.118 149.257 240.315C149.061 240.512 148.95 240.779 148.95 241.058C148.95 241.336 149.061 241.603 149.257 241.8C149.454 241.997 149.721 242.107 150 242.107Z" fill="#FAFAFA"/>
<path d="M150 246.75H157.612C157.891 246.75 158.158 246.639 158.355 246.442C158.552 246.246 158.662 245.978 158.662 245.7C158.662 245.422 158.552 245.154 158.355 244.958C158.158 244.761 157.891 244.65 157.612 244.65H150C149.721 244.65 149.454 244.761 149.257 244.958C149.061 245.154 148.95 245.422 148.95 245.7C148.95 245.978 149.061 246.246 149.257 246.442C149.454 246.639 149.721 246.75 150 246.75Z" fill="#FAFAFA"/>
</g>
<path d="M67.6425 119.842L71.19 119.685L69.585 126.435C68.3189 125.568 67.1652 124.548 66.15 123.397C65.8572 123.053 65.7119 122.607 65.7456 122.157C65.7793 121.706 65.9893 121.287 66.33 120.99L67.6425 119.842Z" fill="#E4897B"/>
<path d="M75.3075 123.322L73.7175 128.812L69.585 126.42L71.19 119.685L75.3075 123.322Z" fill="#E4897B"/>
<path d="M74.608 90.7304L67.349 91.4025L83.9977 271.211L91.2566 270.539L74.608 90.7304Z" fill="#4A90E2"/>
<path opacity="0.3" d="M74.608 90.7304L67.349 91.4025L83.9977 271.211L91.2566 270.539L74.608 90.7304Z" fill="#161616"/>
<path d="M89.1292 89.3824L81.8702 90.0545L98.5189 269.863L105.778 269.191L89.1292 89.3824Z" fill="#4A90E2"/>
<path opacity="0.3" d="M89.1292 89.3824L81.8702 90.0545L98.5189 269.863L105.778 269.191L89.1292 89.3824Z" fill="#161616"/>
<path d="M81.8722 90.0564L74.6133 90.7285L91.2619 270.537L98.5209 269.865L81.8722 90.0564Z" fill="#4A90E2"/>
<path opacity="0.1" d="M81.8722 90.0564L74.6133 90.7285L91.2619 270.537L98.5209 269.865L81.8722 90.0564Z" fill="#161616"/>
<path d="M80.3401 77.4825L73.8076 78.09L67.3501 91.4025L89.1301 89.385L80.3401 77.4825Z" fill="#4A90E2"/>
<g opacity="0.8">
<path d="M80.3401 77.4825L73.8076 78.09L67.3501 91.4025L89.1301 89.385L80.3401 77.4825Z" fill="#FAFAFA"/>
</g>
<path d="M76.575 72.3825L73.8075 78.09L80.34 77.4825L76.575 72.3825Z" fill="#4F4F4F"/>
<path d="M131.46 82.545C132.21 83.295 132.833 84.0075 133.478 84.795C134.123 85.5825 134.738 86.295 135.353 87.045C136.59 88.545 137.745 90.1275 138.87 91.74C141.189 95.0186 143.146 98.5392 144.705 102.24C144.893 102.72 145.065 103.222 145.245 103.74L145.515 104.49C145.664 104.939 145.769 105.401 145.83 105.87C145.993 107.363 145.795 108.872 145.253 110.272C144.443 112.339 143.309 114.263 141.893 115.972C139.388 119.037 136.505 121.772 133.313 124.11L130.485 121.11C132.71 118.328 134.745 115.399 136.575 112.342C137.377 111.037 137.993 109.626 138.405 108.15C138.519 107.788 138.532 107.401 138.443 107.032L138.188 106.477C138.015 106.11 137.865 105.727 137.678 105.367C136.09 102.287 134.233 99.3529 132.128 96.6C131.078 95.1675 129.968 93.7725 128.843 92.3775C128.28 91.6875 127.71 90.9975 127.125 90.3225L125.415 88.35L131.46 82.545Z" fill="#E4897B"/>
<path d="M125.948 123.398L129.143 129.72L132.27 127.028L129.705 122.535L125.948 123.398Z" fill="#E4897B"/>
<path d="M101.88 86.25C99.935 89.955 97.915 93.6175 95.82 97.2375C94.7925 99.06 93.7125 100.852 92.6625 102.66L91.05 105.36L90.645 106.035C90.4425 106.357 90.2175 106.74 90.015 106.995C89.8125 107.25 89.61 107.557 89.415 107.79C89.22 108.022 89.01 108.285 88.815 108.502C87.3 110.153 85.6871 111.711 83.985 113.167C82.3425 114.57 80.7 115.935 79.005 117.232C75.6525 119.85 72.21 122.287 68.64 124.612L66.0675 121.372L74.955 112.62C76.41 111.12 77.88 109.71 79.2675 108.225C80.6308 106.827 81.9153 105.355 83.115 103.815C83.26 103.635 83.3875 103.462 83.4975 103.297C83.625 103.117 83.715 102.967 83.805 102.817C83.8826 102.697 83.9527 102.572 84.015 102.442L84.36 101.745L85.7475 98.9175C86.7 97.05 87.63 95.1675 88.5975 93.315C90.5125 89.58 92.5125 85.8875 94.5975 82.2375L101.88 86.25Z" fill="#E4897B"/>
<path d="M122.933 60.915C122.835 61.35 122.993 61.7625 123.27 61.8375C123.548 61.9125 123.855 61.6125 123.953 61.1775C124.05 60.7425 123.885 60.33 123.608 60.255C123.33 60.18 123 60.48 122.933 60.915Z" fill="#4F4F4F"/>
<path d="M122.948 61.755C123.182 63.2179 123.611 64.6429 124.223 65.9925C123.877 66.1291 123.506 66.1885 123.136 66.1665C122.765 66.1445 122.404 66.0416 122.078 65.865L122.948 61.755Z" fill="#DE5753"/>
<path d="M124.08 58.275C124.027 58.2752 123.975 58.2595 123.93 58.23C123.653 58.0607 123.339 57.9613 123.015 57.9404C122.691 57.9195 122.367 57.9777 122.07 58.11C122.005 58.1353 121.933 58.1345 121.869 58.108C121.805 58.0814 121.753 58.0311 121.725 57.9675C121.7 57.9027 121.701 57.8307 121.727 57.7664C121.754 57.7022 121.804 57.6506 121.868 57.6225C122.247 57.4597 122.66 57.3911 123.071 57.4224C123.482 57.4538 123.88 57.5842 124.23 57.8025C124.259 57.8214 124.283 57.8457 124.302 57.8742C124.321 57.9027 124.334 57.9346 124.34 57.9682C124.346 58.0018 124.346 58.0363 124.339 58.0697C124.331 58.1031 124.317 58.1346 124.298 58.1625C124.273 58.1975 124.241 58.2261 124.203 58.2457C124.165 58.2653 124.123 58.2754 124.08 58.275Z" fill="#4F4F4F"/>
<path d="M107.76 62.5725C108.705 66.6075 109.777 73.9875 107.062 76.68C107.062 76.68 108.322 80.7675 115.815 80.7675C124.065 80.7675 119.565 76.68 119.565 76.68C115.027 75.6075 115.012 72.27 115.672 69.1425L107.76 62.5725Z" fill="#E4897B"/>
<path d="M106.042 78.0825C105.397 76.7925 104.692 75.3075 106.042 74.8425C107.497 74.3325 115.575 73.815 118.402 74.7675C119.156 74.9691 119.801 75.4561 120.201 76.1253C120.602 76.7945 120.726 77.5934 120.547 78.3525L106.042 78.0825Z" fill="#4A90E2"/>
<path opacity="0.6" d="M106.042 78.0825C105.397 76.7925 104.692 75.3075 106.042 74.8425C107.497 74.3325 115.575 73.815 118.402 74.7675C119.156 74.9691 119.801 75.4561 120.201 76.1253C120.602 76.7945 120.726 77.5934 120.547 78.3525L106.042 78.0825Z" fill="#FAFAFA"/>
<path d="M95.25 266.25C94.7659 266.247 94.2833 266.195 93.81 266.092C93.7857 266.088 93.7633 266.077 93.7459 266.059C93.7284 266.042 93.7168 266.019 93.7125 265.995C93.7075 265.97 93.7098 265.944 93.7191 265.92C93.7284 265.896 93.7444 265.875 93.765 265.86C93.825 265.815 95.265 264.78 96.105 264.96C96.1958 264.976 96.2819 265.012 96.3571 265.065C96.4323 265.118 96.4948 265.187 96.54 265.267C96.6076 265.357 96.6441 265.466 96.6441 265.579C96.6441 265.691 96.6076 265.8 96.54 265.89C96.36 266.182 95.8125 266.25 95.25 266.25ZM94.1775 265.905C95.0025 266.04 96.1275 266.04 96.3525 265.732C96.3525 265.732 96.4425 265.612 96.315 265.395C96.2876 265.347 96.2497 265.306 96.2043 265.275C96.1588 265.244 96.107 265.223 96.0525 265.215C95.3715 265.259 94.7188 265.504 94.1775 265.92V265.905Z" fill="#FAFAFA"/>
<path d="M93.84 266.115H93.7725C93.7529 266.104 93.7369 266.087 93.7263 266.067C93.7157 266.047 93.7109 266.025 93.7125 266.002C93.7125 265.935 93.78 264.345 94.4025 263.82C94.4771 263.753 94.5654 263.703 94.6611 263.673C94.7569 263.643 94.858 263.635 94.9575 263.647C95.0586 263.647 95.1566 263.683 95.2346 263.747C95.3126 263.811 95.3658 263.901 95.385 264C95.505 264.615 94.455 265.815 93.885 266.122L93.84 266.115ZM94.8675 263.865C94.7596 263.866 94.6558 263.906 94.575 263.977C94.2071 264.481 94.0029 265.086 93.99 265.71C94.53 265.282 95.1975 264.375 95.13 264.015C95.13 263.977 95.13 263.887 94.9275 263.865H94.8675Z" fill="#FAFAFA"/>
<path d="M128.34 266.25C127.771 266.25 127.204 266.197 126.645 266.093C126.619 266.088 126.595 266.076 126.576 266.057C126.557 266.038 126.544 266.014 126.54 265.988C126.536 265.962 126.539 265.935 126.55 265.911C126.561 265.887 126.578 265.867 126.6 265.853C126.878 265.695 129.323 264.293 129.915 265.26C129.974 265.345 130.006 265.445 130.006 265.549C130.006 265.652 129.974 265.753 129.915 265.838C129.75 266.168 129.045 266.25 128.34 266.25ZM127.058 265.898C128.093 266.048 129.488 266.025 129.728 265.688C129.728 265.688 129.803 265.583 129.69 265.395C129.36 264.863 127.875 265.5 127.058 265.913V265.898Z" fill="#FAFAFA"/>
<path d="M126.667 266.115C126.643 266.122 126.617 266.122 126.592 266.115C126.574 266.102 126.559 266.083 126.55 266.062C126.54 266.041 126.537 266.018 126.54 265.995C126.54 265.935 126.63 264.45 127.29 263.873C127.39 263.781 127.509 263.713 127.639 263.674C127.769 263.635 127.906 263.626 128.04 263.648C128.407 263.685 128.512 263.873 128.535 264.023C128.64 264.66 127.387 265.823 126.727 266.123L126.667 266.115ZM127.927 263.865C127.761 263.863 127.6 263.925 127.477 264.038C127.083 264.52 126.854 265.117 126.825 265.74C127.485 265.335 128.325 264.413 128.272 264.03C128.272 263.993 128.272 263.895 128.002 263.865H127.927Z" fill="#FAFAFA"/>
<path d="M120.608 265.98H126.12L126.173 253.223H120.668L120.608 265.98Z" fill="#E4897B"/>
<path d="M87.525 265.98H93.0375L95.3175 253.223H89.805L87.525 265.98Z" fill="#E4897B"/>
<path d="M93.405 265.343H87.2175C87.1081 265.341 87.0018 265.379 86.9179 265.449C86.8339 265.519 86.7779 265.617 86.76 265.725L85.86 270.622C85.8415 270.744 85.8496 270.868 85.8839 270.986C85.9181 271.104 85.9776 271.213 86.0582 271.306C86.1388 271.399 86.2387 271.473 86.3508 271.523C86.4629 271.574 86.5846 271.599 86.7075 271.598C88.8675 271.56 89.91 271.433 92.6325 271.433C94.305 271.433 97.7625 271.612 100.08 271.612C102.397 271.612 102.6 269.363 101.647 269.115C97.365 268.185 95.715 266.903 94.3125 265.688C94.0621 265.466 93.7394 265.343 93.405 265.343Z" fill="#4F4F4F"/>
<path d="M126.06 265.343H120.06C119.951 265.341 119.844 265.379 119.76 265.449C119.676 265.519 119.62 265.617 119.602 265.725L118.702 270.622C118.682 270.743 118.687 270.867 118.72 270.985C118.752 271.103 118.81 271.213 118.89 271.306C118.969 271.399 119.068 271.473 119.18 271.524C119.291 271.574 119.413 271.599 119.535 271.598C121.702 271.56 124.83 271.433 127.56 271.433C130.755 271.433 133.515 271.612 137.257 271.612C139.507 271.612 140.055 269.363 139.102 269.115C134.752 268.17 131.227 268.073 127.417 265.778C127.014 265.509 126.544 265.358 126.06 265.343Z" fill="#4F4F4F"/>
<path d="M96.5549 77.925C91.4324 79.11 86.0549 93.1875 86.0549 93.1875L96.6974 100.298C99.1408 96.5928 101.283 92.6977 103.102 88.65C105.915 82.2075 101.782 76.7175 96.5549 77.925Z" fill="#4A90E2"/>
<path opacity="0.7" d="M96.5549 77.925C91.4324 79.11 86.0549 93.1875 86.0549 93.1875L96.6974 100.298C99.1408 96.5928 101.283 92.6977 103.102 88.65C105.915 82.2075 101.782 76.7175 96.5549 77.925Z" fill="#161616"/>
<path d="M100.597 86.9025L96.1949 99.96L96.6974 100.298C96.6974 100.298 98.7075 97.2975 100.845 93.3L100.597 86.9025Z" fill="#4A90E2"/>
<path opacity="0.8" d="M100.597 86.9025L96.1949 99.96L96.6974 100.298C96.6974 100.298 98.7075 97.2975 100.845 93.3L100.597 86.9025Z" fill="#161616"/>
<path d="M130.928 102.54C130.883 108.69 130.515 116.34 129.6 125.835H100.125C99.7425 121.335 101.738 99.24 96.5551 77.925C99.7969 77.2966 103.076 76.8807 106.373 76.68C110.544 76.4398 114.726 76.4398 118.898 76.68C121.774 76.9597 124.625 77.4612 127.425 78.18C127.425 78.18 129.945 80.91 130.71 93.7125C130.86 96.27 130.943 99.18 130.928 102.54Z" fill="#4A90E2"/>
<path opacity="0.7" d="M130.928 102.54C130.883 108.69 130.515 116.34 129.6 125.835H100.125C99.7425 121.335 101.738 99.24 96.5551 77.925C99.7969 77.2966 103.076 76.8807 106.373 76.68C110.544 76.4398 114.726 76.4398 118.898 76.68C121.774 76.9597 124.625 77.4612 127.425 78.18C127.425 78.18 129.945 80.91 130.71 93.7125C130.86 96.27 130.943 99.18 130.928 102.54Z" fill="#161616"/>
<path d="M130.927 102.54C129.142 99.285 125.902 92.7525 126.36 89.04L130.71 93.75C130.86 96.27 130.942 99.18 130.927 102.54Z" fill="#4A90E2"/>
<path opacity="0.8" d="M130.927 102.54C129.142 99.285 125.902 92.7525 126.36 89.04L130.71 93.75C130.86 96.27 130.942 99.18 130.927 102.54Z" fill="#161616"/>
<path d="M121.65 83.19C121.185 88.44 133.087 101.07 133.087 101.07L142.627 93.3C140.129 89.0835 137.135 85.1808 133.71 81.675C128.13 76.2825 122.175 77.31 121.65 83.19Z" fill="#4A90E2"/>
<path opacity="0.7" d="M121.65 83.19C121.185 88.44 133.087 101.07 133.087 101.07L142.627 93.3C140.129 89.0835 137.135 85.1808 133.71 81.675C128.13 76.2825 122.175 77.31 121.65 83.19Z" fill="#161616"/>
<path d="M126.173 253.23L126.143 259.8H120.638L120.66 253.23H126.173Z" fill="#CE6F64"/>
<path d="M89.8049 253.23H95.3174L94.1399 259.8H88.6274L89.8049 253.23Z" fill="#CE6F64"/>
<path d="M108.75 56.3625C107.948 61.7925 107.205 64.9125 109.29 68.3625C109.953 69.4797 110.909 70.3943 112.054 71.0071C113.2 71.6198 114.491 71.9074 115.788 71.8387C117.085 71.7699 118.339 71.3474 119.413 70.617C120.488 69.8866 121.342 68.8761 121.883 67.695C124.035 63.195 124.995 55.065 120.263 51.63C119.264 50.8589 118.08 50.3644 116.83 50.1961C115.579 50.0279 114.306 50.1918 113.14 50.6715C111.973 51.1512 110.953 51.9297 110.182 52.9287C109.412 53.9277 108.918 55.112 108.75 56.3625Z" fill="#E4897B"/>
<path d="M125.063 53.79C123.439 54.6765 121.653 55.225 119.813 55.4025C118.44 61.68 114.788 68.9025 108.878 66.825C106.628 66.075 104.378 60.6225 104.145 55.785C103.755 56.2575 103.493 56.8725 103.29 57.1275C102.953 54.9776 103.196 52.7767 103.995 50.7525C105.63 46.1175 106.718 49.1925 108.495 46.38C109.643 44.52 111.683 43.56 115.245 43.44C114.248 43.9575 114.06 44.79 115.538 44.67C117.015 44.55 123.323 44.205 126.998 46.6875C124.515 47.25 126.03 51.1875 129.345 49.0875C128.138 51.045 126.638 52.905 125.063 53.79Z" fill="#4F4F4F"/>
<path d="M115.568 59.7225C115.589 61.1034 116.051 62.4412 116.888 63.54C118.005 64.98 119.288 64.29 119.595 62.67C119.865 61.23 119.595 58.74 118.2 57.87C116.805 57 115.56 58.0725 115.568 59.7225Z" fill="#E4897B"/>
<path d="M108.847 46.965C108.099 46.9176 107.373 46.6877 106.734 46.2955C106.095 45.9034 105.561 45.3608 105.18 44.715C105.18 44.715 105.082 49.11 108.847 46.965Z" fill="#1E2A4C"/>
<path d="M119.138 125.835C119.138 125.835 114.518 167.94 111.69 183.712C108.6 200.962 96.6901 258.532 96.6901 258.532H86.5651C86.5651 258.532 93.7501 202.38 95.2501 185.25C96.8626 166.687 100.155 125.805 100.155 125.805L119.138 125.835Z" fill="#4A90E2"/>
<path opacity="0.6" d="M119.138 125.835C119.138 125.835 114.518 167.94 111.69 183.712C108.6 200.962 96.6901 258.532 96.6901 258.532H86.5651C86.5651 258.532 93.7501 202.38 95.2501 185.25C96.8626 166.687 100.155 125.805 100.155 125.805L119.138 125.835Z" fill="#FAFAFA"/>
<path d="M98.1224 254.812C98.1674 254.812 97.2299 258.69 97.2299 258.69H85.8824L85.9574 255.232L98.1224 254.812Z" fill="#4A90E2"/>
<path opacity="0.1" d="M98.1224 254.812C98.1674 254.812 97.2299 258.69 97.2299 258.69H85.8824L85.9574 255.232L98.1224 254.812Z" fill="#FAFAFA"/>
<path d="M115.77 140.835C108.593 142.252 110.4 169.215 111.803 183.082C113.513 173.28 115.838 154.417 117.405 141.03C116.898 140.783 116.322 140.714 115.77 140.835Z" fill="#4A90E2"/>
<path opacity="0.4" d="M115.77 140.835C108.593 142.252 110.4 169.215 111.803 183.082C113.513 173.28 115.838 154.417 117.405 141.03C116.898 140.783 116.322 140.714 115.77 140.835Z" fill="#FAFAFA"/>
<path d="M129.593 125.835C129.593 125.835 131.948 167.025 131.993 183.833C132.045 201.308 128.153 258.533 128.153 258.533H118.815C118.815 258.533 116.303 202.328 115.223 185.168C114.053 166.455 110.22 125.835 110.22 125.835H129.593Z" fill="#4A90E2"/>
<path opacity="0.6" d="M129.593 125.835C129.593 125.835 131.948 167.025 131.993 183.833C132.045 201.308 128.153 258.533 128.153 258.533H118.815C118.815 258.533 116.303 202.328 115.223 185.168C114.053 166.455 110.22 125.835 110.22 125.835H129.593Z" fill="#FAFAFA"/>
<path d="M131.85 120.54L129.232 120.75C129.019 120.768 128.813 120.833 128.628 120.941C128.443 121.049 128.284 121.196 128.164 121.373C128.043 121.55 127.963 121.751 127.93 121.962C127.897 122.174 127.912 122.39 127.972 122.595L129.052 126.232C129.144 126.528 129.305 126.797 129.522 127.017C129.74 127.237 130.007 127.401 130.302 127.495C130.597 127.589 130.91 127.611 131.214 127.558C131.519 127.506 131.807 127.38 132.052 127.192C133.405 125.934 134.374 124.32 134.85 122.535L131.85 120.54Z" fill="#E4897B"/>
<path d="M125.94 251.828C125.915 251.824 125.892 251.811 125.875 251.792C125.859 251.773 125.85 251.748 125.85 251.723C126.885 235.89 129.285 197.573 129.24 183.833C129.24 169.77 127.53 138.315 126.99 129.008C126.989 128.995 126.99 128.983 126.995 128.971C126.999 128.959 127.005 128.948 127.014 128.939C127.022 128.93 127.032 128.923 127.044 128.918C127.055 128.913 127.068 128.91 127.08 128.91C127.105 128.91 127.128 128.919 127.146 128.936C127.164 128.953 127.176 128.975 127.177 129C127.687 138.308 129.36 169.763 129.427 183.833C129.472 197.58 127.072 235.898 126.037 251.738C126.038 251.75 126.035 251.762 126.03 251.774C126.025 251.785 126.018 251.796 126.009 251.804C125.999 251.812 125.989 251.819 125.977 251.823C125.965 251.827 125.952 251.829 125.94 251.828Z" fill="#4A90E2"/>
<path opacity="0.3" d="M125.94 251.828C125.915 251.824 125.892 251.811 125.875 251.792C125.859 251.773 125.85 251.748 125.85 251.723C126.885 235.89 129.285 197.573 129.24 183.833C129.24 169.77 127.53 138.315 126.99 129.008C126.989 128.995 126.99 128.983 126.995 128.971C126.999 128.959 127.005 128.948 127.014 128.939C127.022 128.93 127.032 128.923 127.044 128.918C127.055 128.913 127.068 128.91 127.08 128.91C127.105 128.91 127.128 128.919 127.146 128.936C127.164 128.953 127.176 128.975 127.177 129C127.687 138.308 129.36 169.763 129.427 183.833C129.472 197.58 127.072 235.898 126.037 251.738C126.038 251.75 126.035 251.762 126.03 251.774C126.025 251.785 126.018 251.796 126.009 251.804C125.999 251.812 125.989 251.819 125.977 251.823C125.965 251.827 125.952 251.829 125.94 251.828Z" fill="#FAFAFA"/>
<path d="M129.803 254.812C129.848 254.812 129.428 258.69 129.428 258.69H118.073L117.63 255.232L129.803 254.812Z" fill="#4A90E2"/>
<path opacity="0.1" d="M129.803 254.812C129.848 254.812 129.428 258.69 129.428 258.69H118.073L117.63 255.232L129.803 254.812Z" fill="#FAFAFA"/>
</svg>
