<svg width="374" height="280" viewBox="0 0 374 280" fill="none" xmlns="http://www.w3.org/2000/svg">
<path d="M374 245.578H0V245.765H374V245.578Z" fill="#EBEBEB"/>
<path d="M336.526 257.614H311.752V257.801H336.526V257.614Z" fill="#EBEBEB"/>
<path d="M247.752 259.648H241.252V259.835H247.752V259.648Z" fill="#EBEBEB"/>
<path d="M311.003 250.672H296.649V250.859H311.003V250.672Z" fill="#EBEBEB"/>
<path d="M71.5464 251.929H39.2403V252.116H71.5464V251.929Z" fill="#EBEBEB"/>
<path d="M82.9459 251.929H78.211V252.116H82.9459V251.929Z" fill="#EBEBEB"/>
<path d="M168.412 255.085H98.3394V255.272H168.412V255.085Z" fill="#EBEBEB"/>
<path d="M177.276 212.218H32.8448C31.7133 212.216 30.6289 211.765 29.8295 210.964C29.0301 210.163 28.5812 209.078 28.5812 207.947V4.91685C28.591 3.79187 29.0443 2.71621 29.8426 1.92351C30.6409 1.13081 31.7198 0.685094 32.8448 0.683167H177.276C178.409 0.683167 179.495 1.13315 180.296 1.93414C181.097 2.73512 181.547 3.82149 181.547 4.95425V207.947C181.547 209.079 181.097 210.166 180.296 210.967C179.495 211.768 178.409 212.218 177.276 212.218ZM32.8448 0.832767C31.7629 0.834749 30.726 1.26591 29.9617 2.03161C29.1974 2.79731 28.7682 3.83498 28.7682 4.91685V207.947C28.7682 209.028 29.1974 210.066 29.9617 210.832C30.726 211.597 31.7629 212.029 32.8448 212.031H177.276C178.359 212.029 179.396 211.598 180.162 210.832C180.927 210.067 181.358 209.029 181.36 207.947V4.91685C181.358 3.83429 180.927 2.79664 180.162 2.03115C179.396 1.26566 178.359 0.834744 177.276 0.832767H32.8448Z" fill="#EBEBEB"/>
<path d="M339.076 212.218H194.637C193.505 212.216 192.42 211.765 191.619 210.964C190.818 210.164 190.368 209.079 190.366 207.947V4.91685C190.378 3.79119 190.833 2.71554 191.632 1.92305C192.432 1.13055 193.511 0.685073 194.637 0.683167H339.076C340.199 0.687059 341.276 1.13365 342.073 1.92614C342.87 2.71863 343.322 3.79317 343.332 4.91685V207.947C343.332 209.077 342.884 210.161 342.086 210.961C341.288 211.762 340.206 212.214 339.076 212.218ZM194.637 0.832767C193.554 0.834744 192.517 1.26566 191.751 2.03115C190.986 2.79664 190.555 3.83429 190.553 4.91685V207.947C190.555 209.029 190.986 210.067 191.751 210.832C192.517 211.598 193.554 212.029 194.637 212.031H339.076C340.158 212.029 341.196 211.598 341.961 210.832C342.727 210.067 343.158 209.029 343.16 207.947V4.91685C343.158 3.83429 342.727 2.79664 341.961 2.03115C341.196 1.26566 340.158 0.834744 339.076 0.832767H194.637Z" fill="#EBEBEB"/>
<path d="M329.973 245.174V208.283H312.948V174.077H310.547V193.682H304.002V188.259H292.214V169.492H290.029V146.543H288.287V169.073H284.143V202.449H276.281V169.073H262.092V197.295H247.199V163.089H244.798V182.694H238.253V177.271H226.464V158.496H224.28V135.555H222.537V158.077H218.386V191.453H210.532V158.077H196.342V190.361H186.775V171.594H184.591V148.645H182.848V171.175H178.705V204.551H170.843V171.175H156.661V204.551H149.675V208.283H137.437V174.077H135.036V193.682H128.491V188.259H116.703V169.492H114.519V146.543H112.776V169.073H108.969V167.195H94.779V169.073H86.925V167.195H82.7736V144.666H81.0307V167.607H78.8466V186.382H67.0656V191.805H60.5131V172.2H58.112V206.406H41.0875V245.174H329.973Z" fill="#E0E0E0"/>
<path d="M118.053 73.532C128.659 69.1387 133.696 56.979 129.303 46.3726C124.909 35.7662 112.749 30.7294 102.143 35.1228C91.5367 39.5161 86.5 51.6758 90.8933 62.2822C95.2866 72.8886 107.446 77.9253 118.053 73.532Z" fill="#FAFAFA"/>
<path d="M99.3193 54.0979C99.3193 53.1397 98.9387 52.2208 98.2611 51.5432C97.5836 50.8657 96.6646 50.485 95.7065 50.485C95.3545 50.4849 95.0044 50.5353 94.6667 50.6346C94.8282 49.5475 94.7531 48.4383 94.4466 47.3829C94.1401 46.3274 93.6094 45.3505 92.8908 44.519C92.1721 43.6874 91.2825 43.0207 90.2826 42.5645C89.2826 42.1083 88.196 41.8733 87.097 41.8756C86.625 41.8748 86.154 41.9199 85.6907 42.0102C84.9343 40.7765 83.798 39.8216 82.4526 39.2886C81.1072 38.7557 79.6252 38.6736 78.2292 39.0547C76.8331 39.4357 75.5984 40.2593 74.7103 41.4019C73.8222 42.5444 73.3287 43.9443 73.3039 45.3912H73.1917C71.557 45.3912 69.9893 46.0405 68.8334 47.1964C67.6775 48.3523 67.0281 49.92 67.0281 51.5547C67.0281 53.1894 67.6775 54.7571 68.8334 55.913C69.9893 57.0688 71.557 57.7182 73.1917 57.7182H95.8187C96.7592 57.6909 97.6518 57.297 98.3058 56.6205C98.9599 55.9441 99.3236 55.0388 99.3193 54.0979Z" fill="#F0F0F0"/>
<path d="M330.145 110.938C330.15 110.374 330.021 109.816 329.771 109.311C329.52 108.805 329.153 108.366 328.701 108.029C328.248 107.691 327.722 107.465 327.166 107.369C326.61 107.273 326.039 107.309 325.5 107.475C325.553 107.109 325.581 106.739 325.582 106.368C325.582 105.361 325.383 104.363 324.997 103.433C324.61 102.502 324.044 101.658 323.33 100.947C322.616 100.236 321.769 99.6727 320.837 99.2899C319.906 98.9071 318.907 98.7121 317.9 98.716C317.426 98.7162 316.953 98.7587 316.486 98.8432C315.733 97.6026 314.596 96.6409 313.248 96.1033C311.899 95.5657 310.413 95.4814 309.012 95.8632C307.612 96.245 306.373 97.0721 305.485 98.2196C304.596 99.3671 304.104 100.773 304.084 102.224H303.98C302.345 102.224 300.777 102.874 299.621 104.029C298.466 105.185 297.816 106.753 297.816 108.388C297.816 110.022 298.466 111.59 299.621 112.746C300.777 113.902 302.345 114.551 303.98 114.551H326.607C327.553 114.534 328.453 114.145 329.115 113.469C329.777 112.793 330.147 111.884 330.145 110.938Z" fill="#F0F0F0"/>
<path d="M209.073 67.7638C209.075 66.2475 209.679 64.7939 210.752 63.7224C211.825 62.6509 213.279 62.0491 214.796 62.0491C215.35 62.0478 215.902 62.1284 216.434 62.2885C216.35 61.7088 216.307 61.1239 216.307 60.5381C216.307 57.3276 217.581 54.2485 219.851 51.9776C222.12 49.7068 225.199 48.43 228.409 48.428C229.162 48.4287 229.913 48.4988 230.653 48.6375C231.844 46.673 233.643 45.1498 235.776 44.2981C237.91 43.4464 240.263 43.3125 242.479 43.9166C244.695 44.5208 246.655 45.8302 248.061 47.6468C249.467 49.4635 250.244 51.6885 250.273 53.9857H250.445C253.031 53.9857 255.511 55.0129 257.34 56.8414C259.168 58.6699 260.196 61.1499 260.196 63.7358C260.196 66.3217 259.168 68.8017 257.34 70.6302C255.511 72.4588 253.031 73.486 250.445 73.486H214.631C213.141 73.4469 211.725 72.8264 210.687 71.7571C209.648 70.6877 209.069 69.2545 209.073 67.7638Z" fill="#F0F0F0"/>
<path d="M106.425 116.84C106.424 115.767 106.674 114.709 107.155 113.75C107.636 112.791 108.335 111.958 109.196 111.318C110.057 110.677 111.055 110.247 112.112 110.062C113.169 109.876 114.254 109.941 115.282 110.25C115.176 109.552 115.124 108.847 115.125 108.141C115.125 104.276 116.66 100.57 119.392 97.8376C122.125 95.105 125.831 93.5699 129.696 93.5699C130.594 93.5708 131.491 93.656 132.373 93.8242C133.8 91.45 135.964 89.6067 138.534 88.5746C141.105 87.5424 143.942 87.3778 146.615 88.1059C149.287 88.8339 151.649 90.4148 153.341 92.6081C155.033 94.8014 155.962 97.4871 155.988 100.257H156.197C159.31 100.257 162.295 101.493 164.496 103.694C166.697 105.895 167.933 108.881 167.933 111.993C167.933 115.106 166.697 118.091 164.496 120.292C162.295 122.493 159.31 123.729 156.197 123.729H113.105C111.313 123.68 109.61 122.932 108.362 121.645C107.114 120.358 106.419 118.633 106.425 116.84Z" fill="#F0F0F0"/>
<path d="M144.656 64.9214C144.656 64.3263 144.419 63.7555 143.998 63.3347C143.578 62.9139 143.007 62.6774 142.412 62.6774C142.194 62.6768 141.977 62.7071 141.768 62.7672C141.805 62.5397 141.822 62.3095 141.821 62.079C141.821 60.8173 141.319 59.6073 140.427 58.7151C139.535 57.823 138.325 57.3218 137.063 57.3218C136.77 57.3225 136.477 57.35 136.188 57.404C135.719 56.6331 135.013 56.0355 134.174 55.7015C133.336 55.3675 132.412 55.3152 131.541 55.5524C130.671 55.7897 129.901 56.3037 129.348 57.0169C128.795 57.73 128.489 58.6037 128.476 59.5059H128.409C127.393 59.5059 126.419 59.9094 125.701 60.6276C124.983 61.3459 124.579 62.32 124.579 63.3357C124.579 64.3514 124.983 65.3255 125.701 66.0437C126.419 66.762 127.393 67.1654 128.409 67.1654H142.479C143.062 67.1479 143.616 66.9038 144.022 66.4849C144.429 66.0659 144.656 65.5051 144.656 64.9214Z" fill="#F0F0F0"/>
<path d="M295.235 40.6862C295.235 40.0911 295.472 39.5203 295.893 39.0995C296.313 38.6786 296.884 38.4422 297.479 38.4422C297.697 38.4408 297.914 38.471 298.123 38.532C298.093 38.3038 298.078 38.0739 298.078 37.8438C298.078 36.5821 298.579 35.3721 299.471 34.4799C300.363 33.5878 301.573 33.0865 302.835 33.0865C303.129 33.0873 303.422 33.1148 303.71 33.1688C304.177 32.396 304.883 31.7964 305.722 31.4611C306.56 31.1257 307.485 31.0729 308.356 31.3106C309.227 31.5482 309.997 32.0634 310.549 32.778C311.101 33.4927 311.405 34.3678 311.415 35.2707H311.489C312.505 35.2707 313.479 35.6742 314.197 36.3924C314.916 37.1106 315.319 38.0847 315.319 39.1005C315.319 40.1162 314.916 41.0903 314.197 41.8085C313.479 42.5267 312.505 42.9302 311.489 42.9302H297.419C296.835 42.9146 296.279 42.6713 295.871 42.2522C295.463 41.833 295.235 41.2711 295.235 40.6862Z" fill="#F0F0F0"/>
<path d="M187 279.358C267.098 279.358 332.03 275.567 332.03 270.891C332.03 266.214 267.098 262.423 187 262.423C106.902 262.423 41.9703 266.214 41.9703 270.891C41.9703 275.567 106.902 279.358 187 279.358Z" fill="#F5F5F5"/>
<path d="M81.2848 258.818C81.2848 258.818 79.6991 253.5 82.908 252.438C86.1169 251.375 88.0243 248.892 87.9196 246.087C87.8149 243.282 91.1883 240.537 93.7241 243.17C96.2598 245.803 95.9157 241.143 99.2967 240.013C102.678 238.884 105.542 241.629 104.615 244.142C103.687 246.656 107.023 248.219 111.018 246.087C115.012 243.955 119.403 247.837 118.558 250.874C117.712 253.911 118.408 254.255 120.929 253.238C123.45 252.221 127.975 255.101 126.397 258.818C124.818 262.536 81.2848 258.818 81.2848 258.818Z" fill="#4A90E2"/>
<path opacity="0.4" d="M81.2848 258.818C81.2848 258.818 79.6991 253.5 82.908 252.438C86.1169 251.375 88.0243 248.892 87.9196 246.087C87.8149 243.282 91.1883 240.537 93.7241 243.17C96.2598 245.803 95.9157 241.143 99.2967 240.013C102.678 238.884 105.542 241.629 104.615 244.142C103.687 246.656 107.023 248.219 111.018 246.087C115.012 243.955 119.403 247.837 118.558 250.874C117.712 253.911 118.408 254.255 120.929 253.238C123.45 252.221 127.975 255.101 126.397 258.818C124.818 262.536 81.2848 258.818 81.2848 258.818Z" fill="black"/>
<path d="M234.505 259.805C231.655 257.876 234.221 254.569 237.071 254.203C239.92 253.836 242.785 250.411 242.92 248.219C243.055 246.027 248.156 239.393 256.167 243.507C264.178 247.621 261.717 244.112 267.492 242.953C273.266 241.794 276.909 245.122 274.373 247.613C274.373 247.613 280.17 246.633 282.564 250.306C284.958 253.979 282.564 256.29 282.564 256.29C282.564 256.29 293.47 256.065 292.49 260.643C291.51 265.221 234.505 259.805 234.505 259.805Z" fill="#4A90E2"/>
<path opacity="0.4" d="M234.505 259.805C231.655 257.876 234.221 254.569 237.071 254.203C239.92 253.836 242.785 250.411 242.92 248.219C243.055 246.027 248.156 239.393 256.167 243.507C264.178 247.621 261.717 244.112 267.492 242.953C273.266 241.794 276.909 245.122 274.373 247.613C274.373 247.613 280.17 246.633 282.564 250.306C284.958 253.979 282.564 256.29 282.564 256.29C282.564 256.29 293.47 256.065 292.49 260.643C291.51 265.221 234.505 259.805 234.505 259.805Z" fill="black"/>
<path d="M76.8865 258.137V265.946H296.956V258.137C296.972 257.823 296.924 257.51 296.816 257.214C296.708 256.919 296.541 256.649 296.326 256.42C296.111 256.191 295.852 256.008 295.564 255.881C295.276 255.755 294.966 255.688 294.652 255.684H79.2278C78.91 255.681 78.5951 255.744 78.3025 255.868C78.0099 255.992 77.7457 256.174 77.5264 256.404C77.307 256.634 77.1371 256.906 77.027 257.204C76.917 257.503 76.8692 257.82 76.8865 258.137Z" fill="#4F4F4F"/>
<path d="M284.374 255.684H270.693V265.946H284.374V255.684Z" fill="#4A90E2"/>
<path d="M258.157 255.684H245.044V265.946H258.157V255.684Z" fill="#4A90E2"/>
<path d="M232.5 255.684H218.819V265.946H232.5V255.684Z" fill="#4A90E2"/>
<path d="M206.283 255.684H193.17V265.946H206.283V255.684Z" fill="#4A90E2"/>
<path d="M180.634 255.684H167.522V265.946H180.634V255.684Z" fill="#4A90E2"/>
<path d="M154.978 255.684H141.297V265.946H154.978V255.684Z" fill="#4A90E2"/>
<path d="M128.76 255.684H115.648V265.946H128.76V255.684Z" fill="#4A90E2"/>
<path d="M103.104 255.684H89.4231V265.946H103.104V255.684Z" fill="#4A90E2"/>
<g opacity="0.6">
<path d="M284.374 255.684H270.693V265.946H284.374V255.684Z" fill="#F4F4F4"/>
<path d="M258.157 255.684H245.045V265.946H258.157V255.684Z" fill="#F4F4F4"/>
<path d="M232.501 255.684H218.82V265.946H232.501V255.684Z" fill="#F4F4F4"/>
<path d="M206.283 255.684H193.171V265.946H206.283V255.684Z" fill="#F4F4F4"/>
<path d="M180.634 255.684H167.522V265.946H180.634V255.684Z" fill="#F4F4F4"/>
<path d="M154.978 255.684H141.297V265.946H154.978V255.684Z" fill="#F4F4F4"/>
<path d="M128.761 255.684H115.648V265.946H128.761V255.684Z" fill="#F4F4F4"/>
<path d="M103.104 255.684H89.4231V265.946H103.104V255.684Z" fill="#F4F4F4"/>
</g>
<path opacity="0.4" d="M76.8865 258.137V265.946H296.956V258.137C296.972 257.823 296.924 257.51 296.816 257.214C296.708 256.919 296.541 256.649 296.326 256.42C296.111 256.191 295.852 256.008 295.564 255.881C295.276 255.755 294.966 255.688 294.652 255.684H79.2278C78.91 255.681 78.5951 255.744 78.3025 255.868C78.0099 255.992 77.7457 256.174 77.5264 256.404C77.307 256.634 77.1371 256.906 77.027 257.204C76.917 257.503 76.8692 257.82 76.8865 258.137Z" fill="#F4F4F4"/>
<path d="M296.357 16.2043V231.628C296.358 232.046 296.276 232.46 296.116 232.845C295.955 233.231 295.719 233.58 295.421 233.873C295.124 234.167 294.771 234.398 294.384 234.553C293.996 234.708 293.581 234.784 293.163 234.777H192.931C192.56 234.783 192.192 234.714 191.848 234.575C191.504 234.437 191.19 234.231 190.927 233.97C190.642 233.69 190.418 233.354 190.27 232.983C190.121 232.612 190.052 232.214 190.067 231.815V15.9425C190.054 15.6085 190.107 15.2751 190.222 14.9616C190.338 14.648 190.515 14.3604 190.742 14.1152C190.969 13.8699 191.243 13.6719 191.546 13.5324C191.85 13.3929 192.179 13.3146 192.513 13.3021H220.981C221.38 13.3083 221.767 13.4334 222.093 13.6613C222.42 13.8892 222.671 14.2095 222.814 14.5811L223.996 17.4834C224.141 17.8522 224.393 18.1694 224.72 18.3945C225.046 18.6196 225.432 18.7425 225.828 18.7475H260.663C261.057 18.7473 261.443 18.6289 261.769 18.4076C262.096 18.1863 262.349 17.8722 262.495 17.5058L263.677 14.5886C263.822 14.2115 264.077 13.8869 264.41 13.6573C264.742 13.4277 265.136 13.3039 265.54 13.3021H293.597C294.345 13.3294 295.053 13.6483 295.569 14.1907C296.085 14.7331 296.368 15.4559 296.357 16.2043Z" fill="#4A90E2"/>
<path d="M292.618 16.2043V231.628C292.618 232.046 292.535 232.46 292.373 232.846C292.212 233.231 291.975 233.581 291.677 233.874C291.379 234.167 291.026 234.398 290.638 234.553C290.25 234.708 289.834 234.784 289.416 234.777H189.184C188.814 234.783 188.447 234.715 188.104 234.576C187.761 234.437 187.449 234.231 187.187 233.97C186.902 233.69 186.678 233.354 186.53 232.983C186.382 232.612 186.313 232.214 186.327 231.815V15.9425C186.313 15.6082 186.365 15.2745 186.481 14.9605C186.596 14.6465 186.773 14.3585 187 14.1131C187.228 13.8676 187.501 13.6696 187.806 13.5304C188.11 13.3912 188.439 13.3136 188.773 13.3021H217.234C217.633 13.3083 218.02 13.4334 218.346 13.6613C218.673 13.8892 218.924 14.2095 219.067 14.5811L220.249 17.4834C220.395 17.8516 220.647 18.1682 220.974 18.3932C221.3 18.6182 221.685 18.7415 222.081 18.7475H256.916C257.31 18.7473 257.696 18.6289 258.022 18.4076C258.349 18.1863 258.602 17.8722 258.748 17.5058L259.93 14.5886C260.076 14.2109 260.333 13.886 260.667 13.6565C261 13.4269 261.395 13.3034 261.8 13.3021H289.858C290.605 13.3312 291.312 13.6508 291.827 14.1928C292.343 14.7347 292.626 15.4564 292.618 16.2043Z" fill="#4A90E2"/>
<path opacity="0.4" d="M292.618 16.2043V231.628C292.618 232.046 292.535 232.46 292.373 232.846C292.212 233.231 291.975 233.581 291.677 233.874C291.379 234.167 291.026 234.398 290.638 234.553C290.25 234.708 289.834 234.784 289.417 234.777H189.185C188.815 234.783 188.447 234.715 188.104 234.576C187.761 234.437 187.449 234.231 187.187 233.97C186.901 233.691 186.676 233.355 186.528 232.984C186.379 232.613 186.311 232.215 186.327 231.815V15.9425C186.313 15.6082 186.365 15.2745 186.481 14.9605C186.597 14.6465 186.773 14.3585 187 14.1131C187.228 13.8676 187.501 13.6696 187.806 13.5304C188.11 13.3912 188.439 13.3136 188.773 13.3021H217.235C217.633 13.3083 218.02 13.4334 218.347 13.6613C218.673 13.8892 218.924 14.2095 219.067 14.5811L220.249 17.4834C220.395 17.8516 220.647 18.1682 220.974 18.3932C221.3 18.6182 221.685 18.7415 222.082 18.7475H256.916C257.31 18.7473 257.696 18.6289 258.023 18.4076C258.349 18.1863 258.602 17.8722 258.749 17.5058L259.93 14.5886C260.076 14.2109 260.333 13.886 260.667 13.6565C261 13.4269 261.395 13.3034 261.8 13.3021H289.858C290.605 13.3312 291.312 13.6508 291.827 14.1928C292.343 14.7347 292.626 15.4564 292.618 16.2043Z" fill="#F4F4F4"/>
<g opacity="0.1">
<path d="M234.124 18.7475L203.531 133.364L203.187 134.65L202.633 136.715L202.289 138.001L186.312 197.841V125.442L216.232 13.3021H217.204C217.602 13.3083 217.99 13.4334 218.316 13.6613C218.643 13.8892 218.894 14.2095 219.037 14.5811L220.219 17.4834C220.365 17.8516 220.617 18.1682 220.943 18.3932C221.27 18.6182 221.655 18.7415 222.051 18.7475H234.124Z" fill="#F4F4F4"/>
<path d="M292.617 77.286V149.722L273.528 221.209L273.064 222.944L269.915 234.74H250.58L253.729 222.952L254.237 221.059L256.758 211.582L257.267 209.689L258.284 205.905L258.785 204.005L259.795 200.22L260.296 198.327L276.206 138.742V138.734L276.947 135.982V135.974L292.617 77.286Z" fill="#F4F4F4"/>
<path d="M244.596 18.7476L214.212 132.653L214.025 133.334L212.365 139.572L212.185 140.253L187.179 233.932C186.899 233.657 186.678 233.327 186.531 232.963C186.384 232.599 186.315 232.208 186.327 231.815V220.827L207.832 140.253L208.019 139.572L209.679 133.334L209.866 132.653L240.272 18.7476H244.596Z" fill="#F4F4F4"/>
</g>
<path opacity="0.6" d="M199.544 21.9714H201.025V19.9967H199.544V21.9714Z" fill="#F4F4F4"/>
<path opacity="0.6" d="M197.12 21.9714H198.601V19.3385H197.12V21.9714Z" fill="#F4F4F4"/>
<path opacity="0.6" d="M194.711 21.9714H196.193V18.6802H194.711V21.9714Z" fill="#F4F4F4"/>
<path opacity="0.6" d="M192.303 21.9789H193.784V18.0295H192.303V21.9789Z" fill="#F4F4F4"/>
<path opacity="0.6" d="M279.041 19.2786H278.166V21.2533H279.041V19.2786Z" fill="#F4F4F4"/>
<path opacity="0.6" d="M279.647 21.9789H286.641V18.5606H279.647V21.9789Z" fill="#F4F4F4"/>
<path opacity="0.6" d="M274.097 42.4442H209.2C208.091 42.4442 207.028 42.0037 206.244 41.2195C205.459 40.4354 205.019 39.3718 205.019 38.2629C205.019 37.7141 205.127 37.1708 205.337 36.6639C205.548 36.157 205.856 35.6966 206.244 35.3089C206.632 34.9212 207.093 34.6139 207.601 34.4046C208.108 34.1953 208.652 34.0881 209.2 34.0891H274.097C274.646 34.0881 275.189 34.1953 275.696 34.4046C276.204 34.6139 276.665 34.9212 277.053 35.3089C277.441 35.6966 277.749 36.157 277.96 36.6639C278.17 37.1708 278.278 37.7141 278.278 38.2629C278.278 39.3718 277.838 40.4354 277.053 41.2195C276.269 42.0037 275.206 42.4442 274.097 42.4442Z" fill="#F4F4F4"/>
<path opacity="0.4" d="M286.641 65.7668H192.408V198.133H286.641V65.7668Z" fill="#F4F4F4"/>
<path opacity="0.6" d="M274.097 56.4319H209.2C208.652 56.4328 208.108 56.3256 207.601 56.1163C207.093 55.907 206.632 55.5997 206.244 55.212C205.856 54.8243 205.548 54.3639 205.337 53.857C205.127 53.3501 205.019 52.8068 205.019 52.258C205.019 51.7093 205.127 51.1659 205.337 50.659C205.548 50.1521 205.856 49.6917 206.244 49.304C206.632 48.9163 207.093 48.6091 207.601 48.3997C208.108 48.1904 208.652 48.0832 209.2 48.0842H274.097C274.647 48.0861 275.191 48.1968 275.698 48.4097C276.205 48.6227 276.665 48.9338 277.052 49.3252C277.438 49.7165 277.744 50.1804 277.95 50.6901C278.157 51.1999 278.261 51.7454 278.256 52.2954C278.246 53.3933 277.804 54.4431 277.025 55.2174C276.247 55.9916 275.195 56.428 274.097 56.4319Z" fill="#F4F4F4"/>
<path d="M199.948 49.3033C199.347 48.7036 198.534 48.3667 197.685 48.3667C196.836 48.3667 196.023 48.7036 195.422 49.3033C194.834 49.902 194.504 50.7079 194.504 51.5473C194.504 52.3868 194.834 53.1926 195.422 53.7913L197.666 56.0353L199.91 53.7913C200.504 53.1975 200.84 52.3944 200.847 51.555C200.854 50.7155 200.531 49.9069 199.948 49.3033ZM198.691 52.5721C198.492 52.7705 198.239 52.9056 197.963 52.9601C197.688 53.0147 197.402 52.9864 197.143 52.8787C196.883 52.7711 196.661 52.5889 196.505 52.3553C196.349 52.1216 196.266 51.847 196.266 51.566C196.266 51.2851 196.349 51.0104 196.505 50.7768C196.661 50.5431 196.883 50.361 197.143 50.2533C197.402 50.1456 197.688 50.1173 197.963 50.1719C198.239 50.2265 198.492 50.3615 198.691 50.56C198.827 50.693 198.935 50.8518 199.009 51.0272C199.082 51.2025 199.12 51.3908 199.12 51.581C199.12 51.7712 199.082 51.9595 199.009 52.1348C198.935 52.3101 198.827 52.469 198.691 52.602V52.5721Z" fill="#4A90E2"/>
<path d="M212.94 69.2375C212.644 68.9388 212.292 68.7016 211.903 68.5398C211.515 68.378 211.098 68.2947 210.678 68.2947C210.257 68.2947 209.84 68.378 209.452 68.5398C209.064 68.7016 208.711 68.9388 208.415 69.2375C207.825 69.8353 207.494 70.6415 207.494 71.4815C207.494 72.3216 207.825 73.1278 208.415 73.7255L210.659 75.9695L212.903 73.7255C213.498 73.1327 213.836 72.3292 213.843 71.4892C213.85 70.6492 213.525 69.8402 212.94 69.2375ZM211.684 72.4913C211.484 72.6913 211.229 72.8274 210.952 72.8827C210.675 72.9379 210.388 72.9097 210.126 72.8016C209.865 72.6935 209.642 72.5104 209.485 72.2754C209.328 72.0404 209.244 71.7641 209.244 71.4815C209.244 71.1989 209.328 70.9227 209.485 70.6877C209.642 70.4527 209.865 70.2696 210.126 70.1615C210.388 70.0534 210.675 70.0252 210.952 70.0804C211.229 70.1356 211.484 70.2718 211.684 70.4717C211.951 70.7396 212.102 71.1028 212.102 71.4815C212.102 71.8602 211.951 72.2234 211.684 72.4913Z" fill="#4A90E2"/>
<path d="M197.689 34.7173C196.986 34.7173 196.298 34.9259 195.714 35.3167C195.129 35.7074 194.674 36.2627 194.405 36.9124C194.137 37.5621 194.067 38.2768 194.204 38.9663C194.342 39.6557 194.681 40.2887 195.179 40.7853C195.676 41.2819 196.31 41.6197 197 41.756C197.69 41.8922 198.404 41.8208 199.053 41.5507C199.702 41.2807 200.257 40.8241 200.646 40.2388C201.036 39.6536 201.243 38.9659 201.242 38.2629C201.24 37.3218 200.864 36.42 200.198 35.7553C199.532 35.0906 198.63 34.7173 197.689 34.7173ZM197.689 40.5742C197.231 40.5757 196.783 40.4414 196.402 40.1883C196.021 39.9352 195.724 39.5748 195.548 39.1526C195.372 38.7304 195.325 38.2654 195.413 37.8166C195.502 37.3677 195.721 36.9552 196.044 36.6312C196.367 36.3072 196.779 36.0863 197.227 35.9965C197.676 35.9067 198.141 35.9521 198.564 36.1268C198.987 36.3015 199.348 36.5977 199.602 36.978C199.857 37.3582 199.992 37.8054 199.992 38.2629C199.993 38.566 199.934 38.8664 199.819 39.1468C199.704 39.4272 199.534 39.682 199.32 39.8968C199.106 40.1115 198.852 40.2819 198.572 40.3981C198.292 40.5144 197.992 40.5742 197.689 40.5742Z" fill="#4A90E2"/>
<path d="M199.095 38.2628C199.095 38.5409 199.012 38.8128 198.858 39.0441C198.703 39.2753 198.484 39.4556 198.227 39.562C197.97 39.6684 197.687 39.6963 197.414 39.642C197.141 39.5878 196.891 39.4538 196.694 39.2572C196.498 39.0605 196.364 38.8099 196.309 38.5372C196.255 38.2644 196.283 37.9816 196.389 37.7247C196.496 37.4677 196.676 37.2481 196.907 37.0936C197.139 36.939 197.41 36.8566 197.689 36.8566C198.062 36.8566 198.419 37.0047 198.683 37.2684C198.947 37.5322 199.095 37.8898 199.095 38.2628Z" fill="#4A90E2"/>
<path d="M264.986 176.164C264.283 176.164 263.596 176.373 263.012 176.763C262.428 177.153 261.973 177.708 261.704 178.358C261.435 179.007 261.364 179.721 261.501 180.41C261.638 181.1 261.977 181.733 262.474 182.23C262.971 182.726 263.604 183.065 264.293 183.202C264.982 183.339 265.697 183.269 266.346 183C266.995 182.731 267.55 182.275 267.94 181.691C268.331 181.107 268.539 180.42 268.539 179.717C268.539 178.775 268.165 177.871 267.498 177.205C266.832 176.539 265.928 176.164 264.986 176.164ZM264.986 182.029C264.529 182.029 264.082 181.893 263.702 181.639C263.322 181.385 263.026 181.024 262.851 180.602C262.676 180.179 262.63 179.715 262.719 179.266C262.808 178.818 263.029 178.406 263.352 178.083C263.675 177.76 264.087 177.539 264.535 177.45C264.984 177.361 265.448 177.407 265.871 177.582C266.293 177.757 266.654 178.053 266.908 178.433C267.162 178.813 267.297 179.26 267.297 179.717C267.297 180.33 267.054 180.918 266.62 181.352C266.187 181.785 265.599 182.029 264.986 182.029Z" fill="#4A90E2"/>
<path d="M266.392 179.717C266.392 179.995 266.31 180.267 266.155 180.498C266.001 180.73 265.781 180.91 265.524 181.016C265.267 181.123 264.985 181.151 264.712 181.096C264.439 181.042 264.188 180.908 263.992 180.712C263.795 180.515 263.661 180.264 263.607 179.991C263.553 179.719 263.581 179.436 263.687 179.179C263.793 178.922 263.974 178.702 264.205 178.548C264.436 178.393 264.708 178.311 264.986 178.311C265.359 178.311 265.717 178.459 265.981 178.723C266.244 178.987 266.392 179.344 266.392 179.717Z" fill="#4A90E2"/>
<path opacity="0.2" d="M286.641 88.0123V80.7716L264.477 101.948L241.065 93.8691L255.733 65.7593H249.832L243.578 77.7273L198.22 65.7593H192.423V69.6489L209.492 74.1369L195.639 99.4193L228.14 107.341L224.28 114.731L192.408 106.45V111.866L221.782 119.496L212.275 137.724L197.262 133.356L192.408 136.52V142.803L198.107 139.063L209.799 142.459L192.408 175.79V187.1L203.785 165.303L219.261 169.851V189.748L236.929 198.155H249.129L224.497 186.457V171.384L286.641 189.636V184.175L268.098 178.707L273.768 147.478L286.678 150.859V145.451L251.844 136.318L267.297 106.533L286.641 88.0123ZM203.508 95.9411L214.728 75.5356L241.117 82.507L230.645 102.561L203.508 95.9411ZM268.651 146.147L263.041 177.249L206.253 160.568L222.156 130.087L228.244 136.819L247.371 140.559L268.651 146.147ZM246.555 135.076L230.99 132.017L224.759 125.106L238.612 98.5591L261.411 106.428L246.555 135.076Z" fill="black"/>
<path opacity="0.4" d="M252.824 78.2285L245.344 92.6874L264.485 98.5592L275.047 87.6234C267.456 84.9433 260.035 81.8059 252.824 78.2285Z" fill="#F4F4F4"/>
<path opacity="0.4" d="M286.641 65.7593V75.6329L277.276 85.3569C270.978 83.1129 264.762 80.6894 258.711 77.8769C257.175 77.1688 255.656 76.4332 254.155 75.6703L259.257 65.7593H286.641Z" fill="#F4F4F4"/>
<path opacity="0.4" d="M239.524 101.753L257.297 107.745L248.41 126.34L230.369 120.543L239.524 101.753Z" fill="#F4F4F4"/>
<path opacity="0.4" d="M257.312 133.767C257.461 133.266 266.041 115.509 266.041 115.509L278.757 119.466L281.001 139.55L257.312 133.767Z" fill="#F4F4F4"/>
<path opacity="0.4" d="M231.281 161.309C231.55 161.084 237.452 142.893 237.452 142.893L264.986 147.74L260.401 172.028L231.281 161.309Z" fill="#F4F4F4"/>
<path opacity="0.4" d="M216.463 150.912L224.766 153.649L220.615 161.309C220.615 161.309 211.87 159.304 211.87 158.713C211.87 158.122 216.463 150.912 216.463 150.912Z" fill="#F4F4F4"/>
<path opacity="0.4" d="M216.92 173.95C216.718 174.444 213.838 188.656 211.93 198.133H192.984L204.645 171.295L216.92 173.95Z" fill="#F4F4F4"/>
<path opacity="0.4" d="M286.641 191.678V198.155H270.993L248.927 190.862C249.63 187.87 250.423 184.968 251.365 182.081L286.641 191.678Z" fill="#F4F4F4"/>
<path opacity="0.4" d="M248.545 181.288L232.732 176.979L230.488 184.751L246.144 189.927C246.84 187.01 247.588 184.123 248.545 181.288Z" fill="#F4F4F4"/>
<path opacity="0.4" d="M286.641 160.561V177.122L272.092 173.95L275.055 158.272L286.641 160.561Z" fill="#F4F4F4"/>
<path opacity="0.4" d="M199.574 128.823L204.189 118.276L217.039 122.061L211.871 133.079L199.574 128.823Z" fill="#F4F4F4"/>
<path opacity="0.4" d="M211.28 92.1338L217.616 80.652L234.805 85.6412L229.038 97.9009L211.28 92.1338Z" fill="#F4F4F4"/>
<path opacity="0.4" d="M245.628 65.7593C244.035 68.9832 241.978 73.0747 241.649 73.3365C241.32 73.5983 220.069 68.2127 210.674 65.7593H245.628Z" fill="#F4F4F4"/>
<path opacity="0.4" d="M204.181 77.2861L192.408 101.888V74.2267L204.181 77.2861Z" fill="#F4F4F4"/>
<path d="M266.4 175.446H266.265C266.072 175.411 265.899 175.302 265.786 175.141C265.672 174.979 265.627 174.78 265.66 174.586L270.776 145.047C267.156 143.94 248.403 138.315 230.272 135.249C230.109 135.223 229.959 135.144 229.845 135.024L221.221 125.667C221.117 125.555 221.05 125.414 221.029 125.263C221.007 125.112 221.033 124.958 221.101 124.821L231.109 105.553L199.439 98.3871C199.326 98.3611 199.221 98.3092 199.131 98.2355C199.042 98.1618 198.971 98.0683 198.924 97.9624C198.876 97.8565 198.855 97.7411 198.86 97.6253C198.865 97.5095 198.897 97.3964 198.953 97.2951L209.604 77.8471C209.654 77.7606 209.719 77.6847 209.798 77.6236C209.876 77.5626 209.966 77.5176 210.062 77.4912C210.158 77.4648 210.258 77.4575 210.356 77.4698C210.455 77.4821 210.55 77.5137 210.637 77.5628C210.723 77.6119 210.799 77.6776 210.86 77.7561C210.921 77.8345 210.966 77.9242 210.993 78.0201C211.019 78.1159 211.026 78.216 211.014 78.3147C211.002 78.4133 210.97 78.5086 210.921 78.5951L200.711 97.1754L232.359 104.341C232.471 104.366 232.576 104.416 232.665 104.488C232.755 104.56 232.827 104.652 232.875 104.756C232.924 104.86 232.948 104.974 232.945 105.089C232.942 105.204 232.913 105.317 232.86 105.418L222.642 125.068L230.743 133.827C250.849 137.238 271.614 143.761 271.823 143.828C271.995 143.883 272.14 143.998 272.234 144.152C272.327 144.306 272.362 144.488 272.332 144.666L267.133 174.818C267.105 174.992 267.016 175.151 266.882 175.266C266.747 175.381 266.577 175.445 266.4 175.446Z" fill="#4A90E2"/>
<path opacity="0.2" d="M284.673 206.496H194.375C193.288 206.496 192.408 207.376 192.408 208.463V212.898C192.408 213.985 193.288 214.866 194.375 214.866H284.673C285.76 214.866 286.641 213.985 286.641 212.898V208.463C286.641 207.376 285.76 206.496 284.673 206.496Z" fill="black"/>
<path d="M160.657 253.684L160.258 264.274C160.258 264.274 170.884 268.24 170.998 270.203L150.441 270.161L150.389 253.638L160.657 253.684Z" fill="#4F4F4F"/>
<path d="M131.27 252.188L131.55 265.004L134.688 275.081C134.742 275.252 134.76 275.433 134.741 275.612C134.722 275.791 134.666 275.964 134.577 276.121C134.488 276.277 134.368 276.414 134.224 276.522C134.08 276.629 133.915 276.707 133.74 276.748C133.537 276.798 133.325 276.798 133.122 276.747C132.919 276.696 132.731 276.597 132.575 276.458C130.535 274.672 123.073 268.059 123.104 267.137C123.141 266.05 121.913 253.638 121.913 253.638L131.27 252.188Z" fill="#4F4F4F"/>
<path d="M163.396 152.896H123.208L118.827 186.321L121.421 260.162H135.242L144.728 194.994L147.68 261.182L165.219 261.519L169.553 181.759L163.396 152.896Z" fill="#4A90E2"/>
<path d="M153.899 263.368C153.701 263.428 153.533 263.559 153.426 263.736C153.319 263.912 153.281 264.122 153.319 264.326C153.371 264.526 153.497 264.698 153.673 264.807C153.849 264.916 154.059 264.953 154.262 264.911C154.475 264.847 154.657 264.704 154.77 264.513C154.883 264.321 154.92 264.093 154.873 263.875C154.799 263.673 154.65 263.507 154.458 263.411C154.265 263.314 154.043 263.295 153.837 263.357" fill="#E0E0E0"/>
<path d="M150.44 270.161L150.492 268.473L170.169 269.136C170.169 269.136 171.086 269.54 170.977 270.172L150.44 270.161Z" fill="#455A64"/>
<path d="M160.59 264.17C160.59 264.269 160.072 264.315 159.59 264.636C159.109 264.957 158.829 265.366 158.736 265.366C158.643 265.366 158.798 264.745 159.404 264.367C160.01 263.989 160.61 264.077 160.59 264.17Z" fill="#F4F4F4"/>
<path d="M162.744 265.066C162.744 265.164 162.329 265.335 161.988 265.76C161.646 266.185 161.547 266.63 161.47 266.625C161.392 266.62 161.304 266.055 161.739 265.532C162.174 265.009 162.744 264.973 162.744 265.066Z" fill="#F4F4F4"/>
<path d="M163.955 267.65C163.862 267.65 163.722 267.168 163.981 266.614C164.24 266.06 164.711 265.848 164.753 265.931C164.794 266.014 164.504 266.309 164.297 266.765C164.09 267.22 164.064 267.64 163.955 267.65Z" fill="#F4F4F4"/>
<path d="M160.414 261.742C160.372 261.835 159.896 261.695 159.342 261.742C158.788 261.788 158.332 261.954 158.306 261.871C158.28 261.788 158.679 261.426 159.342 261.389C160.005 261.353 160.465 261.669 160.414 261.742Z" fill="#F4F4F4"/>
<path d="M133.741 276.759L123.048 266.257L123.074 266.775C123.093 267.242 123.277 267.687 123.591 268.033C124.451 268.955 126.869 271.44 132.513 276.437C132.676 276.58 132.871 276.681 133.081 276.731C133.292 276.781 133.511 276.778 133.72 276.722L133.741 276.759Z" fill="#455A64"/>
<g opacity="0.6">
<path d="M125.507 262.006C125.672 262.114 125.791 262.281 125.84 262.472C125.889 262.664 125.864 262.867 125.771 263.041C125.669 263.213 125.502 263.338 125.309 263.389C125.115 263.439 124.909 263.411 124.735 263.311C124.564 263.194 124.442 263.019 124.392 262.819C124.341 262.619 124.366 262.407 124.461 262.223C124.586 262.06 124.768 261.952 124.971 261.921C125.174 261.89 125.381 261.939 125.548 262.057" fill="#F4F4F4"/>
</g>
<path d="M130.566 271.28C130.639 271.316 130.898 270.633 131.643 270.244C132.105 270.041 132.6 269.923 133.104 269.897C133.104 269.866 132.948 269.773 132.648 269.747C132.252 269.723 131.857 269.811 131.509 270.001C131.16 270.192 130.873 270.477 130.68 270.824C130.546 271.062 130.53 271.275 130.566 271.28Z" fill="#F4F4F4"/>
<path d="M131.555 272.958C131.912 272.735 132.282 272.534 132.663 272.357C133.073 272.259 133.488 272.186 133.906 272.139C133.704 272.025 133.477 271.961 133.244 271.952C133.012 271.943 132.781 271.989 132.57 272.088C131.85 272.341 131.483 272.927 131.555 272.958Z" fill="#F4F4F4"/>
<path d="M128.769 269.157C129.295 268.773 129.847 268.427 130.421 268.121C131.035 267.904 131.663 267.73 132.301 267.603C131.624 267.456 130.916 267.551 130.302 267.873C129.656 268.107 129.114 268.562 128.769 269.157Z" fill="#F4F4F4"/>
<path d="M128.36 265.268C128.396 265.346 129.09 265.019 130.012 264.942C130.934 264.864 131.669 265.061 131.695 264.978C131.165 264.72 130.575 264.611 129.987 264.662C129.4 264.713 128.838 264.922 128.36 265.268Z" fill="#F4F4F4"/>
<path d="M128.184 261.509C128.734 261.304 129.309 261.176 129.893 261.125C130.478 261.163 131.055 261.281 131.607 261.478C131.607 261.446 131.483 261.291 131.177 261.136C130.777 260.937 130.335 260.835 129.888 260.841C129.441 260.846 129.001 260.956 128.604 261.162C128.303 261.322 128.164 261.483 128.184 261.509Z" fill="#F4F4F4"/>
<path d="M145.143 173.847C145.178 174.144 145.193 174.443 145.189 174.742C145.189 175.317 145.189 176.146 145.189 177.176C145.189 179.247 145.086 182.064 144.946 185.197C144.806 188.33 144.682 191.163 144.62 193.213C144.589 194.207 144.568 195.025 144.547 195.642C144.556 195.94 144.537 196.238 144.49 196.532C144.452 196.237 144.436 195.939 144.444 195.642C144.444 195.067 144.444 194.238 144.444 193.208C144.444 191.137 144.553 188.314 144.692 185.187C144.832 182.059 144.956 179.222 145.019 177.171C145.044 176.177 145.07 175.359 145.091 174.737C145.081 174.439 145.099 174.141 145.143 173.847Z" fill="#455A64"/>
<path d="M157.224 262.487C157.151 262.487 157.089 248.537 157.089 231.33C157.089 214.123 157.151 200.173 157.224 200.173C157.296 200.173 157.358 214.118 157.358 231.33C157.358 248.542 157.317 262.487 157.224 262.487Z" fill="#455A64"/>
<path d="M127.977 257.376C127.973 257.325 127.973 257.273 127.977 257.221C127.977 257.107 128.008 256.962 128.029 256.781C128.081 256.377 128.148 255.813 128.241 255.098C128.433 253.612 128.702 251.499 129.039 248.884C129.702 243.649 130.556 236.405 131.338 228.389C132.12 220.373 132.689 213.097 133.052 207.831C133.228 205.211 133.373 203.088 133.471 201.617C133.523 200.892 133.564 200.328 133.59 199.919C133.59 199.738 133.616 199.593 133.627 199.479C133.628 199.428 133.637 199.377 133.653 199.329C133.653 199.329 133.653 199.38 133.653 199.479C133.653 199.577 133.653 199.743 133.653 199.924C133.653 200.328 133.611 200.898 133.585 201.622C133.518 203.098 133.409 205.247 133.249 207.867C132.933 213.139 132.394 220.414 131.612 228.435C130.83 236.456 129.945 243.696 129.23 248.931C128.878 251.546 128.573 253.664 128.35 255.145C128.236 255.859 128.148 256.418 128.086 256.822C128.055 257.004 128.034 257.143 128.013 257.257C128.005 257.298 127.992 257.338 127.977 257.376Z" fill="#455A64"/>
<path d="M147.214 102.864L130.898 103.242L129.375 109.342C129.375 109.342 133.766 113.096 134.207 113.256C134.647 113.417 144.843 115.167 144.843 115.167C144.843 115.167 156.033 110.367 155.883 110.413C155.732 110.46 147.214 102.864 147.214 102.864Z" fill="#FFBF9D"/>
<path d="M131.799 109.787C131.799 109.787 137.899 113.572 142.673 112.671C145.7 112.016 148.514 110.609 150.855 108.58L158.622 127.916L152.501 165.991L137.5 167.498L133.689 131.09L131.799 109.787Z" fill="#F4F4F4"/>
<path d="M130.898 103.242C130.685 103.304 125.875 104.06 125.875 104.06L117.439 117.363L119.682 137.609C119.682 137.609 117.294 155.816 116.336 162.786C115.239 170.833 114.783 195.119 114.783 195.119L143.574 195.636L144.946 155.889C144.946 155.889 142.393 141.907 139.928 129.889C138.007 120.604 130.898 103.242 130.898 103.242Z" fill="#2B498A"/>
<path d="M147.463 102.688C147.825 103.236 149.016 124.99 148.84 130.132C148.69 134.948 147.483 145.46 147.483 145.46L146.826 195.171L170.915 195.227C170.915 195.227 169.781 169.569 168.067 161.284C166.353 152.999 166.669 147.588 166.669 147.588L165.664 118.683L154.635 103.288L147.463 102.688Z" fill="#2B498A"/>
<g opacity="0.3">
<path d="M133.922 158.581C135.786 161.351 139.157 162.781 142.476 163.138C145.895 163.412 149.333 162.957 152.563 161.802L152.662 161.771C158.225 159.874 163.007 156.193 166.265 151.301L166.674 150.695L167.223 148.706L133.922 158.581Z" fill="black"/>
</g>
<path d="M136.459 149.783C136.594 149.742 140.866 147.583 141.932 147.484C142.999 147.386 151.253 147.251 151.253 147.251L153.195 155.314C153.195 155.314 146.21 158.421 145.138 158.654C144.066 158.887 139.504 160.373 138.753 160.352C138.002 160.331 135.905 159.55 135.92 159.063C135.915 158.935 135.943 158.807 136.001 158.693C136.059 158.579 136.145 158.481 136.252 158.41C137.212 158.474 138.176 158.447 139.131 158.327C139.635 158.164 140.13 157.972 140.612 157.753C140.612 157.753 133.016 158.643 132.487 158.462C131.312 158.063 131.602 157.147 131.602 157.147C131.602 157.147 130.737 156.505 130.665 155.925C130.592 155.345 130.913 155.091 131.405 154.889C131.897 154.687 135.221 153.336 136.2 153.097C137.179 152.859 139.763 152.502 139.763 152.502C139.763 152.502 131.954 153.092 131.478 152.854C131.001 152.616 130.494 151.762 131.307 151.301C132.295 150.713 133.37 150.285 134.491 150.032C135.392 149.928 136.459 149.783 136.459 149.783Z" fill="#FFBF9D"/>
<path d="M141.839 154.723C141.365 154.955 140.869 155.139 140.358 155.272C139.431 155.567 138.131 155.93 136.682 156.246C135.232 156.562 133.901 156.764 132.933 156.888C132.42 156.979 131.899 157.017 131.379 157.002C131.889 156.866 132.408 156.765 132.933 156.701C133.885 156.536 135.206 156.298 136.65 155.982C138.095 155.666 139.395 155.334 140.332 155.091C140.825 154.932 141.328 154.809 141.839 154.723Z" fill="#FF9A6C"/>
<path d="M141.306 148.748C139.747 149.223 138.141 149.528 136.516 149.659C137.281 149.377 138.075 149.179 138.883 149.069C139.677 148.875 140.489 148.767 141.306 148.748Z" fill="#FF9A6C"/>
<path d="M151.326 150.451C151.326 150.451 151.207 150.451 151.01 150.483C150.732 150.538 150.463 150.634 150.213 150.767C149.824 151.004 149.378 151.131 148.923 151.135C148.406 151.088 147.888 150.783 147.479 151.135C147.266 151.32 147.035 151.483 146.79 151.622C146.523 151.72 146.233 151.738 145.956 151.674C145.55 151.534 145.137 151.414 144.719 151.316C144.448 151.276 144.172 151.345 143.952 151.508C143.802 151.632 143.771 151.746 143.75 151.736C143.73 151.725 143.75 151.601 143.88 151.43C143.992 151.32 144.128 151.236 144.276 151.183C144.424 151.13 144.583 151.11 144.739 151.125C145.167 151.199 145.589 151.301 146.003 151.43C146.229 151.478 146.465 151.46 146.681 151.378C146.911 151.244 147.128 151.088 147.328 150.912C147.457 150.821 147.604 150.758 147.758 150.726C147.908 150.702 148.06 150.702 148.209 150.726C148.488 150.783 148.727 150.871 148.949 150.897C149.362 150.892 149.768 150.791 150.135 150.602C150.408 150.473 150.704 150.4 151.005 150.384C151.222 150.41 151.331 150.436 151.326 150.451Z" fill="#FF9A6C"/>
<path d="M151.352 152.088C151.13 152.374 150.815 152.574 150.461 152.652C150.083 152.77 149.682 152.796 149.291 152.73C149.086 152.679 148.875 152.654 148.664 152.657C148.563 152.672 148.467 152.71 148.383 152.767C148.299 152.825 148.229 152.9 148.178 152.989C148.028 153.214 147.802 153.378 147.541 153.45C147.305 153.501 147.061 153.501 146.826 153.45C146.471 153.346 146.107 153.279 145.739 153.248C145.501 153.247 145.272 153.336 145.096 153.496C144.977 153.61 144.946 153.708 144.926 153.703C144.905 153.698 144.926 153.589 145.019 153.424C145.105 153.317 145.213 153.229 145.335 153.167C145.457 153.105 145.591 153.069 145.728 153.061C146.113 153.062 146.495 153.11 146.867 153.206C147.069 153.261 147.281 153.253 147.478 153.185C147.675 153.117 147.846 152.99 147.97 152.823C148.049 152.714 148.143 152.618 148.25 152.538C148.365 152.453 148.501 152.403 148.644 152.393C148.878 152.394 149.111 152.425 149.337 152.486C149.69 152.565 150.056 152.565 150.409 152.486C150.735 152.382 151.05 152.248 151.352 152.088Z" fill="#FF9A6C"/>
<path d="M154.635 103.288C154.635 103.288 163.199 104.479 167.523 115.198C170.516 122.629 175.891 137.853 174.416 143.544C173.085 148.686 153.972 157.711 153.972 157.711L150.694 146.071L162.428 137.464L157.633 119.791L154.635 103.288Z" fill="#2B498A"/>
<path d="M170.382 148.152C170.297 148.241 170.205 148.322 170.107 148.396C169.921 148.546 169.657 148.789 169.279 149.053C168.543 149.613 167.42 150.353 165.985 151.249C163.106 153.02 158.943 155.329 154.029 157.83L153.889 157.903L153.848 157.748C153.231 155.5 152.569 153.087 151.88 150.545L150.58 145.75L150.554 145.662L150.627 145.605L161.335 137.91C162.477 137.685 163.636 137.561 164.799 137.537C165.687 137.514 166.569 137.678 167.389 138.019C167.9 138.246 168.362 138.574 168.745 138.982C168.841 139.091 168.931 139.205 169.015 139.323C169.048 139.359 169.076 139.399 169.097 139.443C169.097 139.443 168.963 139.298 168.704 139.023C168.312 138.639 167.852 138.332 167.347 138.117C166.537 137.8 165.669 137.656 164.799 137.692C163.646 137.733 162.497 137.87 161.366 138.101H161.408L150.741 145.869L150.792 145.729C151.217 147.282 151.652 148.877 152.097 150.514L154.117 157.66L153.936 157.577C158.845 155.096 163.023 152.818 165.918 151.088C167.363 150.218 168.507 149.499 169.248 148.96C169.636 148.706 169.905 148.479 170.102 148.339C170.188 148.266 170.282 148.204 170.382 148.152Z" fill="#4F4F4F"/>
<path d="M161.392 137.982C162.858 131.173 160.916 123.789 157.281 117.844L161.392 137.982Z" fill="#2B498A"/>
<path d="M157.281 117.86C157.455 118.073 157.609 118.302 157.742 118.543C158.032 118.994 158.41 119.667 158.845 120.521C159.352 121.519 159.803 122.544 160.196 123.592C160.673 124.876 161.064 126.191 161.367 127.527C161.657 128.868 161.851 130.229 161.946 131.597C162.017 132.717 162.005 133.84 161.91 134.958C161.884 135.434 161.812 135.864 161.76 136.237C161.708 136.61 161.651 136.936 161.594 137.195C161.548 137.468 161.481 137.736 161.392 137.998C161.399 137.722 161.432 137.448 161.491 137.18C161.532 136.915 161.579 136.594 161.61 136.216C161.641 135.838 161.708 135.419 161.719 134.943C161.793 133.836 161.793 132.725 161.719 131.618C161.612 130.262 161.415 128.914 161.128 127.584C160.826 126.259 160.444 124.954 159.984 123.675C159.549 122.499 159.109 121.458 158.695 120.604C158.28 119.75 157.933 119.051 157.659 118.595C157.515 118.36 157.388 118.114 157.281 117.86Z" fill="#4F4F4F"/>
<path d="M158.985 121.013C158.891 120.105 158.963 119.188 159.197 118.305C159.343 117.41 159.581 116.532 159.906 115.685C159.842 116.587 159.695 117.482 159.466 118.357C159.155 119.812 159.052 121.013 158.985 121.013Z" fill="#4F4F4F"/>
<path d="M134.585 150.187C134.41 150.194 134.235 150.173 134.067 150.125C133.751 150.068 133.295 149.965 132.736 149.82C129.831 149.064 127.044 147.914 124.451 146.402C123.959 146.112 123.565 145.884 123.301 145.682C123.154 145.601 123.02 145.498 122.903 145.377C122.903 145.346 123.534 145.698 124.544 146.236C125.554 146.775 126.973 147.479 128.583 148.147C130.194 148.815 131.69 149.307 132.788 149.638C133.886 149.97 134.59 150.151 134.585 150.187Z" fill="#4F4F4F"/>
<path d="M125.875 104.06C125.875 104.06 116 106.318 111.894 114.194C108.761 120.2 102.003 138.319 101.869 141.933C101.734 145.548 111.06 158.737 111.06 158.737L121.639 152.041L115.56 140.758L121.774 126.388L125.875 104.06Z" fill="#2B498A"/>
<path d="M120.774 269.83C120.432 269.83 120.104 269.694 119.863 269.452C119.621 269.21 119.485 268.883 119.485 268.541C119.485 267.505 119.645 164.567 119.599 162.905C119.5 159.353 117.341 157.727 117.248 157.665C116.974 157.463 116.79 157.161 116.736 156.825C116.682 156.489 116.761 156.146 116.958 155.868C117.155 155.591 117.453 155.403 117.788 155.346C118.123 155.289 118.467 155.367 118.744 155.562C118.879 155.661 122.043 157.949 122.178 162.812C122.224 164.51 122.069 264.305 122.064 268.525C122.066 268.696 122.034 268.865 121.97 269.023C121.906 269.181 121.811 269.325 121.692 269.447C121.572 269.568 121.429 269.665 121.271 269.73C121.114 269.796 120.945 269.83 120.774 269.83Z" fill="#AE7461"/>
<path d="M113.463 170.558C113.294 170.558 113.126 170.524 112.97 170.458C112.814 170.393 112.672 170.297 112.553 170.177C112.433 170.057 112.339 169.914 112.275 169.758C112.211 169.601 112.178 169.433 112.179 169.264C112.179 165.442 112.179 159.627 112.179 159.285C112.167 159.118 112.188 158.95 112.242 158.791C112.295 158.631 112.38 158.484 112.491 158.358C112.601 158.232 112.736 158.129 112.887 158.055C113.038 157.982 113.202 157.939 113.37 157.929C113.713 157.909 114.05 158.025 114.309 158.251C114.568 158.478 114.727 158.797 114.752 159.14C114.752 159.203 114.752 159.384 114.752 169.269C114.752 169.611 114.616 169.939 114.375 170.181C114.133 170.423 113.805 170.558 113.463 170.558Z" fill="#AE7461"/>
<path d="M115.451 152.248L112.955 154.433C112.479 154.848 111.92 157.779 111.666 159.13C111.628 159.344 111.642 159.565 111.708 159.772C111.774 159.98 111.889 160.168 112.044 160.321C112.883 161.165 114.592 162.77 115.451 162.858C116.21 162.897 116.958 162.662 117.559 162.196C117.559 162.196 118.729 162.858 119.428 162.273C120.127 161.688 118.455 157.903 118.455 157.903C118.455 157.903 117.787 156.122 119.563 156.241L120.365 157.561L121.919 160.829C121.919 160.829 123.431 160.673 123.628 160.088C123.824 159.503 123.11 157.561 123.11 157.561C123.327 157.222 123.471 156.842 123.53 156.443C123.59 156.045 123.565 155.639 123.457 155.252C123.032 154.123 122.328 152.051 120.262 151.585C118.196 151.119 115.451 152.248 115.451 152.248Z" fill="#FFBF9D"/>
<path d="M117.44 161.724C117.403 161.724 117.088 161.336 116.513 160.735C115.758 159.957 114.921 159.263 114.017 158.664C113.739 158.481 113.506 158.239 113.333 157.955C113.178 157.674 113.121 157.35 113.173 157.033C113.269 156.528 113.502 156.059 113.846 155.676C114.115 155.35 114.364 155.096 114.483 154.915C114.602 154.734 114.7 154.625 114.716 154.635C114.551 155.062 114.307 155.454 113.996 155.79C113.701 156.16 113.501 156.598 113.416 157.064C113.378 157.327 113.429 157.595 113.561 157.825C113.719 158.073 113.928 158.284 114.172 158.447C115.093 159.057 115.928 159.788 116.653 160.621C116.97 160.946 117.236 161.318 117.44 161.724Z" fill="#FF9A6C"/>
<path d="M120.899 155.588C120.956 155.64 120.65 156.023 120.516 156.588C120.381 157.152 120.469 157.623 120.391 157.654C120.314 157.685 120.096 157.173 120.257 156.525C120.417 155.878 120.857 155.526 120.899 155.588Z" fill="#FF9A6C"/>
<path d="M123.41 270.767H118.574L119.475 266.92H122.333L123.41 270.767Z" fill="#455A64"/>
<path d="M115.876 141.12C115.834 141.151 115.492 140.649 114.778 140.002C114.357 139.625 113.899 139.292 113.411 139.008C112.811 138.666 112.176 138.391 111.516 138.189C110.852 137.997 110.17 137.881 109.48 137.842C108.916 137.813 108.35 137.843 107.792 137.931C106.84 138.081 106.275 138.324 106.239 138.272C106.203 138.22 106.363 138.189 106.617 138.081C106.771 138.012 106.93 137.954 107.093 137.91C107.303 137.84 107.518 137.785 107.735 137.744C108.304 137.628 108.885 137.577 109.465 137.594C110.179 137.62 110.886 137.733 111.572 137.931C112.252 138.139 112.904 138.427 113.514 138.79C114.012 139.093 114.472 139.453 114.887 139.862C115.047 140.015 115.197 140.177 115.337 140.349C115.448 140.475 115.548 140.61 115.637 140.753C115.798 140.98 115.891 141.089 115.876 141.12Z" fill="#4F4F4F"/>
<path d="M115.875 140.054C115.934 139.834 116.014 139.621 116.114 139.417L116.833 137.672C117.501 136.17 118.387 134.13 119.448 131.779V131.815C119.578 130.831 119.692 129.744 119.785 128.667C120.07 125.818 120.136 122.951 119.982 120.092C119.951 119.543 119.878 119.056 119.837 118.616C119.795 118.176 119.702 117.834 119.65 117.518C119.599 117.202 119.531 117 119.485 116.829C119.461 116.749 119.449 116.665 119.448 116.581C119.485 116.656 119.514 116.734 119.536 116.814L119.754 117.492C119.826 117.792 119.899 118.165 119.987 118.595C120.075 119.025 120.127 119.522 120.173 120.076C120.385 122.946 120.345 125.829 120.054 128.693C119.961 129.795 119.842 130.857 119.707 131.851C118.63 134.181 117.698 136.211 117.01 137.703C116.678 138.397 116.404 138.966 116.202 139.396C116.112 139.624 116.003 139.844 115.875 140.054Z" fill="#4F4F4F"/>
<path d="M122.799 84.5896C121.805 85.7687 120.955 87.062 120.267 88.4422C119.579 89.8386 119.416 91.4354 119.806 92.9421C120.014 93.6866 120.434 94.3541 121.017 94.8621C121.599 95.3701 122.318 95.6963 123.084 95.8005C122.877 97.4989 124.363 99.0679 126.035 99.4252C127.708 99.7825 129.453 99.2336 130.965 98.4258C133.068 99.3424 135.237 100.28 137.531 100.352C139.825 100.425 142.305 99.4459 143.336 97.4005C145.169 98.11 147.033 98.8297 148.996 98.954C150.958 99.0783 153.055 98.5967 154.412 97.1727C155.769 95.7487 156.1 93.2994 154.811 91.8132C155.464 91.9719 156.147 91.9461 156.786 91.7387C157.425 91.5312 157.994 91.1504 158.429 90.6386C158.864 90.1267 159.148 89.5041 159.25 88.8401C159.352 88.1762 159.267 87.497 159.005 86.8784C158.011 84.5948 155.018 83.8958 153.584 81.8607" fill="#E0E0E0"/>
<path d="M153.506 75.0773C154.112 73.8655 154.411 72.523 154.376 71.1684C154.341 69.8137 153.972 68.4886 153.304 67.3099L149.223 91.2126C150.055 91.2911 150.893 91.1672 151.666 90.8516C152.44 90.536 153.125 90.038 153.664 89.4001C154.204 88.7622 154.581 88.0033 154.763 87.1882C154.945 86.3731 154.928 85.526 154.712 84.7191C155.996 83.1967 157.016 81.3222 156.959 79.3338C156.903 77.3453 155.484 75.2947 153.506 75.0773Z" fill="#E0E0E0"/>
<path d="M153.822 71.7477C154.857 68.7857 153.433 65.3163 150.901 63.4625C148.369 61.6087 144.993 61.1893 141.907 61.7537C139.473 62.1939 136.915 63.4366 136.066 65.7617C134.274 64.871 131.12 65.2438 129.432 66.3364C128.593 66.8871 127.907 67.6412 127.438 68.5286C126.969 69.4159 126.732 70.4076 126.75 71.4111C125.459 71.7764 124.284 72.47 123.341 73.4244C122.397 74.3788 121.717 75.5613 121.367 76.8567C121.016 78.1522 121.007 79.5163 121.341 80.8162C121.675 82.116 122.339 83.3073 123.27 84.2738C121.09 86.8629 122.059 91.834 124.213 94.4438C126.367 97.0536 129.293 97.5507 132.627 98.0686C137.194 98.8401 142.103 98.3585 146.06 95.9558C148.9 94.2291 151.098 91.6217 152.32 88.5304C153.542 85.4392 153.72 82.0334 152.828 78.8315C152.558 77.858 152.185 76.8741 152.248 75.8644C152.336 74.3989 153.33 73.1458 153.822 71.7477Z" fill="#E0E0E0"/>
<path d="M140.928 111.827C138.95 112.069 136.956 111.528 135.371 110.319C133.786 109.111 132.737 107.331 132.446 105.36L128.894 80.6284C127.723 74.0158 130.603 67.8227 137.246 66.8388L137.862 66.7818C140.868 66.5137 143.864 67.3873 146.254 69.2287C148.645 71.0702 150.254 73.7444 150.761 76.7188C151.745 82.4563 152.75 88.81 152.988 91.9169C153.48 98.3431 147.147 99.9121 147.147 99.9121C147.147 99.9121 147.323 101.393 147.572 103.268C147.705 104.268 147.639 105.286 147.376 106.261C147.113 107.236 146.66 108.149 146.042 108.947C145.424 109.746 144.654 110.414 143.776 110.913C142.898 111.411 141.93 111.731 140.928 111.853V111.827Z" fill="#FFBF9D"/>
<path d="M147.147 99.8861C144.192 100.193 141.211 99.6184 138.582 98.2343C138.582 98.2343 141.021 102.895 147.385 101.74L147.147 99.8861Z" fill="#FF9A6C"/>
<path d="M141.503 90.1252C141.631 89.9703 141.792 89.8453 141.974 89.7591C142.156 89.6729 142.355 89.6275 142.556 89.626C142.758 89.6246 142.957 89.6671 143.14 89.7508C143.324 89.8344 143.486 89.957 143.617 90.1101C143.748 90.2632 143.844 90.443 143.898 90.637C143.952 90.831 143.963 91.0344 143.931 91.2332C143.898 91.4319 143.822 91.6211 143.709 91.7874C143.595 91.9538 143.447 92.0934 143.274 92.1965C142.933 92.3689 142.545 92.4235 142.171 92.3518C141.882 92.3178 141.612 92.1926 141.399 91.9945C141.266 91.8353 141.175 91.6454 141.133 91.442C141.091 91.2387 141.101 91.0282 141.161 90.8294C141.251 90.4978 141.43 90.197 141.679 89.9595" fill="#FF9A6C"/>
<path d="M148.794 83.5178C148.817 83.7568 148.746 83.9955 148.596 84.1831C148.447 84.3708 148.229 84.4925 147.991 84.5223C147.874 84.5453 147.754 84.5441 147.637 84.5189C147.521 84.4936 147.41 84.4448 147.314 84.3755C147.217 84.3061 147.135 84.2177 147.073 84.1156C147.012 84.0136 146.972 83.9 146.955 83.7819C146.931 83.5434 147 83.3046 147.149 83.1168C147.298 82.929 147.515 82.8071 147.753 82.7773C147.87 82.7543 147.991 82.7555 148.108 82.7807C148.225 82.8059 148.335 82.8546 148.432 82.9239C148.53 82.9932 148.612 83.0815 148.674 83.1836C148.736 83.2858 148.777 83.3994 148.794 83.5178Z" fill="#4F4F4F"/>
<path d="M149.695 79.9862C149.591 80.1157 148.851 79.66 147.862 79.7532C146.873 79.8464 146.199 80.4005 146.08 80.271C145.961 80.1416 146.122 79.9966 146.417 79.7532C146.818 79.4208 147.311 79.2201 147.831 79.1784C148.342 79.1306 148.856 79.2486 149.296 79.515C149.622 79.7066 149.741 79.9137 149.695 79.9862Z" fill="#4F4F4F"/>
<path d="M140.348 84.4032C140.373 84.6419 140.302 84.8808 140.152 85.0679C140.002 85.255 139.784 85.3753 139.545 85.4026C139.428 85.4256 139.308 85.4244 139.191 85.3991C139.075 85.3739 138.965 85.3251 138.868 85.2558C138.771 85.1864 138.689 85.098 138.627 84.9959C138.566 84.8938 138.526 84.7803 138.51 84.6621C138.485 84.4237 138.554 84.1849 138.703 83.9971C138.852 83.8093 139.069 83.6874 139.307 83.6576C139.425 83.6354 139.546 83.6373 139.662 83.6631C139.779 83.6889 139.89 83.7382 139.987 83.8079C140.084 83.8776 140.166 83.9663 140.228 84.0686C140.29 84.1709 140.331 84.2847 140.348 84.4032Z" fill="#4F4F4F"/>
<path d="M140.224 81.053C140.12 81.1825 139.38 80.732 138.396 80.82C137.412 80.908 136.728 81.4673 136.614 81.3378C136.5 81.2084 136.651 81.0634 136.946 80.82C137.346 80.4857 137.84 80.2832 138.359 80.24C138.873 80.194 139.388 80.3118 139.83 80.5766C140.136 80.7889 140.275 81.0219 140.224 81.053Z" fill="#4F4F4F"/>
<path d="M144.222 88.0798C144.728 87.8703 145.258 87.7259 145.801 87.65C146.049 87.6034 146.282 87.5309 146.319 87.3549C146.32 87.0914 146.238 86.8342 146.086 86.6196L145.169 84.7709C143.895 82.13 142.948 79.95 143.051 79.9034C143.155 79.8568 144.279 81.9747 145.558 84.5638C145.868 85.2163 146.163 85.8325 146.443 86.428C146.629 86.7183 146.706 87.065 146.661 87.4066C146.632 87.4981 146.583 87.5818 146.518 87.6518C146.452 87.7217 146.372 87.776 146.282 87.8105C146.145 87.859 146.003 87.892 145.858 87.9089C145.322 88.035 144.772 88.0925 144.222 88.0798Z" fill="#4F4F4F"/>
<path d="M136.107 78.6346C136.185 78.355 137.179 78.4016 138.329 78.1686C139.478 77.9356 140.4 77.5369 140.555 77.7647C140.633 77.8786 140.493 78.1427 140.136 78.4327C139.662 78.7979 139.108 79.0446 138.52 79.1525C137.934 79.275 137.326 79.2537 136.749 79.0903C136.309 78.9505 136.076 78.7641 136.107 78.6346Z" fill="#E0E0E0"/>
<path d="M145.127 76.8794C145.324 76.6722 145.982 76.9726 146.795 77.0606C147.608 77.1486 148.317 77.0606 148.457 77.304C148.514 77.4231 148.384 77.6354 148.063 77.8218C147.632 78.0344 147.148 78.1154 146.671 78.0546C146.194 77.9938 145.745 77.794 145.381 77.48C145.117 77.216 145.044 76.9778 145.127 76.8794Z" fill="#E0E0E0"/>
<path d="M129.846 85.3872C129.732 85.3509 125.321 84.4758 125.854 88.8514C126.387 93.227 130.664 91.7926 130.659 91.6632C130.654 91.5337 129.846 85.3872 129.846 85.3872Z" fill="#FFBF9D"/>
<path d="M129.122 90.1666C129.122 90.1666 129.049 90.2288 128.93 90.3064C128.845 90.3562 128.751 90.3886 128.653 90.4019C128.555 90.4153 128.456 90.4092 128.36 90.3841C127.879 90.2702 127.397 89.5867 127.283 88.7996C127.226 88.4253 127.254 88.0428 127.366 87.6811C127.392 87.5379 127.452 87.4032 127.543 87.2893C127.633 87.1754 127.75 87.0858 127.884 87.0286C127.968 86.9944 128.062 86.9913 128.148 87.0197C128.235 87.0482 128.308 87.1064 128.355 87.184C128.433 87.2979 128.412 87.3859 128.438 87.3911C128.464 87.3963 128.521 87.3083 128.464 87.1322C128.426 87.0282 128.355 86.9392 128.262 86.8785C128.131 86.802 127.975 86.7797 127.827 86.8163C127.652 86.8745 127.494 86.9763 127.369 87.1122C127.244 87.2481 127.156 87.4136 127.113 87.5931C126.97 87.9946 126.929 88.425 126.993 88.8462C127.128 89.7213 127.682 90.4929 128.335 90.6016C128.456 90.6213 128.581 90.6134 128.699 90.5784C128.818 90.5435 128.927 90.4824 129.018 90.3997C129.127 90.2754 129.137 90.1718 129.122 90.1666Z" fill="#FF9A6C"/>
<path d="M144.879 91.166C144.817 91.311 143.905 91.0003 142.75 90.9641C141.596 90.9278 140.679 91.1401 140.617 90.9641C140.555 90.788 141.497 90.3375 142.776 90.3996C144.055 90.4618 144.951 91.0469 144.879 91.166Z" fill="#4F4F4F"/>
<path d="M139.732 91.6061C139.732 91.6372 139.602 91.6372 139.447 91.544C139.343 91.4803 139.253 91.3966 139.182 91.298C139.111 91.1994 139.06 91.0876 139.033 90.9692C139.006 90.8511 139.004 90.7289 139.025 90.6098C139.046 90.4906 139.091 90.3769 139.157 90.2753C139.255 90.1252 139.364 90.0734 139.39 90.0993C139.416 90.1252 139.198 90.4825 139.297 90.9123C139.395 91.342 139.763 91.5388 139.732 91.6061Z" fill="#FF9A6C"/>
<path d="M137.184 84.4498C137.184 84.5171 136.863 84.688 136.402 84.6621C135.942 84.6362 135.615 84.4291 135.646 84.367C135.678 84.3048 136.009 84.367 136.418 84.3928C136.827 84.4187 137.158 84.3773 137.184 84.4498Z" fill="#FF9A6C"/>
<path d="M137.443 84.8071C137.443 84.8848 137.158 84.9521 136.842 85.1126C136.526 85.2732 136.299 85.4596 136.236 85.4078C136.174 85.356 136.35 85.0609 136.723 84.89C137.096 84.7191 137.448 84.7346 137.443 84.8071Z" fill="#FF9A6C"/>
<path d="M151.155 82.4355C151.217 82.4821 151.077 82.7462 150.756 82.8809C150.435 83.0155 150.145 82.9378 150.155 82.8809C150.166 82.8239 150.394 82.7618 150.647 82.6478C150.901 82.5339 151.098 82.3889 151.155 82.4355Z" fill="#FF9A6C"/>
<path d="M151.295 83.3935C151.295 83.466 151.046 83.5488 150.725 83.5281C150.404 83.5074 150.166 83.3987 150.176 83.3262C150.187 83.2537 150.445 83.2433 150.741 83.2589C151.036 83.2744 151.29 83.321 151.295 83.3935Z" fill="#FF9A6C"/>
<path d="M139.203 91.9428C139.177 92.0101 138.836 91.9117 138.66 91.5493C138.484 91.1868 138.608 90.8502 138.66 90.8761C138.711 90.902 138.748 91.1557 138.887 91.4302C139.027 91.7046 139.234 91.8962 139.203 91.9428Z" fill="#FF9A6C"/>
<path d="M135.713 102.952C135.834 102.638 135.859 102.296 135.786 101.968C135.745 101.812 135.671 101.667 135.568 101.543C135.435 101.405 135.285 101.283 135.123 101.181C134.903 101.048 134.736 100.843 134.652 100.601C134.632 100.465 134.639 100.328 134.673 100.195C134.707 100.063 134.766 99.9384 134.848 99.8291C134.98 99.6583 135.061 99.4536 135.081 99.2388C135.068 99.1453 135.036 99.0554 134.987 98.9745C134.938 98.8935 134.873 98.8232 134.797 98.7676C134.636 98.6395 134.482 98.503 134.336 98.3585C134.192 98.2203 134.099 98.038 134.072 97.8407C134.072 97.7024 134.1 97.5657 134.155 97.4385C134.209 97.3113 134.288 97.1963 134.388 97.1002C134.517 96.9656 134.6 96.9086 134.615 96.919C134.631 96.9293 134.569 97.0174 134.47 97.1624C134.328 97.3515 134.255 97.5836 134.263 97.82C134.3 98.1048 134.61 98.3119 134.957 98.5864C135.062 98.6611 135.151 98.7566 135.218 98.8671C135.285 98.9775 135.328 99.1005 135.346 99.2285C135.334 99.4963 135.242 99.7543 135.081 99.9689C134.952 100.131 134.891 100.337 134.911 100.544C134.976 100.728 135.105 100.884 135.273 100.984C135.447 101.106 135.605 101.248 135.744 101.408C135.858 101.562 135.936 101.739 135.972 101.926C136.031 102.192 136.002 102.47 135.889 102.719C135.806 102.889 135.724 102.957 135.713 102.952Z" fill="#FF9A6C"/>
<path d="M137.479 102.693C137.471 102.423 137.403 102.157 137.282 101.916C137.168 101.693 136.992 101.445 136.827 101.134C136.73 100.964 136.665 100.778 136.635 100.585C136.607 100.369 136.643 100.149 136.739 99.9534C136.827 99.767 136.889 99.6272 136.842 99.4977C136.779 99.3588 136.676 99.2417 136.547 99.1611C136.408 99.0658 136.278 98.9584 136.159 98.8401C136.047 98.7215 135.975 98.5714 135.951 98.4103C135.932 98.2995 135.936 98.186 135.961 98.0765C135.987 97.967 136.035 97.8639 136.102 97.7734C136.2 97.6491 136.283 97.618 136.293 97.6336C136.304 97.6491 136.252 97.7061 136.19 97.8303C136.119 97.9933 136.1 98.1744 136.138 98.3482C136.179 98.5864 136.397 98.7417 136.692 98.9333C136.873 99.0391 137.015 99.2009 137.096 99.3942C137.121 99.5042 137.124 99.6182 137.104 99.7293C137.085 99.8405 137.043 99.9467 136.982 100.041C136.916 100.194 136.887 100.36 136.899 100.526C136.911 100.692 136.962 100.852 137.049 100.994C137.189 101.295 137.355 101.564 137.453 101.812C137.549 102.008 137.587 102.227 137.562 102.444C137.546 102.625 137.489 102.698 137.479 102.693Z" fill="#FF9A6C"/>
<path d="M141.368 78.2411C141.327 78.179 141.591 77.9305 141.617 77.511C141.642 77.0916 141.446 76.8068 141.498 76.7498C141.549 76.6929 141.622 76.7498 141.72 76.9052C141.847 77.0895 141.905 77.3119 141.887 77.5347C141.868 77.7574 141.772 77.9668 141.617 78.1272C141.497 78.2463 141.389 78.2722 141.368 78.2411Z" fill="#FF9A6C"/>
<path d="M143.978 77.8322C143.978 77.8684 143.869 77.8736 143.735 77.8322C143.558 77.7381 143.419 77.5864 143.341 77.4024C143.255 77.2197 143.236 77.0122 143.289 76.8172C143.331 76.6723 143.403 76.6049 143.434 76.6205C143.465 76.636 143.434 76.9571 143.584 77.2936C143.735 77.6302 144.004 77.7597 143.978 77.8322Z" fill="#FF9A6C"/>
<path d="M140.353 86.1121C140.353 86.1898 139.924 86.2571 139.416 86.3866C138.909 86.516 138.5 86.661 138.463 86.5937C138.427 86.5264 138.805 86.2623 139.349 86.1277C139.893 85.993 140.353 86.0396 140.353 86.1121Z" fill="#FF9A6C"/>
<path d="M149.943 85.0713C149.943 85.1438 149.555 85.1127 149.115 85.1541C148.675 85.1955 148.317 85.2887 148.286 85.2162C148.255 85.1438 148.602 84.9263 149.094 84.8848C149.586 84.8434 149.974 84.9988 149.943 85.0713Z" fill="#FF9A6C"/>
<path d="M151.3 73.1976C150.632 71.0227 148.82 69.3243 146.743 68.3974C144.667 67.4705 141.71 66.2225 139.437 66.295C136.99 66.4356 134.601 67.0977 132.431 68.2368C129.971 69.5987 128.314 72.5917 127.47 75.274C126.626 77.9564 127.796 80.8872 128.273 83.6576L128.982 86.3088C129.303 87.1995 130.608 87.3445 131.385 86.7956C132.161 86.2467 132.519 85.3042 132.809 84.4032C134.176 80.2296 135.092 75.8178 134.548 71.4577C136.636 72.8373 138.934 73.8691 141.353 74.5128C141.912 74.7037 142.511 74.75 143.093 74.6475C143.382 74.589 143.644 74.4354 143.836 74.2112C144.028 73.987 144.14 73.705 144.154 73.4099C145.121 74.5886 146.318 75.5591 147.67 76.2631C148.509 76.698 149.539 77.0191 150.383 76.5945C150.663 76.4378 150.905 76.2209 151.09 75.9593C151.275 75.6978 151.4 75.3982 151.455 75.0824C151.561 74.451 151.508 73.8032 151.3 73.1976Z" fill="#E0E0E0"/>
<path d="M121.494 80.3849C121.494 80.328 122.431 80.416 123.907 80.1726C124.768 80.0305 125.61 79.7944 126.419 79.4684C127.407 79.0568 128.347 78.5357 129.22 77.9149C130.812 76.7962 132.142 75.3458 133.119 73.6636C133.87 72.3742 134.155 71.4732 134.191 71.4939C134.16 71.7113 134.101 71.9237 134.015 72.1257C133.81 72.6939 133.558 73.2446 133.264 73.7724C132.316 75.5158 130.976 77.0154 129.349 78.1531C128.459 78.7817 127.498 79.3031 126.486 79.7066C125.652 80.0273 124.783 80.2497 123.897 80.3694C123.305 80.4511 122.707 80.4805 122.11 80.4574C121.903 80.4551 121.696 80.4308 121.494 80.3849Z" fill="#F4F4F4"/>
<path d="M122.126 82.3631C122.126 82.3061 123.022 82.2751 124.415 81.9436C125.229 81.7456 126.026 81.4806 126.797 81.1514C128.691 80.3436 130.401 79.1598 131.825 77.6716C132.405 77.0667 132.934 76.4136 133.404 75.7194C134.207 74.5336 134.554 73.7051 134.605 73.731C134.552 73.9334 134.477 74.1295 134.383 74.3161C134.289 74.5442 134.18 74.7656 134.056 74.9789C133.908 75.2706 133.744 75.5541 133.565 75.8282C133.109 76.5457 132.589 77.22 132.011 77.8425C130.582 79.3754 128.838 80.5817 126.9 81.3792C126.112 81.7039 125.296 81.9552 124.461 82.1301C124.143 82.2008 123.822 82.2544 123.498 82.2906C123.255 82.3287 123.009 82.3529 122.763 82.3631C122.551 82.387 122.338 82.387 122.126 82.3631Z" fill="#F4F4F4"/>
<path d="M149.384 75.9317C149.384 75.9317 149.544 75.9317 149.829 75.8488C150.24 75.7443 150.613 75.5231 150.901 75.2119C151.128 74.982 151.294 74.6993 151.384 74.3893C151.475 74.0792 151.487 73.7516 151.419 73.4358C151.321 73.0346 151.109 72.6708 150.807 72.3892C150.505 72.1076 150.127 71.9206 149.72 71.8513H149.565L149.627 71.7063C149.963 70.8269 150.047 69.8714 149.871 68.9467C149.694 68.0221 149.264 67.1649 148.628 66.4711C147.567 65.336 146.133 64.6194 144.589 64.4516C143.326 64.3098 142.048 64.455 140.85 64.8762C140.037 65.1672 139.257 65.5457 138.525 66.0051C138.007 66.3209 137.728 66.5229 137.717 66.5229C137.771 66.4606 137.832 66.405 137.898 66.3572C138.083 66.2092 138.275 66.0709 138.473 65.9429C139.192 65.4525 139.97 65.0541 140.788 64.7571C142.009 64.2935 143.322 64.1249 144.62 64.2652C146.228 64.4225 147.724 65.1585 148.83 66.3365C149.494 67.0657 149.94 67.9668 150.118 68.9371C150.295 69.9074 150.197 70.9081 149.834 71.8254L149.741 71.6597C150.192 71.7381 150.61 71.9489 150.941 72.2651C151.272 72.5814 151.501 72.9888 151.6 73.4358C151.667 73.7751 151.648 74.1258 151.545 74.4559C151.442 74.7861 151.258 75.0851 151.01 75.3258C150.696 75.6425 150.293 75.8557 149.855 75.9369C149.741 75.9499 149.627 75.9499 149.513 75.9369C149.47 75.9427 149.426 75.941 149.384 75.9317Z" fill="#F4F4F4"/>
</svg>
