<svg width="375" height="280" viewBox="0 0 375 280" fill="none" xmlns="http://www.w3.org/2000/svg">
<path d="M337.668 257.803H312.81V257.99H337.668V257.803Z" fill="#EBEBEB"/>
<path d="M248.594 259.844H242.071V260.032H248.594V259.844Z" fill="#EBEBEB"/>
<path d="M312.059 250.838H297.656V251.025H312.059V250.838Z" fill="#EBEBEB"/>
<path d="M71.7891 252.099H39.3733V252.286H71.7891V252.099Z" fill="#EBEBEB"/>
<path d="M83.2274 252.099H78.4764V252.286H83.2274V252.099Z" fill="#EBEBEB"/>
<path d="M168.984 255.266H98.6735V255.454H168.984V255.266Z" fill="#EBEBEB"/>
<path d="M177.878 212.253H32.9562C31.8209 212.251 30.7327 211.798 29.9307 210.995C29.1286 210.191 28.6781 209.102 28.6781 207.967V4.24805C28.688 3.11926 29.1428 2.03995 29.9438 1.24456C30.7449 0.449166 31.8273 0.00193368 32.9562 0H177.878C179.014 0 180.105 0.451515 180.908 1.25522C181.712 2.05892 182.163 3.14897 182.163 4.28558V207.967C182.163 209.104 181.712 210.194 180.908 210.997C180.105 211.801 179.014 212.253 177.878 212.253ZM32.9562 0.150108C31.8706 0.152097 30.8302 0.584719 30.0633 1.35302C29.2965 2.12132 28.8657 3.16251 28.8657 4.24805V207.967C28.8657 209.052 29.2965 210.094 30.0633 210.862C30.8302 211.63 31.8706 212.063 32.9562 212.065H177.878C178.964 212.063 180.005 211.631 180.773 210.862C181.541 210.094 181.974 209.053 181.976 207.967V4.24805C181.974 3.16182 181.541 2.12064 180.773 1.35256C180.005 0.584475 178.964 0.152092 177.878 0.150108H32.9562Z" fill="#EBEBEB"/>
<path d="M340.227 212.253H195.298C194.162 212.251 193.073 211.798 192.27 210.995C191.466 210.192 191.014 209.103 191.012 207.967V4.24805C191.024 3.11858 191.481 2.03927 192.283 1.24409C193.085 0.448904 194.168 0.00191259 195.298 0H340.227C341.354 0.00390618 342.435 0.452012 343.234 1.24719C344.034 2.04237 344.488 3.12056 344.498 4.24805V207.967C344.498 209.101 344.048 210.189 343.248 210.992C342.447 211.795 341.361 212.249 340.227 212.253ZM195.298 0.150108C194.212 0.152092 193.17 0.584475 192.402 1.35256C191.634 2.12064 191.202 3.16182 191.2 4.24805V207.967C191.202 209.053 191.634 210.094 192.402 210.862C193.17 211.631 194.212 212.063 195.298 212.065H340.227C341.313 212.063 342.354 211.631 343.122 210.862C343.891 210.094 344.323 209.053 344.325 207.967V4.24805C344.323 3.16182 343.891 2.12064 343.122 1.35256C342.354 0.584475 341.313 0.152092 340.227 0.150108H195.298Z" fill="#EBEBEB"/>
<path d="M375.27 245.727H0V245.914H375.27V245.727Z" fill="#EBEBEB"/>
<path d="M102.396 246.582L101.631 263.207H99.7993L97.39 250.5L102.396 246.582Z" fill="#E0E0E0"/>
<path d="M51.1042 246.582L51.8773 263.207H53.7086L56.1179 250.5L51.1042 246.582Z" fill="#E0E0E0"/>
<path d="M41.2871 179.251L45.1899 252.917H49.5956L49.483 250.342H104.565L104.453 252.917H108.866L112.588 179.251H41.2871Z" fill="#F5F5F5"/>
<path d="M49.3179 246.425H104.738L107.47 183.717H46.601L49.3179 246.425Z" fill="#FAFAFA"/>
<path d="M49.1002 201.813H104.407L105.023 186.742H48.4923L49.1002 201.813Z" fill="#EBEBEB"/>
<path d="M51.0441 244.548H102.816L104.468 203.681H49.3929L51.0441 244.548Z" fill="#EBEBEB"/>
<path d="M76.8702 195.726C78.263 195.726 79.392 194.751 79.392 193.549C79.392 192.347 78.263 191.372 76.8702 191.372C75.4774 191.372 74.3484 192.347 74.3484 193.549C74.3484 194.751 75.4774 195.726 76.8702 195.726Z" fill="#F4F4F4"/>
<path d="M98.4257 226.663C98.877 226.694 99.3223 226.546 99.6651 226.251C100.008 225.956 100.221 225.538 100.257 225.087V214.204C100.221 213.753 100.008 213.335 99.6651 213.04C99.3223 212.745 98.877 212.597 98.4257 212.628C97.9753 212.597 97.5308 212.745 97.1892 213.04C96.8476 213.335 96.6365 213.754 96.6019 214.204V225.087C96.6365 225.537 96.8476 225.955 97.1892 226.25C97.5308 226.546 97.9753 226.694 98.4257 226.663Z" fill="#F4F4F4"/>
<path d="M44.8447 246.425L45.6178 263.049H48.2297L50.6389 250.342L44.8447 246.425Z" fill="#EBEBEB"/>
<path d="M108.836 246.582L108.07 263.207H105.451L103.042 250.5L108.836 246.582Z" fill="#EBEBEB"/>
<path d="M267.837 113.962C276.487 115.048 285.239 115.048 293.889 113.962C293.992 114.242 294.153 114.498 294.362 114.712C295.21 115.561 297.424 114.712 297.424 114.712C297.424 114.712 298.272 112.461 297.424 111.65C297.244 111.47 296.921 111.448 296.816 111.23C295.923 109.421 297.521 105.976 297.529 102.223C297.536 98.4707 295.945 95.0333 296.838 93.217C297.199 92.4664 298.084 92.1362 298.084 91.2731C298.084 90.4099 297.206 90.0497 296.846 89.3217C295.953 87.5054 297.551 84.0679 297.596 80.3152C297.641 76.5625 296.013 73.125 296.913 71.3087C297.018 71.0911 297.334 71.0685 297.514 70.8884C298.362 70.0478 297.514 67.8337 297.514 67.8337C297.514 67.8337 295.3 66.9856 294.452 67.8337C294.241 68.0439 294.226 68.4191 293.979 68.5843C291.66 69.8527 286.526 67.7587 280.957 67.7512C275.388 67.7437 270.194 69.8452 267.943 68.5692C267.695 68.4342 267.68 68.0589 267.47 67.8187C266.622 66.9706 264.407 67.8187 264.407 67.8187C264.407 67.8187 263.559 70.0703 264.407 70.8809C264.588 71.061 264.91 71.0836 265.015 71.3012C265.909 73.11 264.31 76.555 264.265 80.3077C264.22 84.0604 265.849 87.4903 264.955 89.3142C264.595 90.0647 263.709 90.3949 263.709 91.258C263.709 92.1212 264.588 92.4814 264.948 93.2095C265.841 95.0258 264.242 98.4632 264.235 102.216C264.227 105.969 265.819 109.406 264.918 111.222C264.813 111.44 264.498 111.463 264.317 111.643C263.469 112.483 264.317 114.697 264.317 114.697C264.317 114.697 266.569 115.546 267.38 114.697C267.581 114.486 267.736 114.236 267.837 113.962Z" fill="#E0E0E0"/>
<path d="M266.772 113.962C275.419 115.048 284.168 115.048 292.815 113.962C292.924 114.242 293.087 114.497 293.296 114.712C294.136 115.561 296.358 114.712 296.358 114.712C296.358 114.712 297.206 112.461 296.358 111.65C296.178 111.47 295.863 111.448 295.75 111.23C294.864 109.421 296.463 105.976 296.463 102.223C296.463 98.4707 294.879 95.0333 295.78 93.217C296.14 92.4664 297.018 92.1362 297.018 91.2731C297.018 90.4099 296.14 90.0497 295.788 89.3217C294.894 87.5053 296.493 84.0679 296.493 80.3152C296.493 76.5625 294.909 73.125 295.81 71.3087C295.915 71.0911 296.238 71.0685 296.418 70.8884C297.266 70.0478 296.418 67.8337 296.418 67.8337C296.418 67.8337 294.211 66.9856 293.363 67.8337C293.146 68.0439 293.131 68.4191 292.883 68.5843C290.564 69.8527 285.43 67.7587 279.861 67.7512C274.292 67.7437 269.151 69.8226 266.832 68.5467C266.584 68.4116 266.569 68.0364 266.359 67.7962C265.518 66.9481 263.297 67.7962 263.297 67.7962C263.297 67.7962 262.449 70.0478 263.297 70.8584C263.477 71.0385 263.792 71.061 263.897 71.2787C264.79 73.0875 263.192 76.5325 263.192 80.2852C263.192 84.0379 264.768 87.4678 263.875 89.2916C263.514 90.0422 262.636 90.3724 262.629 91.2355C262.621 92.0986 263.514 92.4589 263.867 93.1869C264.76 95.0032 263.162 98.4407 263.154 102.193C263.147 105.946 264.738 109.384 263.845 111.2C263.74 111.418 263.417 111.44 263.237 111.62C262.389 112.461 263.237 114.675 263.237 114.675C263.237 114.675 265.451 115.523 266.299 114.675C266.502 114.471 266.663 114.229 266.772 113.962Z" fill="#EBEBEB"/>
<path d="M265.849 98.0205V84.5107C265.849 82.674 266.213 80.8554 266.917 79.1592C267.622 77.463 268.655 75.9225 269.955 74.6258C271.256 73.3291 272.8 72.3017 274.499 71.6024C276.197 70.9032 278.017 70.5458 279.854 70.5507C283.559 70.5567 287.11 72.0337 289.726 74.6572C292.343 77.2806 293.81 80.8356 293.806 84.5408V98.0505C293.804 99.8847 293.441 101.701 292.737 103.394C292.033 105.088 291.003 106.627 289.705 107.923C288.406 109.218 286.865 110.245 285.17 110.946C283.474 111.646 281.658 112.005 279.824 112.003C277.988 112.003 276.17 111.641 274.474 110.938C272.778 110.236 271.237 109.206 269.939 107.907C268.641 106.609 267.612 105.067 266.91 103.371C266.208 101.674 265.848 99.8563 265.849 98.0205Z" fill="#F4F4F4"/>
<path d="M210.977 55.1646C214.849 55.7208 218.759 55.9717 222.67 55.9152C226.584 55.9757 230.497 55.7247 234.371 55.1646C234.463 55.4093 234.609 55.63 234.799 55.8101C235.549 56.5606 237.546 55.8101 237.546 55.8101C237.546 55.8101 238.296 53.8212 237.546 53.0631C237.388 52.898 237.095 52.883 237.005 52.6879C236.202 51.0592 237.636 47.9595 237.643 44.6121C237.651 41.2647 236.225 42.7958 237.028 41.1671C237.351 40.5216 238.139 40.1989 238.139 39.4183C238.139 38.6378 237.351 38.3225 237.035 37.6696C236.232 36.0409 237.666 37.0841 237.673 33.7367C237.681 30.3893 236.247 27.2821 237.058 25.6534C237.148 25.4583 237.441 25.4433 237.598 25.2782C238.349 24.5276 237.598 22.5312 237.598 22.5312C237.598 22.5312 235.609 21.7807 234.851 22.5312C234.656 22.7188 234.641 23.0566 234.416 23.1767C232.337 24.31 227.729 22.4261 222.723 22.4261C217.716 22.4261 213.108 24.2875 211.029 23.1391C210.804 23.019 210.789 22.6813 210.601 22.4937C209.851 21.7431 207.854 22.4937 207.854 22.4937C207.854 22.4937 207.104 24.4826 207.854 25.2481C208.02 25.4058 208.305 25.4283 208.395 25.6234C209.198 27.2521 207.764 30.3518 207.757 33.6992C207.749 37.0466 209.183 36.0109 208.372 37.632C208.05 38.285 207.261 38.6077 207.261 39.3808C207.261 40.1539 208.05 40.4841 208.372 41.1371C209.168 42.7657 207.734 41.2271 207.734 44.5745C207.734 47.9219 209.153 51.0292 208.35 52.6503C208.252 52.8455 207.967 52.868 207.802 53.0256C207.051 53.7761 207.802 55.7726 207.802 55.7726C207.802 55.7726 209.791 56.5231 210.556 55.7726C210.731 55.5964 210.874 55.3905 210.977 55.1646Z" fill="#E0E0E0"/>
<path d="M210.346 55.1646C214.218 55.7205 218.128 55.9714 222.04 55.9152C225.954 55.976 229.866 55.725 233.74 55.1646C233.834 55.4106 233.98 55.6334 234.168 55.8176C234.919 56.5681 236.915 55.8176 236.915 55.8176C236.915 55.8176 237.666 53.8287 236.915 53.0706C236.758 52.9055 236.472 52.8905 236.375 52.6954C235.572 51.0667 237.005 47.967 237.013 44.6196C237.02 41.2722 235.594 42.8033 236.397 41.1746C236.72 40.5291 237.508 40.2064 237.516 39.4258C237.523 38.6453 236.72 38.33 236.405 37.6771C235.602 36.0484 237.035 37.0917 237.043 33.7443C237.05 30.3968 235.617 27.2896 236.427 25.6609C236.517 25.4658 236.81 25.4508 236.968 25.2857C237.718 24.5351 236.968 22.5387 236.968 22.5387C236.968 22.5387 234.979 21.7882 234.221 22.5387C234.026 22.7263 234.011 23.0641 233.793 23.1842C231.707 24.3175 227.098 22.4336 222.092 22.4336C217.086 22.4336 212.478 24.295 210.399 23.1466C210.174 23.0265 210.159 22.6963 209.971 22.5012C209.22 21.7506 207.224 22.5012 207.224 22.5012C207.224 22.5012 206.473 24.4826 207.224 25.2481C207.389 25.4058 207.674 25.4283 207.772 25.6234C208.567 27.2521 207.134 30.3518 207.126 33.6992C207.119 37.0466 208.552 36.0109 207.742 37.632C207.419 38.285 206.631 38.6077 206.631 39.3808C206.631 40.1539 207.419 40.4841 207.742 41.1371C208.537 42.7657 207.104 41.2271 207.104 44.5745C207.104 47.9219 208.522 51.0292 207.719 52.6503C207.622 52.8455 207.336 52.868 207.171 53.0256C206.421 53.7761 207.171 55.7726 207.171 55.7726C207.171 55.7726 209.153 56.5231 209.918 55.7726C210.097 55.5982 210.242 55.392 210.346 55.1646Z" fill="#EBEBEB"/>
<path d="M234.248 53.4201L234.303 24.9822L209.212 24.9341L209.158 53.372L234.248 53.4201Z" fill="#F4F4F4"/>
<path d="M325.546 176.602H297.521V176.992H325.546V176.602Z" fill="#E0E0E0"/>
<path d="M307.443 173.772H304.134V175.716H307.443V173.772Z" fill="#E0E0E0"/>
<path d="M307.443 173.772V175.716L318.146 174.741V173.772H307.443Z" fill="#E0E0E0"/>
<path d="M319.219 175.716L318.686 176.805L318.146 175.716V172.617H319.219V175.716Z" fill="#E0E0E0"/>
<path d="M306.295 175.716H304.134V177.878H306.295V175.716Z" fill="#E0E0E0"/>
<path d="M313.343 176.602H310.311V177.878H313.343V176.602Z" fill="#E0E0E0"/>
<path d="M327.31 177.878H295.908V187.95H327.31V177.878Z" fill="#EBEBEB"/>
<path d="M290.204 165.344C290.394 165.767 290.703 166.125 291.094 166.376C291.484 166.626 291.939 166.758 292.403 166.755C295.042 163.729 298.51 161.542 302.378 160.466C306.246 159.389 310.345 159.47 314.168 160.698C320.007 162.567 325.051 164.451 327.34 166.942C328.594 168.301 328.421 172.316 327.34 174.936C326.747 176.347 326.184 177.488 326.027 177.878H327.363V177.983C327.828 177.405 334.118 169.479 331.753 165.704C329.104 161.479 319.88 155.895 312.877 152.082C310.234 150.651 307.936 148.657 306.148 146.241C304.359 143.825 303.123 141.046 302.527 138.099L301.777 134.226L301.604 134.587C301.475 134.417 301.305 134.282 301.109 134.196C299.743 133.596 297.994 135.367 297.469 136.448C297.1 137.237 296.966 138.115 297.08 138.978C297.194 139.841 297.553 140.653 298.114 141.319C296.991 141.506 295.938 141.985 295.06 142.71C294.182 143.435 293.511 144.378 293.115 145.445C292.719 146.512 292.611 147.665 292.804 148.787C292.997 149.909 293.482 150.96 294.211 151.834C293.258 152.177 292.418 152.777 291.784 153.567C291.151 154.358 290.748 155.308 290.621 156.313C290.493 157.318 290.646 158.339 291.063 159.262C291.479 160.186 292.143 160.976 292.98 161.546C292.119 161.778 291.339 162.246 290.729 162.897C290.436 163.224 290.233 163.622 290.141 164.051C290.049 164.48 290.071 164.926 290.204 165.344Z" fill="#EBEBEB"/>
<path d="M277.422 254.028H318.334V243.843H277.422V254.028Z" fill="#EBEBEB"/>
<path opacity="0.1" d="M277.557 254.073H318.469V243.888H277.557V254.073Z" fill="#F4F4F4"/>
<path opacity="0.6" d="M277.422 254.073H308.824V243.888H277.422V254.073Z" fill="#F4F4F4"/>
<path d="M277.617 252.737L318.334 253.998L318.289 252.969L277.594 252.436L277.617 252.737Z" fill="#E0E0E0"/>
<path d="M318.334 248.023L277.685 245.734V246.079L318.334 248.804V248.023Z" fill="#E0E0E0"/>
<path d="M318.334 244.953L277.685 245.884V246.214L318.334 245.727V244.953Z" fill="#E0E0E0"/>
<path d="M318.454 250.027L277.79 252.009V251.708L318.454 249.344V250.027Z" fill="#E0E0E0"/>
<path d="M277.519 243.978L318.176 244.015V244.346H277.519V243.978Z" fill="#E0E0E0"/>
<path d="M280.356 223.706H321.268V213.521H280.356V223.706Z" fill="#E0E0E0"/>
<path opacity="0.5" d="M280.604 224.111H321.516V213.926H280.604V224.111Z" fill="#F4F4F4"/>
<path opacity="0.6" d="M280.356 223.751H311.759V213.566H280.356V223.751Z" fill="#F4F4F4"/>
<path d="M280.552 222.407L321.268 223.676L321.223 222.64L280.529 222.115L280.552 222.407Z" fill="#E0E0E0"/>
<path d="M321.268 217.701L280.619 215.412V215.758L321.268 218.474V217.701Z" fill="#E0E0E0"/>
<path d="M321.268 214.624L280.619 215.555V215.893L321.268 215.405V214.624Z" fill="#E0E0E0"/>
<path d="M321.388 219.705L280.724 221.687V221.387L321.388 219.022V219.705Z" fill="#E0E0E0"/>
<path d="M279.846 243.708H320.758V233.523H279.846V243.708Z" fill="#E0E0E0"/>
<path opacity="0.5" d="M279.981 243.753H320.893V233.568H279.981V243.753Z" fill="#F4F4F4"/>
<path opacity="0.6" d="M311.339 233.568H279.936V243.753H311.339V233.568Z" fill="#F4F4F4"/>
<path d="M320.585 242.116L279.891 242.642L279.846 243.678L320.563 242.417L320.585 242.116Z" fill="#E0E0E0"/>
<path d="M280.109 233.658L320.765 233.695V234.026H280.109V233.658Z" fill="#E0E0E0"/>
<path d="M279.846 238.476L320.503 235.759V235.414L279.846 237.703V238.476Z" fill="#E0E0E0"/>
<path d="M320.765 234.626L280.109 235.557V235.895L320.765 235.407V234.626Z" fill="#E0E0E0"/>
<path d="M320.878 239.707L280.214 241.689V241.388L320.878 239.024V239.707Z" fill="#E0E0E0"/>
<path d="M319.347 223.931L278.45 224.134L278.39 234.108H319.347V223.931Z" fill="#E0E0E0"/>
<path opacity="0.5" d="M278.435 234.108H319.347V223.923H278.435V234.108Z" fill="#F4F4F4"/>
<path opacity="0.6" d="M309.793 223.931H278.39V234.116H309.793V223.931Z" fill="#F4F4F4"/>
<path d="M311.023 224.134H278.45V225.169H310.325L311.023 224.134Z" fill="#E0E0E0"/>
<path d="M319.107 228.307L278.45 228.682V228.982H319.107V228.307Z" fill="#E0E0E0"/>
<path d="M278.45 233.012L319.107 231.031V231.331L278.45 233.695V233.012Z" fill="#E0E0E0"/>
<path d="M278.45 229.185L319.107 229.995V230.288L278.45 229.868V229.185Z" fill="#E0E0E0"/>
<path d="M329.795 201.782H289.138V206.909H329.795V201.782Z" fill="#E0E0E0"/>
<path opacity="0.5" d="M329.795 201.782H289.138V206.909H329.795V201.782Z" fill="#F4F4F4"/>
<path opacity="0.6" d="M321.539 201.782H289.138V206.909H321.539V201.782Z" fill="#F4F4F4"/>
<path d="M329.817 205.415L289.16 205.618V205.768H329.817V205.415Z" fill="#E0E0E0"/>
<path d="M289.16 203.501L329.817 202.466V202.623L289.16 203.854V203.501Z" fill="#E0E0E0"/>
<path d="M289.025 203.216L329.682 203.636V203.794L289.025 203.569V203.216Z" fill="#E0E0E0"/>
<path d="M324.105 199.523H283.449V201.993H324.105V199.523Z" fill="#E0E0E0"/>
<path opacity="0.5" d="M324.105 199.546H283.449V201.993H324.105V199.546Z" fill="#F4F4F4"/>
<path opacity="0.6" d="M315.85 199.388H283.449V201.993H315.85V199.388Z" fill="#F4F4F4"/>
<path d="M283.471 201.407L324.12 200.371V200.529L283.471 201.752V201.407Z" fill="#E0E0E0"/>
<path d="M283.471 200.161L324.12 200.582V200.739L283.471 200.514V200.161Z" fill="#E0E0E0"/>
<path d="M327.888 197.002H287.231V199.471H327.888V197.002Z" fill="#E0E0E0"/>
<path opacity="0.5" d="M327.888 197.024H287.231V199.471H327.888V197.024Z" fill="#F4F4F4"/>
<path opacity="0.6" d="M319.632 196.866H287.231V199.471H319.632V196.866Z" fill="#F4F4F4"/>
<path d="M287.261 198.112L327.926 198.615L327.918 198.765L287.246 198.465L287.261 198.112Z" fill="#E0E0E0"/>
<path d="M287.254 197.64L327.911 198.06V198.217L287.254 197.992V197.64Z" fill="#E0E0E0"/>
<path d="M327.04 206.909H286.383V213.513H327.04V206.909Z" fill="#E0E0E0"/>
<path opacity="0.5" d="M327.04 206.909H286.383V213.513H327.04V206.909Z" fill="#F4F4F4"/>
<path opacity="0.6" d="M317.756 206.909H286.383V213.513H317.756V206.909Z" fill="#F4F4F4"/>
<path d="M326.785 208.958L286.128 208.725V208.552H326.785V208.958Z" fill="#E0E0E0"/>
<path d="M286.406 209.918L327.062 211.112V210.932L286.406 209.513V209.918Z" fill="#E0E0E0"/>
<path d="M327.062 206.916H288.717L289.566 207.727H327.062V206.916Z" fill="#E0E0E0"/>
<path d="M286.548 212.493L327.205 211.997V211.825L286.548 212.08V212.493Z" fill="#E0E0E0"/>
<path d="M331.919 197.212H290.083V187.845H331.919C332.414 190.948 332.414 194.109 331.919 197.212Z" fill="#E0E0E0"/>
<path d="M293.836 188.13H291.652V196.821H293.836V188.13Z" fill="#F4F4F4"/>
<path d="M61.6343 131.75H140.876V22.989L61.6343 22.989L61.6343 131.75Z" fill="#E0E0E0"/>
<path d="M58.3844 131.75H141.409V22.989L58.3844 22.989L58.3844 131.75Z" fill="#F0F0F0"/>
<path d="M62.8427 126.571L137.109 126.571V26.5691L62.8427 26.5691L62.8427 126.571Z" fill="#F4F4F4"/>
<path d="M62.8427 126.571H65.6422L65.6422 26.5691H62.8427L62.8427 126.571Z" fill="#E0E0E0"/>
<path d="M65.3419 89.2616V92.0612H137.356V89.2616H65.3419Z" fill="#E0E0E0"/>
<path d="M62.8427 89.2617L138.61 89.2617V84.5633L62.8427 84.5633V89.2617Z" fill="#F0F0F0"/>
<path d="M101.39 103.252C101.625 102.788 102.003 102.413 102.468 102.18C102.933 101.948 103.46 101.871 103.972 101.961C104.486 102.09 104.946 102.377 105.29 102.78C105.633 103.184 105.841 103.685 105.886 104.212C106.239 103.955 106.662 103.811 107.099 103.799C107.536 103.787 107.966 103.907 108.333 104.145C108.702 104.409 108.99 104.771 109.165 105.19C109.34 105.609 109.395 106.068 109.324 106.517C109.526 106.367 109.757 106.262 110.002 106.208C110.248 106.153 110.502 106.151 110.748 106.202C110.994 106.252 111.227 106.353 111.432 106.499C111.636 106.645 111.808 106.833 111.935 107.049C112.176 107.513 112.228 108.052 112.08 108.553C111.931 109.054 111.594 109.479 111.14 109.736C111.458 109.778 111.75 109.936 111.958 110.18C112.167 110.424 112.277 110.737 112.269 111.058C112.26 111.379 112.134 111.685 111.913 111.918C111.692 112.15 111.392 112.293 111.072 112.318C111.396 112.343 111.702 112.48 111.937 112.704C112.172 112.928 112.323 113.227 112.363 113.549C112.394 113.873 112.314 114.197 112.137 114.47C111.96 114.742 111.696 114.947 111.388 115.05C111.541 115.139 111.672 115.26 111.773 115.406C111.873 115.552 111.939 115.719 111.966 115.894C111.994 116.069 111.981 116.248 111.931 116.417C111.88 116.587 111.792 116.743 111.673 116.874C111.536 116.98 111.376 117.051 111.206 117.082C111.036 117.112 110.86 117.1 110.696 117.048C110.531 116.995 110.382 116.904 110.26 116.78C110.139 116.657 110.049 116.507 109.999 116.341C109.974 116.389 109.939 116.431 109.895 116.463C109.852 116.494 109.801 116.516 109.748 116.524C109.695 116.533 109.64 116.529 109.588 116.513C109.537 116.497 109.49 116.469 109.451 116.431C109.417 116.388 109.392 116.337 109.378 116.283C109.364 116.229 109.363 116.173 109.373 116.118C109.383 116.064 109.404 116.012 109.436 115.966C109.467 115.92 109.509 115.882 109.556 115.853C109.478 115.942 109.377 116.008 109.264 116.042C109.152 116.077 109.031 116.08 108.917 116.05C108.802 116.021 108.698 115.96 108.617 115.875C108.535 115.79 108.478 115.684 108.453 115.568C108.671 116.731 107.282 117.82 106.299 117.272C106.35 117.4 106.374 117.537 106.369 117.675C106.364 117.813 106.33 117.949 106.269 118.072C106.208 118.196 106.122 118.306 106.016 118.394C105.91 118.483 105.786 118.548 105.653 118.585C105.115 118.674 104.563 118.565 104.1 118.277C103.646 117.993 103.132 117.815 102.599 117.76C102.127 117.821 101.667 117.95 101.233 118.142C100.503 118.364 99.7266 118.378 98.9896 118.183C98.2525 117.989 97.5843 117.592 97.0598 117.039C96.8652 117.275 96.613 117.456 96.3276 117.565C96.0423 117.674 95.7335 117.708 95.4313 117.663C95.1292 117.617 94.8439 117.495 94.6032 117.307C94.3624 117.118 94.1745 116.871 94.0576 116.589C94.0001 116.867 93.8557 117.119 93.6451 117.309C93.4346 117.5 93.169 117.618 92.8868 117.647C92.6041 117.651 92.3276 117.564 92.0979 117.399C91.8683 117.235 91.6975 117 91.6108 116.731C91.6108 116.987 91.6108 117.242 91.6108 117.482C91.3463 117.504 91.0805 117.459 90.8377 117.352C90.595 117.244 90.3832 117.078 90.2218 116.867C90.0604 116.656 89.9545 116.408 89.9139 116.146C89.8734 115.883 89.8994 115.615 89.9897 115.365C89.6144 115.345 89.2583 115.193 88.9837 114.937C88.7092 114.68 88.5339 114.335 88.4886 113.962C88.4456 113.58 88.5356 113.196 88.7435 112.873C88.9514 112.55 89.2643 112.309 89.6294 112.191C89.0073 111.987 88.4646 111.594 88.0777 111.066C87.6907 110.538 87.4791 109.902 87.4725 109.248C87.4658 108.593 87.6646 107.953 88.0407 107.417C88.4169 106.882 88.9515 106.477 89.5694 106.261C89.8044 106.172 90.0581 106.143 90.3073 106.177C90.5565 106.211 90.7931 106.307 90.9954 106.456C91.0902 106.542 91.166 106.646 91.2178 106.762C91.2697 106.879 91.2965 107.005 91.2965 107.132C91.2965 107.259 91.2697 107.385 91.2178 107.502C91.166 107.618 91.0902 107.722 90.9954 107.807C90.8212 107.21 90.8463 106.571 91.0671 105.989C91.2878 105.407 91.6921 104.912 92.2188 104.58C92.7502 104.295 93.3657 104.208 93.9555 104.334C94.5452 104.461 95.0708 104.793 95.4386 105.271C95.2646 105.005 95.1719 104.695 95.1719 104.378C95.1719 104.06 95.2646 103.75 95.4386 103.484C95.6117 103.233 95.8619 103.044 96.1515 102.946C96.4412 102.849 96.7546 102.848 97.0447 102.944C97.118 102.545 97.3383 102.188 97.6621 101.943C97.9859 101.699 98.3896 101.584 98.7935 101.623C99.1927 101.711 99.5459 101.942 99.7864 102.272C100.027 102.603 100.138 103.01 100.099 103.417C100.13 103.254 100.209 103.105 100.326 102.988C100.443 102.872 100.592 102.793 100.755 102.763C100.917 102.733 101.085 102.753 101.236 102.82C101.387 102.887 101.514 102.998 101.601 103.139C101.961 103.027 101.39 103.252 101.39 103.252Z" fill="#EBEBEB"/>
<path d="M101.098 110.975C101.418 110.742 101.817 110.645 102.208 110.705C102.4 110.739 102.578 110.828 102.721 110.961C102.863 111.095 102.964 111.266 103.011 111.455C103.059 111.647 103.029 111.85 102.928 112.02C102.827 112.19 102.663 112.314 102.471 112.363C102.013 112.476 101.555 112.093 101.083 112.161C100.917 112.161 100.76 112.266 100.595 112.303C100.248 112.337 99.898 112.295 99.5697 112.178C99.2415 112.061 98.9431 111.873 98.6959 111.628C98.4905 111.492 98.3102 111.322 98.163 111.125C98.0928 111.024 98.051 110.906 98.0417 110.783C98.0325 110.66 98.0562 110.537 98.1105 110.427C98.219 110.295 98.3627 110.197 98.5248 110.144C98.6869 110.091 98.8607 110.085 99.0261 110.127C99.7096 110.196 100.36 110.456 100.902 110.877C100.902 110.772 100.902 110.667 100.85 110.554L101.098 110.975Z" fill="#FAFAFA"/>
<path d="M91.2956 110.389C91.4731 110.252 91.674 110.148 91.8886 110.082C91.9958 110.049 92.1101 110.048 92.2178 110.079C92.3256 110.109 92.4223 110.17 92.4965 110.254C92.5757 110.389 92.6012 110.549 92.5678 110.702C92.5344 110.855 92.4447 110.99 92.3164 111.08C92.0566 111.246 91.7604 111.346 91.4532 111.373C91.1455 111.418 90.7477 111.425 90.5976 111.155C90.5521 111.049 90.5413 110.932 90.567 110.82C90.5926 110.708 90.6533 110.607 90.7402 110.532C90.9208 110.388 91.1309 110.285 91.3557 110.232L91.2956 110.389Z" fill="#FAFAFA"/>
<path d="M106.779 105.293C107.092 105.426 107.369 105.632 107.587 105.893C107.805 106.154 107.958 106.463 108.033 106.794C108.078 106.989 108.07 107.245 107.898 107.35C107.831 107.378 107.76 107.392 107.687 107.392C107.615 107.392 107.544 107.378 107.477 107.35L105.683 106.929C105.976 107.02 106.248 107.165 106.487 107.357C106.607 107.453 106.7 107.579 106.754 107.723C106.808 107.868 106.822 108.024 106.794 108.175C106.736 108.347 106.623 108.495 106.472 108.596C106.322 108.698 106.142 108.748 105.961 108.738C105.601 108.707 105.258 108.569 104.978 108.34C104.81 108.247 104.667 108.115 104.558 107.956C104.45 107.797 104.381 107.615 104.355 107.425C104.355 107.034 104.828 106.674 105.106 106.929C104.421 106.739 103.77 106.443 103.177 106.051C102.957 105.917 102.768 105.738 102.621 105.526C102.546 105.417 102.501 105.29 102.49 105.159C102.48 105.027 102.504 104.895 102.561 104.775C103.177 103.657 103.95 105.293 104.332 105.443C105.076 105.743 105.871 104.918 106.779 105.293Z" fill="#FAFAFA"/>
<path d="M109.579 110.052C109.615 110.16 109.62 110.276 109.592 110.386C109.564 110.497 109.504 110.597 109.421 110.675C109.378 110.71 109.327 110.735 109.273 110.748C109.218 110.761 109.162 110.762 109.107 110.75C109.053 110.739 109.001 110.715 108.957 110.681C108.912 110.648 108.876 110.604 108.851 110.554C109.263 110.64 109.638 110.853 109.924 111.162C109.989 111.242 110.036 111.335 110.061 111.436C110.087 111.536 110.089 111.64 110.069 111.741C110.049 111.842 110.007 111.938 109.945 112.021C109.884 112.104 109.805 112.172 109.714 112.221C109.584 112.244 109.451 112.242 109.322 112.213C109.193 112.185 109.071 112.131 108.963 112.056C108.314 111.698 107.694 111.289 107.109 110.832C107.29 111.245 106.862 111.71 106.411 111.748C105.961 111.736 105.525 111.584 105.166 111.313C104.7 111.027 104.16 110.562 104.28 110.052C104.367 109.83 104.537 109.65 104.754 109.551C104.971 109.452 105.218 109.44 105.443 109.519C105.891 109.697 106.28 109.996 106.569 110.382C106.314 110.014 106.674 109.466 107.117 109.406C107.331 109.396 107.545 109.437 107.74 109.528C107.935 109.618 108.105 109.754 108.235 109.924C107.74 109.654 107.627 108.941 108.295 108.858C108.731 108.828 109.466 109.691 109.579 110.052Z" fill="#FAFAFA"/>
<path d="M95.8813 108.445C95.9813 108.384 96.0944 108.346 96.2114 108.336C96.3285 108.326 96.4463 108.344 96.5553 108.388C96.6643 108.432 96.7615 108.5 96.8391 108.589C96.9167 108.677 96.9725 108.782 97.002 108.896C97.0315 109.009 97.0339 109.128 97.009 109.243C96.9841 109.358 96.9325 109.465 96.8586 109.557C96.7846 109.648 96.6903 109.721 96.5831 109.769C96.4759 109.817 96.359 109.839 96.2416 109.834C96.5337 109.865 96.8025 110.007 96.9921 110.232C97.0494 110.291 97.0931 110.362 97.1203 110.44C97.1475 110.517 97.1575 110.6 97.1498 110.682C97.1206 110.8 97.0519 110.905 96.9549 110.979C96.8579 111.053 96.7386 111.091 96.6169 111.087C96.3714 111.083 96.1311 111.016 95.9189 110.892C96.1613 110.893 96.3984 110.963 96.6019 111.095C96.6512 111.129 96.6931 111.172 96.7253 111.222C96.7574 111.272 96.779 111.329 96.7888 111.388C96.7986 111.447 96.7964 111.507 96.7824 111.565C96.7683 111.623 96.7426 111.677 96.7069 111.725C96.6254 111.784 96.5302 111.821 96.4305 111.833C96.3307 111.845 96.2295 111.831 96.1365 111.793C95.6956 111.669 95.2913 111.439 94.9582 111.125C94.8415 111.27 94.6908 111.385 94.5193 111.458C94.3477 111.532 94.1608 111.561 93.975 111.545C93.8837 111.533 93.796 111.502 93.7174 111.454C93.6387 111.406 93.5708 111.342 93.518 111.267C93.4651 111.191 93.4284 111.106 93.4102 111.015C93.392 110.925 93.3926 110.832 93.4121 110.742C93.4613 110.618 93.5445 110.511 93.6521 110.433C93.7597 110.355 93.8872 110.308 94.02 110.299C94.2759 110.284 94.5321 110.325 94.7705 110.419C94.4922 110.262 94.2714 110.02 94.1401 109.729C94.05 109.429 94.2527 109.023 94.5679 109.046C94.8831 109.068 95.1008 109.556 95.386 109.729C95.7688 109.406 95.1233 108.731 95.8813 108.445Z" fill="#FAFAFA"/>
<path d="M102.268 106.974C102.458 107.129 102.606 107.329 102.696 107.556C102.787 107.783 102.818 108.03 102.786 108.273C102.791 108.541 102.724 108.806 102.592 109.04C102.46 109.273 102.268 109.467 102.036 109.601C101.869 109.654 101.693 109.671 101.519 109.651C101.346 109.63 101.178 109.573 101.028 109.483C100.879 109.393 100.75 109.271 100.65 109.128C100.551 108.984 100.483 108.82 100.452 108.648C100.419 108.295 100.493 107.94 100.666 107.63C100.839 107.321 101.102 107.071 101.42 106.914C101.556 106.856 101.704 106.831 101.852 106.842C101.999 106.852 102.142 106.898 102.268 106.974Z" fill="#FAFAFA"/>
<path d="M97.7428 106.396L97.5702 106.577C97.6743 106.447 97.8161 106.353 97.976 106.307C98.1359 106.262 98.306 106.267 98.4628 106.322C98.6197 106.377 98.7556 106.48 98.8517 106.615C98.9478 106.751 98.9994 106.913 98.9994 107.079C98.9994 107.246 98.9478 107.408 98.8517 107.544C98.7556 107.679 98.6197 107.782 98.4628 107.837C98.306 107.892 98.1359 107.897 97.976 107.852C97.8161 107.806 97.6743 107.712 97.5702 107.582C97.3378 107.695 97.0754 107.73 96.8214 107.683C96.5675 107.636 96.3354 107.508 96.1591 107.32C96.0786 107.22 96.0195 107.105 95.9855 106.981C95.9516 106.858 95.9435 106.728 95.9618 106.602C95.9801 106.475 96.0245 106.353 96.092 106.244C96.1595 106.135 96.2488 106.041 96.3543 105.969C96.4666 105.914 96.5908 105.887 96.7158 105.892C96.8408 105.898 96.9625 105.934 97.0699 105.998C97.1773 106.062 97.2669 106.152 97.3307 106.26C97.3945 106.367 97.4304 106.489 97.4351 106.614L97.6302 106.396H97.7428Z" fill="#FAFAFA"/>
<path d="M92.7441 107.2C93.0847 107.491 93.3434 107.866 93.4946 108.288C93.5637 108.502 93.5487 108.735 93.4525 108.938C93.3563 109.142 93.1861 109.301 92.9767 109.384C92.5489 109.496 92.1361 109.136 91.8884 108.768C91.7624 108.61 91.6734 108.425 91.6279 108.228C91.5825 108.03 91.5817 107.825 91.6258 107.627C91.7533 107.245 92.3012 107.019 92.5789 107.312L92.7441 107.2Z" fill="#FAFAFA"/>
<path d="M99.9493 104.58C100.047 104.407 100.209 104.28 100.401 104.227C100.592 104.173 100.797 104.198 100.97 104.295C101.133 104.411 101.252 104.578 101.309 104.77C101.366 104.962 101.358 105.167 101.285 105.353C101.202 105.536 101.072 105.694 100.909 105.812C100.746 105.929 100.555 106.001 100.355 106.021C99.8667 106.074 99.2813 105.676 99.3939 105.196C99.2797 105.328 99.1339 105.43 98.9699 105.492C98.806 105.554 98.6291 105.573 98.4557 105.548C98.1076 105.498 97.7746 105.373 97.48 105.181C97.0672 104.94 96.6244 104.58 96.6694 104.1C96.7001 103.917 96.7903 103.749 96.926 103.623C97.0617 103.497 97.2354 103.419 97.42 103.402C97.6094 103.394 97.7985 103.423 97.9764 103.489C98.1542 103.555 98.3172 103.655 98.4557 103.785C98.6631 103.998 98.8837 104.199 99.1162 104.385C99.2319 104.48 99.3715 104.541 99.5197 104.563C99.6679 104.584 99.8191 104.564 99.9568 104.505L99.9493 104.58Z" fill="#FAFAFA"/>
<path d="M93.7949 126.571H106.179L107.395 114.089H92.5865L93.7949 126.571Z" fill="#EBEBEB"/>
<path d="M91.6258 114.735H108.475L108.783 113.076H91.3181L91.6258 114.735Z" fill="#F5F5F5"/>
<path d="M296.41 52.245C297.025 47.9328 297.294 43.5783 297.214 39.2232C297.311 34.867 297.06 30.51 296.463 26.1938C296.742 26.0875 296.997 25.9268 297.214 25.721C298.054 24.8728 297.214 22.6588 297.214 22.6588C297.214 22.6588 294.999 21.8107 294.151 22.6588C293.971 22.8389 293.956 23.1541 293.739 23.2592C291.922 24.1523 288.485 22.5537 284.732 22.5462C280.979 22.5387 277.549 24.1298 275.726 23.2367C274.975 22.8764 274.637 21.9908 273.774 21.9908C272.911 21.9908 272.551 22.8764 271.823 23.2292C270.014 24.1223 266.569 22.5237 262.816 22.4786C259.064 22.4336 255.626 24.0623 253.81 23.1691C253.592 23.0565 253.577 22.7413 253.397 22.5612C252.549 21.7131 250.335 22.5612 250.335 22.5612C250.335 22.5612 249.487 24.8128 250.335 25.6234C250.553 25.8335 250.92 25.8561 251.085 26.1037C252.354 28.4154 250.26 33.5566 250.252 39.1256C250.245 44.6946 252.324 49.8358 251.048 52.1475C250.913 52.3951 250.545 52.4101 250.297 52.6278C249.449 53.4684 250.297 55.6825 250.297 55.6825C250.297 55.6825 252.511 56.5306 253.352 55.6825C253.532 55.5024 253.555 55.1796 253.772 55.0746C255.589 54.1814 259.026 55.7801 262.779 55.7876C266.532 55.7951 269.961 54.2039 271.785 55.1046C272.536 55.4648 272.874 56.343 273.737 56.343C274.6 56.343 274.96 55.4648 275.688 55.1046C277.497 54.2189 280.942 55.8176 284.695 55.8176C288.447 55.8176 291.877 54.234 293.701 55.1346C293.911 55.2397 293.934 55.5624 294.114 55.7425C294.962 56.5831 297.176 55.7425 297.176 55.7425C297.176 55.7425 298.024 53.5284 297.176 52.6878C296.956 52.4865 296.695 52.3354 296.41 52.245Z" fill="#E0E0E0"/>
<path d="M296.41 53.2883C297.024 48.9834 297.292 44.6365 297.214 40.289C297.311 35.9353 297.06 31.5808 296.463 27.2671C296.744 27.161 297 26.9974 297.214 26.7868C298.054 25.9462 297.214 23.7321 297.214 23.7321C297.214 23.7321 294.999 22.8839 294.151 23.7321C293.971 23.9122 293.956 24.2349 293.739 24.34C291.922 25.2331 288.485 23.6345 284.732 23.5895C280.979 23.5444 277.549 25.1731 275.726 24.2724C274.975 23.9197 274.637 23.0341 273.774 23.0341C272.911 23.0341 272.551 23.9122 271.823 24.2724C270.014 25.1581 266.569 23.5669 262.816 23.5594C259.064 23.5519 255.626 25.1431 253.81 24.2424C253.592 24.1374 253.577 23.8146 253.397 23.6345C252.549 22.7939 250.335 23.6345 250.335 23.6345C250.335 23.6345 249.487 25.8861 250.335 26.6892C250.553 26.9068 250.92 26.9218 251.085 27.1695C252.354 29.4887 250.26 34.6224 250.252 40.1914C250.245 45.7604 252.324 50.9016 251.048 53.2208C250.913 53.4684 250.545 53.4834 250.297 53.6936C249.449 54.5417 250.297 56.7558 250.297 56.7558C250.297 56.7558 252.511 57.6039 253.352 56.7558C253.532 56.5757 253.555 56.2604 253.772 56.1554C255.589 55.2622 259.026 56.8609 262.779 56.8684C266.532 56.8759 269.961 55.2847 271.785 56.1779C272.536 56.5381 272.874 57.4238 273.737 57.4238C274.6 57.4238 274.96 56.5456 275.688 56.1854C277.497 55.2922 280.942 56.8909 284.695 56.8984C288.447 56.9059 291.877 55.3148 293.701 56.2079C293.911 56.3205 293.934 56.6357 294.114 56.8158C294.962 57.6639 297.176 56.8158 297.176 56.8158C297.176 56.8158 298.024 54.5642 297.176 53.7536C296.956 53.5464 296.696 53.3878 296.41 53.2883Z" fill="#EBEBEB"/>
<path d="M294.459 54.2565L253.014 54.1964V26.2614L294.459 26.3214V54.2565Z" fill="#F4F4F4"/>
<path d="M68.922 162.252C68.9205 162.64 68.8039 163.02 68.5869 163.342C68.3699 163.664 68.0623 163.915 67.7029 164.063C67.3434 164.211 66.9483 164.249 66.5673 164.172C66.1864 164.095 65.8367 163.907 65.5624 163.632C65.2882 163.357 65.1016 163.006 65.0264 162.625C64.9511 162.244 64.9905 161.849 65.1395 161.49C65.2886 161.131 65.5406 160.824 65.8638 160.609C66.187 160.393 66.5669 160.278 66.9555 160.278C67.2144 160.278 67.4707 160.329 67.7098 160.428C67.9489 160.527 68.166 160.673 68.3487 160.856C68.5314 161.04 68.676 161.257 68.7744 161.497C68.8728 161.736 68.9229 161.993 68.922 162.252Z" fill="#EBEBEB"/>
<path d="M52.8906 176.047C46.6611 175.349 44.9949 172.466 44.5521 170.793C44.0117 168.751 44.7847 166.882 45.783 166.154C50.001 163.085 55.9002 168.609 56.1479 168.841L55.0596 169.982C55.0146 169.937 49.8659 165.126 46.7136 167.423C46.3532 167.823 46.1045 168.311 45.9925 168.838C45.8805 169.365 45.9092 169.913 46.0757 170.425C46.4134 171.693 47.7719 173.915 53.0707 174.5L52.8906 176.047Z" fill="#E0E0E0"/>
<path d="M84.3457 167.28C84.6186 169.736 84.0724 172.214 82.792 174.328C80.9757 177.135 78.7241 177.285 78.2888 177.285H78.2288C80.7206 176.129 82.2366 174.583 82.2366 172.902C82.2162 172.263 82.0601 171.636 81.7788 171.063C82.3491 169.853 82.6293 168.527 82.5969 167.19V167.025C82.6903 166.425 83.0012 165.88 83.4703 165.493C83.9394 165.107 84.5341 164.907 85.1412 164.931L85.4039 166.582C84.5483 166.56 84.3757 167.1 84.3457 167.28Z" fill="#E0E0E0"/>
<path d="M66.6028 162.252C63.7474 162.286 60.9429 163.013 58.4294 164.368H74.7837C72.2672 163.013 69.4605 162.287 66.6028 162.252Z" fill="#E0E0E0"/>
<path d="M81.8088 171.04C80.803 168.826 78.2362 166.162 74.7837 164.346H58.4295C53.9262 166.702 50.9241 170.5 50.9241 172.879C50.9241 176.497 57.9341 179.446 66.5878 179.446C71.2112 179.446 75.3766 178.606 78.2437 177.262C80.7355 176.107 82.2516 174.56 82.2516 172.879C82.2358 172.242 82.0849 171.615 81.8088 171.04Z" fill="#EBEBEB"/>
<path d="M108.318 178.201H93.1494C92.5024 178.171 91.8795 177.946 91.3632 177.555H110.127C109.605 177.952 108.973 178.178 108.318 178.201Z" fill="#E0E0E0"/>
<path d="M187.635 279.208C268.005 279.208 333.157 275.404 333.157 270.712C333.157 266.02 268.005 262.216 187.635 262.216C107.265 262.216 42.1128 266.02 42.1128 270.712C42.1128 275.404 107.265 279.208 187.635 279.208Z" fill="#F5F5F5"/>
<path d="M159.114 93.7649C161.104 93.7649 162.717 92.6762 162.717 91.3332C162.717 89.9902 161.104 88.9014 159.114 88.9014C157.125 88.9014 155.512 89.9902 155.512 91.3332C155.512 92.6762 157.125 93.7649 159.114 93.7649Z" fill="#4A90E2"/>
<path d="M160.315 229.057H157.883V51.2844C157.882 51.1244 157.913 50.9659 157.974 50.8179C158.035 50.6699 158.124 50.5355 158.237 50.4224C158.35 50.3093 158.485 50.2198 158.633 50.159C158.781 50.0983 158.939 50.0675 159.099 50.0685C159.422 50.0685 159.731 50.1966 159.959 50.4246C160.187 50.6526 160.315 50.9619 160.315 51.2844V229.057Z" fill="#4A90E2"/>
<path d="M160.24 120.874H157.974L156.06 92.4965H162.154L160.24 120.874Z" fill="#4A90E2"/>
<path d="M161.531 85.3813H156.69V90.2223H161.531V85.3813Z" fill="#4A90E2"/>
<path d="M168.046 245.757H150.16L150.228 245.599H167.971L168.046 245.757Z" fill="#4A90E2"/>
<path d="M171.468 239.947V245.599H146.896V239.947C148.655 239.947 150.377 239.441 151.856 238.488C153.334 237.535 154.507 236.176 155.234 234.574L158.281 227.871H159.91L162.957 234.574C163.685 236.175 164.858 237.533 166.336 238.486C167.815 239.439 169.536 239.946 171.296 239.947H171.468Z" fill="#4A90E2"/>
<path opacity="0.4" d="M171.468 239.947H171.296C169.536 239.946 167.815 239.439 166.336 238.486C164.858 237.533 163.685 236.175 162.957 234.574L160.315 228.749V119.734L162.139 92.6391C162.493 92.2946 162.7 91.8267 162.717 91.3331C162.692 90.9578 162.571 90.5953 162.364 90.2809C162.158 89.9665 161.873 89.711 161.539 89.5393V85.3814H160.315V51.2844C160.315 50.9619 160.187 50.6526 159.959 50.4246C159.731 50.1966 159.422 50.0685 159.099 50.0685C158.777 50.0685 158.468 50.1966 158.24 50.4246C158.012 50.6526 157.883 50.9619 157.883 51.2844V85.3814H156.69V89.5393C156.355 89.711 156.071 89.9665 155.864 90.2809C155.658 90.5953 155.536 90.9578 155.512 91.3331C155.527 91.8137 155.726 92.2702 156.067 92.6091L157.883 119.531V228.757L155.234 234.574C154.507 236.176 153.334 237.535 151.856 238.488C150.377 239.441 148.655 239.947 146.896 239.947V245.599H150.235L150.16 245.757H168.046L167.971 245.599H171.468V239.947Z" fill="white"/>
<path d="M188.701 82.4768C169.052 83.9554 149.32 83.9554 129.671 82.4768L137.454 54.0389C151.785 51.0517 166.579 51.0517 180.91 54.0389L188.701 82.4768Z" fill="#4A90E2"/>
<path opacity="0.7" d="M188.701 82.4768C169.052 83.9554 149.32 83.9554 129.671 82.4768L137.454 54.0389C151.785 51.0517 166.579 51.0517 180.91 54.0389L188.701 82.4768Z" fill="white"/>
<path d="M185.188 231.526H165.734L175.956 135.345C176.392 131.277 179.604 127.974 183.124 127.974H268.01L255.566 231.549L185.188 231.526Z" fill="#4A90E2"/>
<path opacity="0.1" d="M185.188 231.526H165.734L175.956 135.345C176.392 131.277 179.604 127.974 183.124 127.974H268.01L255.566 231.549L185.188 231.526Z" fill="white"/>
<path d="M180.88 223.233H148.742L146.61 195.14L146.16 189.136L145.95 186.366C145.892 185.635 145.786 184.908 145.635 184.19L145.522 183.709C145.504 183.591 145.472 183.475 145.424 183.364C144.42 180.135 142.452 177.291 139.785 175.212C137.119 173.132 133.88 171.918 130.504 171.731H160.713C161.043 171.731 161.373 171.731 161.704 171.731C165.241 171.73 168.687 172.861 171.536 174.958C174.386 177.055 176.489 180.008 177.54 183.387C177.587 183.497 177.62 183.613 177.638 183.732C177.854 184.604 177.997 185.493 178.065 186.389L178.275 189.158L180.88 223.233Z" fill="#4A90E2"/>
<path d="M180.88 223.233H148.742L146.61 195.14L146.16 189.136L145.95 186.366C145.892 185.635 145.786 184.908 145.635 184.19L145.522 183.709C145.504 183.591 145.472 183.475 145.424 183.364C144.42 180.135 142.452 177.291 139.785 175.212C137.119 173.132 133.88 171.918 130.504 171.731H160.713C161.043 171.731 161.373 171.731 161.704 171.731C165.241 171.73 168.687 172.861 171.536 174.958C174.386 177.055 176.489 180.008 177.54 183.387C177.587 183.497 177.62 183.613 177.638 183.732C177.854 184.604 177.997 185.493 178.065 186.389L178.275 189.158L180.88 223.233Z" fill="#4A90E2"/>
<path d="M246.882 231.526H266.336L276.559 135.345C276.994 131.277 274.487 127.974 270.96 127.974H264.272C260.752 127.974 257.517 131.277 257.105 135.345L246.882 231.526Z" fill="#4A90E2"/>
<path d="M210.594 201.145H222.295C225.139 201.145 227.443 203.809 227.443 207.089V217.319C227.443 220.606 225.139 223.263 222.295 223.263H210.594V201.145Z" fill="#4A90E2"/>
<g opacity="0.1">
<path d="M210.594 201.145H222.295C225.139 201.145 227.443 203.809 227.443 207.089V217.319C227.443 220.606 225.139 223.263 222.295 223.263H210.594V201.145Z" fill="#161616"/>
</g>
<path d="M152.81 223.24H211.277C213.523 223.24 215.345 221.419 215.345 219.172V205.19C215.345 202.943 213.523 201.122 211.277 201.122H152.81C150.563 201.122 148.742 202.943 148.742 205.19V219.172C148.742 221.419 150.563 223.24 152.81 223.24Z" fill="#4A90E2"/>
<path d="M284.304 188.28C284.307 192.191 282.928 195.976 280.41 198.968C277.893 201.961 274.4 203.968 270.547 204.635L267.545 244.526C267.282 247.918 264.828 250.53 261.878 250.53H229.747C232.697 250.53 235.151 247.933 235.414 244.526L237.028 223.233L238.431 204.635C240.957 204.198 243.347 203.182 245.412 201.664C247.478 200.147 249.163 198.17 250.335 195.891C250.492 195.606 250.627 195.298 250.763 194.99C251.714 192.866 252.2 190.563 252.189 188.235C252.189 187.101 252.073 185.969 251.843 184.858C251.753 184.408 251.641 183.965 251.521 183.537C250.934 181.587 250.001 179.759 248.766 178.141C247.234 176.151 245.271 174.534 243.024 173.412C240.727 172.256 238.189 171.657 235.617 171.663H267.732C270.305 171.655 272.843 172.254 275.14 173.412C277.387 174.534 279.35 176.151 280.882 178.141C283.117 181.047 284.321 184.614 284.304 188.28Z" fill="#4A90E2"/>
<path opacity="0.1" d="M284.304 188.28C284.307 192.191 282.928 195.976 280.41 198.968C277.893 201.961 274.4 203.968 270.547 204.635L267.545 244.526C267.282 247.918 264.828 250.53 261.878 250.53H229.747C232.697 250.53 235.151 247.933 235.414 244.526L237.028 223.233L238.431 204.635C240.957 204.198 243.347 203.182 245.412 201.664C247.478 200.147 249.163 198.17 250.335 195.891C250.492 195.606 250.627 195.298 250.763 194.99C251.714 192.866 252.2 190.563 252.189 188.235C252.189 187.101 252.073 185.969 251.843 184.858C251.753 184.408 251.641 183.965 251.521 183.537C250.934 181.587 250.001 179.759 248.766 178.141C247.234 176.151 245.271 174.534 243.024 173.412C240.727 172.256 238.189 171.657 235.617 171.663H267.732C270.305 171.655 272.843 172.254 275.14 173.412C277.387 174.534 279.35 176.151 280.882 178.141C283.117 181.047 284.321 184.614 284.304 188.28Z" fill="#161616"/>
<path d="M252.181 188.288C252.179 192.197 250.797 195.98 248.279 198.97C245.761 201.961 242.268 203.967 238.416 204.635L235.414 244.526C235.159 247.918 232.697 250.53 229.74 250.53H135.172C132.222 250.53 129.768 247.926 129.498 244.526L126.496 204.567C123.091 203.913 119.978 202.207 117.593 199.691C115.208 197.175 113.672 193.975 113.2 190.54C112.729 187.105 113.346 183.609 114.965 180.544C116.584 177.478 119.123 174.997 122.225 173.45C124.525 172.29 127.065 171.689 129.641 171.693C133.178 171.694 136.623 172.827 139.471 174.925C142.319 177.024 144.421 179.978 145.469 183.357C145.518 183.469 145.551 183.588 145.567 183.71C145.78 184.577 145.923 185.461 145.995 186.351L146.205 189.128L148.779 223.225H216.155L218.94 186.344C219.345 181.143 222.145 176.797 226.025 174.741C228.547 172.95 231.523 171.91 234.611 171.738C234.941 171.738 235.272 171.701 235.602 171.701C238.102 171.694 240.57 172.264 242.814 173.367C242.882 173.367 242.95 173.427 243.017 173.457C245.266 174.576 247.229 176.193 248.759 178.186C250.986 181.082 252.189 184.634 252.181 188.288Z" fill="#4A90E2"/>
<path opacity="0.1" d="M205.295 201.144C197.902 202.893 190.217 205.355 186.089 211.6C183.799 215.052 182.989 219.105 182.584 223.263C182.306 225.987 182.201 228.772 181.976 231.474C181.398 238.296 179.131 245.974 172.894 248.789C168.639 250.71 163.715 249.787 159.047 250.02C157.898 250.074 156.758 250.251 155.647 250.545H135.15C132.192 250.545 129.738 247.948 129.475 244.541L126.473 204.589C123.596 204.032 120.918 202.721 118.712 200.791C116.506 198.861 114.851 196.381 113.916 193.603C112.98 190.825 112.798 187.849 113.388 184.978C113.978 182.107 115.318 179.443 117.272 177.259C119.226 175.075 121.724 173.447 124.512 172.543C127.3 171.638 130.278 171.489 133.143 172.11C136.007 172.732 138.656 174.101 140.818 176.079C142.981 178.058 144.581 180.574 145.454 183.372C145.495 183.484 145.525 183.599 145.544 183.717C145.761 184.589 145.904 185.478 145.972 186.374L146.182 189.143L148.764 223.233H152.975C151.853 223.219 150.781 222.763 149.994 221.963C149.207 221.163 148.768 220.084 148.772 218.962V205.393C148.771 204.832 148.88 204.276 149.094 203.758C149.308 203.239 149.621 202.768 150.017 202.371C150.413 201.973 150.883 201.658 151.401 201.442C151.919 201.227 152.474 201.115 153.035 201.114L205.295 201.144Z" fill="#161616"/>
<path d="M256.729 262.951H257.825C258.119 262.934 258.397 262.812 258.61 262.609C258.823 262.406 258.957 262.133 258.989 261.841L260.595 250.515H253.952L255.566 261.841C255.597 262.133 255.732 262.406 255.944 262.609C256.157 262.812 256.435 262.934 256.729 262.951Z" fill="#4A90E2"/>
<path opacity="0.7" d="M256.729 262.951H257.825C258.119 262.934 258.397 262.812 258.61 262.609C258.823 262.406 258.957 262.133 258.989 261.841L260.595 250.515H253.952L255.566 261.841C255.597 262.133 255.732 262.406 255.944 262.609C256.157 262.812 256.435 262.934 256.729 262.951Z" fill="white"/>
<path d="M139.195 262.951H140.291C140.585 262.934 140.863 262.812 141.076 262.609C141.289 262.406 141.423 262.133 141.454 261.841L143.068 250.515H136.425L138.032 261.841C138.063 262.133 138.197 262.406 138.41 262.609C138.623 262.812 138.901 262.934 139.195 262.951Z" fill="#4A90E2"/>
<path opacity="0.5" d="M139.195 262.951H140.291C140.585 262.934 140.863 262.812 141.076 262.609C141.289 262.406 141.423 262.133 141.454 261.841L143.068 250.515H136.425L138.032 261.841C138.063 262.133 138.197 262.406 138.41 262.609C138.623 262.812 138.901 262.934 139.195 262.951Z" fill="white"/>
<path d="M173.172 262.951H174.26C174.555 262.935 174.835 262.815 175.05 262.611C175.264 262.408 175.399 262.135 175.431 261.841L177.037 250.515H170.372L171.986 261.841C172.018 262.137 172.155 262.412 172.373 262.616C172.59 262.82 172.874 262.939 173.172 262.951Z" fill="#4A90E2"/>
<path opacity="0.7" d="M173.172 262.951H174.26C174.555 262.935 174.835 262.815 175.05 262.611C175.264 262.408 175.399 262.135 175.431 261.841L177.037 250.515H170.372L171.986 261.841C172.018 262.137 172.155 262.412 172.373 262.616C172.59 262.82 172.874 262.939 173.172 262.951Z" fill="white"/>
<path d="M223.571 262.951H224.666C224.96 262.934 225.238 262.812 225.451 262.609C225.664 262.406 225.798 262.133 225.83 261.841L227.413 250.515H220.771L222.377 261.841C222.41 262.138 222.548 262.414 222.767 262.618C222.986 262.822 223.271 262.941 223.571 262.951Z" fill="#4A90E2"/>
<path opacity="0.5" d="M223.571 262.951H224.666C224.96 262.934 225.238 262.812 225.451 262.609C225.664 262.406 225.798 262.133 225.83 261.841L227.413 250.515H220.771L222.377 261.841C222.41 262.138 222.548 262.414 222.767 262.618C222.986 262.822 223.271 262.941 223.571 262.951Z" fill="white"/>
<path d="M256.977 125.122H252.159V125.873H256.977V125.122Z" fill="#4A90E2"/>
<path d="M246.89 125.122H228.029V125.873H246.89V125.122Z" fill="#4A90E2"/>
<g opacity="0.2">
<path d="M239.257 181.938C238.864 181.092 238.407 180.277 237.891 179.499C237.481 178.877 236.992 178.312 236.435 177.818C235.311 176.779 233.902 176.1 232.389 175.866C231.125 175.674 229.832 175.814 228.637 176.272C225.507 177.45 223.308 180.647 222.753 184.017C222.749 184.042 222.749 184.067 222.753 184.092L216.553 250.523H218.805L224.982 184.34C225.575 180.842 228.382 177.585 232.074 178.095C232.882 178.236 233.651 178.545 234.333 179.001C235.014 179.457 235.592 180.051 236.03 180.745C236.402 181.303 236.738 181.885 237.035 182.486L236.705 183.507C236.613 183.791 236.637 184.101 236.773 184.368C236.908 184.635 237.145 184.837 237.429 184.929C237.714 185.022 238.024 184.997 238.291 184.862C238.557 184.726 238.759 184.489 238.852 184.205L239.317 182.756C239.399 182.486 239.378 182.194 239.257 181.938Z" fill="#4F4F4F"/>
</g>
<path d="M202.495 268.858C202.406 268.869 202.315 268.869 202.225 268.858C202.081 268.823 201.945 268.76 201.826 268.672C201.706 268.584 201.605 268.474 201.529 268.347C201.452 268.22 201.401 268.079 201.379 267.932C201.357 267.786 201.364 267.636 201.4 267.492L224.013 176.85V176.774C224.477 175.233 225.304 173.825 226.424 172.669C227.545 171.513 228.926 170.643 230.453 170.132C232.284 169.607 235.099 169.517 238.169 172.076L238.229 172.129C239.17 173.031 239.861 174.163 240.232 175.413C240.603 176.663 240.642 177.989 240.345 179.259L239.279 183.882C239.256 184.037 239.201 184.185 239.117 184.317C239.033 184.45 238.923 184.563 238.794 184.651C238.664 184.739 238.518 184.799 238.364 184.827C238.21 184.855 238.051 184.851 237.899 184.815C237.747 184.779 237.603 184.712 237.478 184.618C237.353 184.524 237.249 184.405 237.172 184.269C237.095 184.133 237.047 183.982 237.031 183.826C237.016 183.671 237.032 183.513 237.08 183.364L238.176 178.718C238.382 177.836 238.356 176.916 238.101 176.046C237.845 175.177 237.37 174.389 236.72 173.757C234.904 172.256 232.967 171.738 231.098 172.256C229.934 172.665 228.883 173.344 228.03 174.236C227.177 175.128 226.546 176.208 226.19 177.39L203.584 268.01C203.523 268.253 203.383 268.468 203.186 268.622C202.989 268.776 202.746 268.859 202.495 268.858Z" fill="#4F4F4F"/>
<path d="M193.061 198.338L162.717 199.553L151.804 201.272C149.417 218.452 138.069 244.631 136.936 247.228C136.936 247.265 136.936 247.303 136.891 247.325L136.343 249.036L129.475 247.678L129.761 246.124C129.761 246.079 129.761 245.982 129.761 245.832C130.136 241.659 134.039 198.36 138.94 188.881C144.088 178.914 189.031 179.559 189.031 179.559C203.629 182.981 193.061 198.338 193.061 198.338Z" fill="#CE7A63"/>
<path d="M134.669 256.197C134.784 257.07 134.839 257.95 134.834 258.831C134.834 259.739 134.654 260.82 133.829 261.21C133.504 261.325 133.154 261.353 132.815 261.293C132.476 261.232 132.158 261.085 131.892 260.865C131.329 260.467 130.879 259.927 130.309 259.536C128.808 258.516 126.871 258.666 125.055 258.531C124.245 258.471 123.442 258.343 122.653 258.148C122.277 258.074 121.919 257.932 121.595 257.728C120.702 257.105 120.589 255.851 120.567 254.763C122.302 255.099 124.085 255.099 125.82 254.763C126.661 254.666 127.476 254.411 128.222 254.013C128.26 253.984 128.3 253.959 128.342 253.937L129.468 247.708L136.32 249.097L134.392 255.101C134.531 255.453 134.625 255.821 134.669 256.197Z" fill="#CE7A63"/>
<path d="M134.669 256.197C134.784 257.07 134.839 257.95 134.834 258.831C134.834 259.739 134.654 260.82 133.829 261.21C133.504 261.325 133.154 261.353 132.815 261.293C132.476 261.232 132.158 261.085 131.892 260.865C131.329 260.467 130.879 259.927 130.309 259.536C128.808 258.516 126.871 258.666 125.055 258.531C124.245 258.471 123.442 258.343 122.653 258.148C122.277 258.074 121.919 257.932 121.595 257.728C120.702 257.105 120.589 255.851 120.567 254.763C122.302 255.099 124.085 255.099 125.82 254.763C126.661 254.666 127.476 254.411 128.222 254.013C128.26 253.984 128.3 253.959 128.342 253.937L129.468 247.708L136.32 249.097L134.392 255.101C134.531 255.453 134.625 255.821 134.669 256.197Z" fill="#4A90E2"/>
<g opacity="0.8">
<path d="M134.669 256.197C134.784 257.07 134.839 257.95 134.834 258.831C134.834 259.739 134.654 260.82 133.829 261.21C133.504 261.325 133.154 261.353 132.815 261.293C132.476 261.232 132.158 261.085 131.892 260.865C131.329 260.467 130.879 259.927 130.309 259.536C128.808 258.516 126.871 258.666 125.055 258.531C124.245 258.471 123.442 258.343 122.653 258.148C122.277 258.074 121.919 257.932 121.595 257.728C120.702 257.105 120.589 255.851 120.567 254.763C122.302 255.099 124.085 255.099 125.82 254.763C126.661 254.666 127.476 254.411 128.222 254.013C128.26 253.984 128.3 253.959 128.342 253.937L129.468 247.708L136.32 249.097L134.392 255.101C134.531 255.453 134.625 255.821 134.669 256.197Z" fill="#CE7A63"/>
<path d="M134.669 256.197C134.784 257.07 134.839 257.95 134.834 258.831C134.834 259.739 134.654 260.82 133.829 261.21C133.504 261.325 133.154 261.353 132.815 261.293C132.476 261.232 132.158 261.085 131.892 260.865C131.329 260.467 130.879 259.927 130.309 259.536C128.808 258.516 126.871 258.666 125.055 258.531C124.245 258.471 123.442 258.343 122.653 258.148C122.277 258.074 121.919 257.932 121.595 257.728C120.702 257.105 120.589 255.851 120.567 254.763C122.302 255.099 124.085 255.099 125.82 254.763C126.661 254.666 127.476 254.411 128.222 254.013C128.26 253.984 128.3 253.959 128.342 253.937L129.468 247.708L136.32 249.097L134.392 255.101C134.531 255.453 134.625 255.821 134.669 256.197Z" fill="#4A90E2"/>
</g>
<g opacity="0.8">
<path d="M134.669 256.197C134.784 257.07 134.839 257.95 134.834 258.831C134.834 259.739 134.654 260.82 133.829 261.21C133.504 261.325 133.154 261.353 132.815 261.293C132.476 261.232 132.158 261.085 131.892 260.865C131.329 260.467 130.879 259.927 130.309 259.536C128.808 258.516 126.871 258.666 125.055 258.531C124.245 258.471 123.442 258.343 122.653 258.148C122.277 258.074 121.919 257.932 121.595 257.728C120.702 257.105 120.589 255.851 120.567 254.763C122.302 255.099 124.085 255.099 125.82 254.763C126.661 254.666 127.476 254.411 128.222 254.013C128.26 253.984 128.3 253.959 128.342 253.937L129.468 247.708L136.32 249.097L134.392 255.101C134.531 255.453 134.625 255.821 134.669 256.197Z" fill="white"/>
<path d="M134.669 256.197C134.784 257.07 134.839 257.95 134.834 258.831C134.834 259.739 134.654 260.82 133.829 261.21C133.504 261.325 133.154 261.353 132.815 261.293C132.476 261.232 132.158 261.085 131.892 260.865C131.329 260.467 130.879 259.927 130.309 259.536C128.808 258.516 126.871 258.666 125.055 258.531C124.245 258.471 123.442 258.343 122.653 258.148C122.277 258.074 121.919 257.932 121.595 257.728C120.702 257.105 120.589 255.851 120.567 254.763C122.302 255.099 124.085 255.099 125.82 254.763C126.661 254.666 127.476 254.411 128.222 254.013C128.26 253.984 128.3 253.959 128.342 253.937L129.468 247.708L136.32 249.097L134.392 255.101C134.531 255.453 134.625 255.821 134.669 256.197Z" fill="white"/>
<g opacity="0.8">
<path d="M134.669 256.197C134.784 257.07 134.839 257.95 134.834 258.831C134.834 259.739 134.654 260.82 133.829 261.21C133.504 261.325 133.154 261.353 132.815 261.293C132.476 261.232 132.158 261.085 131.892 260.865C131.329 260.467 130.879 259.927 130.309 259.536C128.808 258.516 126.871 258.666 125.055 258.531C124.245 258.471 123.442 258.343 122.653 258.148C122.277 258.074 121.919 257.932 121.595 257.728C120.702 257.105 120.589 255.851 120.567 254.763C122.302 255.099 124.085 255.099 125.82 254.763C126.661 254.666 127.476 254.411 128.222 254.013C128.26 253.984 128.3 253.959 128.342 253.937L129.468 247.708L136.32 249.097L134.392 255.101C134.531 255.453 134.625 255.821 134.669 256.197Z" fill="white"/>
<path d="M134.669 256.197C134.784 257.07 134.839 257.95 134.834 258.831C134.834 259.739 134.654 260.82 133.829 261.21C133.504 261.325 133.154 261.353 132.815 261.293C132.476 261.232 132.158 261.085 131.892 260.865C131.329 260.467 130.879 259.927 130.309 259.536C128.808 258.516 126.871 258.666 125.055 258.531C124.245 258.471 123.442 258.343 122.653 258.148C122.277 258.074 121.919 257.932 121.595 257.728C120.702 257.105 120.589 255.851 120.567 254.763C122.302 255.099 124.085 255.099 125.82 254.763C126.661 254.666 127.476 254.411 128.222 254.013C128.26 253.984 128.3 253.959 128.342 253.937L129.468 247.708L136.32 249.097L134.392 255.101C134.531 255.453 134.625 255.821 134.669 256.197Z" fill="white"/>
</g>
</g>
<path d="M137.319 245.982L136.936 247.228L136.921 247.258L136.358 249.082L136.328 249.074L129.475 247.686L129.333 247.655L129.783 245.809L130.166 244.256L137.319 245.982Z" fill="#4A90E2"/>
<path opacity="0.5" d="M137.319 245.982L136.936 247.228L136.921 247.258L136.358 249.082L136.328 249.074L129.475 247.686L129.333 247.655L129.783 245.809L130.166 244.256L137.319 245.982Z" fill="white"/>
<path d="M203.344 201.94C202.556 202.075 201.7 202.188 200.792 202.27H200.529L199.186 202.375H199.066C186.899 203.126 167.415 200.559 167.415 200.559C167.415 200.559 167.063 203.922 166.38 210.316C164.986 223.4 162.58 236.355 159.182 249.066C159.009 249.689 158.844 250.32 158.672 250.943L158.379 252.196L157.741 254.883L150.093 253.382V252.451L150.055 251.108V250.635C150.055 249.464 149.995 248.196 149.965 246.882C149.74 236.525 149.612 221.364 150.326 209.093C150.866 199.861 151.879 192.243 153.68 189.504C158.431 182.283 176.422 180.144 189.301 179.567C197.099 179.214 203.021 179.431 203.021 179.431L209.731 177.24C209.731 177.24 214.437 200.034 203.344 201.94Z" fill="#F8B07B"/>
<path d="M158.379 252.226L157.741 254.913L150.093 253.442L150.063 252.511L150.025 251.168L150.01 250.695V250.568L158.379 252.226Z" fill="#4A90E2"/>
<path opacity="0.5" d="M158.379 252.226L157.741 254.913L150.093 253.442L150.063 252.511L150.025 251.168L150.01 250.695V250.568L158.379 252.226Z" fill="white"/>
<path d="M157.493 262.869C157.733 263.533 157.775 264.253 157.613 264.94C155.572 264.715 154.611 264.317 151.759 264.19C150.817 264.245 149.881 264.006 149.08 263.507C148.396 262.851 147.85 262.065 147.473 261.195C148.194 260.884 148.846 260.435 149.395 259.874C149.657 259.532 149.971 259.233 150.325 258.989C150.325 258.628 150.138 253.472 150.138 253.472L157.786 254.973L157.245 257.27V257.33L156.615 260.265C156.969 261.111 157.263 261.981 157.493 262.869Z" fill="#CE7A63"/>
<path d="M157.493 262.869C157.733 263.533 157.775 264.253 157.613 264.94C155.572 264.715 154.611 264.317 151.759 264.19C150.817 264.245 149.881 264.006 149.08 263.507C148.396 262.851 147.85 262.065 147.473 261.195C148.194 260.884 148.846 260.435 149.395 259.874C149.657 259.532 149.971 259.233 150.325 258.989C150.325 258.628 150.138 253.472 150.138 253.472L157.786 254.973L157.245 257.27V257.33L156.615 260.265C156.969 261.111 157.263 261.981 157.493 262.869Z" fill="#4A90E2"/>
<path opacity="0.8" d="M157.493 262.869C157.733 263.533 157.775 264.253 157.613 264.94C155.572 264.715 154.611 264.317 151.759 264.19C150.817 264.245 149.881 264.006 149.08 263.507C148.396 262.851 147.85 262.065 147.473 261.195C148.194 260.884 148.846 260.435 149.395 259.874C149.657 259.532 149.971 259.233 150.325 258.989C150.325 258.628 150.138 253.472 150.138 253.472L157.786 254.973L157.245 257.27V257.33L156.615 260.265C156.969 261.111 157.263 261.981 157.493 262.869Z" fill="white"/>
<path d="M185.608 131.9C184.107 136.305 182.516 140.584 180.805 144.884C179.094 149.185 177.33 153.433 175.326 157.726L174.515 159.407C174.008 160.451 173.299 161.385 172.429 162.154C171.029 163.355 169.357 164.195 167.558 164.601C164.889 165.199 162.139 165.346 159.422 165.036C154.586 164.536 149.836 163.411 145.289 161.689L146.513 156.788L149.815 157.073C150.926 157.155 152.067 157.17 153.133 157.253C155.283 157.366 157.437 157.366 159.587 157.253C161.457 157.197 163.31 156.873 165.089 156.292C165.534 156.164 165.936 155.918 166.252 155.579C166.252 155.519 166.177 155.579 166.177 155.579L166.747 154.078C168.293 149.913 169.817 145.575 171.333 141.319C172.849 137.064 174.425 132.725 176.032 128.47L185.608 131.9Z" fill="#CE7A63"/>
<path d="M172.256 131.194C168.976 137.154 170.162 144.636 170.162 144.636L179.169 145.912C179.169 145.912 188.295 134.894 186.134 130.023C183.732 124.59 175.709 124.875 172.256 131.194Z" fill="#4A90E2"/>
<path opacity="0.6" d="M172.256 131.194C168.976 137.154 170.162 144.636 170.162 144.636L179.169 145.912C179.169 145.912 188.295 134.894 186.134 130.023C183.732 124.59 175.709 124.875 172.256 131.194Z" fill="#161616"/>
<path d="M171.869 142.536L171.753 143.33L174.493 143.73L174.609 142.936L171.869 142.536Z" fill="white"/>
<path opacity="0.2" d="M179.176 145.912L173.442 145.102C174.491 141.098 176.018 137.235 177.99 133.596C180.993 128.402 183.244 126.759 186.021 128.004C187.365 134.842 179.176 145.912 179.176 145.912Z" fill="#161616"/>
<path d="M139.525 161.411C138.933 161.326 138.365 161.125 137.852 160.818C136.02 159.317 136.831 156.578 138.317 154.746C138.377 154.671 140.058 152.885 140.126 152.81C141.739 151.099 142.828 152.727 144.539 154.311L147.961 157.538L146.318 161.816C144.524 161.943 142.723 161.877 140.944 161.621C140.614 161.569 140.073 161.486 139.525 161.374V161.411Z" fill="#CE7A63"/>
<path d="M202.3 123.674C203.224 123.674 212.538 125.258 210.864 134.084C203.734 168.751 208.402 160.698 213.694 176.377L177.54 178.328C177.54 178.328 180.392 160.968 178.508 156.758C175.318 149.658 175.236 144.329 177.397 136.823C179.792 128.567 180.782 126.271 180.782 126.271C184.1 125.273 195.208 121.587 202.3 123.674Z" fill="#4A90E2"/>
<path opacity="0.5" d="M202.3 123.674C203.224 123.674 212.538 125.258 210.864 134.084C203.734 168.751 208.402 160.698 213.694 176.377L177.54 178.328C177.54 178.328 180.392 160.968 178.508 156.758C175.318 149.658 175.236 144.329 177.397 136.823C179.792 128.567 180.782 126.271 180.782 126.271C184.1 125.273 195.208 121.587 202.3 123.674Z" fill="#161616"/>
<path d="M193.234 111.335C192.964 115.463 192.941 121.452 196.108 123.779C192.575 126.453 189.528 129.716 187.102 133.423C187.016 133.552 186.906 133.662 186.778 133.748C186.65 133.834 186.506 133.893 186.355 133.923C186.203 133.953 186.048 133.953 185.896 133.923C185.745 133.892 185.601 133.832 185.473 133.746C185.36 133.672 185.261 133.578 185.181 133.468C181.33 128.215 183.567 125.408 183.567 125.408C186.164 124.657 185.676 122.308 184.505 119.276L193.234 111.335Z" fill="#CE7A63"/>
<path opacity="0.2" d="M190.907 114.675L185.984 117.917L184.483 119.276C185.08 120.525 185.41 121.885 185.451 123.269C188.731 122.075 192.258 117.347 190.907 114.675Z" fill="#161616"/>
<path d="M192.431 101.758C193.977 108.393 194.78 111.192 192.483 115.463C189.038 121.97 180.557 122.421 177.067 116.386C173.945 110.952 171.873 101.03 177.51 96.5269C178.743 95.5302 180.211 94.8656 181.773 94.5964C183.336 94.3273 184.941 94.4624 186.437 94.989C187.932 95.5156 189.268 96.4161 190.318 97.6049C191.367 98.7937 192.094 100.231 192.431 101.781V101.758Z" fill="#CE7A63"/>
<path d="M182.141 114.915C181.859 114.966 181.572 114.991 181.285 114.99C181.264 114.992 181.242 114.99 181.222 114.983C181.202 114.977 181.183 114.966 181.167 114.952C181.151 114.938 181.137 114.921 181.128 114.902C181.119 114.882 181.114 114.861 181.113 114.84C181.113 114.794 181.131 114.75 181.163 114.718C181.196 114.686 181.24 114.667 181.285 114.667C182.005 114.667 182.715 114.498 183.358 114.173C184 113.849 184.558 113.378 184.985 112.799C185.01 112.762 185.048 112.735 185.091 112.726C185.135 112.716 185.18 112.723 185.218 112.746C185.255 112.771 185.281 112.808 185.291 112.852C185.301 112.895 185.294 112.941 185.271 112.979C184.905 113.495 184.44 113.932 183.902 114.264C183.365 114.597 182.766 114.818 182.141 114.915Z" fill="#4F4F4F"/>
<path opacity="0.2" d="M184.272 106.126C185.253 106.063 186.195 105.722 186.989 105.143C186.041 105.339 185.126 105.67 184.272 106.126Z" fill="#161616"/>
<path opacity="0.2" d="M184.34 110.922C184.948 111.485 186.201 111.628 186.937 113.324C186.168 112.425 185.297 111.619 184.34 110.922Z" fill="#161616"/>
<path opacity="0.2" d="M184.07 105.661C184.913 105.495 185.673 105.044 186.224 104.385C185.436 104.68 184.707 105.112 184.07 105.661Z" fill="#161616"/>
<path d="M182.561 106.577C182.719 107.109 182.561 107.62 182.216 107.725C181.871 107.83 181.465 107.485 181.308 106.974C181.15 106.464 181.308 105.939 181.645 105.826C181.983 105.713 182.381 106.066 182.561 106.577Z" fill="#4F4F4F"/>
<path d="M176.564 108.385C176.729 108.911 176.564 109.436 176.227 109.534C175.889 109.631 175.476 109.294 175.311 108.783C175.146 108.273 175.311 107.74 175.649 107.635C175.986 107.53 176.377 107.852 176.564 108.385Z" fill="#4F4F4F"/>
<path d="M175.814 107.552H174.44C174.44 107.552 175.386 108.37 175.814 107.552Z" fill="#4F4F4F"/>
<path d="M178.696 108.828C178.587 110.178 178.295 111.506 177.825 112.776C178.153 112.888 178.502 112.927 178.847 112.89C179.191 112.854 179.524 112.743 179.822 112.566L178.696 108.828Z" fill="#BA4D3C"/>
<path d="M195.673 106.434C195.615 107.084 195.43 107.716 195.127 108.295C194.824 108.873 194.411 109.386 193.909 109.804C192.573 110.922 191.177 109.886 190.975 108.25C190.78 106.749 191.237 104.423 192.866 103.942C193.225 103.847 193.603 103.842 193.964 103.928C194.326 104.014 194.661 104.188 194.939 104.435C195.216 104.681 195.429 104.993 195.557 105.342C195.685 105.691 195.725 106.066 195.673 106.434Z" fill="#CE7A63"/>
<path d="M183.011 102.659C182.956 102.699 182.889 102.72 182.82 102.72C182.751 102.72 182.685 102.699 182.629 102.659C181.33 101.908 179.559 102.659 179.544 102.659C179.466 102.695 179.378 102.698 179.297 102.668C179.217 102.639 179.152 102.579 179.116 102.501C179.08 102.422 179.076 102.333 179.106 102.251C179.135 102.17 179.196 102.103 179.274 102.066C179.364 102.066 181.375 101.143 182.959 102.066C182.995 102.088 183.027 102.116 183.053 102.15C183.078 102.184 183.097 102.223 183.107 102.264C183.118 102.305 183.12 102.348 183.114 102.39C183.108 102.432 183.093 102.472 183.071 102.509C183.063 102.562 183.042 102.614 183.011 102.659Z" fill="#4F4F4F"/>
<path opacity="0.8" d="M183.011 102.659C182.956 102.699 182.889 102.72 182.82 102.72C182.751 102.72 182.685 102.699 182.629 102.659C181.33 101.908 179.559 102.659 179.544 102.659C179.466 102.695 179.378 102.698 179.297 102.668C179.217 102.639 179.152 102.579 179.116 102.501C179.08 102.422 179.076 102.333 179.106 102.251C179.135 102.17 179.196 102.103 179.274 102.066C179.364 102.066 181.375 101.143 182.959 102.066C182.995 102.088 183.027 102.116 183.053 102.15C183.078 102.184 183.097 102.223 183.107 102.264C183.118 102.305 183.12 102.348 183.114 102.39C183.108 102.432 183.093 102.472 183.071 102.509C183.063 102.562 183.042 102.614 183.011 102.659Z" fill="white"/>
<path d="M176.024 103.912C176.074 103.862 176.106 103.797 176.115 103.727C176.124 103.657 176.11 103.586 176.075 103.525C176.041 103.464 175.987 103.416 175.922 103.388C175.857 103.36 175.785 103.355 175.716 103.372C175.217 103.487 174.753 103.719 174.361 104.049C173.97 104.38 173.662 104.798 173.465 105.271C173.449 105.311 173.443 105.354 173.445 105.397C173.447 105.44 173.458 105.482 173.477 105.521C173.496 105.56 173.522 105.594 173.555 105.622C173.588 105.65 173.626 105.671 173.667 105.683C173.707 105.698 173.75 105.704 173.792 105.702C173.834 105.7 173.876 105.69 173.914 105.671C173.952 105.653 173.987 105.628 174.015 105.596C174.044 105.565 174.066 105.528 174.08 105.488C174.243 105.111 174.494 104.779 174.811 104.518C175.128 104.257 175.503 104.075 175.904 103.987C175.949 103.971 175.989 103.945 176.024 103.912Z" fill="#4F4F4F"/>
<path opacity="0.8" d="M176.024 103.912C176.074 103.862 176.106 103.797 176.115 103.727C176.124 103.657 176.11 103.586 176.075 103.525C176.041 103.464 175.987 103.416 175.922 103.388C175.857 103.36 175.785 103.355 175.716 103.372C175.217 103.487 174.753 103.719 174.361 104.049C173.97 104.38 173.662 104.798 173.465 105.271C173.449 105.311 173.443 105.354 173.445 105.397C173.447 105.44 173.458 105.482 173.477 105.521C173.496 105.56 173.522 105.594 173.555 105.622C173.588 105.65 173.626 105.671 173.667 105.683C173.707 105.698 173.75 105.704 173.792 105.702C173.834 105.7 173.876 105.69 173.914 105.671C173.952 105.653 173.987 105.628 174.015 105.596C174.044 105.565 174.066 105.528 174.08 105.488C174.243 105.111 174.494 104.779 174.811 104.518C175.128 104.257 175.503 104.075 175.904 103.987C175.949 103.971 175.989 103.945 176.024 103.912Z" fill="white"/>
<path d="M181.811 105.954H180.437C180.437 105.954 181.368 106.772 181.811 105.954Z" fill="#4F4F4F"/>
<path opacity="0.2" d="M202.691 150.048C202.878 145.717 208.838 128.935 207.284 127.044C206.143 126.541 200.739 124.792 198.18 128.072C192.889 143.406 202.691 150.048 202.691 150.048Z" fill="#161616"/>
<path d="M154.431 180.625C149.23 181.375 144.006 183.109 140.171 186.629C135.863 190.577 133.671 196.289 131.915 201.858C127.961 214.346 125.398 227.234 124.274 240.285C131.104 241.148 138.017 242.041 144.434 244.526C147.954 245.884 151.316 247.723 154.986 248.601C158.656 249.479 162.86 249.262 165.764 246.845C169.074 244.09 169.81 239.377 170.312 235.099C171.113 228.344 171.914 221.589 172.714 214.834C173.097 211.6 173.637 208.08 176.107 205.925C178.171 204.139 181.075 203.816 183.792 203.569C189.279 203.066 199.238 202.398 204.725 201.895C209.978 201.422 223.053 195.673 215.833 181.315C214.534 178.726 213.941 175.439 211.292 174.268C209.633 173.517 207.742 173.727 205.94 173.923L185.879 176.174C183.177 176.482 180.362 176.519 177.825 177.51C175.086 178.628 159.632 179.889 154.431 180.625Z" fill="#4F4F4F"/>
<path d="M157.786 145.289C157.786 145.289 158.769 141.484 159.107 140.036C159.3 139.229 159.428 138.408 159.49 137.581L179.649 160.848C179.649 160.848 178.763 166.492 177.397 167.978L157.786 145.289Z" fill="#4A90E2"/>
<g opacity="0.8">
<path d="M157.786 145.289C157.786 145.289 158.769 141.484 159.107 140.036C159.3 139.229 159.428 138.408 159.49 137.581L179.649 160.848C179.649 160.848 178.763 166.492 177.397 167.978L157.786 145.289Z" fill="white"/>
</g>
<path d="M157.786 145.289C157.786 145.289 161.208 139.368 162.469 137.086C163.147 135.893 163.756 134.663 164.293 133.401L184.453 156.668C184.453 156.668 180.265 165.171 177.42 167.926L157.786 145.289Z" fill="#4A90E2"/>
<g opacity="0.9">
<path d="M157.786 145.289C157.786 145.289 161.208 139.368 162.469 137.086C163.147 135.893 163.756 134.663 164.293 133.401L184.453 156.668C184.453 156.668 180.265 165.171 177.42 167.926L157.786 145.289Z" fill="white"/>
</g>
<path d="M159.564 143.744L157.782 145.286L177.416 167.968L179.198 166.426L159.564 143.744Z" fill="#4A90E2"/>
<g opacity="0.4">
<path d="M159.564 143.744L157.782 145.286L177.416 167.968L179.198 166.426L159.564 143.744Z" fill="#161616"/>
</g>
<path d="M171.466 133.453L159.572 143.749L179.205 166.43L191.099 156.135L171.466 133.453Z" fill="#4A90E2"/>
<path d="M182.381 157.831L182.771 158.041L180.602 162.026C180.204 162.177 179.807 162.304 179.401 162.424C179.056 162.214 178.718 161.996 178.381 161.771L180.632 157.268L182.381 157.831Z" fill="#CE7A63"/>
<path d="M202.773 162.987L202.27 162.604L202.203 162.559C202.232 162.486 202.257 162.411 202.278 162.334C202.281 162.327 202.283 162.319 202.283 162.312C202.283 162.304 202.281 162.296 202.278 162.289L202.33 162.056L202.375 161.839L202.608 161.764V161.929L202.773 162.987Z" fill="#CE7A63"/>
<path d="M210.511 162.717C210.444 163.062 210.369 163.407 210.279 163.768C210.189 164.128 210.098 164.518 209.963 164.878C209.145 171.573 201.775 170.215 201.775 170.215C200.855 170.29 199.93 170.275 199.013 170.17C196.394 169.882 193.822 169.264 191.358 168.331C187.182 166.79 183.181 164.81 179.424 162.424C179.829 162.304 180.227 162.177 180.625 162.026L182.794 158.041L182.404 157.831L183.905 158.304C184.978 158.641 186.066 158.934 187.132 159.249C189.279 159.857 191.418 160.413 193.519 160.833C195.493 161.268 198.563 162.071 200.567 162.094C201.179 162.1 201.789 162.014 202.375 161.839L202.33 162.056L202.278 162.289C202.281 162.296 202.283 162.304 202.283 162.312C202.283 162.319 202.281 162.327 202.278 162.334C202.257 162.411 202.232 162.486 202.203 162.559L202.27 162.604L202.773 162.987L202.601 161.929V161.764L202.368 161.839C202.368 161.719 202.413 161.599 202.428 161.479C202.443 161.358 202.308 139.075 201.933 134.639L212.283 134.452C212.808 139.218 210.977 160.203 210.511 162.717Z" fill="#CE7A63"/>
<path d="M202.773 162.987L202.27 162.604L202.203 162.559C202.232 162.486 202.257 162.411 202.278 162.334C202.281 162.327 202.283 162.319 202.283 162.312C202.283 162.304 202.281 162.296 202.278 162.289L202.33 162.056L202.375 161.839L202.608 161.764V161.929L202.773 162.987Z" fill="#CE7A63"/>
<path d="M182.794 158.041L180.625 162.026C180.227 162.177 179.829 162.304 179.424 162.424C178.252 162.776 177.051 163.027 175.836 163.175C175.089 163.261 174.332 163.155 173.637 162.867C171.468 161.951 169.217 160.923 171.386 157.276C171.386 157.231 171.551 156.75 171.686 156.27C171.821 155.789 171.956 155.317 171.979 155.272C173.052 153.17 175.153 154.063 177.232 155.121L182.389 157.861L182.794 158.041Z" fill="#CE7A63"/>
<path d="M197.444 132.77C198.15 140.899 200.784 139.735 202.3 144.261L212.057 142.88C212.057 142.88 215.255 136.823 213.904 131.344C213.544 129.992 212.87 128.744 211.937 127.701C211.004 126.658 209.839 125.851 208.535 125.343C207.231 124.836 205.826 124.643 204.433 124.78C203.041 124.918 201.701 125.383 200.522 126.136C199.418 126.821 198.538 127.814 197.992 128.993C197.445 130.172 197.255 131.485 197.444 132.77Z" fill="#4A90E2"/>
<path opacity="0.4" d="M197.444 132.77C198.15 140.899 200.784 139.735 202.3 144.261L212.057 142.88C212.057 142.88 215.255 136.823 213.904 131.344C213.544 129.992 212.87 128.744 211.937 127.701C211.004 126.658 209.839 125.851 208.535 125.343C207.231 124.836 205.826 124.643 204.433 124.78C203.041 124.918 201.701 125.383 200.522 126.136C199.418 126.821 198.538 127.814 197.992 128.993C197.445 130.172 197.255 131.485 197.444 132.77Z" fill="#161616"/>
<path d="M205.685 140.483L202.957 140.958L203.094 141.749L205.823 141.274L205.685 140.483Z" fill="white"/>
<path d="M210.227 140.102L207.247 140.317L207.305 141.118L210.284 140.903L210.227 140.102Z" fill="white"/>
<path d="M202.923 101.751C203.518 100.857 203.896 99.8358 204.026 98.7699C204.156 97.7039 204.036 96.6222 203.674 95.6112C202.488 92.7892 199.223 91.5733 196.304 90.6576L192.288 89.4042C191.312 89.0965 190.179 88.8113 189.286 89.4042C188.393 89.9972 188.235 91.4007 188.701 92.4064C189.248 93.3807 189.98 94.2396 190.855 94.9357C193.149 97.2396 195.069 99.8886 196.544 102.786C198.608 106.359 201.144 104.7 202.923 101.751Z" fill="#4F4F4F"/>
<path opacity="0.9" d="M202.923 101.751C203.518 100.857 203.896 99.8358 204.026 98.7699C204.156 97.7039 204.036 96.6222 203.674 95.6112C202.488 92.7892 199.223 91.5733 196.304 90.6576L192.288 89.4042C191.312 89.0965 190.179 88.8113 189.286 89.4042C188.393 89.9972 188.235 91.4007 188.701 92.4064C189.248 93.3807 189.98 94.2396 190.855 94.9357C193.149 97.2396 195.069 99.8886 196.544 102.786C198.608 106.359 201.144 104.7 202.923 101.751Z" fill="white"/>
<path d="M196.439 112.776C195.508 113.6 194.331 114.094 193.091 114.18C193.686 112.803 193.963 111.31 193.902 109.811C194.403 109.394 194.817 108.881 195.118 108.303C195.42 107.724 195.603 107.092 195.658 106.441C195.705 106.133 195.687 105.819 195.606 105.518C195.479 105.07 195.217 104.673 194.856 104.38C194.494 104.087 194.051 103.913 193.587 103.882C193.368 103.862 193.147 103.88 192.934 103.935H192.859C191.485 104.34 190.945 106.074 190.922 107.492C189.571 106.494 189.001 104.49 187.995 102.989C187.004 101.58 185.547 100.565 183.882 100.122C183.202 99.9209 182.497 99.8124 181.788 99.7992C179.343 99.8228 176.981 100.696 175.108 102.268C174.794 102.536 174.466 102.786 174.125 103.019C173.936 103.139 173.735 103.237 173.525 103.312C173.229 103.428 172.903 103.446 172.596 103.366C172.288 103.285 172.014 103.108 171.813 102.861C171.693 102.569 171.643 102.252 171.667 101.936C171.692 101.621 171.791 101.315 171.956 101.045C173.786 97.043 177.008 93.8422 181.023 92.0386C181.548 91.7985 182.081 91.5883 182.621 91.4007C182.981 91.2806 183.327 91.1755 183.649 91.1005H183.747L184.25 91.0029L184.588 90.9579C189.173 90.3349 194.675 92.1062 196.776 95.8664C199.493 100.67 200.747 109.294 196.439 112.776Z" fill="#4F4F4F"/>
<path opacity="0.8" d="M196.439 112.776C195.508 113.6 194.331 114.094 193.091 114.18C193.686 112.803 193.963 111.31 193.902 109.811C194.403 109.394 194.817 108.881 195.118 108.303C195.42 107.724 195.603 107.092 195.658 106.441C195.705 106.133 195.687 105.819 195.606 105.518C195.479 105.07 195.217 104.673 194.856 104.38C194.494 104.087 194.051 103.913 193.587 103.882C193.368 103.862 193.147 103.88 192.934 103.935H192.859C191.485 104.34 190.945 106.074 190.922 107.492C189.571 106.494 189.001 104.49 187.995 102.989C187.004 101.58 185.547 100.565 183.882 100.122C183.202 99.9209 182.497 99.8124 181.788 99.7992C179.343 99.8228 176.981 100.696 175.108 102.268C174.794 102.536 174.466 102.786 174.125 103.019C173.936 103.139 173.735 103.237 173.525 103.312C173.229 103.428 172.903 103.446 172.596 103.366C172.288 103.285 172.014 103.108 171.813 102.861C171.693 102.569 171.643 102.252 171.667 101.936C171.692 101.621 171.791 101.315 171.956 101.045C173.786 97.043 177.008 93.8422 181.023 92.0386C181.548 91.7985 182.081 91.5883 182.621 91.4007C182.981 91.2806 183.327 91.1755 183.649 91.1005H183.747L184.25 91.0029L184.588 90.9579C189.173 90.3349 194.675 92.1062 196.776 95.8664C199.493 100.67 200.747 109.294 196.439 112.776Z" fill="white"/>
<path d="M175.258 106.967C174.929 106.921 174.593 106.976 174.295 107.124C173.997 107.272 173.751 107.506 173.589 107.797C173.427 108.087 173.356 108.42 173.386 108.751C173.416 109.083 173.545 109.397 173.757 109.654C174.051 110.033 174.395 110.371 174.778 110.66C175.206 111.115 175.797 111.385 176.422 111.41C176.645 111.37 176.857 111.282 177.044 111.152C177.23 111.023 177.387 110.855 177.502 110.66C177.741 110.278 177.92 109.863 178.035 109.429C178.151 109.137 178.212 108.827 178.215 108.513C178.14 107.447 176.121 106.967 175.258 106.967Z" stroke="#4F4F4F" stroke-width="0.5" stroke-linecap="round" stroke-linejoin="round"/>
<path d="M182.126 104.663C183.027 104.182 184.227 104.13 184.745 104.798C184.881 105.006 184.968 105.243 185.001 105.49C185.033 105.736 185.01 105.987 184.933 106.224C184.78 106.751 184.558 107.256 184.272 107.725C183.985 108.411 183.475 108.979 182.824 109.339C182.587 109.442 182.332 109.495 182.073 109.495C181.815 109.495 181.56 109.442 181.323 109.339C180.913 109.134 180.542 108.86 180.227 108.528C179.978 108.323 179.776 108.067 179.634 107.777C179.236 106.727 181.203 105.151 182.126 104.663Z" stroke="#4F4F4F" stroke-width="0.5" stroke-linecap="round" stroke-linejoin="round"/>
<path d="M178.14 108.723C178.106 108.73 178.07 108.73 178.035 108.723C177.995 108.694 177.967 108.651 177.957 108.602C177.947 108.553 177.956 108.503 177.983 108.46C178.097 108.301 178.241 108.167 178.408 108.065C178.574 107.963 178.76 107.896 178.953 107.867C179.147 107.838 179.344 107.849 179.533 107.898C179.722 107.947 179.899 108.034 180.054 108.153C180.089 108.188 180.108 108.235 180.108 108.284C180.108 108.333 180.089 108.38 180.054 108.415C180.037 108.433 180.017 108.448 179.995 108.457C179.972 108.467 179.948 108.472 179.923 108.472C179.898 108.472 179.874 108.467 179.851 108.457C179.829 108.448 179.808 108.433 179.792 108.415C179.678 108.33 179.548 108.269 179.41 108.236C179.272 108.202 179.129 108.197 178.989 108.22C178.846 108.238 178.709 108.285 178.587 108.358C178.464 108.432 178.358 108.531 178.276 108.648C178.259 108.669 178.239 108.687 178.216 108.7C178.193 108.712 178.167 108.72 178.14 108.723Z" fill="#4F4F4F"/>
<path d="M174.966 121.91C174.935 121.908 174.904 121.897 174.878 121.88C174.852 121.863 174.83 121.84 174.816 121.813C174.446 121.064 174.331 120.216 174.485 119.396V119.103C174.538 118.353 174.485 117.324 173.772 116.889C173.454 116.712 173.1 116.61 172.737 116.589C172.391 116.552 172.052 116.466 171.731 116.334C170.515 115.771 170.23 114.082 170.643 112.836C170.813 112.323 171.016 111.822 171.251 111.335C171.567 110.722 171.804 110.071 171.956 109.399C172.083 108.103 171.909 106.795 171.446 105.578C171.356 105.278 171.273 104.97 171.19 104.67C170.8 103.169 170.59 101.128 171.806 99.7992C172.054 99.5871 172.347 99.4353 172.664 99.3558C172.98 99.2764 173.311 99.2714 173.63 99.3414C174.173 99.4377 174.683 99.6728 175.109 100.024C175.535 100.375 175.863 100.83 176.061 101.345C176.082 101.393 176.084 101.447 176.065 101.496C176.047 101.545 176.011 101.585 175.964 101.608C175.915 101.629 175.86 101.631 175.81 101.613C175.759 101.595 175.718 101.558 175.694 101.51C175.523 101.055 175.237 100.652 174.863 100.342C174.489 100.031 174.041 99.8234 173.562 99.7392C173.309 99.6772 173.045 99.6747 172.792 99.732C172.538 99.7893 172.3 99.9048 172.099 100.069C171.003 101.263 171.213 103.169 171.581 104.573C171.656 104.873 171.746 105.173 171.828 105.481C172.27 106.427 172.481 107.465 172.445 108.508C172.408 109.552 172.125 110.572 171.618 111.485C171.385 111.971 171.187 112.472 171.025 112.986C170.695 114.105 170.89 115.538 171.903 115.988C172.19 116.099 172.491 116.173 172.797 116.206C173.215 116.241 173.622 116.364 173.99 116.566C174.665 117.002 174.966 117.872 174.883 119.141V119.441C174.746 120.177 174.841 120.937 175.153 121.617C175.182 121.662 175.191 121.717 175.18 121.769C175.169 121.82 175.138 121.866 175.093 121.895C175.052 121.91 175.009 121.915 174.966 121.91Z" fill="#4F4F4F"/>
<g opacity="0.9">
<path opacity="0.7" d="M174.966 121.91C174.935 121.908 174.904 121.897 174.878 121.88C174.852 121.863 174.83 121.84 174.816 121.813C174.446 121.064 174.331 120.216 174.485 119.396V119.103C174.538 118.353 174.485 117.324 173.772 116.889C173.454 116.712 173.1 116.61 172.737 116.589C172.391 116.552 172.052 116.466 171.731 116.334C170.515 115.771 170.23 114.082 170.643 112.836C170.813 112.323 171.016 111.822 171.251 111.335C171.567 110.722 171.804 110.071 171.956 109.399C172.083 108.103 171.909 106.795 171.446 105.578C171.356 105.278 171.273 104.97 171.19 104.67C170.8 103.169 170.59 101.128 171.806 99.7992C172.054 99.5871 172.347 99.4353 172.664 99.3558C172.98 99.2764 173.311 99.2714 173.63 99.3414C174.173 99.4377 174.683 99.6728 175.109 100.024C175.535 100.375 175.863 100.83 176.061 101.345C176.082 101.393 176.084 101.447 176.065 101.496C176.047 101.545 176.011 101.585 175.964 101.608C175.915 101.629 175.86 101.631 175.81 101.613C175.759 101.595 175.718 101.558 175.694 101.51C175.523 101.055 175.237 100.652 174.863 100.342C174.489 100.031 174.041 99.8234 173.562 99.7392C173.309 99.6772 173.045 99.6747 172.792 99.732C172.538 99.7893 172.3 99.9048 172.099 100.069C171.003 101.263 171.213 103.169 171.581 104.573C171.656 104.873 171.746 105.173 171.828 105.481C172.27 106.427 172.481 107.465 172.445 108.508C172.408 109.552 172.125 110.572 171.618 111.485C171.385 111.971 171.187 112.472 171.025 112.986C170.695 114.105 170.89 115.538 171.903 115.988C172.19 116.099 172.491 116.173 172.797 116.206C173.215 116.241 173.622 116.364 173.99 116.566C174.665 117.002 174.966 117.872 174.883 119.141V119.441C174.746 120.177 174.841 120.937 175.153 121.617C175.182 121.662 175.191 121.717 175.18 121.769C175.169 121.82 175.138 121.866 175.093 121.895C175.052 121.91 175.009 121.915 174.966 121.91Z" fill="white"/>
</g>
<path d="M181.233 129.843C181.503 132.238 182.839 134.744 185.15 135.397C185.985 135.582 186.851 135.577 187.684 135.382C188.517 135.187 189.295 134.808 189.961 134.271C191.284 133.197 192.44 131.932 193.391 130.519L196.394 126.496C197.227 125.363 198.105 124.109 198.06 122.706C198.034 122.189 197.885 121.685 197.623 121.239C197.362 120.792 196.997 120.415 196.559 120.139C195.688 119.591 194.6 119.141 193.662 119.561C193.813 120.044 193.854 120.556 193.781 121.057C193.708 121.559 193.524 122.037 193.241 122.458C192.693 123.162 191.982 123.724 191.17 124.094C190.014 124.695 188.655 125.243 187.417 124.845C186.859 124.644 186.37 124.286 186.01 123.815C185.649 123.344 185.432 122.779 185.383 122.188C183.987 121.227 183.342 122.938 182.749 123.689C181.496 125.481 180.956 127.675 181.233 129.843Z" fill="#4A90E2"/>
<path d="M202.773 162.987L202.27 162.604V162.056L202.571 161.929L202.773 162.987Z" fill="#CE7A63"/>
<path d="M129.093 150.858L129.415 151.451C129.602 151.773 129.701 152.138 129.701 152.51V155.865C129.701 157.914 131.952 159.617 134.692 159.617H135.442C136.312 159.656 137.178 159.479 137.964 159.104C138.749 158.728 139.43 158.165 139.946 157.463C140.174 157.416 140.39 157.319 140.576 157.178L142.52 155.729C142.654 155.642 142.765 155.523 142.843 155.383C142.922 155.243 142.965 155.087 142.97 154.926V153.11C142.97 152.487 142.28 151.977 141.469 151.977H140.448C140.388 151.857 140.501 151.662 140.659 151.466V151.429C140.819 151.244 140.995 151.074 141.184 150.918H141.229C141.229 150.918 141.139 150.491 140.111 150.708C139.818 150.768 139.54 150.843 139.285 150.918H139.173H139.09C138.233 150.615 137.3 150.599 136.433 150.873C135.633 150.629 134.779 150.629 133.979 150.873C134.044 150.889 134.106 150.912 134.166 150.941H133.791L133.979 150.873C133.132 150.625 132.229 150.649 131.397 150.941H131.044C130.789 150.866 130.496 150.791 130.204 150.731C129.175 150.461 129.093 150.858 129.093 150.858ZM140.351 156.623C140.351 156.585 140.396 153.936 140.403 152.81C140.403 152.532 140.704 152.314 141.079 152.314H141.507C142.032 152.314 142.467 152.637 142.467 153.065V154.709C142.467 155.257 142.467 155.227 141.919 155.624L140.351 156.623Z" fill="#4A90E2"/>
<path opacity="0.5" d="M129.093 150.858L129.415 151.451C129.602 151.773 129.701 152.138 129.701 152.51V155.865C129.701 157.914 131.952 159.617 134.692 159.617H135.442C136.312 159.656 137.178 159.479 137.964 159.104C138.749 158.728 139.43 158.165 139.946 157.463C140.174 157.416 140.39 157.319 140.576 157.178L142.52 155.729C142.654 155.642 142.765 155.523 142.843 155.383C142.922 155.243 142.965 155.087 142.97 154.926V153.11C142.97 152.487 142.28 151.977 141.469 151.977H140.448C140.388 151.857 140.501 151.662 140.659 151.466V151.429C140.819 151.244 140.995 151.074 141.184 150.918H141.229C141.229 150.918 141.139 150.491 140.111 150.708C139.818 150.768 139.54 150.843 139.285 150.918H139.173H139.09C138.233 150.615 137.3 150.599 136.433 150.873C135.633 150.629 134.779 150.629 133.979 150.873C134.044 150.889 134.106 150.912 134.166 150.941H133.791L133.979 150.873C133.132 150.625 132.229 150.649 131.397 150.941H131.044C130.789 150.866 130.496 150.791 130.204 150.731C129.175 150.461 129.093 150.858 129.093 150.858ZM140.351 156.623C140.351 156.585 140.396 153.936 140.403 152.81C140.403 152.532 140.704 152.314 141.079 152.314H141.507C142.032 152.314 142.467 152.637 142.467 153.065V154.709C142.467 155.257 142.467 155.227 141.919 155.624L140.351 156.623Z" fill="white"/>
<path d="M130.549 140.111C130.796 141.409 131.84 142.362 132.89 143.21C134.015 143.917 134.987 144.841 135.75 145.927C136.403 147.083 136.335 148.787 135.21 149.485C135.808 149.164 136.314 148.694 136.679 148.121C137.044 147.548 137.255 146.891 137.293 146.213C137.33 145.535 137.193 144.858 136.894 144.248C136.595 143.638 136.144 143.116 135.585 142.73C134.632 142.062 133.386 141.814 132.583 140.951C132.254 140.546 132.021 140.071 131.9 139.563C131.779 139.055 131.774 138.527 131.885 138.017C132.106 137.168 132.4 136.339 132.763 135.54C131.344 135.938 130.271 138.655 130.549 140.111Z" fill="white"/>
<path d="M133.874 136.598C134.48 135.616 134.897 134.529 135.104 133.393C135.24 132.253 133.889 130.391 133.889 130.391C134.458 130.76 134.943 131.244 135.313 131.813C135.682 132.381 135.928 133.022 136.033 133.692C136.139 134.361 136.102 135.046 135.925 135.701C135.748 136.355 135.435 136.966 135.007 137.491C134.426 138.181 133.745 138.78 132.988 139.27C132.793 138.362 133.438 137.439 133.874 136.598Z" fill="white"/>
<path d="M128.838 258.426C127.969 258.235 127.182 257.779 126.586 257.12C126.136 256.347 125.845 255.492 125.73 254.606C125.633 254.153 125.479 253.714 125.273 253.3C122.128 252.369 115.741 253.397 115.741 253.397C114.442 253.645 114.127 257.187 117.137 258.028C122.128 259.424 121.175 258.538 125.393 259.784C128.98 260.842 131.502 261.773 134.399 262.681C134.474 262.705 134.553 262.718 134.632 262.719C134.785 262.716 134.935 262.683 135.075 262.621C135.215 262.559 135.341 262.47 135.445 262.359C135.55 262.248 135.632 262.117 135.685 261.974C135.739 261.83 135.764 261.678 135.758 261.525V261.248C132.433 260.182 132.14 259.499 128.838 258.426Z" fill="#4F4F4F"/>
<path d="M157.613 264.94C157.532 265.195 157.384 265.423 157.185 265.601C156.886 265.812 156.538 265.942 156.174 265.979C155.809 266.016 155.442 265.958 155.106 265.811C154.416 265.571 153.801 265.151 153.11 264.918C151.301 264.302 149.357 265.023 147.481 265.406C146.638 265.579 145.782 265.682 144.922 265.713C144.515 265.749 144.105 265.708 143.713 265.593C142.625 265.218 142.152 263.972 141.807 262.869C143.67 262.703 145.484 262.181 147.151 261.33L147.451 261.18C147.827 262.05 148.373 262.836 149.057 263.492C149.858 263.991 150.794 264.23 151.737 264.175C154.611 264.302 155.549 264.7 157.613 264.94Z" fill="#CE7A63"/>
<path d="M158.867 266.899C158.784 266.911 158.701 266.911 158.619 266.899C155.437 266.809 152.615 266.584 148.629 266.547C143.953 266.502 145.177 267.125 139.683 267.155C136.373 267.155 135.667 263.462 136.921 262.839C136.921 262.839 143.135 259.934 146.61 259.972C146.932 260.323 147.207 260.714 147.428 261.135C147.805 262.005 148.351 262.791 149.035 263.447C149.836 263.946 150.772 264.185 151.714 264.13C154.596 264.235 155.527 264.633 157.568 264.88C158.131 264.948 158.777 265 159.572 265.03L159.647 265.308C159.706 265.464 159.732 265.629 159.724 265.795C159.716 265.961 159.674 266.124 159.601 266.273C159.528 266.422 159.425 266.554 159.299 266.662C159.172 266.77 159.025 266.851 158.867 266.899Z" fill="#4F4F4F"/>
</svg>
