<svg width="101" height="101" viewBox="0 0 101 101" fill="none" xmlns="http://www.w3.org/2000/svg">
<path d="M16.5416 36.4167C15.9335 33.6772 16.0268 30.8285 16.8131 28.1347C17.5994 25.441 19.0531 22.9894 21.0394 21.0072C23.0257 19.025 25.4804 17.5764 28.1758 16.7958C30.8712 16.0152 33.7201 15.9278 36.4583 16.5417C37.9654 14.1846 40.0416 12.2448 42.4956 10.9012C44.9495 9.55755 47.7022 8.85327 50.4999 8.85327C53.2977 8.85327 56.0504 9.55755 58.5043 10.9012C60.9583 12.2448 63.0345 14.1846 64.5416 16.5417C67.284 15.9251 70.1377 16.0121 72.8374 16.7946C75.5371 17.5772 77.9951 19.0298 79.9826 21.0173C81.9702 23.0049 83.4228 25.4628 84.2053 28.1625C84.9878 30.8622 85.0748 33.716 84.4583 36.4583C86.8154 37.9655 88.7551 40.0417 90.0988 42.4956C91.4424 44.9496 92.1467 47.7023 92.1467 50.5C92.1467 53.2977 91.4424 56.0504 90.0988 58.5044C88.7551 60.9583 86.8154 63.0345 84.4583 64.5417C85.0722 67.2799 84.9848 70.1287 84.2041 72.8241C83.4235 75.5195 81.975 77.9742 79.9928 79.9605C78.0106 81.9469 75.559 83.4006 72.8652 84.1868C70.1714 84.9731 67.3228 85.0665 64.5833 84.4583C63.0781 86.8244 61.0003 88.7725 58.5421 90.1222C56.084 91.4718 53.3251 92.1794 50.5208 92.1794C47.7165 92.1794 44.9576 91.4718 42.4994 90.1222C40.0413 88.7725 37.9634 86.8244 36.4583 84.4583C33.7201 85.0722 30.8712 84.9848 28.1758 84.2042C25.4804 83.4236 23.0257 81.975 21.0394 79.9928C19.0531 78.0106 17.5994 75.559 16.8131 72.8652C16.0268 70.1715 15.9335 67.3228 16.5416 64.5833C14.1664 63.0802 12.21 61.0007 10.8543 58.5384C9.49863 56.0761 8.78772 53.3109 8.78772 50.5C8.78772 47.6891 9.49863 44.9239 10.8543 42.4616C12.21 39.9993 14.1664 37.9198 16.5416 36.4167Z" fill="#0F62FE" fill-opacity="0.1" stroke="#4A90E2" stroke-width="4" stroke-linecap="round" stroke-linejoin="round"/>
<path d="M38 50.5L46.3333 58.8333L63 42.1667" stroke="#4A90E2" stroke-width="4" stroke-linecap="round" stroke-linejoin="round"/>
</svg>
